<svg width="20" height="21" viewBox="0 0 20 21" fill="none" xmlns="http://www.w3.org/2000/svg">
<path d="M16.5192 10.1351C16.3527 10.1351 16.206 10.0743 16.079 9.95278C15.9521 9.83126 15.868 9.6698 15.8267 9.46841C15.6323 8.12549 15.0478 6.96688 14.0734 5.99258C13.0991 5.01813 11.9405 4.43369 10.5976 4.23924C10.3962 4.19758 10.2347 4.1073 10.1132 3.96841C9.99165 3.82952 9.93089 3.67327 9.93089 3.49966C9.93089 3.29827 9.99644 3.14042 10.1276 3.02612C10.2588 2.91181 10.4155 2.8632 10.5976 2.88028C12.3378 3.08112 13.8207 3.79424 15.0461 5.01966C16.2715 6.24508 16.9847 7.72799 17.1857 9.46841C17.2028 9.65049 17.146 9.80716 17.0153 9.93841C16.8847 10.0695 16.7194 10.1351 16.5192 10.1351ZM13.0232 10.1351C12.874 10.1351 12.7433 10.0838 12.6311 9.98133C12.5189 9.87869 12.4313 9.73494 12.3684 9.55008C12.2252 9.10674 11.9949 8.72112 11.6776 8.3932C11.3603 8.06515 10.973 7.83487 10.5157 7.70237C10.3385 7.63959 10.1966 7.54535 10.0903 7.41966C9.98401 7.2941 9.93089 7.1614 9.93089 7.02154C9.93089 6.79501 10.0051 6.61334 10.1536 6.47653C10.3021 6.33973 10.4826 6.29536 10.6953 6.34341C11.4507 6.5191 12.1016 6.88063 12.648 7.42799C13.1944 7.97522 13.5595 8.62279 13.7434 9.3707C13.7914 9.58334 13.7408 9.7639 13.5915 9.91237C13.4423 10.0608 13.2529 10.1351 13.0232 10.1351ZM16.4407 17.8338C14.8294 17.8338 13.2028 17.4578 11.5607 16.7057C9.91859 15.9535 8.402 14.8826 7.01089 13.4932C5.61991 12.1039 4.54832 10.5874 3.79609 8.94362C3.04401 7.29987 2.66797 5.67237 2.66797 4.06112C2.66797 3.77681 2.74436 3.55674 2.89714 3.40091C3.04991 3.24508 3.26519 3.16716 3.54297 3.16716H6.39547C6.62741 3.16716 6.82991 3.23848 7.00297 3.38112C7.17602 3.52376 7.29943 3.70674 7.37318 3.93008L7.86984 6.54216C7.90832 6.7473 7.90137 6.93695 7.84901 7.11112C7.79665 7.28528 7.71811 7.41403 7.61339 7.49737L5.59755 9.4107C5.92547 9.98973 6.28602 10.5317 6.67922 11.0365C7.07241 11.5414 7.50352 12.039 7.97255 12.5292C8.44255 12.9855 8.93561 13.4113 9.45172 13.8065C9.96769 14.2018 10.5173 14.5635 11.1007 14.8915L13.2161 12.8274C13.3379 12.6949 13.453 12.6158 13.5615 12.5903C13.6698 12.5646 13.7972 12.5656 13.9436 12.5934L16.5301 13.1607C16.7566 13.2163 16.9473 13.3304 17.1023 13.503C17.2572 13.6755 17.3346 13.8734 17.3346 14.0967V16.9588C17.3346 17.2366 17.2567 17.4519 17.1009 17.6047C16.9451 17.7574 16.725 17.8338 16.4407 17.8338ZM4.95651 8.12862L6.38922 6.82424C6.44255 6.78147 6.47727 6.72272 6.49339 6.64799C6.50936 6.57313 6.50665 6.50369 6.48526 6.43966L6.13589 4.79862C6.1145 4.71306 6.07714 4.64897 6.0238 4.60633C5.97033 4.56355 5.90089 4.54216 5.81547 4.54216H4.33464C4.27047 4.54216 4.21707 4.56355 4.17443 4.60633C4.13165 4.64897 4.11026 4.70237 4.11026 4.76654C4.12623 5.36376 4.212 5.93049 4.36755 6.46674C4.52297 7.00313 4.71929 7.55709 4.95651 8.12862ZM12.4148 15.5742C12.95 15.8392 13.5154 16.035 14.1111 16.1615C14.7066 16.2882 15.248 16.3702 15.7353 16.4076C15.7994 16.4354 15.8528 16.4209 15.8955 16.3642C15.9382 16.3076 15.9596 16.2472 15.9596 16.1832V14.6767C15.9596 14.5913 15.9382 14.5219 15.8955 14.4684C15.8528 14.4151 15.7887 14.3777 15.7032 14.3563L14.1615 14.0197C14.0975 13.9983 14.0414 13.9956 13.9934 14.0117C13.9452 14.0277 13.8944 14.0624 13.8411 14.1159L12.4148 15.5742Z" fill="#399624"/>
</svg>
