<svg width="20" height="21" viewBox="0 0 20 21" fill="none" xmlns="http://www.w3.org/2000/svg">
<path d="M10.0216 14.5833C10.2093 14.5833 10.3706 14.5155 10.5058 14.3801C10.6409 14.2447 10.7085 14.0833 10.7085 13.8958V10.3541C10.7085 10.1666 10.6407 10.0051 10.5052 9.86971C10.3696 9.73429 10.208 9.66659 10.0204 9.66659C9.83273 9.66659 9.67134 9.73429 9.5362 9.86971C9.40107 10.0051 9.3335 10.1666 9.3335 10.3541V13.8958C9.3335 14.0833 9.40127 14.2447 9.53683 14.3801C9.67239 14.5155 9.83398 14.5833 10.0216 14.5833ZM9.99641 8.14742C10.1997 8.14742 10.3714 8.07867 10.5114 7.94117C10.6514 7.80353 10.7214 7.63311 10.7214 7.42992C10.7214 7.22659 10.6526 7.05492 10.515 6.91492C10.3775 6.77506 10.2071 6.70513 10.0039 6.70513C9.80058 6.70513 9.62891 6.77388 9.48891 6.91138C9.34891 7.04888 9.27891 7.21929 9.27891 7.42263C9.27891 7.62582 9.34773 7.79742 9.48537 7.93742C9.62287 8.07742 9.79322 8.14742 9.99641 8.14742ZM10.0029 18.6666C8.87357 18.6666 7.81183 18.4523 6.81766 18.0237C5.82363 17.5951 4.95891 17.0134 4.2235 16.2787C3.48808 15.5439 2.90593 14.6799 2.47704 13.6866C2.04801 12.6934 1.8335 11.6321 1.8335 10.5026C1.8335 9.36985 2.04822 8.30478 2.47766 7.30742C2.90711 6.3102 3.48988 5.44277 4.226 4.70513C4.96211 3.96735 5.82614 3.38763 6.81808 2.96596C7.80989 2.54415 8.86968 2.33325 9.99745 2.33325C11.1301 2.33325 12.195 2.54395 13.1922 2.96534C14.1893 3.38672 15.0568 3.96603 15.7947 4.70325C16.5327 5.44047 17.1125 6.30742 17.5341 7.30408C17.9559 8.30075 18.1668 9.36568 18.1668 10.4989C18.1668 11.6321 17.9561 12.6934 17.5347 13.6828C17.1134 14.6721 16.5341 15.5352 15.797 16.272C15.06 17.0088 14.1932 17.5921 13.1968 18.022C12.2004 18.4517 11.1358 18.6666 10.0029 18.6666ZM10.0002 17.2916C11.8961 17.2916 13.5021 16.6337 14.8181 15.3178C16.1339 14.0019 16.7918 12.3959 16.7918 10.4999C16.7918 8.60395 16.1339 6.99797 14.8181 5.682C13.5021 4.36617 11.8961 3.70825 10.0002 3.70825C8.10419 3.70825 6.49822 4.36617 5.18225 5.682C3.86641 6.99797 3.2085 8.60395 3.2085 10.4999C3.2085 12.3959 3.86641 14.0019 5.18225 15.3178C6.49822 16.6337 8.10419 17.2916 10.0002 17.2916Z" fill="#433F3E"/>
</svg>
