<svg width="20" height="21" viewBox="0 0 20 21" fill="none" xmlns="http://www.w3.org/2000/svg">
<path d="M4.54148 14.1457V9.1874C4.54148 8.9999 4.60926 8.83844 4.74482 8.70302C4.88037 8.56761 5.04197 8.4999 5.22961 8.4999C5.41725 8.4999 5.57864 8.56761 5.71378 8.70302C5.84892 8.83844 5.91648 8.9999 5.91648 9.1874V14.1457C5.91648 14.3332 5.84871 14.4947 5.71315 14.6301C5.5776 14.7655 5.416 14.8332 5.22836 14.8332C5.04072 14.8332 4.87933 14.7655 4.74419 14.6301C4.60905 14.4947 4.54148 14.3332 4.54148 14.1457ZM9.29148 14.1457V9.1874C9.29148 8.9999 9.35926 8.83844 9.49482 8.70302C9.63037 8.56761 9.79197 8.4999 9.97961 8.4999C10.1672 8.4999 10.3286 8.56761 10.4638 8.70302C10.5989 8.83844 10.6665 8.9999 10.6665 9.1874V14.1457C10.6665 14.3332 10.5987 14.4947 10.4632 14.6301C10.3276 14.7655 10.166 14.8332 9.97836 14.8332C9.79072 14.8332 9.62933 14.7655 9.49419 14.6301C9.35905 14.4947 9.29148 14.3332 9.29148 14.1457ZM2.67773 17.8749C2.49023 17.8749 2.32878 17.8071 2.19336 17.6716C2.05794 17.536 1.99023 17.3744 1.99023 17.1868C1.99023 16.9991 2.05794 16.8377 2.19336 16.7026C2.32878 16.5675 2.49023 16.4999 2.67773 16.4999H17.3219C17.5094 16.4999 17.6709 16.5677 17.8063 16.7032C17.9417 16.8388 18.0094 17.0004 18.0094 17.188C18.0094 17.3757 17.9417 17.5371 17.8063 17.6722C17.6709 17.8073 17.5094 17.8749 17.3219 17.8749H2.67773ZM14.0832 14.1457V9.1874C14.0832 8.9999 14.1509 8.83844 14.2865 8.70302C14.422 8.56761 14.5836 8.4999 14.7713 8.4999C14.9589 8.4999 15.1203 8.56761 15.2554 8.70302C15.3906 8.83844 15.4582 8.9999 15.4582 9.1874V14.1457C15.4582 14.3332 15.3904 14.4947 15.2548 14.6301C15.1193 14.7655 14.9577 14.8332 14.77 14.8332C14.5824 14.8332 14.421 14.7655 14.2859 14.6301C14.1507 14.4947 14.0832 14.3332 14.0832 14.1457ZM17.3444 6.83323H2.57836C2.42072 6.83323 2.28329 6.77483 2.16607 6.65802C2.04885 6.54108 1.99023 6.40414 1.99023 6.24719V5.86698C1.99023 5.76115 2.0203 5.65747 2.08044 5.55594C2.14044 5.45441 2.21773 5.38233 2.31232 5.33969L9.17607 1.97907C9.4394 1.84768 9.71329 1.78198 9.99774 1.78198C10.2822 1.78198 10.5575 1.84768 10.8236 1.97907L17.6409 5.31886C17.7392 5.384 17.8252 5.46413 17.8988 5.55927C17.9725 5.65427 18.0094 5.77052 18.0094 5.90802V6.17219C18.0094 6.3608 17.9463 6.51809 17.8202 6.64407C17.6943 6.77018 17.5357 6.83323 17.3444 6.83323ZM5.19211 5.45823H14.8075L10.2242 3.22115C10.1493 3.18907 10.0745 3.17302 9.99982 3.17302C9.9251 3.17302 9.8503 3.18907 9.77544 3.22115L5.19211 5.45823Z" fill="#399624"/>
</svg>
