<svg width="17" height="18" viewBox="0 0 17 18" fill="none" xmlns="http://www.w3.org/2000/svg">
<path d="M14.1796 17.4792C14.0493 17.4792 13.9286 17.4541 13.8175 17.4038C13.7063 17.3536 13.6005 17.2784 13.5 17.1779L9.74212 13.415C9.63906 13.3156 9.56656 13.2123 9.52462 13.1052C9.48253 12.9982 9.46149 12.8819 9.46149 12.7565C9.46149 12.6309 9.48253 12.5146 9.52462 12.4075C9.56656 12.3005 9.63906 12.1972 9.74212 12.0977L11.5448 10.2948C11.6443 10.1919 11.7475 10.1195 11.8546 10.0775C11.9618 10.0354 12.0782 10.0144 12.2036 10.0144C12.329 10.0144 12.4452 10.0354 12.5523 10.0775C12.6595 10.1195 12.7628 10.1919 12.8621 10.2948L16.6411 14.053C16.7415 14.1534 16.8168 14.2593 16.8671 14.3709C16.9173 14.4824 16.9423 14.6034 16.9423 14.7338C16.9423 14.8643 16.9214 14.9821 16.8794 15.0871C16.8373 15.1921 16.7648 15.2934 16.6619 15.3911L14.8382 17.1988C14.7387 17.3017 14.6355 17.3742 14.5284 17.4163C14.4213 17.4582 14.305 17.4792 14.1796 17.4792ZM14.1796 15.9392L15.3863 14.7323L12.1875 11.5338L10.9809 12.7405L14.1796 15.9392ZM3.79962 17.4632C3.66823 17.4632 3.54892 17.4407 3.4417 17.3959C3.33448 17.351 3.23267 17.2784 3.13628 17.1779L1.33816 15.3959C1.23774 15.2995 1.1651 15.1977 1.12024 15.0904C1.07538 14.9832 1.05295 14.8639 1.05295 14.7323C1.05295 14.6009 1.07538 14.4801 1.12024 14.3698C1.1651 14.2594 1.23774 14.1554 1.33816 14.0577L5.1267 10.2692H7.28212L8.03045 9.52087L4.76774 6.25795H3.58024L0.788574 3.46628L2.94066 1.3142L5.73232 4.10587V5.29337L8.99524 8.55608L11.3413 6.21003L9.80462 4.67316L10.4761 4.0017H9.12816L8.51441 3.40378L11.2548 0.663574L11.8525 1.26128V2.62503L12.524 1.95358L16.0211 5.41837C16.24 5.6267 16.409 5.86948 16.5282 6.1467C16.6472 6.42392 16.7067 6.71746 16.7067 7.02732C16.7067 7.3108 16.645 7.58517 16.5217 7.85045C16.3982 8.11573 16.2495 8.36219 16.0755 8.58982L14.3686 6.88295L13.1859 8.06566L12.2948 7.17462L8.23087 11.2388V13.4215L4.45837 17.1779C4.35892 17.2784 4.25566 17.351 4.14857 17.3959C4.04149 17.4407 3.92517 17.4632 3.79962 17.4632ZM3.79962 15.9232L7.15232 12.5704V11.3638H5.94545L2.59295 14.7163L3.79962 15.9232ZM3.79962 15.9232L2.59295 14.7163L3.19941 15.3167L3.79962 15.9232Z" fill="#399624"/>
</svg>
