<svg width="16" height="15" viewBox="0 0 16 15" fill="none" xmlns="http://www.w3.org/2000/svg">
<path d="M6.604 5.04342L7.36192 4.66675C7.56609 4.56633 7.77873 4.51612 7.99984 4.51612C8.22095 4.51612 8.43359 4.56633 8.63775 4.66675L9.39567 5.04342V1.66675H6.604V5.04342ZM4.104 11.6667C3.91595 11.6667 3.75435 11.5992 3.61921 11.464C3.48407 11.3289 3.4165 11.1673 3.4165 10.9792C3.4165 10.7912 3.48407 10.6296 3.61921 10.4945C3.75435 10.3593 3.91595 10.2917 4.104 10.2917H7.43734C7.62539 10.2917 7.78699 10.3593 7.92213 10.4945C8.05727 10.6296 8.12484 10.7912 8.12484 10.9792C8.12484 11.1673 8.05727 11.3289 7.92213 11.464C7.78699 11.5992 7.62539 11.6667 7.43734 11.6667H4.104ZM2.67942 14.7084C2.14303 14.7084 1.69428 14.5279 1.33317 14.1667C0.972059 13.8056 0.791504 13.3569 0.791504 12.8205V2.17966C0.791504 1.64328 0.972059 1.19453 1.33317 0.833415C1.69428 0.472304 2.14303 0.291748 2.67942 0.291748H13.3203C13.8566 0.291748 14.3054 0.472304 14.6665 0.833415C15.0276 1.19453 15.2082 1.64328 15.2082 2.17966V12.8205C15.2082 13.3569 15.0276 13.8056 14.6665 14.1667C14.3054 14.5279 13.8566 14.7084 13.3203 14.7084H2.67942ZM2.67942 13.3334H13.3203C13.4486 13.3334 13.5662 13.28 13.673 13.1732C13.7798 13.0664 13.8332 12.9488 13.8332 12.8205V2.17966C13.8332 2.05133 13.7798 1.93376 13.673 1.82696C13.5662 1.72015 13.4486 1.66675 13.3203 1.66675H10.7707V6.14592C10.7707 6.38842 10.6577 6.58689 10.4317 6.74133C10.2057 6.89564 9.9763 6.90765 9.74338 6.77737L7.99984 5.9055L6.2563 6.77737C6.02338 6.90765 5.79393 6.89564 5.56796 6.74133C5.34199 6.58689 5.229 6.38842 5.229 6.14592V1.66675H2.67942C2.55109 1.66675 2.43352 1.72015 2.32671 1.82696C2.21991 1.93376 2.1665 2.05133 2.1665 2.17966V12.8205C2.1665 12.9488 2.21991 13.0664 2.32671 13.1732C2.43352 13.28 2.55109 13.3334 2.67942 13.3334Z" fill="#433F3E"/>
</svg>
