<svg width="17" height="17" viewBox="0 0 17 17" fill="none" xmlns="http://www.w3.org/2000/svg">
<path d="M2.54344 13.145V8.18667C2.54344 7.99917 2.61122 7.83771 2.74677 7.70229C2.88233 7.56687 3.04392 7.49917 3.23156 7.49917C3.4192 7.49917 3.58059 7.56687 3.71573 7.70229C3.85087 7.83771 3.91844 7.99917 3.91844 8.18667V13.145C3.91844 13.3325 3.85066 13.494 3.7151 13.6294C3.57955 13.7648 3.41795 13.8325 3.23031 13.8325C3.04267 13.8325 2.88129 13.7648 2.74615 13.6294C2.61101 13.494 2.54344 13.3325 2.54344 13.145ZM7.29344 13.145V8.18667C7.29344 7.99917 7.36122 7.83771 7.49677 7.70229C7.63233 7.56687 7.79392 7.49917 7.98156 7.49917C8.1692 7.49917 8.33059 7.56687 8.46573 7.70229C8.60087 7.83771 8.66844 7.99917 8.66844 8.18667V13.145C8.66844 13.3325 8.60066 13.494 8.46511 13.6294C8.32955 13.7648 8.16795 13.8325 7.98031 13.8325C7.79267 13.8325 7.63129 13.7648 7.49615 13.6294C7.36101 13.494 7.29344 13.3325 7.29344 13.145ZM0.679687 16.8742C0.492187 16.8742 0.330729 16.8064 0.195313 16.6708C0.0598958 16.5353 -0.0078125 16.3737 -0.0078125 16.186C-0.0078125 15.9984 0.0598958 15.837 0.195313 15.7019C0.330729 15.5667 0.492187 15.4992 0.679687 15.4992H15.3239C15.5114 15.4992 15.6728 15.5669 15.8082 15.7025C15.9436 15.8381 16.0114 15.9997 16.0114 16.1873C16.0114 16.3749 15.9436 16.5363 15.8082 16.6715C15.6728 16.8066 15.5114 16.8742 15.3239 16.8742H0.679687ZM12.0851 13.145V8.18667C12.0851 7.99917 12.1529 7.83771 12.2884 7.70229C12.424 7.56687 12.5856 7.49917 12.7732 7.49917C12.9609 7.49917 13.1223 7.56687 13.2574 7.70229C13.3925 7.83771 13.4601 7.99917 13.4601 8.18667V13.145C13.4601 13.3325 13.3923 13.494 13.2568 13.6294C13.1212 13.7648 12.9596 13.8325 12.772 13.8325C12.5843 13.8325 12.423 13.7648 12.2878 13.6294C12.1527 13.494 12.0851 13.3325 12.0851 13.145ZM15.3464 5.8325H0.580312C0.422674 5.8325 0.285243 5.7741 0.168021 5.65729C0.0507987 5.54035 -0.0078125 5.4034 -0.0078125 5.24646V4.86625C-0.0078125 4.76042 0.022257 4.65674 0.0823959 4.55521C0.142396 4.45368 0.219688 4.3816 0.314271 4.33896L7.17802 0.978334C7.44135 0.846945 7.71524 0.78125 7.99969 0.78125C8.28413 0.78125 8.55941 0.846945 8.82552 0.978334L15.6428 4.31813C15.7411 4.38326 15.8271 4.4634 15.9007 4.55854C15.9745 4.65354 16.0114 4.76979 16.0114 4.90729V5.17146C16.0114 5.36007 15.9483 5.51736 15.8222 5.64333C15.6962 5.76944 15.5376 5.8325 15.3464 5.8325ZM3.19406 4.4575H12.8095L8.22615 2.22042C8.15129 2.18833 8.07649 2.17229 8.00177 2.17229C7.92705 2.17229 7.85226 2.18833 7.7774 2.22042L3.19406 4.4575Z" fill="#399624"/>
</svg>
