<svg width="16" height="15" viewBox="0 0 16 15" fill="none" xmlns="http://www.w3.org/2000/svg">
<path d="M6.60547 5.04268L7.36339 4.66602C7.56755 4.5656 7.78019 4.51539 8.0013 4.51539C8.22241 4.51539 8.43505 4.5656 8.63922 4.66602L9.39714 5.04268V1.66602H6.60547V5.04268ZM4.10547 11.666C3.91741 11.666 3.75582 11.5984 3.62068 11.4633C3.48554 11.3282 3.41797 11.1666 3.41797 10.9785C3.41797 10.7905 3.48554 10.6289 3.62068 10.4937C3.75582 10.3586 3.91741 10.291 4.10547 10.291H7.4388C7.62686 10.291 7.78846 10.3586 7.92359 10.4937C8.05873 10.6289 8.1263 10.7905 8.1263 10.9785C8.1263 11.1666 8.05873 11.3282 7.92359 11.4633C7.78846 11.5984 7.62686 11.666 7.4388 11.666H4.10547ZM2.68089 14.7077C2.1445 14.7077 1.69575 14.5271 1.33464 14.166C0.973524 13.8049 0.792969 13.3562 0.792969 12.8198V2.17893C0.792969 1.64254 0.973524 1.19379 1.33464 0.832682C1.69575 0.471571 2.1445 0.291016 2.68089 0.291016H13.3217C13.8581 0.291016 14.3069 0.471571 14.668 0.832682C15.0291 1.19379 15.2096 1.64254 15.2096 2.17893V12.8198C15.2096 13.3562 15.0291 13.8049 14.668 14.166C14.3069 14.5271 13.8581 14.7077 13.3217 14.7077H2.68089ZM2.68089 13.3327H13.3217C13.4501 13.3327 13.5676 13.2793 13.6744 13.1725C13.7812 13.0657 13.8346 12.9481 13.8346 12.8198V2.17893C13.8346 2.0506 13.7812 1.93303 13.6744 1.82622C13.5676 1.71942 13.4501 1.66602 13.3217 1.66602H10.7721V6.14518C10.7721 6.38768 10.6592 6.58616 10.4332 6.7406C10.2072 6.89491 9.97776 6.90692 9.74484 6.77664L8.0013 5.90477L6.25776 6.77664C6.02484 6.90692 5.7954 6.89491 5.56943 6.7406C5.34346 6.58616 5.23047 6.38768 5.23047 6.14518V1.66602H2.68089C2.55255 1.66602 2.43498 1.71942 2.32818 1.82622C2.22137 1.93303 2.16797 2.0506 2.16797 2.17893V12.8198C2.16797 12.9481 2.22137 13.0657 2.32818 13.1725C2.43498 13.2793 2.55255 13.3327 2.68089 13.3327Z" fill="#399624"/>
</svg>
