<svg width="16" height="16" viewBox="0 0 16 16" fill="none" xmlns="http://www.w3.org/2000/svg">
<path d="M2.15891 15.625C1.62252 15.625 1.17377 15.4444 0.812663 15.0833C0.451552 14.7222 0.270996 14.2735 0.270996 13.7371V1.3125C0.270996 1.125 0.338774 0.963542 0.474329 0.828125C0.609885 0.692708 0.771482 0.625 0.959121 0.625C1.14676 0.625 1.30815 0.692708 1.44329 0.828125C1.57843 0.963542 1.646 1.125 1.646 1.3125V13.7371C1.646 13.8654 1.6994 13.983 1.8062 14.0898C1.91301 14.1966 2.03058 14.25 2.15891 14.25H15.0418C15.2293 14.25 15.3908 14.3178 15.5262 14.4533C15.6616 14.5889 15.7293 14.7505 15.7293 14.9381C15.7293 15.1258 15.6616 15.2872 15.5262 15.4223C15.3908 15.5574 15.2293 15.625 15.0418 15.625H2.15891ZM4.92975 12.1667C4.68766 12.1667 4.48051 12.0806 4.30829 11.9083C4.13593 11.736 4.04975 11.5288 4.04975 11.2869V6.74833C4.04975 6.50639 4.13593 6.29931 4.30829 6.12708C4.48051 5.95472 4.68766 5.86854 4.92975 5.86854H5.02266C5.2828 5.86854 5.50516 5.96125 5.68975 6.14667C5.87419 6.33208 5.96641 6.55549 5.96641 6.81688V11.225C5.96641 11.4864 5.87419 11.7087 5.68975 11.8919C5.50516 12.0751 5.2828 12.1667 5.02266 12.1667H4.92975ZM8.92975 12.1667C8.68766 12.1667 8.48051 12.0806 8.30829 11.9083C8.13593 11.736 8.04975 11.5288 8.04975 11.2869V2.5625C8.04975 2.30236 8.14204 2.08 8.32662 1.89542C8.5112 1.71083 8.73357 1.61854 8.9937 1.61854H9.08662C9.3287 1.61854 9.53586 1.70472 9.70808 1.87708C9.8803 2.04931 9.96641 2.25639 9.96641 2.49833V11.2227C9.96641 11.4828 9.87419 11.7052 9.68975 11.8898C9.50516 12.0744 9.2828 12.1667 9.02266 12.1667H8.92975ZM12.9297 12.1667C12.6877 12.1667 12.4805 12.0806 12.3083 11.9083C12.1359 11.736 12.0497 11.5288 12.0497 11.2869V10.2292C12.0497 9.96903 12.142 9.74667 12.3266 9.56208C12.5112 9.3775 12.7336 9.28521 12.9937 9.28521H13.0866C13.3287 9.28521 13.5359 9.37139 13.7081 9.54375C13.8804 9.71597 13.9666 9.92306 13.9666 10.165V11.2227C13.9666 11.4828 13.8743 11.7052 13.6897 11.8898C13.5052 12.0744 13.2828 12.1667 13.0227 12.1667H12.9297Z" fill="#433F3E"/>
</svg>
