<svg width="16" height="15" viewBox="0 0 16 15" fill="none" xmlns="http://www.w3.org/2000/svg">
<path d="M2.55589 14.8327C2.02325 14.8327 1.57547 14.6512 1.21255 14.2881C0.849497 13.9252 0.667969 13.4774 0.667969 12.9448V2.05393C0.667969 1.52129 0.849497 1.07352 1.21255 0.710599C1.57547 0.347544 2.02325 0.166016 2.55589 0.166016H11.3186C11.5735 0.166016 11.8197 0.216849 12.0573 0.318516C12.2951 0.420182 12.5003 0.557891 12.6728 0.731641L14.769 2.82789C14.9428 3.00039 15.0805 3.20553 15.1821 3.44331C15.2838 3.68095 15.3346 3.9272 15.3346 4.18206V12.9448C15.3346 13.4774 15.1531 13.9252 14.7901 14.2881C14.4271 14.6512 13.9794 14.8327 13.4467 14.8327H2.55589ZM13.9596 3.96685L11.5338 1.54102H2.55589C2.4063 1.54102 2.28339 1.58907 2.18714 1.68518C2.09102 1.78143 2.04297 1.90435 2.04297 2.05393V12.9448C2.04297 13.0943 2.09102 13.2173 2.18714 13.3135C2.28339 13.4096 2.4063 13.4577 2.55589 13.4577H13.4467C13.5963 13.4577 13.7192 13.4096 13.8155 13.3135C13.9116 13.2173 13.9596 13.0943 13.9596 12.9448V3.96685ZM8.0038 11.5731C8.54491 11.5731 9.00616 11.3816 9.38755 10.9985C9.76894 10.6155 9.95964 10.1534 9.95964 9.61227C9.95964 9.07115 9.76811 8.60991 9.38505 8.22852C9.002 7.84713 8.53991 7.65643 7.9988 7.65643C7.45769 7.65643 6.99644 7.84796 6.61505 8.23102C6.23366 8.61407 6.04297 9.07615 6.04297 9.61727C6.04297 10.1584 6.2345 10.6196 6.61755 11.001C7.00061 11.3824 7.46269 11.5731 8.0038 11.5731ZM4.29464 5.93206H9.25922C9.52214 5.93206 9.74519 5.84046 9.92839 5.65727C10.1116 5.47393 10.2032 5.25088 10.2032 4.9881V3.79268C10.2032 3.52977 10.1116 3.30671 9.92839 3.12352C9.74519 2.94032 9.52214 2.84872 9.25922 2.84872H4.29464C4.03172 2.84872 3.80866 2.94032 3.62547 3.12352C3.44227 3.30671 3.35068 3.52977 3.35068 3.79268V4.9881C3.35068 5.25088 3.44227 5.47393 3.62547 5.65727C3.80866 5.84046 4.03172 5.93206 4.29464 5.93206ZM2.04297 3.96685V13.4577V1.54102V3.96685Z" fill="#399624"/>
</svg>
