<svg width="16" height="17" viewBox="0 0 16 17" fill="none" xmlns="http://www.w3.org/2000/svg">
<path d="M11.033 9.20812H2.74193C2.53172 9.20812 2.35551 9.1407 2.2133 9.00587C2.0711 8.87104 2 8.70397 2 8.50465C2 8.30534 2.0711 8.13826 2.2133 8.00343C2.35551 7.8686 2.53172 7.80119 2.74193 7.80119H11.033L7.39754 4.3542C7.24915 4.21351 7.17805 4.04936 7.18423 3.86177C7.19042 3.67418 7.2677 3.51004 7.41609 3.36935C7.56447 3.24038 7.73759 3.17296 7.93544 3.1671C8.13329 3.16124 8.3064 3.22865 8.45479 3.36935L13.3515 8.01223C13.4257 8.08257 13.4783 8.15878 13.5092 8.24085C13.5401 8.32292 13.5556 8.41086 13.5556 8.50465C13.5556 8.59845 13.5401 8.68638 13.5092 8.76845C13.4783 8.85052 13.4257 8.92673 13.3515 8.99708L8.45479 13.64C8.31877 13.7689 8.14874 13.8334 7.94471 13.8334C7.74068 13.8334 7.56447 13.7689 7.41609 13.64C7.2677 13.4993 7.19351 13.3322 7.19351 13.1387C7.19351 12.9453 7.2677 12.7782 7.41609 12.6375L11.033 9.20812Z" fill="#433F3E"/>
</svg>
