<svg width="17" height="18" viewBox="0 0 17 18" fill="none" xmlns="http://www.w3.org/2000/svg">
<path d="M14.1801 17.4797C14.0498 17.4797 13.9291 17.4545 13.818 17.4043C13.7068 17.3541 13.6009 17.2789 13.5005 17.1784L9.74261 13.4155C9.63955 13.3161 9.56705 13.2128 9.5251 13.1057C9.48302 12.9986 9.46198 12.8824 9.46198 12.757C9.46198 12.6314 9.48302 12.5151 9.5251 12.408C9.56705 12.3009 9.63955 12.1977 9.74261 12.0982L11.5453 10.2953C11.6448 10.1924 11.748 10.12 11.8551 10.078C11.9623 10.0359 12.0786 10.0149 12.2041 10.0149C12.3295 10.0149 12.4457 10.0359 12.5528 10.078C12.66 10.12 12.7633 10.1924 12.8626 10.2953L16.6416 14.0534C16.742 14.1539 16.8173 14.2598 16.8676 14.3714C16.9177 14.4829 16.9428 14.6039 16.9428 14.7343C16.9428 14.8648 16.9218 14.9826 16.8799 15.0876C16.8378 15.1926 16.7653 15.2939 16.6624 15.3916L14.8386 17.1993C14.7392 17.3022 14.6359 17.3747 14.5289 17.4168C14.4218 17.4587 14.3055 17.4797 14.1801 17.4797ZM14.1801 15.9397L15.3868 14.7328L12.188 11.5343L10.9814 12.7409L14.1801 15.9397ZM3.8001 17.4636C3.66872 17.4636 3.54941 17.4412 3.44219 17.3964C3.33497 17.3515 3.23316 17.2789 3.13677 17.1784L1.33865 15.3964C1.23823 15.3 1.16559 15.1982 1.12073 15.0909C1.07587 14.9837 1.05344 14.8643 1.05344 14.7328C1.05344 14.6014 1.07587 14.4806 1.12073 14.3703C1.16559 14.2599 1.23823 14.1559 1.33865 14.0582L5.12719 10.2697H7.28261L8.03094 9.52135L4.76823 6.25844H3.58073L0.789062 3.46677L2.94115 1.31469L5.73281 4.10636V5.29386L8.99573 8.55656L11.3418 6.21052L9.80511 4.67365L10.4766 4.00219H9.12865L8.5149 3.40427L11.2553 0.664062L11.853 1.26177V2.62552L12.5245 1.95406L16.0216 5.41886C16.2405 5.62719 16.4095 5.86997 16.5286 6.14719C16.6477 6.42441 16.7072 6.71795 16.7072 7.02781C16.7072 7.31129 16.6455 7.58566 16.5222 7.85094C16.3987 8.11622 16.25 8.36267 16.0759 8.59031L14.3691 6.88344L13.1864 8.06615L12.2953 7.17511L8.23135 11.2393V13.422L4.45885 17.1784C4.35941 17.2789 4.25615 17.3515 4.14906 17.3964C4.04198 17.4412 3.92566 17.4636 3.8001 17.4636ZM3.8001 15.9236L7.15281 12.5709V11.3643H5.94594L2.59344 14.7168L3.8001 15.9236ZM3.8001 15.9236L2.59344 14.7168L3.1999 15.3172L3.8001 15.9236Z" fill="#399624"/>
</svg>
