<svg width="18" height="16" viewBox="0 0 18 16" fill="none" xmlns="http://www.w3.org/2000/svg">
<path d="M4.45051 6.93794L16.8871 6.93794C17.2024 6.93794 17.4667 7.03907 17.68 7.24131C17.8933 7.44356 18 7.69417 18 7.99314C18 8.29212 17.8933 8.54273 17.68 8.74497C17.4667 8.94722 17.2024 9.04834 16.8871 9.04834L4.45051 9.04834L9.90369 14.2188C10.1263 14.4299 10.2329 14.6761 10.2236 14.9575C10.2144 15.2388 10.0984 15.4851 9.87587 15.6961C9.65329 15.8896 9.39361 15.9907 9.09684 15.9995C8.80007 16.0083 8.5404 15.9071 8.31782 15.6961L0.972712 8.73178C0.861423 8.62626 0.782593 8.51195 0.736221 8.38884C0.689852 8.26574 0.666666 8.13384 0.666666 7.99314C0.666666 7.85245 0.689852 7.72055 0.736221 7.59744C0.782593 7.47434 0.861423 7.36002 0.972712 7.2545L8.31782 0.29018C8.52185 0.0967274 8.77689 0 9.08293 0C9.38898 0 9.65329 0.0967274 9.87587 0.29018C10.0984 0.501221 10.2097 0.75183 10.2097 1.04201C10.2097 1.33219 10.0984 1.5828 9.87587 1.79384L4.45051 6.93794Z" fill="#433F3E"/>
</svg>
