<svg width="18" height="17" viewBox="0 0 18 17" fill="none" xmlns="http://www.w3.org/2000/svg">
<path d="M9.02016 12.584C9.2078 12.584 9.36918 12.5163 9.50432 12.3809C9.63946 12.2454 9.70703 12.084 9.70703 11.8965V8.35482C9.70703 8.16732 9.63925 8.00586 9.5037 7.87044C9.36814 7.73503 9.20655 7.66732 9.01891 7.66732C8.83127 7.66732 8.66988 7.73503 8.53474 7.87044C8.3996 8.00586 8.33203 8.16732 8.33203 8.35482V11.8965C8.33203 12.084 8.39981 12.2454 8.53537 12.3809C8.67092 12.5163 8.83252 12.584 9.02016 12.584ZM8.99495 6.14815C9.19828 6.14815 9.36995 6.0794 9.50995 5.9419C9.64995 5.80426 9.71995 5.63385 9.71995 5.43065C9.71995 5.22732 9.65113 5.05565 9.51349 4.91565C9.37599 4.77579 9.20564 4.70586 9.00245 4.70586C8.79911 4.70586 8.62745 4.77461 8.48745 4.91211C8.34745 5.04961 8.27745 5.22003 8.27745 5.42336C8.27745 5.62655 8.34627 5.79815 8.48391 5.93815C8.62141 6.07815 8.79175 6.14815 8.99495 6.14815ZM9.00141 16.6673C7.8721 16.6673 6.81036 16.453 5.8162 16.0244C4.82217 15.5958 3.95745 15.0141 3.22203 14.2794C2.48661 13.5447 1.90446 12.6807 1.47557 11.6873C1.04655 10.6941 0.832031 9.6328 0.832031 8.50336C0.832031 7.37058 1.04675 6.30551 1.4762 5.30815C1.90564 4.31093 2.48842 3.4435 3.22453 2.70586C3.96064 1.96808 4.82467 1.38836 5.81662 0.966693C6.80842 0.544887 7.86821 0.333984 8.99599 0.333984C10.1286 0.333984 11.1936 0.544679 12.1908 0.966068C13.1879 1.38746 14.0554 1.96676 14.7933 2.70398C15.5312 3.44121 16.111 4.30815 16.5327 5.30482C16.9545 6.30148 17.1654 7.36642 17.1654 8.49961C17.1654 9.6328 16.9547 10.6941 16.5333 11.6836C16.1119 12.6729 15.5327 13.5359 14.7956 14.2727C14.0585 15.0095 13.1918 15.5929 12.1954 16.0227C11.199 16.4525 10.1343 16.6673 9.00141 16.6673ZM8.9987 15.2923C10.8947 15.2923 12.5006 14.6344 13.8166 13.3186C15.1324 12.0026 15.7904 10.3966 15.7904 8.50065C15.7904 6.60468 15.1324 4.99871 13.8166 3.68273C12.5006 2.3669 10.8947 1.70898 8.9987 1.70898C7.10273 1.70898 5.49675 2.3669 4.18078 3.68273C2.86495 4.99871 2.20703 6.60468 2.20703 8.50065C2.20703 10.3966 2.86495 12.0026 4.18078 13.3186C5.49675 14.6344 7.10273 15.2923 8.9987 15.2923Z" fill="#399624"/>
</svg>
