<svg width="16" height="15" viewBox="0 0 16 15" fill="none" xmlns="http://www.w3.org/2000/svg">
<path d="M2.55442 14.8334C2.02178 14.8334 1.574 14.6519 1.21109 14.2888C0.848032 13.9259 0.666504 13.4781 0.666504 12.9455V2.05466C0.666504 1.52203 0.848032 1.07425 1.21109 0.711332C1.574 0.348276 2.02178 0.166748 2.55442 0.166748H11.3171C11.572 0.166748 11.8182 0.217582 12.0559 0.319248C12.2937 0.420915 12.4988 0.558624 12.6713 0.732374L14.7675 2.82862C14.9413 3.00112 15.079 3.20626 15.1807 3.44404C15.2823 3.68168 15.3332 3.92793 15.3332 4.18279V12.9455C15.3332 13.4781 15.1516 13.9259 14.7886 14.2888C14.4257 14.6519 13.9779 14.8334 13.4453 14.8334H2.55442ZM13.9582 3.96758L11.5323 1.54175H2.55442C2.40484 1.54175 2.28192 1.5898 2.18567 1.68591C2.08956 1.78216 2.0415 1.90508 2.0415 2.05466V12.9455C2.0415 13.0951 2.08956 13.218 2.18567 13.3142C2.28192 13.4104 2.40484 13.4584 2.55442 13.4584H13.4453C13.5948 13.4584 13.7178 13.4104 13.814 13.3142C13.9101 13.218 13.9582 13.0951 13.9582 12.9455V3.96758ZM8.00234 11.5738C8.54345 11.5738 9.0047 11.3823 9.38609 10.9992C9.76748 10.6162 9.95817 10.1541 9.95817 9.613C9.95817 9.07189 9.76664 8.61064 9.38359 8.22925C9.00053 7.84786 8.53845 7.65717 7.99734 7.65717C7.45623 7.65717 6.99498 7.84869 6.61359 8.23175C6.2322 8.6148 6.0415 9.07689 6.0415 9.618C6.0415 10.1591 6.23303 10.6204 6.61609 11.0017C6.99914 11.3831 7.46123 11.5738 8.00234 11.5738ZM4.29317 5.93279H9.25775C9.52067 5.93279 9.74373 5.84119 9.92692 5.658C10.1101 5.47467 10.2017 5.25161 10.2017 4.98883V3.79342C10.2017 3.5305 10.1101 3.30744 9.92692 3.12425C9.74373 2.94105 9.52067 2.84946 9.25775 2.84946H4.29317C4.03025 2.84946 3.8072 2.94105 3.624 3.12425C3.44081 3.30744 3.34921 3.5305 3.34921 3.79342V4.98883C3.34921 5.25161 3.44081 5.47467 3.624 5.658C3.8072 5.84119 4.03025 5.93279 4.29317 5.93279ZM2.0415 3.96758V13.4584V1.54175V3.96758Z" fill="#399624"/>
</svg>
