<svg width="20" height="21" viewBox="0 0 20 21" fill="none" xmlns="http://www.w3.org/2000/svg">
<path d="M18.1654 5.92893V15.0698C18.1654 15.6024 17.9838 16.0502 17.6208 16.4131C17.2579 16.7762 16.8101 16.9577 16.2774 16.9577H3.71995C3.18731 16.9577 2.73953 16.7762 2.37661 16.4131C2.01356 16.0502 1.83203 15.6024 1.83203 15.0698V5.92893C1.83203 5.39629 2.01356 4.94852 2.37661 4.5856C2.73953 4.22254 3.18731 4.04102 3.71995 4.04102H16.2774C16.8101 4.04102 17.2579 4.22254 17.6208 4.5856C17.9838 4.94852 18.1654 5.39629 18.1654 5.92893ZM3.20703 7.38081H16.7904V5.92893C16.7904 5.8006 16.737 5.68303 16.6302 5.57622C16.5234 5.46942 16.4058 5.41602 16.2774 5.41602H3.71995C3.59161 5.41602 3.47405 5.46942 3.36724 5.57622C3.26043 5.68303 3.20703 5.8006 3.20703 5.92893V7.38081ZM3.20703 10.2429V15.0698C3.20703 15.1981 3.26043 15.3157 3.36724 15.4225C3.47405 15.5293 3.59161 15.5827 3.71995 15.5827H16.2774C16.4058 15.5827 16.5234 15.5293 16.6302 15.4225C16.737 15.3157 16.7904 15.1981 16.7904 15.0698V10.2429H3.20703Z" fill="#399624"/>
</svg>
