<svg width="20" height="21" viewBox="0 0 20 21" fill="none" xmlns="http://www.w3.org/2000/svg">
<path d="M16.5178 10.1346C16.3512 10.1346 16.2045 10.0738 16.0775 9.9523C15.9506 9.83077 15.8665 9.66931 15.8253 9.46792C15.6308 8.12501 15.0464 6.96639 14.0719 5.99209C13.0976 5.01764 11.939 4.4332 10.5961 4.23876C10.3947 4.19709 10.2332 4.10681 10.1117 3.96792C9.99018 3.82903 9.92942 3.67278 9.92942 3.49917C9.92942 3.29778 9.99498 3.13994 10.1261 3.02563C10.2573 2.91132 10.414 2.86271 10.5961 2.8798C12.3364 3.08063 13.8192 3.79375 15.0446 5.01917C16.27 6.24459 16.9832 7.72751 17.1842 9.46792C17.2013 9.65001 17.1445 9.80667 17.0138 9.93792C16.8832 10.069 16.7179 10.1346 16.5178 10.1346ZM13.0217 10.1346C12.8725 10.1346 12.7419 10.0833 12.6296 9.98084C12.5174 9.8782 12.4298 9.73445 12.3669 9.54959C12.2237 9.10625 11.9934 8.72063 11.6761 8.39271C11.3589 8.06466 10.9716 7.83438 10.5142 7.70188C10.337 7.6391 10.1952 7.54487 10.0888 7.41917C9.98255 7.29362 9.92942 7.16091 9.92942 7.02105C9.92942 6.79452 10.0037 6.61285 10.1521 6.47605C10.3006 6.33924 10.4812 6.29487 10.6938 6.34292C11.4492 6.51862 12.1001 6.88014 12.6465 7.42751C13.1929 7.97473 13.558 8.6223 13.7419 9.37021C13.79 9.58285 13.7394 9.76341 13.59 9.91188C13.4409 10.0604 13.2514 10.1346 13.0217 10.1346ZM16.4392 17.8333C14.828 17.8333 13.2013 17.4573 11.5592 16.7052C9.91713 15.953 8.40053 14.8822 7.00942 13.4927C5.61845 12.1034 4.54685 10.5869 3.79463 8.94313C3.04255 7.29938 2.6665 5.67188 2.6665 4.06063C2.6665 3.77632 2.74289 3.55625 2.89567 3.40042C3.04845 3.24459 3.26373 3.16667 3.5415 3.16667H6.394C6.62595 3.16667 6.82845 3.23799 7.0015 3.38063C7.17456 3.52327 7.29796 3.70626 7.37171 3.92959L7.86838 6.54167C7.90685 6.74681 7.89991 6.93646 7.84755 7.11063C7.79518 7.2848 7.71664 7.41355 7.61192 7.49688L5.59609 9.41021C5.924 9.98924 6.28456 10.5312 6.67775 11.036C7.07095 11.5409 7.50206 12.0385 7.97109 12.5288C8.44109 12.985 8.93414 13.4108 9.45025 13.806C9.96623 14.2013 10.5159 14.563 11.0992 14.891L13.2146 12.8269C13.3364 12.6944 13.4516 12.6154 13.56 12.5898C13.6684 12.5641 13.7957 12.5651 13.9421 12.5929L16.5286 13.1602C16.7551 13.2158 16.9459 13.3299 17.1009 13.5025C17.2557 13.675 17.3332 13.8729 17.3332 14.0963V16.9583C17.3332 17.2361 17.2553 17.4514 17.0994 17.6042C16.9436 17.7569 16.7235 17.8333 16.4392 17.8333ZM4.95505 8.12813L6.38775 6.82375C6.44109 6.78098 6.47581 6.72223 6.49192 6.64751C6.50789 6.57264 6.50518 6.5032 6.4838 6.43917L6.13442 4.79813C6.11303 4.71257 6.07567 4.64848 6.02234 4.60584C5.96886 4.56306 5.89942 4.54167 5.814 4.54167H4.33317C4.269 4.54167 4.2156 4.56306 4.17296 4.60584C4.13018 4.64848 4.1088 4.70188 4.1088 4.76605C4.12477 5.36327 4.21053 5.93001 4.36609 6.46626C4.5215 7.00264 4.71782 7.5566 4.95505 8.12813ZM12.4134 15.5738C12.9485 15.8388 13.5139 16.0345 14.1096 16.161C14.7052 16.2877 15.2466 16.3697 15.7338 16.4071C15.798 16.4349 15.8514 16.4204 15.894 16.3638C15.9368 16.3071 15.9582 16.2467 15.9582 16.1827V14.6763C15.9582 14.5908 15.9368 14.5214 15.894 14.4679C15.8514 14.4146 15.7873 14.3772 15.7017 14.3558L14.16 14.0192C14.096 13.9978 14.04 13.9951 13.9919 14.0113C13.9437 14.0272 13.893 14.0619 13.8396 14.1154L12.4134 15.5738Z" fill="#399624"/>
</svg>
