<svg width="20" height="21" viewBox="0 0 20 21" fill="none" xmlns="http://www.w3.org/2000/svg">
<path d="M4.55426 18.6663C4.01467 18.6663 3.56509 18.4866 3.20551 18.1272C2.84606 17.7676 2.66634 17.318 2.66634 16.7784V7.32342C2.42704 7.18745 2.22829 6.9796 2.07009 6.69988C1.91204 6.42002 1.83301 6.11558 1.83301 5.78655V4.22092C1.83301 3.68134 2.01273 3.23176 2.37217 2.87217C2.73176 2.51273 3.18134 2.33301 3.72092 2.33301H16.2784C16.818 2.33301 17.2676 2.51273 17.6272 2.87217C17.9866 3.23176 18.1663 3.68134 18.1663 4.22092V5.78655C18.1663 6.11558 18.0873 6.42002 17.9293 6.69988C17.7711 6.9796 17.5723 7.18745 17.333 7.32342V16.7784C17.333 17.318 17.1533 17.7676 16.7938 18.1272C16.4343 18.4866 15.9847 18.6663 15.4451 18.6663H4.55426ZM4.04134 7.67426V16.7193C4.04134 16.8902 4.1028 17.0318 4.22572 17.1438C4.34849 17.2561 4.50072 17.3122 4.68238 17.3122H15.4659C15.6155 17.3122 15.7384 17.2641 15.8347 17.168C15.9308 17.0718 15.9788 16.9488 15.9788 16.7993V7.67426H4.04134ZM3.70009 6.32009H16.2993C16.4488 6.32009 16.5718 6.27204 16.668 6.17593C16.7641 6.07981 16.8122 5.95697 16.8122 5.80738V4.22092C16.8122 4.07134 16.7641 3.94842 16.668 3.85217C16.5718 3.75606 16.4488 3.70801 16.2993 3.70801H3.70009C3.55051 3.70801 3.42759 3.75606 3.33134 3.85217C3.23523 3.94842 3.18717 4.07134 3.18717 4.22092V5.80738C3.18717 5.95697 3.23523 6.07981 3.33134 6.17593C3.42759 6.27204 3.55051 6.32009 3.70009 6.32009ZM8.25134 11.7834H11.7849C11.9754 11.7834 12.1304 11.7209 12.2499 11.5959C12.3695 11.4709 12.4293 11.3131 12.4293 11.1224C12.4293 10.9316 12.3695 10.7766 12.2499 10.6576C12.1304 10.5384 11.9754 10.4788 11.7849 10.4788H8.2353C8.04474 10.4788 7.88974 10.5386 7.7703 10.6582C7.65072 10.7778 7.59092 10.933 7.59092 11.1238C7.59092 11.3145 7.65336 11.4721 7.77822 11.5965C7.90308 11.7211 8.06079 11.7834 8.25134 11.7834Z" fill="#399624"/>
</svg>
