<svg width="16" height="15" viewBox="0 0 16 15" fill="none" xmlns="http://www.w3.org/2000/svg">
<path d="M2.55491 14.8337C2.02227 14.8337 1.57449 14.6521 1.21158 14.2891C0.84852 13.9262 0.666992 13.4784 0.666992 12.9457V2.05491C0.666992 1.52227 0.84852 1.07449 1.21158 0.711576C1.57449 0.34852 2.02227 0.166992 2.55491 0.166992H11.3176C11.5725 0.166992 11.8187 0.217826 12.0564 0.319492C12.2941 0.421159 12.4993 0.558868 12.6718 0.732618L14.768 2.82887C14.9418 3.00137 15.0795 3.20651 15.1812 3.44428C15.2828 3.68192 15.3337 3.92817 15.3337 4.18303V12.9457C15.3337 13.4784 15.1521 13.9262 14.7891 14.2891C14.4262 14.6521 13.9784 14.8337 13.4457 14.8337H2.55491ZM13.9587 3.96783L11.5328 1.54199H2.55491C2.40533 1.54199 2.28241 1.59005 2.18616 1.68616C2.09005 1.78241 2.04199 1.90533 2.04199 2.05491V12.9457C2.04199 13.0953 2.09005 13.2182 2.18616 13.3145C2.28241 13.4106 2.40533 13.4587 2.55491 13.4587H13.4457C13.5953 13.4587 13.7182 13.4106 13.8145 13.3145C13.9106 13.2182 13.9587 13.0953 13.9587 12.9457V3.96783ZM8.00283 11.5741C8.54394 11.5741 9.00519 11.3825 9.38658 10.9995C9.76796 10.6164 9.95866 10.1544 9.95866 9.61324C9.95866 9.07213 9.76713 8.61088 9.38408 8.22949C9.00102 7.8481 8.53894 7.65741 7.99783 7.65741C7.45671 7.65741 6.99546 7.84894 6.61408 8.23199C6.23269 8.61505 6.04199 9.07713 6.04199 9.61824C6.04199 10.1594 6.23352 10.6206 6.61658 11.002C6.99963 11.3834 7.46171 11.5741 8.00283 11.5741ZM4.29366 5.93303H9.25824C9.52116 5.93303 9.74422 5.84144 9.92741 5.65824C10.1106 5.47491 10.2022 5.25185 10.2022 4.98908V3.79366C10.2022 3.53074 10.1106 3.30769 9.92741 3.12449C9.74422 2.9413 9.52116 2.8497 9.25824 2.8497H4.29366C4.03074 2.8497 3.80769 2.9413 3.62449 3.12449C3.4413 3.30769 3.3497 3.53074 3.3497 3.79366V4.98908C3.3497 5.25185 3.4413 5.47491 3.62449 5.65824C3.80769 5.84144 4.03074 5.93303 4.29366 5.93303ZM2.04199 3.96783V13.4587V1.54199V3.96783Z" fill="#399624"/>
</svg>
