<svg width="17" height="13" viewBox="0 0 17 13" fill="none" xmlns="http://www.w3.org/2000/svg">
<path d="M5.66513 13C5.36138 13 5.07353 12.9335 4.80159 12.8004C4.52978 12.6672 4.30589 12.4832 4.12992 12.2483L0.663672 7.63625C0.417838 7.29014 0.294922 6.91139 0.294922 6.5C0.294922 6.08861 0.417838 5.70986 0.663672 5.36375L4.12992 0.751667C4.30589 0.516806 4.52978 0.332778 4.80159 0.199584C5.07353 0.0665281 5.36138 0 5.66513 0H14.2789C14.8158 0 15.2647 0.180416 15.6255 0.54125C15.9864 0.902083 16.1668 1.35097 16.1668 1.88792V11.1121C16.1668 11.649 15.9864 12.0979 15.6255 12.4588C15.2647 12.8196 14.8158 13 14.2789 13H5.66513ZM5.6443 11.6458H14.2997C14.4493 11.6458 14.5722 11.5978 14.6685 11.5017C14.7646 11.4054 14.8126 11.2825 14.8126 11.1329V1.86708C14.8126 1.7175 14.7646 1.59458 14.6685 1.49833C14.5722 1.40222 14.4493 1.35417 14.2997 1.35417H5.6443C5.55888 1.35417 5.48145 1.37021 5.41201 1.40229C5.34256 1.43438 5.2811 1.48243 5.22763 1.54646L1.76138 6.17958C1.68652 6.27569 1.64909 6.3825 1.64909 6.5C1.64909 6.6175 1.68652 6.72431 1.76138 6.82042L5.22763 11.4535C5.2811 11.5176 5.34256 11.5656 5.41201 11.5977C5.48145 11.6298 5.55888 11.6458 5.6443 11.6458ZM6.69555 7.26604C6.89541 7.26604 7.07305 7.18833 7.22846 7.03292C7.38388 6.87736 7.46159 6.69972 7.46159 6.5C7.46159 6.30028 7.38388 6.12264 7.22846 5.96708C7.07305 5.81167 6.89541 5.73396 6.69555 5.73396C6.49583 5.73396 6.31826 5.81167 6.16284 5.96708C6.00742 6.12264 5.92971 6.30028 5.92971 6.5C5.92971 6.69972 6.00742 6.87736 6.16284 7.03292C6.31826 7.18833 6.49583 7.26604 6.69555 7.26604ZM9.36221 7.26604C9.56208 7.26604 9.73971 7.18833 9.89513 7.03292C10.0505 6.87736 10.1283 6.69972 10.1283 6.5C10.1283 6.30028 10.0505 6.12264 9.89513 5.96708C9.73971 5.81167 9.56208 5.73396 9.36221 5.73396C9.16249 5.73396 8.98492 5.81167 8.82951 5.96708C8.67409 6.12264 8.59638 6.30028 8.59638 6.5C8.59638 6.69972 8.67409 6.87736 8.82951 7.03292C8.98492 7.18833 9.16249 7.26604 9.36221 7.26604ZM12.0289 7.26604C12.2287 7.26604 12.4064 7.18833 12.5618 7.03292C12.7172 6.87736 12.7949 6.69972 12.7949 6.5C12.7949 6.30028 12.7172 6.12264 12.5618 5.96708C12.4064 5.81167 12.2287 5.73396 12.0289 5.73396C11.8292 5.73396 11.6516 5.81167 11.4962 5.96708C11.3408 6.12264 11.263 6.30028 11.263 6.5C11.263 6.69972 11.3408 6.87736 11.4962 7.03292C11.6516 7.18833 11.8292 7.26604 12.0289 7.26604Z" fill="#399624"/>
</svg>
