<?xml version="1.0" encoding="utf-8"?>
<!-- Generator: Adobe Illustrator 27.7.0, SVG Export Plug-In . SVG Version: 6.00 Build 0)  -->
<svg version="1.1" id="Layer_1" xmlns="http://www.w3.org/2000/svg" xmlns:xlink="http://www.w3.org/1999/xlink" x="0px" y="0px"
	 viewBox="0 0 18 16" style="enable-background:new 0 0 18 16;" xml:space="preserve">
<path d="M9.2,14.2c0.2,0.2,0.3,0.5,0.3,0.8s-0.1,0.5-0.3,0.8C9,15.9,8.7,16,8.4,16c-0.3,0-0.6-0.1-0.8-0.3l-7.3-7
	C0.2,8.6,0.1,8.5,0.1,8.4C0,8.3,0,8.1,0,8c0-0.1,0-0.3,0.1-0.4c0-0.1,0.1-0.2,0.2-0.3l7.3-7C7.9,0.1,8.1,0,8.4,0S9,0.1,9.2,0.3
	C9.4,0.5,9.5,0.8,9.6,1c0,0.3-0.1,0.5-0.3,0.7L3.8,7h12.4c0.3,0,0.6,0.1,0.8,0.3c0.2,0.2,0.3,0.5,0.3,0.8c0,0.3-0.1,0.5-0.3,0.8
	c-0.2,0.2-0.5,0.3-0.8,0.3H3.8L9.2,14.2z"/>
</svg>
