<svg width="68" height="61" viewBox="0 0 68 61" fill="none" xmlns="http://www.w3.org/2000/svg">
<path d="M33.0068 57.4736C33.4424 57.4736 33.8888 57.3753 34.346 57.1786C34.8032 56.9825 35.173 56.7434 35.4552 56.4611L61.4427 30.4736C62.2799 29.6364 62.9263 28.7797 63.3818 27.9036C63.8368 27.0275 64.0643 26.0659 64.0643 25.0186C64.0643 23.9586 63.8368 22.9298 63.3818 21.932C62.9263 20.9342 62.2799 20.0228 61.4427 19.1978L48.9427 6.6978C48.1177 5.86058 47.2705 5.24642 46.401 4.85531C45.531 4.4642 44.5663 4.26864 43.5068 4.26864C42.4596 4.26864 41.4874 4.4642 40.5902 4.85531C39.6924 5.24642 38.8463 5.86058 38.0518 6.6978L35.1477 9.60197L41.3143 15.7878C41.9766 16.4373 42.4702 17.1767 42.7952 18.0061C43.1196 18.835 43.2818 19.6767 43.2818 20.5311C43.2818 22.2667 42.7146 23.7017 41.5802 24.8361C40.4457 25.9706 39.011 26.5378 37.276 26.5378C36.421 26.5378 35.5866 26.4075 34.7727 26.147C33.9588 25.8864 33.2268 25.4311 32.5768 24.7811L27.6735 19.897C27.2885 19.5125 26.7968 19.3203 26.1985 19.3203C25.6007 19.3203 25.1093 19.5125 24.7243 19.897L11.8077 32.8136C11.4705 33.1514 11.2174 33.535 11.0485 33.9645C10.8796 34.3939 10.7952 34.8264 10.7952 35.262C10.7952 36.0486 11.0474 36.6973 11.5518 37.2078C12.0557 37.7184 12.701 37.9736 13.4877 37.9736C13.9232 37.9736 14.3696 37.8753 14.8268 37.6786C15.2841 37.4825 15.6538 37.2434 15.936 36.9611L25.321 27.5761C25.6327 27.2645 26.0118 27.0947 26.4585 27.067C26.9052 27.0392 27.3121 27.2089 27.6793 27.5761C28.0343 27.9311 28.2118 28.3245 28.2118 28.7561C28.2118 29.1878 28.0343 29.5809 27.6793 29.9353L18.3143 39.3203C17.9766 39.6575 17.7232 40.0409 17.5543 40.4703C17.386 40.8997 17.3018 41.3325 17.3018 41.7686C17.3018 42.5125 17.5646 43.1472 18.0902 43.6728C18.6157 44.1984 19.2502 44.4611 19.9935 44.4611C20.4296 44.4611 20.8763 44.3628 21.3335 44.1661C21.7907 43.9695 22.1605 43.73 22.4427 43.4478L32.596 33.3136C32.9082 33.0014 33.2877 32.8314 33.7343 32.8036C34.181 32.7759 34.588 32.9459 34.9552 33.3136C35.3102 33.6681 35.4877 34.0611 35.4877 34.4928C35.4877 34.9245 35.3102 35.3178 34.9552 35.6728L24.821 45.8261C24.526 46.1084 24.2835 46.4781 24.0935 46.9353C23.903 47.3925 23.8077 47.8392 23.8077 48.2753C23.8077 49.0186 24.0705 49.6531 24.596 50.1786C25.1221 50.7048 25.7568 50.9678 26.5002 50.9678C26.9363 50.9678 27.3691 50.8834 27.7985 50.7145C28.228 50.5456 28.6113 50.2923 28.9485 49.9545L39.1027 39.8203C39.4149 39.5081 39.7941 39.3381 40.2402 39.3103C40.6868 39.2825 41.0941 39.4525 41.4618 39.8203C41.8163 40.1748 41.9935 40.5678 41.9935 40.9995C41.9935 41.4311 41.8163 41.8242 41.4618 42.1786L31.3077 52.3328C30.9705 52.6706 30.7174 53.0756 30.5485 53.5478C30.3796 54.02 30.2952 54.4525 30.2952 54.8453C30.2952 55.632 30.5718 56.2667 31.1252 56.7495C31.6785 57.2323 32.3057 57.4736 33.0068 57.4736ZM32.9877 60.807C31.2738 60.807 29.8068 60.18 28.5868 58.9261C27.3668 57.6717 26.8316 56.1234 26.981 54.2811C25.0921 54.3028 23.5193 53.7389 22.2627 52.5895C21.0066 51.4395 20.4105 49.8348 20.4743 47.7753C18.4149 47.7964 16.7921 47.2078 15.606 46.0095C14.4199 44.8106 13.8805 43.2303 13.9877 41.2686C12.1327 41.2903 10.5813 40.7689 9.33351 39.7045C8.08573 38.6406 7.46184 37.1597 7.46184 35.262C7.46184 34.4075 7.6274 33.552 7.95851 32.6953C8.28962 31.8381 8.77989 31.0848 9.42934 30.4353L22.4102 17.4545C23.4318 16.4334 24.6916 15.9228 26.1893 15.9228C27.6871 15.9228 28.9468 16.4334 29.9685 17.4545L34.8077 22.2945C35.0899 22.5895 35.4382 22.832 35.8527 23.022C36.2671 23.212 36.7352 23.307 37.2568 23.307C37.9702 23.307 38.6005 23.0581 39.1477 22.5603C39.6949 22.0625 39.9685 21.4139 39.9685 20.6145C39.9685 20.0934 39.8732 19.6256 39.6827 19.2111C39.4927 18.7967 39.2502 18.4484 38.9552 18.1661L27.4877 6.6978C26.6627 5.86058 25.8046 5.24642 24.9135 4.85531C24.0224 4.4642 23.0471 4.26864 21.9877 4.26864C20.9405 4.26864 19.9896 4.4642 19.1352 4.85531C18.2802 5.24642 17.4338 5.86058 16.596 6.6978L6.44851 16.8645C5.28628 18.0273 4.53851 19.4461 4.20517 21.1211C3.87184 22.7967 4.02351 24.3973 4.66017 25.9228C4.78406 26.3545 4.72851 26.7711 4.49351 27.1728C4.25851 27.5745 3.92517 27.8309 3.49351 27.942C3.06184 28.0531 2.63462 27.9942 2.21184 27.7653C1.78851 27.537 1.52128 27.207 1.41017 26.7753C0.692395 24.6214 0.53545 22.445 0.939339 20.2461C1.34323 18.0473 2.38712 16.1061 4.07101 14.4228L14.1543 4.33947C15.3166 3.18947 16.5463 2.33475 17.8435 1.7753C19.1402 1.2153 20.543 0.935303 22.0518 0.935303C23.5602 0.935303 24.9521 1.2153 26.2277 1.7753C27.5032 2.33475 28.7157 3.18947 29.8652 4.33947L32.7693 7.2428L35.6735 4.33947C36.8357 3.18947 38.0546 2.33475 39.3302 1.7753C40.6057 1.2153 41.998 0.935303 43.5068 0.935303C45.0152 0.935303 46.418 1.2153 47.7152 1.7753C49.0118 2.33475 50.2352 3.18947 51.3852 4.33947L63.8018 16.7561C64.9513 17.9056 65.838 19.1961 66.4618 20.6278C67.0857 22.0595 67.3977 23.5295 67.3977 25.0378C67.3977 26.5467 67.0857 27.9389 66.4618 29.2145C65.838 30.49 64.9513 31.7025 63.8018 32.852L37.8143 58.8203C37.1221 59.5125 36.3688 60.0167 35.5543 60.3328C34.7405 60.6489 33.8849 60.807 32.9877 60.807Z" fill="#AA9F8E"/>
</svg>
