<svg width="66" height="65" viewBox="0 0 66 65" fill="none" xmlns="http://www.w3.org/2000/svg">
<path d="M11.1667 49.5834V29.7501C11.1667 29.0001 11.4378 28.3543 11.98 27.8126C12.5222 27.2709 13.1686 27.0001 13.9192 27.0001C14.6697 27.0001 15.3153 27.2709 15.8558 27.8126C16.3964 28.3543 16.6667 29.0001 16.6667 29.7501V49.5834C16.6667 50.3334 16.3956 50.9793 15.8533 51.5209C15.3111 52.0626 14.6647 52.3334 13.9142 52.3334C13.1636 52.3334 12.5181 52.0626 11.9775 51.5209C11.4369 50.9793 11.1667 50.3334 11.1667 49.5834ZM30.1667 49.5834V29.7501C30.1667 29.0001 30.4378 28.3543 30.98 27.8126C31.5222 27.2709 32.1686 27.0001 32.9192 27.0001C33.6697 27.0001 34.3153 27.2709 34.8558 27.8126C35.3964 28.3543 35.6667 29.0001 35.6667 29.7501V49.5834C35.6667 50.3334 35.3956 50.9793 34.8533 51.5209C34.3111 52.0626 33.6647 52.3334 32.9142 52.3334C32.1636 52.3334 31.5181 52.0626 30.9775 51.5209C30.437 50.9793 30.1667 50.3334 30.1667 49.5834ZM3.71167 64.5001C2.96167 64.5001 2.31584 64.229 1.77417 63.6867C1.2325 63.1445 0.96167 62.4981 0.96167 61.7476C0.96167 60.997 1.2325 60.3515 1.77417 59.8109C2.31584 59.2704 2.96167 59.0001 3.71167 59.0001H62.2883C63.0383 59.0001 63.6842 59.2712 64.2258 59.8134C64.7675 60.3556 65.0383 61.002 65.0383 61.7526C65.0383 62.5031 64.7675 63.1487 64.2258 63.6893C63.6842 64.2298 63.0383 64.5001 62.2883 64.5001H3.71167ZM49.3333 49.5834V29.7501C49.3333 29.0001 49.6045 28.3543 50.1467 27.8126C50.6889 27.2709 51.3353 27.0001 52.0858 27.0001C52.8364 27.0001 53.482 27.2709 54.0225 27.8126C54.5631 28.3543 54.8333 29.0001 54.8333 29.7501V49.5834C54.8333 50.3334 54.5622 50.9793 54.02 51.5209C53.4778 52.0626 52.8314 52.3334 52.0808 52.3334C51.3303 52.3334 50.6847 52.0626 50.1442 51.5209C49.6036 50.9793 49.3333 50.3334 49.3333 49.5834ZM62.3783 20.3334H3.31417C2.68361 20.3334 2.13389 20.0998 1.665 19.6326C1.19611 19.1648 0.96167 18.617 0.96167 17.9893V16.4684C0.96167 16.0451 1.08195 15.6304 1.3225 15.2243C1.5625 14.8181 1.87167 14.5298 2.25 14.3593L29.705 0.916753C30.7583 0.391198 31.8539 0.128418 32.9917 0.128418C34.1295 0.128418 35.2306 0.391198 36.295 0.916753L63.5642 14.2759C63.9575 14.5365 64.3014 14.857 64.5958 15.2376C64.8908 15.6176 65.0383 16.0826 65.0383 16.6326V17.6893C65.0383 18.4437 64.7861 19.0729 64.2817 19.5767C63.7778 20.0812 63.1433 20.3334 62.3783 20.3334ZM13.7692 14.8334H52.2308L33.8975 5.88509C33.5981 5.75675 33.2989 5.69259 33 5.69259C32.7011 5.69259 32.402 5.75675 32.1025 5.88509L13.7692 14.8334Z" fill="#AA9F8E"/>
</svg>
