<svg width="18" height="16" viewBox="0 0 18 16" fill="none" xmlns="http://www.w3.org/2000/svg">
<path d="M13.5495 9.06206H1.11289C0.797575 9.06206 0.533262 8.96093 0.319957 8.75869C0.106652 8.55644 0 8.30583 0 8.00686C0 7.70788 0.106652 7.45727 0.319957 7.25503C0.533262 7.05278 0.797575 6.95166 1.11289 6.95166H13.5495L8.09631 1.78118C7.87373 1.57014 7.76708 1.32392 7.77635 1.04254C7.78563 0.761151 7.90155 0.514938 8.12413 0.303898C8.34671 0.110444 8.60639 0.00932093 8.90316 0.0005276C9.19993 -0.00826573 9.4596 0.0928576 9.68218 0.303898L17.0273 7.26822C17.1386 7.37374 17.2174 7.48805 17.2638 7.61116C17.3101 7.73426 17.3333 7.86616 17.3333 8.00686C17.3333 8.14755 17.3101 8.27945 17.2638 8.40256C17.2174 8.52566 17.1386 8.63998 17.0273 8.7455L9.68218 15.7098C9.47815 15.9033 9.22311 16 8.91707 16C8.61102 16 8.34671 15.9033 8.12413 15.7098C7.90155 15.4988 7.79026 15.2482 7.79026 14.958C7.79026 14.6678 7.90155 14.4172 8.12413 14.2062L13.5495 9.06206Z" fill="black"/>
</svg>
