<svg width="50" height="66" viewBox="0 0 50 66" fill="none" xmlns="http://www.w3.org/2000/svg">
<path d="M24.995 65.7967C24.3272 65.7967 23.6692 65.7 23.0208 65.5067C22.3719 65.3128 21.7667 65.0128 21.205 64.6067L2.52167 50.5175C1.69278 49.9208 1.06528 49.1853 0.639167 48.3108C0.213055 47.4369 0 46.5058 0 45.5175V7.205C0 5.46611 0.618056 3.9786 1.85417 2.74249C3.08972 1.50694 4.57694 0.88916 6.31583 0.88916H43.6842C45.4231 0.88916 46.9103 1.50694 48.1458 2.74249C49.3819 3.9786 50 5.46611 50 7.205V45.5175C50 46.5058 49.7869 47.4369 49.3608 48.3108C48.9347 49.1853 48.3072 49.9208 47.4783 50.5175L28.795 64.6067C28.2311 65.0128 27.6236 65.3128 26.9725 65.5067C26.3214 65.7 25.6622 65.7967 24.995 65.7967ZM23.7817 61.1667C24.1239 61.4656 24.53 61.615 25 61.615C25.47 61.615 25.8761 61.4656 26.2183 61.1667L44.9017 46.98C45.1583 46.795 45.3614 46.5564 45.5108 46.2642C45.6603 45.9725 45.735 45.6556 45.735 45.3133V7.205C45.735 6.69222 45.5214 6.22222 45.0942 5.79499C44.6669 5.36777 44.1969 5.15416 43.6842 5.15416H6.31583C5.80306 5.15416 5.33306 5.36777 4.90583 5.79499C4.47861 6.22222 4.265 6.69222 4.265 7.205V45.3033C4.265 45.645 4.33972 45.9619 4.48917 46.2542C4.63861 46.5464 4.84167 46.785 5.09833 46.97L23.7817 61.1667ZM21.4875 35.5108L15.2908 29.3142C14.8636 28.9608 14.3567 28.7744 13.77 28.755C13.1839 28.7361 12.6786 28.9431 12.2542 29.3758C11.8214 29.8519 11.6083 30.3617 11.615 30.905C11.6222 31.4483 11.8567 31.9508 12.3183 32.4125L19.3183 39.3167C19.9089 39.9489 20.6314 40.265 21.4858 40.265C22.3408 40.265 23.0914 39.9489 23.7375 39.3167L37.7717 25.2817C38.1533 24.8544 38.3656 24.3478 38.4083 23.7617C38.4511 23.1756 38.2356 22.6517 37.7617 22.19C37.2978 21.7656 36.7878 21.5642 36.2317 21.5858C35.6756 21.6069 35.1794 21.8342 34.7433 22.2675L21.4875 35.5108ZM23.7817 5.15416H4.265H45.735H23.7817Z" fill="#AA9F8E"/>
</svg>
