<svg width="14" height="14" viewBox="0 0 14 14" fill="none" xmlns="http://www.w3.org/2000/svg">
<path d="M10.9791 7.83342H1.66665C1.43054 7.83342 1.23262 7.75356 1.0729 7.59384C0.913174 7.43412 0.833313 7.2362 0.833313 7.00009C0.833313 6.76398 0.913174 6.56606 1.0729 6.40634C1.23262 6.24662 1.43054 6.16676 1.66665 6.16676H10.9791L6.89581 2.08342C6.72915 1.91676 6.64928 1.72231 6.65623 1.50009C6.66317 1.27787 6.74998 1.08342 6.91665 0.916758C7.08331 0.76398 7.27776 0.684119 7.49998 0.677174C7.7222 0.67023 7.91665 0.750091 8.08331 0.916758L13.5833 6.41676C13.6666 6.50009 13.7257 6.59037 13.7604 6.68759C13.7951 6.78481 13.8125 6.88898 13.8125 7.00009C13.8125 7.1112 13.7951 7.21537 13.7604 7.31259C13.7257 7.40981 13.6666 7.50009 13.5833 7.58342L8.08331 13.0834C7.93053 13.2362 7.73956 13.3126 7.5104 13.3126C7.28123 13.3126 7.08331 13.2362 6.91665 13.0834C6.74998 12.9168 6.66665 12.7188 6.66665 12.4897C6.66665 12.2605 6.74998 12.0626 6.91665 11.8959L10.9791 7.83342Z" fill="#AA9F8E"/>
</svg>
