<svg width="17" height="17" viewBox="0 0 17 17" fill="none" xmlns="http://www.w3.org/2000/svg">
<path d="M8.49967 7.54647C7.46669 7.54647 6.59212 7.1884 5.87598 6.47225C5.15983 5.7561 4.80176 4.88154 4.80176 3.84855C4.80176 2.81557 5.15983 1.941 5.87598 1.22485C6.59212 0.508708 7.46669 0.150635 8.49967 0.150635C9.53266 0.150635 10.4072 0.508708 11.1234 1.22485C11.8395 1.941 12.1976 2.81557 12.1976 3.84855C12.1976 4.88154 11.8395 5.7561 11.1234 6.47225C10.4072 7.1884 9.53266 7.54647 8.49967 7.54647ZM0.426758 15.2209V14.4577C0.426758 13.9061 0.570942 13.4052 0.85931 12.9551C1.14768 12.5049 1.535 12.1564 2.02129 11.9095C3.07372 11.3861 4.14334 10.9934 5.23014 10.7316C6.31695 10.47 7.40601 10.3392 8.49733 10.3392C9.58865 10.3392 10.6785 10.47 11.7669 10.7316C12.8552 10.9934 13.9256 11.3861 14.9781 11.9095C15.4643 12.1564 15.8517 12.5049 16.14 12.9551C16.4284 13.4052 16.5726 13.9061 16.5726 14.4577V15.2209C16.5726 15.735 16.408 16.1566 16.0788 16.4858C15.7497 16.8151 15.328 16.9798 14.8137 16.9798H2.18561C1.67138 16.9798 1.24967 16.8151 0.920508 16.4858C0.591341 16.1566 0.426758 15.735 0.426758 15.2209ZM2.14551 15.2611H14.8538V14.4577C14.8538 14.2266 14.7967 14.0269 14.6825 13.8587C14.5684 13.6905 14.4058 13.5536 14.1947 13.448C13.3201 13.0328 12.3884 12.6972 11.3997 12.4415C10.411 12.1858 9.44429 12.0579 8.49967 12.0579C7.55506 12.0579 6.58839 12.1815 5.59967 12.4285C4.61096 12.6755 3.67927 13.0154 2.80462 13.448C2.59351 13.5362 2.43092 13.6688 2.31686 13.8457C2.20263 14.0226 2.14551 14.2266 2.14551 14.4577V15.2611ZM8.49967 5.82772C9.05523 5.82772 9.52398 5.63675 9.90592 5.2548C10.2879 4.87286 10.4788 4.40411 10.4788 3.84855C10.4788 3.293 10.2879 2.82425 9.90592 2.4423C9.52398 2.06036 9.05523 1.86938 8.49967 1.86938C7.94412 1.86938 7.47537 2.06036 7.09342 2.4423C6.71148 2.82425 6.52051 3.293 6.52051 3.84855C6.52051 4.40411 6.71148 4.87286 7.09342 5.2548C7.47537 5.63675 7.94412 5.82772 8.49967 5.82772Z" fill="#AA9F8E"/>
</svg>
