<svg width="60" height="48" viewBox="0 0 60 48" fill="none" xmlns="http://www.w3.org/2000/svg">
<path d="M60 6.05126V41.9479C60 43.4824 59.4861 44.7635 58.4583 45.7913C57.4306 46.819 56.1494 47.3329 54.615 47.3329H5.385C3.85056 47.3329 2.56944 46.819 1.54167 45.7913C0.513889 44.7635 0 43.4824 0 41.9479V6.05126C0 4.51681 0.513889 3.2357 1.54167 2.20793C2.56944 1.18015 3.85056 0.66626 5.385 0.66626H54.615C56.1494 0.66626 57.4306 1.18015 58.4583 2.20793C59.4861 3.2357 60 4.51681 60 6.05126ZM3.33333 13.3588H56.6667V6.05126C56.6667 5.53793 56.4531 5.06765 56.0258 4.64043C55.5986 4.2132 55.1283 3.99959 54.615 3.99959H5.385C4.87167 3.99959 4.40139 4.2132 3.97417 4.64043C3.54694 5.06765 3.33333 5.53793 3.33333 6.05126V13.3588ZM3.33333 21.3071V41.9479C3.33333 42.4613 3.54694 42.9315 3.97417 43.3588C4.40139 43.786 4.87167 43.9996 5.385 43.9996H54.615C55.1283 43.9996 55.5986 43.786 56.0258 43.3588C56.4531 42.9315 56.6667 42.4613 56.6667 41.9479V21.3071H3.33333Z" fill="#AA9F8E"/>
</svg>
