<svg width="22" height="22" viewBox="0 0 22 22" fill="none" xmlns="http://www.w3.org/2000/svg">
<path d="M16.5667 12.3332H1.66671C1.28893 12.3332 0.972263 12.2055 0.716707 11.9499C0.461152 11.6943 0.333374 11.3777 0.333374 10.9999C0.333374 10.6221 0.461152 10.3055 0.716707 10.0499C0.972263 9.79435 1.28893 9.66657 1.66671 9.66657H16.5667L10.0334 3.13323C9.76671 2.86657 9.63893 2.55546 9.65004 2.1999C9.66115 1.84435 9.80004 1.53324 10.0667 1.26657C10.3334 1.02212 10.6445 0.894346 11 0.883235C11.3556 0.872124 11.6667 0.999902 11.9334 1.26657L20.7334 10.0666C20.8667 10.1999 20.9612 10.3443 21.0167 10.4999C21.0723 10.6555 21.1 10.8221 21.1 10.9999C21.1 11.1777 21.0723 11.3443 21.0167 11.4999C20.9612 11.6555 20.8667 11.7999 20.7334 11.9332L11.9334 20.7332C11.6889 20.9777 11.3834 21.0999 11.0167 21.0999C10.65 21.0999 10.3334 20.9777 10.0667 20.7332C9.80004 20.4666 9.66671 20.1499 9.66671 19.7832C9.66671 19.4166 9.80004 19.0999 10.0667 18.8332L16.5667 12.3332Z" fill="white"/>
</svg>
