<?xml version="1.0" encoding="utf-8"?>
<!-- Generator: Adobe Illustrator 27.7.0, SVG Export Plug-In . SVG Version: 6.00 Build 0)  -->
<svg version="1.1" id="Layer_1" xmlns="http://www.w3.org/2000/svg" xmlns:xlink="http://www.w3.org/1999/xlink" x="0px" y="0px"
	 viewBox="0 0 20 20" style="enable-background:new 0 0 20 20;" xml:space="preserve">
<style type="text/css">
	.st0{fill:#AA9F8E;}
</style>
<path class="st0" d="M10,12l-6.7,6.8c-0.3,0.3-0.6,0.4-1,0.4c-0.4,0-0.7-0.2-1-0.5c-0.3-0.3-0.4-0.6-0.4-1c0-0.4,0.2-0.7,0.4-1L8,10
	L1.3,3.2C1,2.9,0.9,2.6,0.9,2.2c0-0.4,0.1-0.7,0.4-1c0.3-0.3,0.6-0.4,1-0.4c0.4,0,0.7,0.1,1,0.4L10,8l6.7-6.8c0.3-0.3,0.6-0.4,1-0.4
	c0.4,0,0.7,0.1,1,0.4c0.3,0.3,0.4,0.6,0.4,1c0,0.4-0.1,0.7-0.4,1L12,10l6.7,6.7c0.3,0.3,0.4,0.6,0.4,1c0,0.4-0.1,0.7-0.4,1
	c-0.3,0.3-0.6,0.4-1,0.5c-0.4,0-0.7-0.1-1-0.4L10,12z"/>
</svg>
