<svg width="20" height="20" viewBox="0 0 20 20" fill="none" xmlns="http://www.w3.org/2000/svg">
<path d="M0 2.63741C0 1.99606 0.225232 1.46696 0.675676 1.05011C1.12612 0.633232 1.71172 0.424805 2.43243 0.424805C3.14029 0.424805 3.71299 0.630019 4.15058 1.04049C4.60102 1.46377 4.82625 2.0153 4.82625 2.69513C4.82625 3.31081 4.60747 3.82386 4.16988 4.23433C3.71944 4.65761 3.12741 4.86925 2.39382 4.86925H2.37452C1.66666 4.86925 1.09396 4.65761 0.656371 4.23433C0.218784 3.81105 0 3.27873 0 2.63741ZM0.250965 19.4724V6.62009H4.53668V19.4724H0.250965ZM6.9112 19.4724H11.1969V12.2959C11.1969 11.8469 11.2484 11.5006 11.3514 11.2569C11.5315 10.8208 11.805 10.452 12.1718 10.1506C12.5386 9.8492 12.9987 9.69849 13.5521 9.69849C14.9936 9.69849 15.7143 10.6669 15.7143 12.6037V19.4724H20V12.1035C20 10.2051 19.5496 8.76535 18.6486 7.78411C17.7477 6.80287 16.5573 6.31225 15.0772 6.31225C13.417 6.31225 12.1236 7.02413 11.1969 8.44789V8.48637H11.1776L11.1969 8.44789V6.62009H6.9112C6.93693 7.03054 6.94981 8.30678 6.94981 10.4489C6.94981 12.5909 6.93693 15.5987 6.9112 19.4724Z" fill="white"/>
</svg>
