<svg width="34" height="31" viewBox="0 0 34 31" fill="none" xmlns="http://www.w3.org/2000/svg">
<path d="M16.9999 30.9482C16.5277 30.9482 16.1319 30.7885 15.8124 30.4691C15.493 30.1496 15.3333 29.7538 15.3333 29.2816C15.3333 28.8094 15.493 28.4135 15.8124 28.0941C16.1319 27.7746 16.5277 27.6149 16.9999 27.6149H28.6666V15.7816C28.6666 12.5316 27.5346 9.77463 25.2708 7.51074C23.0069 5.24685 20.2499 4.11491 16.9999 4.11491C13.7499 4.11491 10.993 5.24685 8.72908 7.51074C6.4652 9.77463 5.33325 12.5316 5.33325 15.7816V24.2816C5.33325 24.7538 5.17353 25.1496 4.85408 25.4691C4.53464 25.7885 4.13881 25.9482 3.66658 25.9482C2.74992 25.9482 1.9652 25.6219 1.31242 24.9691C0.659641 24.3163 0.333252 23.5316 0.333252 22.6149V19.2816C0.333252 18.6982 0.479085 18.1496 0.770752 17.6357C1.06242 17.1219 1.47214 16.7121 1.99992 16.4066L2.12492 14.1982C2.34714 12.3094 2.89575 10.5594 3.77075 8.94824C4.64575 7.33713 5.74297 5.93435 7.06242 4.73991C8.38186 3.54546 9.89575 2.61491 11.6041 1.94824C13.3124 1.28158 15.111 0.948242 16.9999 0.948242C18.8888 0.948242 20.6805 1.28158 22.3749 1.94824C24.0694 2.61491 25.5833 3.53852 26.9166 4.71908C28.2499 5.89963 29.3471 7.29546 30.2083 8.90658C31.0694 10.5177 31.6249 12.2677 31.8749 14.1566L31.9999 16.3232C32.5277 16.5732 32.9374 16.9482 33.2291 17.4482C33.5208 17.9482 33.6666 18.476 33.6666 19.0316V22.8649C33.6666 23.4205 33.5208 23.9482 33.2291 24.4482C32.9374 24.9482 32.5277 25.3232 31.9999 25.5732V27.6149C31.9999 28.5316 31.6735 29.3163 31.0208 29.9691C30.368 30.6219 29.5833 30.9482 28.6666 30.9482H16.9999ZM11.9999 19.2816C11.5277 19.2816 11.1319 19.1219 10.8124 18.8024C10.493 18.483 10.3333 18.0871 10.3333 17.6149C10.3333 17.1427 10.493 16.7469 10.8124 16.4274C11.1319 16.108 11.5277 15.9482 11.9999 15.9482C12.4721 15.9482 12.868 16.108 13.1874 16.4274C13.5069 16.7469 13.6666 17.1427 13.6666 17.6149C13.6666 18.0871 13.5069 18.483 13.1874 18.8024C12.868 19.1219 12.4721 19.2816 11.9999 19.2816ZM21.9999 19.2816C21.5277 19.2816 21.1319 19.1219 20.8124 18.8024C20.493 18.483 20.3333 18.0871 20.3333 17.6149C20.3333 17.1427 20.493 16.7469 20.8124 16.4274C21.1319 16.108 21.5277 15.9482 21.9999 15.9482C22.4721 15.9482 22.868 16.108 23.1874 16.4274C23.5069 16.7469 23.6666 17.1427 23.6666 17.6149C23.6666 18.0871 23.5069 18.483 23.1874 18.8024C22.868 19.1219 22.4721 19.2816 21.9999 19.2816ZM7.04158 16.6982C6.84714 13.7538 7.73603 11.226 9.70825 9.11491C11.6805 7.0038 14.1388 5.94824 17.0833 5.94824C19.5555 5.94824 21.7291 6.73296 23.6041 8.30241C25.4791 9.87185 26.611 11.8788 26.9999 14.3232C24.4721 14.2955 22.1457 13.6149 20.0208 12.2816C17.8958 10.9482 16.2638 9.14269 15.1249 6.86491C14.6805 9.08713 13.743 11.0663 12.3124 12.8024C10.8819 14.5385 9.12492 15.8371 7.04158 16.6982Z" fill="#E8EAED"/>
</svg>
