<svg width="64" height="66" viewBox="0 0 64 66" fill="none" xmlns="http://www.w3.org/2000/svg">
<path d="M26.5317 65.6667C25.8139 65.6667 25.1572 65.4206 24.5617 64.9284C23.9661 64.4356 23.5972 63.8206 23.455 63.0834L22.4933 55.4426C21.7628 55.1776 20.8822 54.7718 19.8517 54.2251C18.8211 53.6784 17.9711 53.0929 17.3017 52.4684L10.1667 55.4617C9.46166 55.7734 8.74583 55.8076 8.01916 55.5643C7.2925 55.3204 6.76055 54.8587 6.42333 54.1793L0.826664 44.1542C0.489442 43.4748 0.374164 42.7931 0.480831 42.1092C0.587498 41.4254 0.946387 40.874 1.5575 40.4551L7.545 35.8717C7.50222 35.3845 7.44889 34.8751 7.385 34.3434C7.32055 33.8112 7.28833 33.3015 7.28833 32.8142C7.28833 32.3981 7.32055 31.9484 7.385 31.4651C7.44889 30.9812 7.50222 30.4245 7.545 29.7951L1.64083 25.3784C1.02972 24.9595 0.681387 24.3837 0.595831 23.6509C0.510831 22.9181 0.636942 22.2118 0.974165 21.5317L6.50666 11.9484C6.84389 11.3117 7.36194 10.8748 8.06083 10.6376C8.75972 10.4004 9.46166 10.4101 10.1667 10.6667L16.9042 13.4293C17.7331 12.767 18.6572 12.1581 19.6767 11.6026C20.6956 11.047 21.6408 10.5876 22.5125 10.2242L23.455 2.75008C23.5361 1.98953 23.8897 1.36869 24.5158 0.887583C25.1419 0.407028 25.8139 0.166748 26.5317 0.166748H37.4683C38.1861 0.166748 38.8581 0.407028 39.4842 0.887583C40.1103 1.36869 40.4639 1.98953 40.545 2.75008L41.4233 10.3717C42.4233 10.8206 43.3581 11.2801 44.2275 11.7501C45.0969 12.2201 45.9678 12.8076 46.84 13.5126L53.8142 10.6667C54.5036 10.3545 55.2039 10.3309 55.915 10.5959C56.6255 10.8609 57.1731 11.3117 57.5575 11.9484L63.09 21.5959C63.4272 22.2754 63.5425 22.9709 63.4358 23.6826C63.3292 24.3942 62.9703 24.9595 62.3592 25.3784L56.0317 30.1542C56.16 30.6754 56.235 31.1817 56.2567 31.6734C56.2778 32.1645 56.2883 32.6068 56.2883 33.0001C56.2883 33.3506 56.2669 33.7715 56.2242 34.2626C56.1814 34.7542 56.1386 35.3248 56.0958 35.9743L62.0642 40.4551C62.6753 40.874 63.0589 41.4393 63.215 42.1509C63.3706 42.8626 63.2797 43.5581 62.9425 44.2376L57.4742 54.1151C57.1369 54.7951 56.585 55.2567 55.8183 55.5001C55.0522 55.7434 54.3072 55.7093 53.5833 55.3976L46.4233 52.4042C45.6067 53.0537 44.7978 53.6209 43.9967 54.1059C43.1956 54.5909 42.3656 54.9873 41.5067 55.2951L40.545 63.0834C40.4028 63.8206 40.0339 64.4356 39.4383 64.9284C38.8428 65.4206 38.1861 65.6667 37.4683 65.6667H26.5317ZM28.5833 60.1667H35.1733L36.4167 51.0576C38.1517 50.6131 39.7306 49.987 41.1533 49.1793C42.5756 48.3709 44.0158 47.2684 45.4742 45.8717L53.6217 49.3334L57.0192 43.6667L49.8908 38.1859C50.1686 37.237 50.3664 36.3301 50.4842 35.4651C50.6014 34.5995 50.66 33.7298 50.66 32.8559C50.66 31.9392 50.6153 31.1037 50.5258 30.3492C50.4358 29.5954 50.2519 28.682 49.9742 27.6092L57.1475 22.1667L53.9167 16.5001L45.4933 19.8976C44.485 18.7354 43.1067 17.6481 41.3583 16.6359C39.61 15.6237 37.9414 14.9481 36.3525 14.6092L35.4167 5.66675H28.5192L27.6475 14.4617C25.7458 14.8762 24.0353 15.5237 22.5158 16.4042C20.9969 17.2842 19.5408 18.4487 18.1475 19.8976L10.0833 16.5001L6.68583 22.1667L13.6667 27.5643C13.3889 28.5343 13.1944 29.4573 13.0833 30.3334C12.9722 31.2095 12.9167 32.0481 12.9167 32.8493C12.9167 33.5609 12.9722 34.3612 13.0833 35.2501C13.1944 36.139 13.3675 37.1454 13.6025 38.2692L6.68583 43.6667L10.0833 49.3334L18.1667 45.9167C19.6967 47.3484 21.2072 48.4767 22.6983 49.3018C24.19 50.1262 25.8183 50.7606 27.5833 51.2051L28.5833 60.1667ZM31.66 43.5001C34.6294 43.5001 37.1497 42.4645 39.2208 40.3934C41.2914 38.3229 42.3267 35.8029 42.3267 32.8334C42.3267 29.864 41.2914 27.344 39.2208 25.2734C37.1497 23.2023 34.6294 22.1667 31.66 22.1667C28.7117 22.1667 26.1967 23.2023 24.115 25.2734C22.0339 27.344 20.9933 29.864 20.9933 32.8334C20.9933 35.8029 22.0339 38.3229 24.115 40.3934C26.1967 42.4645 28.7117 43.5001 31.66 43.5001Z" fill="#399624"/>
</svg>
