<svg width="20" height="20" viewBox="0 0 20 20" fill="none" xmlns="http://www.w3.org/2000/svg">
<path d="M10.0336 11.9557L3.28926 18.711C3.00771 18.9926 2.67437 19.1315 2.28926 19.1277C1.90393 19.1241 1.5706 18.9741 1.28926 18.6777C1.01504 18.3964 0.883485 18.0741 0.894596 17.711C0.905707 17.3481 1.04837 17.0186 1.3226 16.7224L8.0336 10L1.28926 3.21104C1.01504 2.9297 0.87793 2.60748 0.87793 2.24437C0.87793 1.88148 1.01504 1.55192 1.28926 1.2557C1.5706 0.974147 1.90393 0.831481 2.28926 0.827703C2.67437 0.824148 3.00771 0.963037 3.28926 1.24437L10.0336 8.00004L16.7113 1.24437C16.9928 0.963037 17.3262 0.824148 17.7113 0.827703C18.0966 0.831481 18.4299 0.974147 18.7113 1.2557C18.9855 1.55192 19.117 1.88148 19.1059 2.24437C19.0948 2.60748 18.9596 2.9297 18.7003 3.21104L11.9893 10L18.7003 16.7224C18.9596 16.9964 19.0948 17.3204 19.1059 17.6944C19.117 18.0686 18.9855 18.3964 18.7113 18.6777C18.4299 18.9741 18.0966 19.1241 17.7113 19.1277C17.3262 19.1315 16.9928 18.9926 16.7113 18.711L10.0336 11.9557Z" fill="#399624"/>
</svg>
