<svg width="14" height="14" viewBox="0 0 14 14" fill="none" xmlns="http://www.w3.org/2000/svg">
<path d="M10.8123 7.78167H1.49984C1.26373 7.78167 1.06581 7.70181 0.906087 7.54208C0.746365 7.38236 0.666504 7.18444 0.666504 6.94833C0.666504 6.71222 0.746365 6.51431 0.906087 6.35458C1.06581 6.19486 1.26373 6.115 1.49984 6.115H10.8123L6.729 2.03167C6.56234 1.865 6.48248 1.67056 6.48942 1.44833C6.49636 1.22611 6.58317 1.03167 6.74984 0.865C6.9165 0.712222 7.11095 0.632361 7.33317 0.625417C7.55539 0.618472 7.74984 0.698333 7.9165 0.865L13.4165 6.365C13.4998 6.44833 13.5589 6.53861 13.5936 6.63583C13.6283 6.73306 13.6457 6.83722 13.6457 6.94833C13.6457 7.05944 13.6283 7.16361 13.5936 7.26083C13.5589 7.35806 13.4998 7.44833 13.4165 7.53167L7.9165 13.0317C7.76373 13.1844 7.57275 13.2608 7.34359 13.2608C7.11442 13.2608 6.9165 13.1844 6.74984 13.0317C6.58317 12.865 6.49984 12.6671 6.49984 12.4379C6.49984 12.2088 6.58317 12.0108 6.74984 11.8442L10.8123 7.78167Z" fill="#399624"/>
</svg>
