<svg width="20" height="21" viewBox="0 0 20 21" fill="none" xmlns="http://www.w3.org/2000/svg">
<path fill-rule="evenodd" clip-rule="evenodd" d="M0 10.9482C0 6.95364 0 4.95634 0.95188 3.51775C1.37694 2.87534 1.9271 2.32518 2.5695 1.90012C4.0081 0.948242 6.0054 0.948242 10 0.948242C13.9946 0.948242 15.9919 0.948242 17.4305 1.90012C18.0729 2.32518 18.6231 2.87534 19.0481 3.51775C20 4.95634 20 6.95364 20 10.9482C20 14.9428 20 16.9401 19.0481 18.3787C18.6231 19.0211 18.0729 19.5713 17.4305 19.9964C15.9919 20.9482 13.9946 20.9482 10 20.9482C6.0054 20.9482 4.0081 20.9482 2.5695 19.9964C1.9271 19.5713 1.37694 19.0211 0.95188 18.3787C0 16.9401 0 14.9428 0 10.9482ZM15.1769 10.9485C15.1769 13.8077 12.8591 16.1256 9.99982 16.1256C7.14058 16.1256 4.8227 13.8077 4.8227 10.9485C4.8227 8.08925 7.14058 5.77137 9.99982 5.77137C12.8591 5.77137 15.1769 8.08925 15.1769 10.9485ZM9.99982 14.3741C11.8917 14.3741 13.4254 12.8404 13.4254 10.9485C13.4254 9.05661 11.8917 7.52294 9.99982 7.52294C8.10794 7.52294 6.57426 9.05661 6.57426 10.9485C6.57426 12.8404 8.10794 14.3741 9.99982 14.3741ZM15.3814 6.72774C16.0533 6.72774 16.5979 6.18311 16.5979 5.51127C16.5979 4.83943 16.0533 4.2948 15.3814 4.2948C14.7096 4.2948 14.1649 4.83943 14.1649 5.51127C14.1649 6.18311 14.7096 6.72774 15.3814 6.72774Z" fill="white"/>
</svg>
