<svg width="68" height="61" viewBox="0 0 68 61" fill="none" xmlns="http://www.w3.org/2000/svg">
<path d="M33.0068 57.4739C33.4424 57.4739 33.8888 57.3756 34.346 57.1789C34.8032 56.9828 35.173 56.7436 35.4552 56.4614L61.4427 30.4739C62.2799 29.6367 62.9263 28.78 63.3818 27.9039C63.8368 27.0278 64.0643 26.0661 64.0643 25.0189C64.0643 23.9589 63.8368 22.93 63.3818 21.9322C62.9263 20.9344 62.2799 20.0231 61.4427 19.198L48.9427 6.69805C48.1177 5.86083 47.2705 5.24666 46.401 4.85555C45.531 4.46444 44.5663 4.26888 43.5068 4.26888C42.4596 4.26888 41.4874 4.46444 40.5902 4.85555C39.6924 5.24666 38.8463 5.86083 38.0518 6.69805L35.1477 9.60221L41.3143 15.7881C41.9766 16.4375 42.4702 17.1769 42.7952 18.0064C43.1196 18.8353 43.2818 19.6769 43.2818 20.5314C43.2818 22.2669 42.7146 23.7019 41.5802 24.8364C40.4457 25.9708 39.011 26.5381 37.276 26.5381C36.421 26.5381 35.5866 26.4078 34.7727 26.1472C33.9588 25.8867 33.2268 25.4314 32.5768 24.7814L27.6735 19.8972C27.2885 19.5128 26.7968 19.3205 26.1985 19.3205C25.6007 19.3205 25.1093 19.5128 24.7243 19.8972L11.8077 32.8139C11.4705 33.1517 11.2174 33.5353 11.0485 33.9647C10.8796 34.3942 10.7952 34.8267 10.7952 35.2622C10.7952 36.0489 11.0474 36.6975 11.5518 37.208C12.0557 37.7186 12.701 37.9739 13.4877 37.9739C13.9232 37.9739 14.3696 37.8755 14.8268 37.6789C15.2841 37.4828 15.6538 37.2436 15.936 36.9614L25.321 27.5764C25.6327 27.2647 26.0118 27.095 26.4585 27.0672C26.9052 27.0394 27.3121 27.2092 27.6793 27.5764C28.0343 27.9314 28.2118 28.3247 28.2118 28.7564C28.2118 29.188 28.0343 29.5811 27.6793 29.9356L18.3143 39.3205C17.9766 39.6578 17.7232 40.0411 17.5543 40.4706C17.386 40.9 17.3018 41.3328 17.3018 41.7689C17.3018 42.5128 17.5646 43.1475 18.0902 43.673C18.6157 44.1986 19.2502 44.4614 19.9935 44.4614C20.4296 44.4614 20.8763 44.363 21.3335 44.1664C21.7907 43.9697 22.1605 43.7303 22.4427 43.4481L32.596 33.3139C32.9082 33.0017 33.2877 32.8317 33.7343 32.8039C34.181 32.7761 34.588 32.9461 34.9552 33.3139C35.3102 33.6683 35.4877 34.0614 35.4877 34.493C35.4877 34.9247 35.3102 35.318 34.9552 35.673L24.821 45.8264C24.526 46.1086 24.2835 46.4783 24.0935 46.9355C23.903 47.3928 23.8077 47.8394 23.8077 48.2756C23.8077 49.0189 24.0705 49.6533 24.596 50.1789C25.1221 50.705 25.7568 50.968 26.5002 50.968C26.9363 50.968 27.3691 50.8836 27.7985 50.7147C28.228 50.5458 28.6113 50.2925 28.9485 49.9547L39.1027 39.8205C39.4149 39.5083 39.7941 39.3383 40.2402 39.3106C40.6868 39.2828 41.0941 39.4528 41.4618 39.8205C41.8163 40.175 41.9935 40.5681 41.9935 40.9997C41.9935 41.4314 41.8163 41.8244 41.4618 42.1789L31.3077 52.333C30.9705 52.6708 30.7174 53.0758 30.5485 53.548C30.3796 54.0203 30.2952 54.4528 30.2952 54.8456C30.2952 55.6322 30.5718 56.2669 31.1252 56.7497C31.6785 57.2325 32.3057 57.4739 33.0068 57.4739ZM32.9877 60.8072C31.2738 60.8072 29.8068 60.1803 28.5868 58.9264C27.3668 57.6719 26.8316 56.1236 26.981 54.2814C25.0921 54.3031 23.5193 53.7392 22.2627 52.5897C21.0066 51.4397 20.4105 49.835 20.4743 47.7756C18.4149 47.7967 16.7921 47.208 15.606 46.0097C14.4199 44.8108 13.8805 43.2305 13.9877 41.2689C12.1327 41.2906 10.5813 40.7692 9.33351 39.7047C8.08573 38.6408 7.46184 37.16 7.46184 35.2622C7.46184 34.4078 7.6274 33.5522 7.95851 32.6955C8.28962 31.8383 8.77989 31.085 9.42934 30.4356L22.4102 17.4547C23.4318 16.4336 24.6916 15.923 26.1893 15.923C27.6871 15.923 28.9468 16.4336 29.9685 17.4547L34.8077 22.2947C35.0899 22.5897 35.4382 22.8322 35.8527 23.0222C36.2671 23.2122 36.7352 23.3072 37.2568 23.3072C37.9702 23.3072 38.6005 23.0583 39.1477 22.5605C39.6949 22.0628 39.9685 21.4142 39.9685 20.6147C39.9685 20.0936 39.8732 19.6258 39.6827 19.2114C39.4927 18.7969 39.2502 18.4486 38.9552 18.1664L27.4877 6.69805C26.6627 5.86083 25.8046 5.24666 24.9135 4.85555C24.0224 4.46444 23.0471 4.26888 21.9877 4.26888C20.9405 4.26888 19.9896 4.46444 19.1352 4.85555C18.2802 5.24666 17.4338 5.86083 16.596 6.69805L6.44851 16.8647C5.28628 18.0275 4.53851 19.4464 4.20517 21.1214C3.87184 22.7969 4.02351 24.3975 4.66017 25.923C4.78406 26.3547 4.72851 26.7714 4.49351 27.173C4.25851 27.5747 3.92517 27.8311 3.49351 27.9422C3.06184 28.0533 2.63462 27.9944 2.21184 27.7655C1.78851 27.5372 1.52128 27.2072 1.41017 26.7755C0.692395 24.6217 0.53545 22.4453 0.939339 20.2464C1.34323 18.0475 2.38712 16.1064 4.07101 14.423L14.1543 4.33972C15.3166 3.18972 16.5463 2.33499 17.8435 1.77555C19.1402 1.21555 20.543 0.935547 22.0518 0.935547C23.5602 0.935547 24.9521 1.21555 26.2277 1.77555C27.5032 2.33499 28.7157 3.18972 29.8652 4.33972L32.7693 7.24305L35.6735 4.33972C36.8357 3.18972 38.0546 2.33499 39.3302 1.77555C40.6057 1.21555 41.998 0.935547 43.5068 0.935547C45.0152 0.935547 46.418 1.21555 47.7152 1.77555C49.0118 2.33499 50.2352 3.18972 51.3852 4.33972L63.8018 16.7564C64.9513 17.9058 65.838 19.1964 66.4618 20.628C67.0857 22.0597 67.3977 23.5297 67.3977 25.0381C67.3977 26.5469 67.0857 27.9392 66.4618 29.2147C65.838 30.4903 64.9513 31.7028 63.8018 32.8522L37.8143 58.8205C37.1221 59.5128 36.3688 60.0169 35.5543 60.333C34.7405 60.6492 33.8849 60.8072 32.9877 60.8072Z" fill="#399624"/>
</svg>
