<svg width="14" height="14" viewBox="0 0 14 14" fill="none" xmlns="http://www.w3.org/2000/svg">
<path d="M10.4793 7.78167H1.16683C0.930718 7.78167 0.732802 7.70181 0.573079 7.54208C0.413357 7.38236 0.333496 7.18444 0.333496 6.94833C0.333496 6.71222 0.413357 6.51431 0.573079 6.35458C0.732802 6.19486 0.930718 6.115 1.16683 6.115H10.4793L6.396 2.03167C6.22933 1.865 6.14947 1.67056 6.15641 1.44833C6.16336 1.22611 6.25016 1.03167 6.41683 0.865C6.5835 0.712222 6.77794 0.632361 7.00016 0.625417C7.22238 0.618472 7.41683 0.698333 7.5835 0.865L13.0835 6.365C13.1668 6.44833 13.2259 6.53861 13.2606 6.63583C13.2953 6.73306 13.3127 6.83722 13.3127 6.94833C13.3127 7.05944 13.2953 7.16361 13.2606 7.26083C13.2259 7.35806 13.1668 7.44833 13.0835 7.53167L7.5835 13.0317C7.43072 13.1844 7.23975 13.2608 7.01058 13.2608C6.78141 13.2608 6.5835 13.1844 6.41683 13.0317C6.25016 12.865 6.16683 12.6671 6.16683 12.4379C6.16683 12.2088 6.25016 12.0108 6.41683 11.8442L10.4793 7.78167Z" fill="white"/>
</svg>
