<svg width="58" height="58" viewBox="0 0 58 58" fill="none" xmlns="http://www.w3.org/2000/svg">
<path d="M15.9742 41.9575V47.1542C15.9742 47.6536 16.1458 48.0806 16.4892 48.435C16.8319 48.7889 17.2631 48.9658 17.7825 48.9658C18.2897 48.9658 18.7119 48.7889 19.0492 48.435C19.3869 48.0806 19.5558 47.6536 19.5558 47.1542V41.9575H24.7525C25.2519 41.9575 25.6786 41.788 26.0325 41.4492C26.3869 41.1103 26.5642 40.6842 26.5642 40.1708C26.5642 39.658 26.3869 39.2305 26.0325 38.8883C25.6786 38.5467 25.2519 38.3758 24.7525 38.3758H19.5558V33.1792C19.5558 32.6714 19.3864 32.2494 19.0475 31.9133C18.7086 31.5778 18.2825 31.41 17.7692 31.41C17.2558 31.41 16.8283 31.5778 16.4867 31.9133C16.145 32.2494 15.9742 32.6714 15.9742 33.1792V38.3758H10.7775C10.2692 38.3758 9.84722 38.5475 9.51166 38.8908C9.1761 39.2336 9.00833 39.6647 9.00833 40.1842C9.00833 40.6914 9.1761 41.1136 9.51166 41.4508C9.84722 41.7886 10.2692 41.9575 10.7775 41.9575H15.9742ZM35.0383 46.3158H47.1408C47.6453 46.3158 48.0642 46.1467 48.3975 45.8083C48.7308 45.4694 48.8975 45.0433 48.8975 44.53C48.8975 44.0167 48.7311 43.5914 48.3983 43.2542C48.0661 42.9164 47.6469 42.7475 47.1408 42.7475H35.0258C34.5214 42.7475 34.1025 42.9117 33.7692 43.24C33.4358 43.5683 33.2692 43.9983 33.2692 44.53C33.2692 45.0372 33.4369 45.4617 33.7725 45.8033C34.1081 46.145 34.53 46.3158 35.0383 46.3158ZM35.0383 37.6967H47.1283C47.6367 37.6967 48.0586 37.5253 48.3942 37.1825C48.7297 36.8392 48.8975 36.4078 48.8975 35.8883C48.8975 35.3811 48.7297 34.9589 48.3942 34.6217C48.0586 34.2839 47.6367 34.115 47.1283 34.115H35.0383C34.53 34.115 34.1081 34.2844 33.7725 34.6233C33.4369 34.9622 33.2692 35.3883 33.2692 35.9017C33.2692 36.415 33.4369 36.8425 33.7725 37.1842C34.1081 37.5258 34.53 37.6967 35.0383 37.6967ZM11.7608 18.6367H23.7008C24.2092 18.6367 24.6311 18.4672 24.9667 18.1283C25.3022 17.7894 25.47 17.3636 25.47 16.8508C25.47 16.3375 25.3022 15.91 24.9667 15.5683C24.6311 15.2267 24.2092 15.0558 23.7008 15.0558H11.7608C11.2403 15.0558 10.808 15.2272 10.4642 15.57C10.1203 15.9128 9.94833 16.3439 9.94833 16.8633C9.94833 17.3705 10.1203 17.7931 10.4642 18.1308C10.808 18.4681 11.2403 18.6367 11.7608 18.6367ZM7.20499 57.1108C5.4661 57.1108 3.9786 56.493 2.74249 55.2575C1.50694 54.0214 0.88916 52.5339 0.88916 50.795V7.205C0.88916 5.46611 1.50694 3.9786 2.74249 2.74249C3.9786 1.50694 5.4661 0.88916 7.20499 0.88916H50.795C52.5339 0.88916 54.0214 1.50694 55.2575 2.74249C56.493 3.9786 57.1108 5.46611 57.1108 7.205V50.795C57.1108 52.5339 56.493 54.0214 55.2575 55.2575C54.0214 56.493 52.5339 57.1108 50.795 57.1108H7.20499ZM7.20499 52.8458H50.795C51.3078 52.8458 51.7778 52.6322 52.205 52.205C52.6322 51.7778 52.8458 51.3078 52.8458 50.795V7.205C52.8458 6.69222 52.6322 6.22222 52.205 5.79499C51.7778 5.36777 51.3078 5.15416 50.795 5.15416H7.20499C6.69222 5.15416 6.22222 5.36777 5.79499 5.79499C5.36777 6.22222 5.15416 6.69222 5.15416 7.205V50.795C5.15416 51.3078 5.36777 51.7778 5.79499 52.205C6.22222 52.6322 6.69222 52.8458 7.20499 52.8458ZM40.9533 19.4317L44.6667 23.0617C44.9394 23.3483 45.3347 23.4978 45.8525 23.51C46.3697 23.5217 46.8114 23.3444 47.1775 22.9783C47.5575 22.6067 47.7486 22.1833 47.7508 21.7083C47.753 21.2333 47.5497 20.8055 47.1408 20.425L43.5467 16.8675L47.1775 13.2375C47.5008 12.9408 47.673 12.5258 47.6942 11.9925C47.7158 11.4592 47.5436 11.0094 47.1775 10.6433C46.8114 10.2772 46.3722 10.0942 45.86 10.0942C45.3483 10.0942 44.9228 10.2772 44.5833 10.6433L40.9533 14.2308L37.4483 10.6433C37.0855 10.32 36.6589 10.1475 36.1683 10.1258C35.6772 10.1047 35.2414 10.2772 34.8608 10.6433C34.4808 11.0094 34.2908 11.4483 34.2908 11.96C34.2908 12.4722 34.4881 12.898 34.8825 13.2375L38.47 16.8675L34.8758 20.425C34.5097 20.7767 34.3347 21.2105 34.3508 21.7267C34.3664 22.2428 34.5683 22.66 34.9567 22.9783C35.2944 23.3444 35.7008 23.5275 36.1758 23.5275C36.6514 23.5275 37.0756 23.3444 37.4483 22.9783L40.9533 19.4317Z" fill="#399624"/>
</svg>
