<svg width="17" height="17" viewBox="0 0 17 17" fill="none" xmlns="http://www.w3.org/2000/svg">
<path d="M3.87748 7.47239L15.844 7.47239C16.1474 7.47239 16.4017 7.56969 16.6069 7.76429C16.8122 7.95889 16.9148 8.20003 16.9148 8.4877C16.9148 8.77537 16.8122 9.01651 16.6069 9.21111C16.4017 9.40571 16.1474 9.50301 15.844 9.50301L3.87748 9.50301L9.12453 14.478C9.3387 14.6811 9.44132 14.918 9.4324 15.1888C9.42347 15.4595 9.31193 15.6964 9.09776 15.8995C8.8836 16.0856 8.63374 16.1829 8.34818 16.1914C8.06263 16.1998 7.81277 16.1025 7.59861 15.8995L0.531151 9.19842C0.424068 9.09689 0.348217 8.9869 0.3036 8.86844C0.258982 8.74999 0.236673 8.62308 0.236673 8.4877C0.236673 8.35233 0.258982 8.22541 0.3036 8.10696C0.348217 7.98851 0.424068 7.87851 0.531151 7.77698L7.59861 1.07592C7.79492 0.889776 8.04032 0.796706 8.3348 0.796706C8.62928 0.796706 8.8836 0.889776 9.09776 1.07592C9.31193 1.27898 9.41901 1.52012 9.41901 1.79933C9.41901 2.07854 9.31193 2.31967 9.09776 2.52274L3.87748 7.47239Z" fill="white"/>
</svg>
