<svg width="57" height="54" viewBox="0 0 57 54" fill="none" xmlns="http://www.w3.org/2000/svg">
<path d="M3.66683 43.6673V50.334V3.66732V43.6673ZM5.7185 53.6673C4.22683 53.6673 2.95627 53.1429 1.90683 52.094C0.857941 51.0445 0.333496 49.774 0.333496 48.2823V5.71898C0.333496 4.22732 0.857941 2.95676 1.90683 1.90732C2.95627 0.858429 4.22683 0.333984 5.7185 0.333984H48.2818C49.7735 0.333984 51.044 0.858429 52.0935 1.90732C53.1424 2.95676 53.6668 4.22732 53.6668 5.71898V15.5265H50.3335V5.71898C50.3335 5.12065 50.1413 4.62898 49.7568 4.24398C49.3718 3.85954 48.8802 3.66732 48.2818 3.66732H5.7185C5.12016 3.66732 4.6285 3.85954 4.2435 4.24398C3.85905 4.62898 3.66683 5.12065 3.66683 5.71898V48.2823C3.66683 48.8807 3.85905 49.3723 4.2435 49.7573C4.6285 50.1418 5.12016 50.334 5.7185 50.334H48.2818C48.8802 50.334 49.3718 50.1418 49.7568 49.7573C50.1413 49.3723 50.3335 48.8807 50.3335 48.2823V38.4748H53.6668V48.2823C53.6668 49.774 53.1424 51.0445 52.0935 52.094C51.044 53.1429 49.7735 53.6673 48.2818 53.6673H5.7185ZM32.3852 40.334C30.8935 40.334 29.6229 39.8095 28.5735 38.7607C27.5246 37.7112 27.0002 36.4407 27.0002 34.949V19.0523C27.0002 17.5607 27.5246 16.2901 28.5735 15.2407C29.6229 14.1918 30.8935 13.6673 32.3852 13.6673H51.6152C53.1068 13.6673 54.3774 14.1918 55.4268 15.2407C56.4757 16.2901 57.0002 17.5607 57.0002 19.0523V34.949C57.0002 36.4407 56.4757 37.7112 55.4268 38.7607C54.3774 39.8095 53.1068 40.334 51.6152 40.334H32.3852ZM51.6152 37.0007C52.2135 37.0007 52.7052 36.8084 53.0902 36.424C53.4746 36.039 53.6668 35.5473 53.6668 34.949V19.0523C53.6668 18.454 53.4746 17.9623 53.0902 17.5773C52.7052 17.1929 52.2135 17.0007 51.6152 17.0007H32.3852C31.7868 17.0007 31.2952 17.1929 30.9102 17.5773C30.5257 17.9623 30.3335 18.454 30.3335 19.0523V34.949C30.3335 35.5473 30.5257 36.039 30.9102 36.424C31.2952 36.8084 31.7868 37.0007 32.3852 37.0007H51.6152ZM40.3335 32.0007C41.7224 32.0007 42.9029 31.5145 43.8752 30.5423C44.8474 29.5701 45.3335 28.3895 45.3335 27.0007C45.3335 25.6118 44.8474 24.4312 43.8752 23.459C42.9029 22.4868 41.7224 22.0007 40.3335 22.0007C38.9446 22.0007 37.764 22.4868 36.7918 23.459C35.8196 24.4312 35.3335 25.6118 35.3335 27.0007C35.3335 28.3895 35.8196 29.5701 36.7918 30.5423C37.764 31.5145 38.9446 32.0007 40.3335 32.0007Z" fill="#399624"/>
</svg>
