<svg width="24" height="25" viewBox="0 0 24 25" fill="none" xmlns="http://www.w3.org/2000/svg">
<path d="M21.7977 17.9354C18.9314 17.4632 17.6467 14.5339 17.5937 14.4095L17.5882 14.3978C17.5068 14.2647 17.4554 14.1154 17.4378 13.9603C17.4201 13.8053 17.4366 13.6482 17.486 13.5002C17.6785 13.0466 18.3153 12.8445 18.7373 12.7106C18.8427 12.6772 18.9423 12.6456 19.0205 12.6146C19.7832 12.3133 19.9383 12.0014 19.9345 11.7927C19.9145 11.6625 19.8561 11.5412 19.7668 11.4444C19.6775 11.3476 19.5613 11.2796 19.4332 11.2491L19.4275 11.2469C19.3143 11.2014 19.1933 11.1783 19.0712 11.1787C18.9637 11.1769 18.857 11.198 18.7583 11.2408C18.4605 11.3914 18.1359 11.4818 17.8031 11.5069C17.6113 11.5115 17.4239 11.4488 17.2735 11.3296C17.2827 11.1597 17.2935 10.9844 17.3053 10.7992L17.3093 10.7339C17.5016 9.38656 17.4197 8.01427 17.0684 6.6994C16.6543 5.75534 15.9713 4.95416 15.1046 4.39585C14.238 3.83754 13.2261 3.54683 12.1953 3.56C12.0612 3.5614 11.9271 3.56266 11.7929 3.56378C10.7636 3.55106 9.75329 3.84184 8.88821 4.3998C8.02313 4.95777 7.34157 5.7582 6.92863 6.70116C6.57739 8.01486 6.49533 9.38601 6.68736 10.7322C6.7003 10.9314 6.7123 11.1306 6.72336 11.3299C6.55765 11.4598 6.34956 11.5234 6.13956 11.5083C5.78621 11.4932 5.44031 11.4019 5.12556 11.2406C5.04838 11.2065 4.96463 11.1898 4.88026 11.1916C4.70648 11.1848 4.5349 11.2325 4.38955 11.328C4.24419 11.4235 4.13235 11.5621 4.06965 11.7243C3.98774 12.1549 4.60255 12.4668 4.97633 12.6145C5.05533 12.6459 5.15455 12.6773 5.25941 12.7105C5.6811 12.8443 6.31849 13.0465 6.51093 13.5003C6.5603 13.6484 6.57673 13.8055 6.55907 13.9606C6.54141 14.1156 6.4901 14.265 6.4087 14.3982L6.40333 14.4097C6.12701 15.0113 5.76707 15.5709 5.33418 16.0718C4.54764 17.0502 3.43457 17.712 2.19935 17.9357C2.14098 17.9453 2.08822 17.9762 2.05122 18.0223C2.01422 18.0685 1.99559 18.1267 1.99891 18.1858C2.00154 18.2305 2.01203 18.2744 2.02991 18.3154C2.20569 18.7265 3.08813 19.066 4.58173 19.2964C4.72137 19.318 4.78046 19.5457 4.862 19.9186C4.89459 20.0679 4.92834 20.2229 4.9754 20.3828C4.99077 20.4538 5.03195 20.5165 5.09094 20.5587C5.14993 20.601 5.22252 20.6198 5.29462 20.6116C5.43776 20.6036 5.57993 20.5832 5.71954 20.5507C6.0877 20.4704 6.46311 20.4279 6.8399 20.4239C7.11058 20.4246 7.38076 20.4474 7.6477 20.4922C8.21173 20.6351 8.73636 20.9031 9.1827 21.2764C9.93602 21.9197 10.8827 22.2928 11.8724 22.3364C11.9062 22.3364 11.9398 22.3352 11.9725 22.3324C12.0136 22.3344 12.0677 22.3364 12.1244 22.3364C13.1146 22.2926 14.0618 21.9192 14.8156 21.2757C15.2615 20.9028 15.7857 20.635 16.3491 20.4923C16.6162 20.4476 16.8864 20.4248 17.1571 20.424C17.5336 20.4258 17.909 20.4656 18.2775 20.5427C18.4173 20.5733 18.5595 20.5913 18.7025 20.5965H18.7259C18.7936 20.6019 18.861 20.5825 18.9154 20.5418C18.9698 20.5011 19.0075 20.442 19.0214 20.3755C19.0678 20.2176 19.1018 20.0675 19.1353 19.9141C19.2161 19.5431 19.2752 19.3166 19.4153 19.2949C20.9093 19.0641 21.7918 18.7251 21.9663 18.3163C21.9845 18.2749 21.9953 18.2306 21.9981 18.1854C22.0014 18.1264 21.9827 18.0682 21.9457 18.0221C21.9087 17.9759 21.856 17.9451 21.7977 17.9354Z" fill="white"/>
</svg>
