<svg width="22" height="16" viewBox="0 0 22 16" fill="none" xmlns="http://www.w3.org/2000/svg">
<path d="M11.4874 15.7032L6.97385 15.6189C5.51246 15.5895 4.04744 15.6482 2.61471 15.3436C0.435191 14.8886 0.280786 12.6576 0.119218 10.7862C-0.103406 8.15528 -0.0172219 5.4766 0.402899 2.86763C0.640072 1.40372 1.57344 0.530196 3.01686 0.43514C7.88948 0.090168 12.7945 0.131051 17.6563 0.291993C18.1698 0.306747 18.6868 0.387387 19.1931 0.479176C21.6923 0.926863 21.7533 3.45508 21.9153 5.58337C22.0768 7.73361 22.0086 9.8949 21.6998 12.0305C21.4521 13.7987 20.978 15.2816 18.9776 15.4247C16.4712 15.6119 14.0223 15.7626 11.5089 15.7146C11.509 15.7032 11.4946 15.7032 11.4874 15.7032ZM8.83387 11.2266C10.7226 10.1183 12.5754 9.02858 14.4534 7.92778C12.5611 6.81955 10.7118 5.72978 8.83387 4.62898V11.2266Z" fill="white"/>
</svg>
