<svg width="17" height="17" viewBox="0 0 17 17" fill="none" xmlns="http://www.w3.org/2000/svg">
<path d="M8.50016 7.54647C7.46718 7.54647 6.59261 7.1884 5.87646 6.47225C5.16032 5.7561 4.80225 4.88154 4.80225 3.84855C4.80225 2.81557 5.16032 1.941 5.87646 1.22485C6.59261 0.508708 7.46718 0.150635 8.50016 0.150635C9.53315 0.150635 10.4077 0.508708 11.1239 1.22485C11.84 1.941 12.1981 2.81557 12.1981 3.84855C12.1981 4.88154 11.84 5.7561 11.1239 6.47225C10.4077 7.1884 9.53315 7.54647 8.50016 7.54647ZM0.427246 15.2209V14.4577C0.427246 13.9061 0.57143 13.4052 0.859798 12.9551C1.14817 12.5049 1.53549 12.1564 2.02178 11.9095C3.07421 11.3861 4.14383 10.9934 5.23063 10.7316C6.31744 10.47 7.4065 10.3392 8.49782 10.3392C9.58914 10.3392 10.679 10.47 11.7674 10.7316C12.8557 10.9934 13.9261 11.3861 14.9785 11.9095C15.4648 12.1564 15.8522 12.5049 16.1405 12.9551C16.4289 13.4052 16.5731 13.9061 16.5731 14.4577V15.2209C16.5731 15.735 16.4085 16.1566 16.0793 16.4858C15.7502 16.8151 15.3285 16.9798 14.8142 16.9798H2.1861C1.67186 16.9798 1.25016 16.8151 0.920996 16.4858C0.59183 16.1566 0.427246 15.735 0.427246 15.2209ZM2.146 15.2611H14.8543V14.4577C14.8543 14.2266 14.7972 14.0269 14.683 13.8587C14.5689 13.6905 14.4063 13.5536 14.1952 13.448C13.3206 13.0328 12.3889 12.6972 11.4002 12.4415C10.4114 12.1858 9.44478 12.0579 8.50016 12.0579C7.55554 12.0579 6.58888 12.1815 5.60016 12.4285C4.61145 12.6755 3.67976 13.0154 2.80511 13.448C2.594 13.5362 2.43141 13.6688 2.31735 13.8457C2.20311 14.0226 2.146 14.2266 2.146 14.4577V15.2611ZM8.50016 5.82772C9.05572 5.82772 9.52447 5.63675 9.90641 5.2548C10.2884 4.87286 10.4793 4.40411 10.4793 3.84855C10.4793 3.293 10.2884 2.82425 9.90641 2.4423C9.52447 2.06036 9.05572 1.86938 8.50016 1.86938C7.94461 1.86938 7.47586 2.06036 7.09391 2.4423C6.71197 2.82425 6.521 3.293 6.521 3.84855C6.521 4.40411 6.71197 4.87286 7.09391 5.2548C7.47586 5.63675 7.94461 5.82772 8.50016 5.82772Z" fill="#399624"/>
</svg>
