<svg width="26" height="33" viewBox="0 0 26 33" fill="none" xmlns="http://www.w3.org/2000/svg">
<path d="M13.0087 16.9482C13.8363 16.9482 14.5417 16.6537 15.125 16.0645C15.7083 15.4753 16 14.767 16 13.9395C16 13.112 15.7054 12.4066 15.1162 11.8232C14.5271 11.2399 13.8188 10.9482 12.9913 10.9482C12.1638 10.9482 11.4583 11.2428 10.875 11.832C10.2917 12.4212 10 13.1295 10 13.957C10 14.7845 10.2946 15.4899 10.8837 16.0732C11.4729 16.6566 12.1812 16.9482 13.0087 16.9482ZM13 28.9899C16.3056 26.0177 18.7986 23.2816 20.4792 20.7816C22.1597 18.2816 23 16.0455 23 14.0732C23 11.1566 22.0486 8.73991 20.1458 6.82324C18.2431 4.90658 15.8611 3.94824 13 3.94824C10.1389 3.94824 7.75694 4.90658 5.85417 6.82324C3.95139 8.73991 3 11.1566 3 14.0732C3 16.0455 3.84028 18.2816 5.52083 20.7816C7.20139 23.2816 9.69444 26.0177 13 28.9899ZM13 32.9482C8.63972 29.3063 5.38292 25.9237 3.22958 22.8003C1.07653 19.6767 0 16.7677 0 14.0732C0 10.351 1.23611 7.23296 3.70833 4.71908C6.18056 2.20519 9.27083 0.948242 12.9792 0.948242C16.6875 0.948242 19.7847 2.20519 22.2708 4.71908C24.7569 7.23296 26 10.351 26 14.0732C26 16.7677 24.9306 19.6705 22.7917 22.7816C20.6528 25.8927 17.3889 29.2816 13 32.9482Z" fill="#E8EAED"/>
</svg>
