<svg width="58" height="58" viewBox="0 0 58 58" fill="none" xmlns="http://www.w3.org/2000/svg">
<path d="M6.8715 57.444C5.13261 57.444 3.64511 56.8262 2.409 55.5907C1.17344 54.3546 0.555664 52.8671 0.555664 51.1282V6.8715C0.555664 5.13261 1.17344 3.64511 2.409 2.409C3.64511 1.17344 5.13261 0.555664 6.8715 0.555664H39.1365C40.0043 0.555664 40.8343 0.728166 41.6265 1.07317C42.4187 1.41817 43.0965 1.87594 43.6598 2.4465L55.5532 14.3398C56.1237 14.9032 56.5815 15.5809 56.9265 16.3732C57.2715 17.1654 57.444 17.9954 57.444 18.8632V51.1282C57.444 52.8671 56.8262 54.3546 55.5907 55.5907C54.3546 56.8262 52.8671 57.444 51.1282 57.444H6.8715ZM6.8715 53.179H51.1282C51.7265 53.179 52.2179 52.9868 52.6023 52.6023C52.9868 52.2179 53.179 51.7265 53.179 51.1282V18.6448H42.5407C41.6362 18.6448 40.879 18.3401 40.269 17.7307C39.6596 17.1207 39.3548 16.3634 39.3548 15.459V4.82066H6.8715C6.27316 4.82066 5.78178 5.01289 5.39733 5.39733C5.01289 5.78178 4.82066 6.27317 4.82066 6.8715V51.1282C4.82066 51.7265 5.01289 52.2179 5.39733 52.6023C5.78178 52.9868 6.27316 53.179 6.8715 53.179ZM42.7965 43.6198C43.3659 43.6198 43.8593 43.4065 44.2765 42.9798C44.6932 42.5537 44.9015 42.0493 44.9015 41.4665C44.9015 40.8832 44.6932 40.3854 44.2765 39.9732C43.8593 39.5609 43.3659 39.3548 42.7965 39.3548H15.2582C14.6532 39.3548 14.1418 39.5646 13.724 39.984C13.3068 40.4029 13.0982 40.904 13.0982 41.4873C13.0982 42.0701 13.3068 42.5712 13.724 42.9907C14.1418 43.4101 14.6532 43.6198 15.2582 43.6198H42.7965ZM26.8948 18.6448C27.4643 18.6448 27.9576 18.4318 28.3748 18.0057C28.7915 17.5796 28.9998 17.0751 28.9998 16.4923C28.9998 15.909 28.7915 15.4112 28.3748 14.999C27.9576 14.5862 27.4643 14.3798 26.8948 14.3798H15.2582C14.6532 14.3798 14.1418 14.5896 13.724 15.009C13.3068 15.4284 13.0982 15.9298 13.0982 16.5132C13.0982 17.0959 13.3068 17.5971 13.724 18.0165C14.1418 18.4354 14.6532 18.6448 15.2582 18.6448H26.8948ZM42.7965 31.1048C43.3659 31.1048 43.8593 30.8954 44.2765 30.4765C44.6932 30.0576 44.9015 29.5623 44.9015 28.9907C44.9015 28.4184 44.6932 27.9168 44.2765 27.4857C43.8593 27.0551 43.3659 26.8398 42.7965 26.8398H15.2582C14.6532 26.8398 14.1418 27.0546 13.724 27.484C13.3068 27.9134 13.0982 28.4223 13.0982 29.0107C13.0982 29.5829 13.3068 30.0748 13.724 30.4865C14.1418 30.8987 14.6532 31.1048 15.2582 31.1048H42.7965Z" fill="#399624"/>
</svg>
