<svg width="63" height="37" viewBox="0 0 63 37" fill="none" xmlns="http://www.w3.org/2000/svg">
<path d="M0.796673 35.5157C0.381117 35.1034 0.17334 34.6095 0.17334 34.034C0.17334 33.4584 0.380562 32.9634 0.795007 32.549L17.5767 15.8698C18.8122 14.6176 20.2772 13.9915 21.9717 13.9915C23.6661 13.9915 25.1583 14.6176 26.4483 15.8698L34.3225 23.624C34.707 24.0084 35.177 24.2007 35.7325 24.2007C36.2881 24.2007 36.7797 24.0084 37.2075 23.624L55.7008 5.22398H47.0533C46.4478 5.22398 45.9364 5.01426 45.5192 4.59482C45.102 4.17537 44.8933 3.66148 44.8933 3.05315C44.8933 2.48204 45.102 1.99037 45.5192 1.57815C45.9364 1.16537 46.4478 0.958984 47.0533 0.958984H59.6475C60.5147 0.958984 61.2533 1.26398 61.8633 1.87398C62.4728 2.48343 62.7775 3.22204 62.7775 4.08982V16.7948C62.7775 17.3726 62.5725 17.877 62.1625 18.3082C61.7525 18.7393 61.2686 18.9548 60.7108 18.9548C60.1158 18.9548 59.6028 18.7498 59.1717 18.3398C58.7411 17.9304 58.5258 17.4368 58.5258 16.859V8.25815L40.1025 26.7798C38.8575 28.0732 37.3925 28.7198 35.7075 28.7198C34.022 28.7198 32.5511 28.0732 31.295 26.7798L23.4633 18.9615C23.0506 18.577 22.5522 18.3848 21.9683 18.3848C21.3839 18.3848 20.8995 18.577 20.515 18.9615L3.89917 35.534C3.38639 36.0468 2.85973 36.3032 2.31917 36.3032C1.77862 36.3032 1.27112 36.0407 0.796673 35.5157Z" fill="#399624"/>
</svg>
