<svg width="22" height="24" viewBox="0 0 22 24" fill="none" xmlns="http://www.w3.org/2000/svg">
<path fill-rule="evenodd" clip-rule="evenodd" d="M11 1.5C10.0054 1.5 9.05161 1.89509 8.34835 2.59835C7.64509 3.30161 7.25 4.25544 7.25 5.25V6H14.75V5.25C14.75 4.25544 14.3549 3.30161 13.6517 2.59835C12.9484 1.89509 11.9946 1.5 11 1.5ZM16.25 6V5.25C16.25 3.85761 15.6969 2.52226 14.7123 1.53769C13.7277 0.553123 12.3924 0 11 0C9.60761 0 8.27226 0.553123 7.28769 1.53769C6.30312 2.52226 5.75 3.85761 5.75 5.25V6H0.5V21C0.5 21.7956 0.816071 22.5587 1.37868 23.1213C1.94129 23.6839 2.70435 24 3.5 24H18.5C19.2956 24 20.0587 23.6839 20.6213 23.1213C21.1839 22.5587 21.5 21.7956 21.5 21V6H16.25ZM2 7.5V21C2 21.3978 2.15804 21.7794 2.43934 22.0607C2.72064 22.342 3.10218 22.5 3.5 22.5H18.5C18.8978 22.5 19.2794 22.342 19.5607 22.0607C19.842 21.7794 20 21.3978 20 21V7.5H2Z" fill="#6C757D"/>
</svg>
