<svg width="40" height="40" viewBox="0 0 40 40" fill="none" xmlns="http://www.w3.org/2000/svg">
<rect x="1" y="1" width="38" height="38" rx="19" stroke="#003D4C" stroke-width="2"/>
<path d="M25.2492 14.7585C25.1721 14.6813 25.0805 14.62 24.9797 14.5782C24.8789 14.5363 24.7708 14.5148 24.6617 14.5148C24.5526 14.5148 24.4445 14.5363 24.3437 14.5782C24.2429 14.62 24.1513 14.6813 24.0742 14.7585L19.9992 18.8252L15.9242 14.7502C15.8471 14.673 15.7555 14.6118 15.6547 14.5701C15.5539 14.5283 15.4458 14.5068 15.3367 14.5068C15.2276 14.5068 15.1196 14.5283 15.0188 14.5701C14.918 14.6118 14.8264 14.673 14.7492 14.7502C14.6721 14.8273 14.6109 14.9189 14.5691 15.0197C14.5273 15.1205 14.5059 15.2286 14.5059 15.3377C14.5059 15.4468 14.5273 15.5548 14.5691 15.6556C14.6109 15.7564 14.6721 15.848 14.7492 15.9252L18.8242 20.0002L14.7492 24.0752C14.6721 24.1523 14.6109 24.2439 14.5691 24.3447C14.5273 24.4455 14.5059 24.5536 14.5059 24.6627C14.5059 24.7718 14.5273 24.8798 14.5691 24.9806C14.6109 25.0814 14.6721 25.173 14.7492 25.2502C14.8264 25.3273 14.918 25.3885 15.0188 25.4303C15.1196 25.472 15.2276 25.4935 15.3367 25.4935C15.4458 25.4935 15.5539 25.472 15.6547 25.4303C15.7555 25.3885 15.8471 25.3273 15.9242 25.2502L19.9992 21.1752L24.0742 25.2502C24.1514 25.3273 24.243 25.3885 24.3438 25.4303C24.4446 25.472 24.5526 25.4935 24.6617 25.4935C24.7708 25.4935 24.8789 25.472 24.9797 25.4303C25.0805 25.3885 25.1721 25.3273 25.2492 25.2502C25.3264 25.173 25.3876 25.0814 25.4293 24.9806C25.4711 24.8798 25.4926 24.7718 25.4926 24.6627C25.4926 24.5536 25.4711 24.4455 25.4293 24.3447C25.3876 24.2439 25.3264 24.1523 25.2492 24.0752L21.1742 20.0002L25.2492 15.9252C25.5659 15.6085 25.5659 15.0752 25.2492 14.7585Z" fill="black"/>
</svg>
