<?xml version="1.0" encoding="UTF-8"?>
<svg id="Livello_1" data-name="Livello 1" xmlns="http://www.w3.org/2000/svg" viewBox="0 0 674.89 501.73">
  <defs>
    <style>
      .cls-1 {
        fill: #473729;
      }
    </style>
  </defs>
  <path class="cls-1" d="M591.57,492.6c-4.28-3.19-22.07-.66-23.02-1.61-1.6-16.39-23.4-11.86-35.03-11.36v-203.1c0-1.42-4.48-3.32-6.12-3.27-5.53.15-6.47,4.38-6.88,8.98.71,59.39-.61,118.97-.89,178.24-.01,2.89,1.91,18.11.87,19.15-2.41-1.04-12.42-.04-12.78-2.01l-.25-201.08c-.79-4.33-10.27-4.6-12.16.87-2.26,6.54-.99,30.59-.91,39.05.49,50.24-1.54,103.1.88,152.96.16,3.38-.19,6.83-.04,10.2h-13.03c.14-4.47-.18-8.99-.04-13.46,1.77-55.31,0-110.99.88-165.99.06-4,.6-21.76-1.06-23.83-1.94-2.41-9.65-2.31-11.25.33-2.52,4.14-1.6,27.7-1.6,34.09,0,43.5.16,87.39,0,130.99-.05,12.63.11,25.27.04,37.88-13.55-1.22-29.91-4.48-35.54,11.43l-164.2.02c-.68-5.5-6.57-12.26-12.3-12.26h-23.2c-.09-29.71.12-59.45.04-89.17-.05-17.62-.95-35.19-.88-52.92.07-19.28,2.17-39.25.89-58.61-.13-1.97-.34-3.26-1.57-4.86,12.62-7.92,18.98-21.75,21.14-36.14,28.5,7.47,61.82,10.52,90.1.97,10.61-3.59,21.43-10.38,31.09-13.69,2.91-.99,7.1-.66,10-1.4,8.05-2.06,16.03-4.9,23.4-8.74.91,1.19-9.23,15.23-10.57,15.88-2.44,1.2-8.01-.07-11.46.75-8.21,1.97-14.52,23.6-11.14,31.2,10.46,3.01,27.23-.16,36.39-5.95,1.68-1.07,2.97-4.39,4.3-1.78.71,1.39,1.82,6.91,2.8,7.14,5.34-.04,11.49-1.2,16.57-2.87,16.06-5.3,17.32-15.18,25.87-27.87,4.07-6.04,17.58-21.3,18.72-26.87,2.09-10.27-3.18-19.9-13.09-23.17-11.2-3.71-27.04-2.54-38.82-5.54-.73-.72,2.35-18.02,3.11-20.09.94-2.59,9.58-15.33,11.57-16.17,1.65-.68,12.36,6.58,14.9,7.91,11.72,6.15,27.22,13.75,40.25,15.92,3.21.54,15.58.92,16.76,1.78.74.54.89,2.82,1.77,4.12,1.92,2.84,4.78,3.18,6.45,4.95,1.65,1.74,2.99,5.87,4.91,8.12,9.61,11.32,27.48,8.84,33.7-4.6,4.02-8.68,2.12-14.4-.31-23.1-4.06-14.52-12.32-38.65-18.75-52.07-2.18-4.55-5-8.5-7.59-12.79,7.83-8.08,17.15-31.68-2.55-15.73v-12.22c-10.5-2.37-18.76,5.66-26.49,11.42-9.25-1.75-18.22-4.78-27.64-5.71-22.12-2.18-45.01,3.4-65.74,10.77-4.51,1.6-8.97,5.21-13.82,4.52-2.15-.31-4.59-2.04-6.81-2.22-6.53-.58-14.26,5.12-20.24,7.3l2.02-21.17-8.94,4.06c2.88-7.39,1.29-19.91-7.92-21.78-18.79-3.82-41.01,12.36-60.16,15.17-10.56,1.55-19.24-.52-29.6-2.33-.98,5.04,1.72,8.64,2.49,13.29-11.85,9.65-10.12,25.83-2.84,37.93,3.61,6.01,8.96,9.72,12.56,15.52-8.63,2.42-20.74-9.3-27.93-7.16-5.86,1.75.08,14.26,3.51,16.92-28.99-1.6-58.82,6.04-80.37,25.94-4.78-.68-8.53-3.31-13.76-3.85-34.37-3.58-50.47,15.77-55.56,47.63-1.59,9.97-.75,18.21-5.37,28.01-4.24,8.98-10.53,11.92-17.52,18.3,15.75,9.96,35.98,0,44.91-14.52,9.8-15.96,7.6-34.9,16-50.74,2.53-4.79,10.61-14.71,16.05-15.69.94-.16,6.61-.86,6.04,1.14-.76,2.65-5.05,7.43-6.64,10.47-11.51,22.17-5.25,35.86-7.16,57.97-1.28,14.97-15.68,18.53-25.2,26.09-5.52,4.38-5.35,8.98-6.45,15.53-2.65,15.9-3.04,32.34-7.19,48.17-1.98,7.53-4.46,3.74-9.54,6.73-3.35,1.98-6.12,12.82-6.25,16.58-.12,3.27,1.91,14.83,4.93,16.29,8.24,3.97,25.3-6.64,31.74-11.8-.2,2.19.44,9.51,2.19,10.67,11.06.82,25.27-8.39,29.46-18.81,1.06-2.62,2.34-8.91,2.58-11.72.78-9.27.86-25.91.86-28.92s1.41-4.53,1.55-5.73c1.03-8.59,0,173.35,0,173.35h-24.83c-3.35,0-11.56,8.2-10.99,12.22h-22.8c-2.4,7.79-.16,10.52,7.74,10.65,6.68.12,14.46-.87,21.12-.92,146.01-1.13,292.12,1.91,437.98.67,2.2-.02,12.38-.53,13.43-1.04,2.35-1.14,2.12-6.4.25-7.79h-.04ZM452.13,133.27c7.24-6.14,16.4-7.46,25.54-8.48l1.2,1.28c-.58,10.33,5.01,18.16,12.33,24.69-13.96-3.44-26.22-11.34-39.07-17.49ZM525.02,163.79c-4.06-.69-4.91-6.74-2.65-9.53.62-.78,3.12-1.99,4.19-1.91,6.48,2.19,6.11,12.74-1.54,11.44ZM549.55,174.93c-3.66,3.14-8.54,3.33-12.38.28-5.98-4.77-.36-8.31.35-13.52.42-3.11-.04-6.27-.33-9.34l10.2-3.68c1.49,7.44,9.26,20.18,2.17,26.27h-.01ZM533.92,110.9c3.8,9.13,6.03,19.16,9.38,28.47-4.1-.54-15.45,6.25-18.35,3.28l-15.85-40.71c4.52-.65,10.25-4.04,14.46-4.75,4.41-.75,8.83,10.04,10.36,13.71ZM505.45,84.83c1.32-2.18,14.72-9.58,17.49-12.22.4,11.24-6.05,18.69-17.08,20.35-.14-2.46-1.78-5.86-.41-8.14h0ZM500.96,106.81l15.15,38.23-2.52,5.71c-4.19-4.39-11.56-5.6-15.9-9.32-6.37-5.44-7.87-15.11-5.71-22.87.54-1.94,6.9-13.35,8.98-11.76h0ZM405.74,95.83c2.11-2.45,15.36-7.36,19.09-8.59,22.56-7.44,46.03-10.6,69.48-5.52l2.46,13.1-14.2,19.14c-14.79-2.38-29.94,2.55-41.64,11.46l-36.08-27.16c-.13-1.17.18-1.6.89-2.42ZM345.88,74.23l2.39-.73c3.59,1.09,3.2,23.34,5.31,27.26,10.25,1.81,19.88-6.17,30.11-3.77-.11-8.41,14.5-10.36,12.13-2.18-1.2,4.15-9.34,3.25-12.91,4.22-8.97,2.45-20.1,9.52-29.23,11.47-7.08,1.52-6.79-3.27-7.37-9.01-.38-3.72-.74-9.24-.86-12.98-.07-2.37-.34-13.17.42-14.3h0ZM346.08,122.9c10.21,2.11,32.87-9.19,43.35-13.25,2.58-1,6.01-4.08,8.34-3.52l33.99,26.31c-6.91,7.98-13.62,17.53-15.89,28.06-1.11,5.12-.95,10.32-2.09,15.4-6.28.28-13.8-.06-19.9,1.68-5.58,1.59-17.96,9.8-5.59,11.37,12.25,1.55,28.44-4.12,40.27-2.01,9.2,1.65,14.65,11.03,10.69,19.72-2.75,6.03-21.55,31.56-26.47,35.8-3.15,2.72-22.98,12.07-25.77,10.04,1.55-7.34.94-12.32,10.16-10.61,2.21.41,4.35,2.97,6.13.46,5.48-11.37,16.99-22.05,22.29-33.06,1.58-3.28,2.47-6.84,2.12-10.51-2.11-2.11-36.55,10.72-42.17,11.97-9.94,2.21-18.15.99-25.01-7.07-2.4-2.82-6.1-9.87-6.1-13.44v-15.06c-1.19-1.39-6.64,5.99-7.18,7.07-5.68,11.4.64,30.23,12.87,34.85-3.45,2.72-15.63,8.27-19.51,6.5-2.08-.95-11.99-15.17-13.7-18.05-4.54-7.64-8.17-16.46-11.54-24.67,29.68-3.44,39.98-40.41,17.11-59.03,7.32-7.9,7.74-.18,13.6,1.04v.02h-.01ZM333.22,96.55c2.69-.45,1.75,7.71,1.31,9.49l-16.46,7.2c-2.33.21-5.32-8.79-8.39-8.87l23.55-7.81h0ZM301.33,138.86c.56-5.21-15.46-19.01-19.31-23.51-5.66-6.63-11.74-15.16-10.53-24.32.32-2.41,1.8-6.96,4.79-6.98,4.21,9.92,14.13,14.83,21.21,22.36,3.79,4.04,8.34,9.86,11.7,14.35,5.35,7.17,10.65,11.76,7.86,21.52-1.88,6.61-8.59,12.67-12.59,18.35-4.88,6.93-23.71,36.42-31.12,37.18-.61.06-2.8-.53-2.68-.99,7.84-20.59,19.71-39,30.69-57.93h-.01ZM292.58,204.49c-.27.26-6.23-1.81-7.11-2.26-2.6-1.32.68-2.74,1.82-4.22.69.93,6.34,5.47,5.28,6.5h0ZM148.42,341.17l-5.63.08c-.18-3.35.48-6.67,1.06-9.94,1.28-7.33,4.06-24.71,6.67-30.76,1.18-2.71,3.78-5.07,6.92-4.87,0,0-9.03,45.5-9.03,45.5ZM194.92,476.83c-.71,5.47-8.57.52-13.06,2,.29-7.18-.19-14.44-.05-21.61.82-39.99,1.32-80.32.91-120.48-.13-12.62-2.35-26.44-.89-39.08.13-1.17.08-2.14,1.33-2.74l10.92-4.13c1.68,4.79-.07,9-.04,13.39.46,53.75-1.47,108.19,0,162.07.09,3.53,1.37,6.88.88,10.59h0ZM207.92,478.82c.73-4.01-.87-8.05-.88-11.8-.15-55.43-2.02-114.05.04-169.36.26-7,1.52-14.47,1.67-21.52q1.69-1.33,4.78-1.38,5.04-.08,7.41-.26v205.13l-13.03-.81h.01ZM225,218.7c-2.37,4.13-2.4,9.37-3.85,14.07-2.86,9.37-13.22,29.31-20.62,35.54-4.42,3.72-12.37,5.67-17.42,8.61,0,0-6.23,3.18-13.45,4.88-10.84,1.34-25.27,1.92-29.7,13.85-5.37,14.43-4.81,34.93-10.04,48.57-3.08,8.04-11.87,13-19.69,15.72-.82-.87-.41-9.39.38-10.61.69-1.08,6.59-1.89,8.53-3.67,1.53-1.41,2.19-4.12,2.93-6.03l10.32-60.5c5.21-6.33,13.25-9.29,18.98-15.2,23.56-24.36-2.19-62.34,28.44-91.24,16.58-15.64,43.21-22.14,65.55-22.75-4.01,15.33,3.2,30.36,19.51,32.59,1.57,2.24-9.8,18.49-6.93,22.8,1.17,1.74,29.55,7.03,33.42,7.27,20.12,1.26,3.74-12.43,3.99-19.12.07-2.06,5.01-10.98,8.08-10.09,2.19.62,7.05,15.39,8.53,18.38,4.27,8.6,10.12,17.62,15.62,25.49-23.49,7.4-48.19,3.39-71.64-2.01-5.19-1.2-27.24-8.74-30.94-6.55h-.01Z"/>
  <path class="cls-1" d="M248.19,367.35h206.72c1.38-.25,1.86-13.5.47-15.52h-208.39c-2.32,5.19-1.46,9.67-.09,14.99l1.28.53h.01Z"/>
  <path class="cls-1" d="M451.72,315.2h-206.36l.81,14.65h209.2c.74,0,1.21-11.86.71-13.32-.76-2.22-3.1-1.33-4.37-1.33h0Z"/>
  <path class="cls-1" d="M247.53,404.77l206.66.85,1.05-.2c2.47-4.35,2.29-9.66.76-14.32-1.68-1.69-28.16-1.02-32.81-1.04-39.59-.14-79.82-.22-119.66,0-15.6.08-31.59-.05-47.19.84-3.35.19-6.74-.21-10.09.09-1.48,1.98-.35,13.4,1.27,13.78h0Z"/>
  <path class="cls-1" d="M250.64,441.38l201.11.02,4.25-1.05c4.41-15.83-4.2-11.44-14.9-11.98-2.19-.11-4.22-1.01-6.44-.88l-189.3.85c.18,4.79-1.53,12.76,5.28,13.04h0Z"/>
  <path class="cls-1" d="M382.18,65.64c11.63,4.82,19.34-7.13,18.25-17.43-2.44,2.94-4.79,9.1-8.72,10.05-5.72,1.4-10.46-12.89-8.01-14.58,3.54-2.46,27.96,8.27,30.08,1.54,1.51-4.8-5.4-6.4-7.14-8.92-2.66-3.86-1.74-9.27-6.9-13.86-16.25-14.44-39.44.98-35.46,21.62,13.55.78,6.91,17.03,17.9,21.58Z"/>
  <path class="cls-1" d="M527.71,116.45c.45-2.74.66-6.7-2.77-7.21-7.07-1.05-3.07,11.42,2.77,7.21Z"/>
</svg>