<svg width="19" height="19" viewBox="0 0 19 19" fill="none" xmlns="http://www.w3.org/2000/svg">
<path d="M4.71875 14.5488H11.7188V12.5488H4.71875V14.5488ZM4.71875 10.5488H14.7188V8.54883H4.71875V10.5488ZM4.71875 6.54883H14.7188V4.54883H4.71875V6.54883ZM2.71875 18.5488C2.16875 18.5488 1.69792 18.353 1.30625 17.9613C0.914583 17.5697 0.71875 17.0988 0.71875 16.5488V2.54883C0.71875 1.99883 0.914583 1.52799 1.30625 1.13633C1.69792 0.744661 2.16875 0.548828 2.71875 0.548828H16.7188C17.2688 0.548828 17.7396 0.744661 18.1313 1.13633C18.5229 1.52799 18.7188 1.99883 18.7188 2.54883V16.5488C18.7188 17.0988 18.5229 17.5697 18.1313 17.9613C17.7396 18.353 17.2688 18.5488 16.7188 18.5488H2.71875ZM2.71875 16.5488H16.7188V2.54883H2.71875V16.5488Z" fill="#483627"/>
</svg>
