<svg width="56" height="55" viewBox="0 0 56 55" fill="none" xmlns="http://www.w3.org/2000/svg">
<path d="M44.617 42.6498C44.338 42.44 43.1782 42.6064 43.1162 42.5439C43.0119 41.4659 41.5906 41.7638 40.8324 41.7967V28.4383C40.8324 28.345 40.5403 28.22 40.4334 28.2233C40.0729 28.2331 40.0116 28.5114 39.9849 28.8139C40.0312 32.7201 39.9451 36.6389 39.9268 40.5372C39.9262 40.7273 40.0514 41.7283 39.9836 41.7967C39.8264 41.7283 39.1738 41.7941 39.1504 41.6645L39.1341 28.439C39.0826 28.1542 38.4645 28.1365 38.3413 28.4962C38.1939 28.9264 38.2767 30.5082 38.2819 31.0646C38.3139 34.369 38.1815 37.8458 38.3393 41.1252C38.3498 41.3475 38.3269 41.5744 38.3367 41.7961H37.4872C37.4963 41.5021 37.4755 41.2048 37.4846 40.9108C37.6 37.2729 37.4846 33.6107 37.542 29.9932C37.5459 29.7301 37.5811 28.562 37.4729 28.4259C37.3464 28.2673 36.8437 28.2739 36.7394 28.4476C36.5751 28.7199 36.6351 30.2695 36.6351 30.6897C36.6351 33.5508 36.6455 36.4376 36.6351 39.3053C36.6318 40.136 36.6423 40.9673 36.6377 41.7967C35.7543 41.7165 34.6877 41.5021 34.3207 42.5485L23.6155 42.5498C23.5712 42.1881 23.1872 41.7435 22.8136 41.7435H21.3011C21.2952 39.7894 21.3089 37.8333 21.3037 35.8785C21.3004 34.7196 21.2417 33.564 21.2463 32.3978C21.2509 31.1298 21.3878 29.8163 21.3043 28.5429C21.2958 28.4134 21.2821 28.3285 21.202 28.2233C22.0247 27.7024 22.4394 26.7927 22.5802 25.8463C24.4383 26.3376 26.6106 26.5382 28.4543 25.9101C29.1461 25.6739 29.8515 25.2273 30.4813 25.0096C30.671 24.9445 30.9442 24.9662 31.1332 24.9176C31.6581 24.7821 32.1783 24.5953 32.6588 24.3427C32.7181 24.421 32.0571 25.3444 31.9697 25.3872C31.8106 25.4661 31.4475 25.3826 31.2225 25.4365C30.6873 25.5661 30.2759 26.9887 30.4963 27.4886C31.1782 27.6866 32.2715 27.4781 32.8687 27.0972C32.9783 27.0269 33.0624 26.8085 33.1491 26.9802C33.1954 27.0716 33.2677 27.4347 33.3316 27.4498C33.6798 27.4472 34.0807 27.3709 34.4119 27.261C35.459 26.9124 35.5411 26.2626 36.0985 25.4279C36.3639 25.0307 37.2447 24.027 37.319 23.6606C37.4553 22.9852 37.1117 22.3518 36.4656 22.1367C35.7354 21.8927 34.7027 21.9696 33.9347 21.7723C33.8871 21.725 34.0879 20.5871 34.1375 20.4509C34.1987 20.2806 34.762 19.4427 34.8918 19.3874C34.9993 19.3427 35.6976 19.8202 35.8632 19.9077C36.6273 20.3122 37.6378 20.812 38.4873 20.9548C38.6966 20.9903 39.5031 21.0153 39.58 21.0718C39.6282 21.1074 39.638 21.2573 39.6954 21.3428C39.8206 21.5296 40.007 21.552 40.1159 21.6684C40.2235 21.7828 40.3108 22.0545 40.436 22.2025C41.0626 22.947 42.2276 22.7839 42.6331 21.8999C42.8952 21.329 42.7713 20.9528 42.6129 20.3806C42.3482 19.4256 41.8097 17.8385 41.3905 16.9558C41.2484 16.6565 41.0645 16.3967 40.8956 16.1146C41.4061 15.5831 42.0138 14.0309 40.7294 15.08V14.2762C40.0448 14.1203 39.5063 14.6485 39.0024 15.0274C38.3993 14.9122 37.8145 14.713 37.2004 14.6518C35.7582 14.5084 34.2659 14.8754 32.9144 15.3602C32.6203 15.4654 32.3296 15.7028 32.0134 15.6575C31.8732 15.6371 31.7141 15.5233 31.5694 15.5114C31.1437 15.4733 30.6397 15.8482 30.2498 15.9916L30.3815 14.5992L29.7987 14.8662C29.9864 14.3801 29.8828 13.5567 29.2823 13.4337C28.0573 13.1824 26.6086 14.2466 25.3601 14.4315C24.6717 14.5334 24.1058 14.3973 23.4303 14.2782C23.3665 14.6097 23.5425 14.8465 23.5927 15.1523C22.8201 15.787 22.9329 16.8512 23.4075 17.6471C23.6429 18.0424 23.9917 18.2864 24.2264 18.6679C23.6637 18.827 22.8742 18.0562 22.4055 18.1969C22.0234 18.312 22.4107 19.1348 22.6343 19.3098C20.7443 19.2046 18.7995 19.7071 17.3945 21.0159C17.0829 20.9712 16.8384 20.7982 16.4974 20.7627C14.2566 20.5272 13.207 21.7999 12.8751 23.8954C12.7715 24.5512 12.8262 25.0932 12.525 25.7377C12.2486 26.3284 11.8385 26.5217 11.3828 26.9414C12.4096 27.5965 13.7286 26.9414 14.3108 25.9864C14.9497 24.9366 14.8062 23.6909 15.3539 22.6491C15.5188 22.334 16.0456 21.6815 16.4003 21.6171C16.4616 21.6066 16.8312 21.5605 16.7941 21.6921C16.7445 21.8664 16.4648 22.1808 16.3612 22.3807C15.6108 23.8389 16.0189 24.7393 15.8944 26.1935C15.8109 27.1781 14.8721 27.4123 14.2514 27.9095C13.8915 28.1976 13.9026 28.5002 13.8309 28.931C13.6581 29.9768 13.6327 31.0581 13.3622 32.0992C13.2331 32.5945 13.0714 32.3452 12.7402 32.5419C12.5218 32.6721 12.3412 33.3851 12.3327 33.6324C12.3249 33.8475 12.4572 34.6078 12.6541 34.7038C13.1913 34.9649 14.3036 34.2671 14.7234 33.9277C14.7104 34.0718 14.7521 34.5532 14.8662 34.6295C15.5873 34.6834 16.5137 34.0777 16.7869 33.3923C16.856 33.22 16.9395 32.8063 16.9551 32.6215C17.006 32.0118 17.0112 30.9173 17.0112 30.7193C17.0112 30.5214 17.1031 30.4214 17.1122 30.3425C17.1794 29.7775 17.1122 41.7441 17.1122 41.7441H15.4934C15.275 41.7441 14.7397 42.2834 14.7769 42.5478H13.2904C13.134 43.0602 13.28 43.2398 13.7951 43.2483C14.2306 43.2562 14.7378 43.1911 15.172 43.1878C24.6912 43.1135 34.217 43.3134 43.7265 43.2319C43.8699 43.2306 44.5336 43.197 44.602 43.1635C44.7552 43.0885 44.7402 42.7425 44.6183 42.6511H44.6157L44.617 42.6498ZM35.5261 19.0158C35.9981 18.6119 36.5953 18.5251 37.1912 18.458L37.2695 18.5422C37.2316 19.2217 37.5961 19.7367 38.0733 20.1662C37.1632 19.9399 36.3639 19.4203 35.5261 19.0158ZM40.2782 21.0232C40.0136 20.9778 39.9581 20.5799 40.1055 20.3964C40.1459 20.3451 40.3089 20.2655 40.3786 20.2707C40.8011 20.4148 40.777 21.1087 40.2782 21.0232ZM41.8775 21.7559C41.6389 21.9624 41.3207 21.9749 41.0704 21.7743C40.6805 21.4606 41.0469 21.2277 41.0932 20.885C41.1206 20.6805 41.0906 20.4727 41.0717 20.2707L41.7367 20.0287C41.8338 20.518 42.3404 21.356 41.8782 21.7565H41.8775V21.7559ZM40.8585 17.5445C41.1062 18.145 41.2516 18.8047 41.47 19.417C41.2027 19.3815 40.4628 19.8281 40.2737 19.6327L39.2403 16.9551C39.535 16.9124 39.9086 16.6894 40.1831 16.6427C40.4706 16.5934 40.7587 17.3031 40.8585 17.5445ZM39.0024 15.8298C39.0884 15.6864 39.962 15.1997 40.1426 15.026C40.1687 15.7653 39.7482 16.2553 39.0291 16.3645C39.02 16.2027 38.913 15.9791 39.0024 15.8291V15.8298ZM38.7096 17.2755L39.6973 19.7899L39.5331 20.1655C39.2599 19.8768 38.7794 19.7972 38.4964 19.5525C38.0811 19.1947 37.9834 18.5587 38.1242 18.0483C38.1594 17.9207 38.574 17.1702 38.7096 17.2748V17.2755ZM32.5017 16.5533C32.6393 16.3921 33.5031 16.0692 33.7463 15.9883C35.2171 15.4989 36.7472 15.2911 38.2761 15.6252L38.4365 16.4868L37.5107 17.7457C36.5464 17.5892 35.5587 17.9134 34.7959 18.4995L32.4437 16.7131C32.4352 16.6361 32.4554 16.6079 32.5017 16.5539V16.5533ZM28.5991 15.1326L28.7549 15.0846C28.9889 15.1563 28.9635 16.6197 29.1011 16.8775C29.7693 16.9966 30.3972 16.4717 31.0641 16.6296C31.057 16.0764 32.0095 15.9482 31.8549 16.4862C31.7767 16.7591 31.246 16.6999 31.0133 16.7637C30.4285 16.9249 29.7028 17.3899 29.1076 17.5182C28.646 17.6181 28.6649 17.3031 28.6271 16.9255C28.6023 16.6809 28.5789 16.3178 28.571 16.0718C28.5665 15.9159 28.5489 15.2056 28.5984 15.1313L28.5991 15.1326ZM28.6121 18.3337C29.2778 18.4725 30.7551 17.7293 31.4383 17.4622C31.6066 17.3965 31.8302 17.1939 31.9821 17.2307L34.1981 18.9612C33.7476 19.4861 33.3101 20.1142 33.1621 20.8068C33.0898 21.1435 33.1002 21.4855 33.0259 21.8197C32.6164 21.8381 32.1262 21.8157 31.7285 21.9302C31.3647 22.0347 30.5576 22.5747 31.364 22.678C32.1627 22.7799 33.2182 22.407 33.9895 22.5458C34.5893 22.6543 34.9446 23.2713 34.6864 23.8428C34.5071 24.2394 33.2814 25.9186 32.9607 26.1975C32.7553 26.3764 31.4625 26.9914 31.2806 26.8578C31.3816 26.3751 31.3419 26.0475 31.943 26.16C32.087 26.187 32.2266 26.3553 32.3426 26.1902C32.6999 25.4424 33.4503 24.74 33.7958 24.0158C33.8988 23.8001 33.9569 23.5659 33.934 23.3245C33.7965 23.1858 31.5511 24.0296 31.1847 24.1118C30.5367 24.2572 30.0014 24.177 29.5542 23.6468C29.3977 23.4613 29.1565 22.9977 29.1565 22.7628V21.7723C29.0789 21.6809 28.7236 22.1663 28.6884 22.2373C28.3181 22.9871 28.7301 24.2256 29.5275 24.5295C29.3025 24.7084 28.5084 25.0734 28.2555 24.957C28.1199 24.8945 27.4738 23.9592 27.3623 23.7698C27.0663 23.2673 26.8297 22.6872 26.6099 22.1472C28.545 21.921 29.2165 19.4894 27.7254 18.2647C28.2027 17.7451 28.2301 18.2528 28.6121 18.3331V18.3344H28.6115L28.6121 18.3337ZM27.7737 16.6006C27.9491 16.571 27.8878 17.1077 27.8591 17.2248L26.786 17.6984C26.6341 17.7122 26.4391 17.1202 26.239 17.115L27.7743 16.6013L27.7737 16.6006ZM25.6946 19.3835C25.7311 19.0408 24.6867 18.1331 24.4357 17.8371C24.0667 17.4011 23.6703 16.84 23.7492 16.2376C23.77 16.0791 23.8665 15.7798 24.0614 15.7785C24.3359 16.4309 24.9827 16.7539 25.4442 17.2491C25.6913 17.5149 25.988 17.8977 26.207 18.193C26.5558 18.6646 26.9014 18.9665 26.7195 19.6084C26.5969 20.0432 26.1594 20.4417 25.8987 20.8153C25.5805 21.2711 24.3529 23.2108 23.8698 23.2607C23.83 23.2647 23.6872 23.2259 23.695 23.1956C24.2062 21.8414 24.9801 20.6305 25.6959 19.3854H25.6952L25.6946 19.3835ZM25.1241 23.7001C25.1065 23.7172 24.718 23.5811 24.6606 23.5515C24.4911 23.4646 24.7049 23.3712 24.7792 23.2739C24.8242 23.3351 25.1926 23.6337 25.1235 23.7014L25.1241 23.7001ZM15.7255 32.6899L15.3585 32.6951C15.3467 32.4748 15.3897 32.2564 15.4276 32.0414C15.511 31.5592 15.6923 30.4161 15.8624 30.0182C15.9393 29.84 16.1089 29.6847 16.3136 29.6979L15.7249 32.6905L15.7255 32.6899ZM18.7571 41.6126C18.7108 41.9723 18.1984 41.6468 17.9057 41.7441C17.9246 41.2719 17.8933 40.7944 17.9024 40.3228C17.9559 37.6925 17.9885 35.0399 17.9617 32.3985C17.9532 31.5685 17.8085 30.6595 17.9037 29.8281C17.9122 29.7512 17.9089 29.6874 17.9904 29.6479L18.7023 29.3763C18.8119 29.6913 18.6978 29.9682 18.6997 30.257C18.7297 33.7922 18.6039 37.3729 18.6997 40.9167C18.7056 41.1489 18.7891 41.3692 18.7571 41.6132V41.6126ZM19.6047 41.7435C19.6522 41.4797 19.5479 41.214 19.5473 40.9673C19.5375 37.3216 19.4156 33.466 19.5499 29.8281C19.5668 29.3677 19.649 28.8764 19.6588 28.4127C19.7322 28.3544 19.8361 28.3241 19.9704 28.3219C20.1895 28.3184 20.3505 28.3127 20.4535 28.3048V41.7967L19.604 41.7435H19.6047ZM20.7182 24.6347C20.5637 24.9064 20.5617 25.251 20.4672 25.5601C20.2807 26.1764 19.6053 27.4879 19.1229 27.8977C18.8347 28.1424 18.3164 28.2706 17.9871 28.464C17.9871 28.464 17.581 28.6732 17.1103 28.785C16.4035 28.8731 15.4628 28.9113 15.1739 29.6959C14.8238 30.645 14.8604 31.9933 14.5194 32.8905C14.3186 33.4193 13.7455 33.7455 13.2357 33.9244C13.1822 33.8672 13.2089 33.3068 13.2605 33.2266C13.3054 33.1555 13.6901 33.1023 13.8166 32.9852C13.9163 32.8925 13.9594 32.7142 14.0076 32.5886L14.6804 28.6094C15.0201 28.193 15.5443 27.9983 15.9178 27.6096C17.4538 26.0074 15.7751 23.5094 17.772 21.6085C18.8529 20.5799 20.5891 20.1523 22.0456 20.1122C21.7842 21.1205 22.2542 22.1091 23.3176 22.2557C23.4199 22.4031 22.6786 23.4719 22.8658 23.7554C22.942 23.8698 24.7923 24.2177 25.0446 24.2335C26.3563 24.3164 25.2884 23.416 25.3047 22.9759C25.3093 22.8405 25.6314 22.2538 25.8315 22.3123C25.9743 22.3531 26.2911 23.3245 26.3876 23.5212C26.666 24.0868 27.0474 24.6801 27.406 25.1977C25.8745 25.6845 24.2642 25.4207 22.7354 25.0655C22.397 24.9866 20.9594 24.4907 20.7182 24.6347Z" fill="#AB162B"/>
<path d="M22.229 34.4114H35.7063C35.7962 34.395 35.8275 33.5235 35.7369 33.3906H22.1507C21.9995 33.732 22.0556 34.0266 22.1449 34.3766L22.2283 34.4114H22.229Z" fill="#AB162B"/>
<path d="M35.4987 30.9813H22.0449L22.0977 31.9449H35.7367C35.7849 31.9449 35.8156 31.1648 35.783 31.0688C35.7334 30.9228 35.5809 30.9813 35.4981 30.9813H35.4987Z" fill="#AB162B"/>
<path d="M22.1869 36.873L35.6603 36.9289L35.7288 36.9157C35.8898 36.6296 35.8781 36.2804 35.7783 35.9739C35.6688 35.8627 33.9424 35.9068 33.6392 35.9055C31.0581 35.8963 28.4353 35.891 25.8379 35.9055C24.8209 35.9107 23.7784 35.9022 22.7613 35.9607C22.5429 35.9732 22.3219 35.9469 22.1035 35.9666C22.007 36.0969 22.0807 36.848 22.1863 36.873H22.1869Z" fill="#AB162B"/>
<path d="M22.3896 39.2806L35.5012 39.2819L35.7783 39.2129C36.0658 38.1717 35.5044 38.4605 34.8068 38.4249C34.6641 38.4177 34.5317 38.3585 34.387 38.3671L22.0454 38.423C22.0571 38.738 21.9457 39.2622 22.3896 39.2806Z" fill="#AB162B"/>
<path d="M30.966 14.5676C31.7242 14.8846 32.2269 14.0986 32.1558 13.4212C31.9967 13.6145 31.8435 14.0197 31.5873 14.0822C31.2144 14.1742 30.9054 13.2344 31.0651 13.1232C31.2959 12.9614 32.888 13.6671 33.0262 13.2245C33.1246 12.9088 32.6741 12.8036 32.5607 12.6378C32.3873 12.3839 32.4472 12.0281 32.1108 11.7262C31.0514 10.7764 29.5395 11.7907 29.799 13.1482C30.6824 13.1995 30.2495 14.2683 30.966 14.5676Z" fill="#AB162B"/>
<path d="M40.4538 17.909C40.4831 17.7288 40.4968 17.4684 40.2732 17.4348C39.8122 17.3658 40.073 18.1859 40.4538 17.909Z" fill="#AB162B"/>
</svg>
