<svg width="55" height="55" viewBox="0 0 55 55" fill="none" xmlns="http://www.w3.org/2000/svg">
<path d="M43.6193 35.1035C43.5125 35.0031 43.3092 34.9575 43.225 34.8782C43.1059 34.7653 42.9335 34.3893 42.6983 34.163C42.0736 33.5607 41.2845 33.0444 40.6603 32.4332C40.4319 32.2095 40.2424 31.8983 40.0212 31.6932C39.6392 31.3394 38.8944 31.0774 38.4174 30.8179C37.5663 30.3554 36.7218 29.8774 35.8635 29.4279C36.0729 27.9161 36.0375 26.3334 36.9523 25.0423C37.8507 25.3106 38.7906 25.322 39.7224 25.3458C39.7979 25.3479 39.8728 25.3888 39.9519 25.3919C40.0638 25.3966 40.1706 25.3106 40.3086 25.3536C40.4195 25.3883 40.4873 25.6203 40.5992 25.7083C40.7691 25.8419 41.0428 25.8637 41.2332 26.0382C41.3882 26.1812 41.5227 26.4313 41.7168 26.566C42.264 26.9446 43.1111 26.7089 43.4247 26.1252C43.9766 25.0972 43.052 24.2064 42.5756 23.3913C42.0448 22.4829 41.7363 21.388 40.8482 20.7474C41.0848 20.217 41.2717 19.5966 41.0972 19.0197L41.0448 18.9803C40.3543 18.9073 39.8004 19.5531 39.2244 19.8504C38.7296 19.2315 37.7018 18.9296 36.9302 18.9725C36.6458 18.9886 36.3101 19.0787 36.0165 19.1124C35.7844 19.1393 35.3055 19.1108 35.1109 19.1683C34.8019 19.2595 35.1289 19.8312 35.3861 19.8882C35.5652 19.9281 36.3471 20.0068 36.517 19.9861C36.8599 19.9441 37.0437 19.6582 37.3445 19.6634C37.5627 19.6676 38.0417 19.8146 38.2367 19.9213C38.3071 19.9597 38.3923 19.9747 38.3743 20.0824C38.2044 20.0803 38.0381 20.0746 37.8687 20.1031C37.1746 20.2212 36.384 20.5428 35.6961 20.7282C35.4133 20.4781 35.1268 20.4061 34.768 20.3279C34.5601 20.2823 33.0421 20.0089 33.1155 20.4227C33.4122 20.8442 33.922 20.7852 34.3578 20.8805C34.4317 20.8965 34.9795 21.0338 34.8968 21.1441C34.4846 21.1974 34.2284 21.4968 33.8681 21.6532C33.7079 21.1638 33.0652 21.1643 32.6375 21.1964C32.4635 21.2099 31.6396 21.331 31.6083 21.4968C31.5215 21.9536 33.0262 21.9318 33.2952 21.9753C33.3188 22.0665 33.2572 22.0644 33.2181 22.1048C33.0785 22.2488 32.8603 22.357 32.7238 22.5181L32.2156 22.256L30.4573 22.1597C30.4979 21.3352 30.5661 20.5133 30.7812 19.7157C31.0328 19.6991 31.2807 19.8229 31.5318 19.8058C32.1447 19.7639 32.4912 18.9694 32.425 18.4189C32.6381 18.4132 32.8937 18.4733 33.0462 18.2837C33.251 18.03 32.7926 17.8363 32.6899 17.6213C32.6242 17.4831 32.6339 17.3101 32.5852 17.1728C32.4496 16.7906 32.0261 16.3644 31.6457 16.2277C30.1924 15.7046 28.9306 17.2438 29.6334 18.6038C28.9876 18.6287 28.4809 18.8089 27.9259 19.1212C27.2309 19.5127 25.1271 21.0011 24.8191 21.6656C24.6081 22.1208 24.5054 22.6776 24.682 23.1608L25.1025 23.9138C25.0162 23.992 24.1805 23.5337 23.988 23.5948C23.799 23.6549 23.9854 24.3525 24.0039 24.5141C23.529 24.3975 23.0798 24.1935 22.5937 24.1132C21.3786 23.9128 20.2343 24.18 19.1763 24.7896C17.9863 23.9889 16.784 23.673 15.363 23.9915C14.5596 24.1717 13.0683 24.8895 12.5149 25.5043C12.3809 25.6534 12.3055 25.8331 12.5503 25.8891C13.0591 26.0046 13.7377 25.3893 14.1797 25.1531C15.6782 24.352 17.032 24.2955 18.531 25.1578C18.571 25.5369 18.1993 25.3127 17.9878 25.2976C17.0833 25.2329 15.9683 25.9471 15.399 26.6141C15.133 26.9259 14.9482 27.335 14.6438 27.6064C14.3445 27.8726 13.3378 28.3864 12.9518 28.4392C12.3917 28.5159 11.6761 28.3828 11.0986 28.4392L11.1268 28.7209C11.6427 28.8944 12.3132 29.112 12.8599 29.0845C13.3794 29.0586 14.2675 28.737 14.7157 28.4635C15.8384 27.7789 16.1485 25.9937 17.802 25.8979C17.8826 25.8932 17.9791 25.8616 17.9637 25.9688C17.9411 26.1289 17.5032 26.8265 17.4057 27.0683C17.0592 27.9244 17.1254 28.6453 16.9262 29.4931C16.61 30.8407 15.4662 31.1178 14.326 31.5331C13.8373 32.6554 13.0514 33.8637 12.1751 34.7192C11.7972 35.0885 11.249 34.7835 10.7772 34.9715C10.7341 35.0005 10.5236 35.8514 10.4974 35.9819C10.463 36.1507 10.2885 36.9674 10.4091 37.0529C10.7587 37.1 11.1278 37.0695 11.4749 37.0141C11.9436 36.9395 12.5683 36.6484 12.9898 36.4185C13.5457 36.1155 14.1931 35.0916 14.6448 34.5794C15.1541 34.002 15.6351 33.4514 16.361 33.149C16.3846 33.178 16.0961 33.7446 16.0489 33.8264C15.7496 34.3474 14.6859 35.9399 14.2783 36.2874C14.0612 36.4723 13.9215 36.4874 13.7341 36.7546C13.6192 36.9182 13.1864 37.7904 13.113 37.836L10.7649 37.8681C10.3552 38.01 10.5986 38.3751 10.8557 38.5413L42.706 38.5123C43.0685 38.5087 43.1008 38.5134 43.3636 38.5206C43.5197 38.5248 43.9109 38.5243 44.0125 38.2612C44.166 37.8639 43.2825 37.9105 42.9709 37.9064C34.3255 37.7982 25.6189 37.823 16.9806 37.8603C16.4236 37.8624 15.8656 37.8546 15.3086 37.8582C15.3615 37.5604 15.6428 37.4025 15.8102 37.1876C16.648 36.1129 17.5366 34.3971 18.7004 33.7321C20.2882 32.8248 22.2826 32.3183 23.203 30.5636C23.9248 31.066 24.7703 31.427 25.6066 31.6932C27.7047 32.3618 29.8603 32.3556 31.9553 31.6838C32.2489 31.5901 32.4743 31.5135 32.7135 31.3084C33.5164 31.818 34.4764 32.008 35.3989 32.18C35.191 32.3752 34.9605 32.5622 34.7269 32.7248C34.6258 32.7953 34.0903 33.1578 34.0272 33.1769C33.8157 33.2417 33.0862 32.962 32.848 33.1609C32.7885 33.2106 32.2684 34.4354 32.2284 34.5903C32.1658 34.8332 32.1303 35.0662 32.1498 35.319H33.271C33.6016 35.319 34.7367 34.8187 35.0637 34.6343C35.6751 34.2904 36.4472 33.6451 37.0427 33.2148C37.1479 33.1386 37.307 32.9439 37.4148 32.8952C37.5576 32.831 38.0945 33.0666 38.267 33.1407C39.0391 33.4737 40.4858 34.5173 41.0263 35.1584C41.13 35.2812 41.2933 35.6168 41.361 35.6748C41.4858 35.7809 41.7707 35.7457 41.8554 35.8462L42.0453 36.7862C42.8215 37.0482 43.5659 37.0524 44.3688 36.9353C44.3729 36.854 44.3709 36.7732 44.3575 36.6924C44.3159 36.4459 43.7872 35.261 43.6203 35.1046L43.6193 35.1035ZM37.6181 24.513C37.5524 24.5037 37.4831 24.5565 37.5026 24.4462L38.0694 24.0091L38.5088 24.6534C38.2147 24.5948 37.9159 24.5545 37.6176 24.513H37.6181ZM40.9 24.7564L41.3015 24.7222C41.6999 25.2857 40.6177 25.4271 40.9 24.7564ZM42.992 25.3261C43.1198 26.1848 42.1845 26.3132 41.7353 25.7161C41.4832 25.3815 41.725 25.294 41.7158 25.0014C41.7106 24.8414 41.6033 24.6989 41.5823 24.5431L42.2861 24.0614C42.3811 24.0614 42.9694 25.1687 42.9925 25.3261H42.992ZM41.1367 21.9334C41.4673 22.4337 41.6572 23.0551 41.9745 23.5689C41.9683 23.6502 41.0484 24.2473 40.9421 24.1847L39.5145 21.8127C39.5094 21.7505 39.5509 21.7345 39.591 21.7039C39.6582 21.6537 40.4534 21.2383 40.5048 21.2358C40.5489 21.2337 40.5751 21.2342 40.6146 21.2585C40.6505 21.2813 41.0823 21.8495 41.1377 21.9328L41.1367 21.9334ZM39.593 20.4144L40.5684 19.7597C40.5689 19.8934 40.535 20.0379 40.4863 20.1611C40.4591 20.2305 40.1711 20.7753 40.1428 20.8075C40.0884 20.8686 39.2337 21.3212 39.1962 21.2834L39.0319 20.636L39.593 20.4138V20.4144ZM38.9467 21.9774C39.0078 21.9639 39.1875 22.2602 39.2332 22.3301C39.3938 22.5781 40.4041 24.3007 40.4288 24.4483C40.4421 24.5301 40.4293 24.6171 40.4319 24.6995C39.6218 24.8036 38.8517 24.3861 38.6577 23.5575C38.5966 23.297 38.6295 22.4937 38.7018 22.2384C38.7255 22.1545 38.8861 22.0494 38.9472 21.9769L38.9467 21.9774ZM33.2043 22.9257C33.3603 22.7542 33.8732 22.4357 34.0919 22.2974C35.4097 21.4626 36.846 20.9053 38.3938 20.68C38.4606 20.679 38.4713 20.7142 38.5006 20.7608C38.5555 20.8489 38.7496 21.4471 38.7306 21.5279C38.6238 21.7117 38.3332 21.8743 38.2444 22.0551C38.1916 22.1623 38.0042 22.6072 37.9795 22.7118C37.9395 22.8822 37.959 23.2659 37.8548 23.3949C37.7942 23.4705 37.3758 23.7196 37.2511 23.8242C37.1043 23.9475 36.8194 24.3343 36.6556 24.3349C35.4548 23.9925 34.2521 23.6481 33.1052 23.1494C33.1052 23.0531 33.1417 22.9951 33.2038 22.9267L33.2043 22.9257ZM31.9476 22.8935C32.7418 22.8666 32.5282 23.4425 31.8275 23.3141L31.9476 22.8935ZM31.7109 19.0642C31.3023 19.5137 30.8454 18.7535 30.8213 18.3744C31.0507 18.3904 31.3049 18.3521 31.5307 18.3744C31.6 18.3811 31.7176 18.4515 31.8218 18.4267C31.9312 18.493 31.7987 18.9679 31.7114 19.0642H31.7109ZM32.194 17.8197C31.4383 17.7814 30.7438 17.6058 30.0435 18.0046C29.9239 16.3929 31.9486 16.2903 32.194 17.8197ZM29.9537 18.6804C29.9789 18.5893 30.2289 18.5214 30.3084 18.5686C30.3603 18.5997 30.8685 19.5168 30.6139 19.6209C30.4861 19.6479 30.3197 19.2517 30.2545 19.1538C30.1857 19.0502 29.9285 18.7737 29.9537 18.681V18.6804ZM25.7195 21.4688C26.1939 21.0208 28.2889 19.5205 28.8531 19.3672C29.3767 19.2248 29.925 19.4174 29.9917 20.0182C30.043 20.477 29.8762 21.1798 29.8577 21.6734C29.851 21.8458 29.8284 22.4756 29.8669 22.5911C29.9439 22.8205 31.0461 22.7863 31.2812 22.8262C31.349 22.8739 31.3511 23.3369 31.2812 23.3861C30.9691 23.4601 30.6395 23.3762 30.3397 23.3607C30.0199 23.3441 29.3931 23.4353 29.198 23.1276L28.9901 20.359C28.2488 20.3439 28.4824 21.1954 28.4336 21.6905C27.9896 21.9738 27.3114 22.2855 26.9541 22.6672C26.6472 22.9951 27.1148 23.2001 27.3212 23.4047C27.7678 23.847 29.0368 24.9874 29.0399 25.5985C29.041 25.7974 28.9311 26.0227 28.8613 26.2071C28.5409 27.0559 27.9747 27.8975 27.6554 28.7297C27.5096 29.1099 27.3972 29.3041 27.8335 29.5123L27.9839 29.8225L26.7031 29.7764C27.0188 28.7624 27.2642 27.5671 27.7016 26.6058C27.8186 26.3485 28.0209 26.1491 28.0774 25.8772C28.0645 25.7508 27.584 25.452 27.4593 25.3432C26.4865 24.497 24.2667 22.8392 25.72 21.4678L25.7195 21.4688ZM29.6323 25.6907C29.6231 25.5354 29.563 25.4142 29.543 25.2723C29.5333 25.2034 29.5102 25.1428 29.6072 25.1614C30.3772 25.9538 29.8957 27.4288 28.8531 27.6541C29.1092 27.0455 29.6734 26.3868 29.6323 25.6907ZM28.6 23.9159C28.276 23.6466 27.986 23.2504 27.6636 22.9681C27.7273 22.8262 28.4193 22.4129 28.486 22.4834C28.4994 22.819 28.5209 23.3679 28.7396 23.6357C28.9244 23.862 29.2217 23.8366 29.4706 23.8688C29.5333 23.8765 29.6098 23.8952 29.5389 23.9599C29.1128 24.0744 28.9814 24.2328 28.5995 23.9154L28.6 23.9159ZM24.7344 24.4224L25.8679 24.7093L25.9238 24.9299C25.7991 24.9392 25.6795 24.9299 25.5558 24.9092C25.4249 24.8875 24.5794 24.6316 24.7349 24.4219L24.7344 24.4224ZM24.643 25.2536C24.8355 25.338 25.0101 25.4727 25.2175 25.5276C25.4772 25.5959 25.7493 25.5768 26.0121 25.6265C26.0763 26.2185 26.2354 26.8948 26.8433 27.1294C26.8566 27.1937 26.7396 27.5702 26.698 27.6266C26.5147 27.8752 25.5188 27.7157 25.2683 27.5541C24.4921 27.0549 24.624 26.0517 24.6435 25.2531L24.643 25.2536ZM17.3882 33.8865C16.6454 34.7218 16.0253 36.1083 15.2106 36.8147C15.1248 36.8887 15.0011 36.8991 14.9842 36.9172C14.7958 37.113 14.6356 37.5837 14.6659 37.8577H14.0026L13.9539 37.7635C14.1043 37.6216 14.1382 37.3175 14.2526 37.1865C14.4072 37.0104 14.843 36.999 14.9611 36.7473C14.9955 36.6743 14.9796 36.579 15.0088 36.5184C15.4544 35.5924 16.3826 34.7001 16.8703 33.7798C17.0053 33.525 17.0889 33.2909 17.1608 33.0107C17.2198 32.9398 17.8297 32.7792 17.9591 32.7543C18.2414 32.7 18.7271 32.5612 18.8759 32.8709C18.3169 33.134 17.8041 33.4183 17.3882 33.8865ZM33.5652 34.6012C33.4261 34.697 33.0939 34.6659 32.9266 34.6721L33.2017 33.7948L33.8229 33.9781C33.8886 34.0734 33.6386 34.5509 33.5657 34.6012H33.5652ZM36.4713 32.7316C36.114 33.049 35.5293 33.5229 35.1366 33.786C34.9225 33.93 34.1638 34.3811 33.9322 34.2562C33.9795 34.192 33.9127 34.0791 33.9389 34.0346C33.961 33.9978 34.557 33.6871 34.6802 33.6027C35.1638 33.2712 35.6366 32.9019 36.0858 32.5234L36.5873 32.5948C36.6043 32.6181 36.499 32.7067 36.4718 32.7316H36.4713ZM42.9714 36.3802C42.9047 36.3802 42.6378 36.3092 42.6049 36.2419C42.5525 36.1347 42.591 35.8762 42.5438 35.7033C42.4488 35.3526 42.1336 35.3366 41.8739 35.1325C41.6588 34.9632 41.4668 34.6934 41.2558 34.5095C40.1654 33.5628 39.2501 32.7808 37.8666 32.296C36.1607 31.6983 32.6334 31.0846 31.5087 29.7536C31.4096 29.6366 31.0266 29.0161 30.9789 28.9954C30.9583 28.9866 30.8659 28.9763 30.8665 29.0167C30.7828 29.6951 31.1904 30.2358 31.6688 30.6543C31.7356 30.7128 32.0174 30.8252 31.9188 30.9086C31.6719 31.1173 30.5487 31.3415 30.1975 31.3881C28.4157 31.6253 26.8874 31.414 25.2144 30.7946C24.7945 30.6392 22.8355 29.7971 22.7282 29.4217C22.7564 28.9985 22.9366 28.5801 22.7908 28.1606C22.7646 28.1062 22.5182 28.128 22.49 28.1435C22.4094 28.1875 22.1681 29.0239 22.088 29.2093C20.9781 31.7771 18.2989 31.6626 16.0997 32.6332C15.3615 32.9589 14.9087 33.395 14.3681 33.9797C13.92 34.4639 13.3573 35.3407 12.8974 35.7281C12.6546 35.9327 11.6099 36.3677 11.2906 36.4159C11.2105 36.4278 11.1314 36.434 11.0508 36.4273L11.21 35.5955C11.6042 35.5142 11.9425 35.581 12.3342 35.3904C12.6633 35.2304 13.3768 34.2728 13.633 33.9305C14.074 33.3406 14.4934 32.7652 14.7229 32.0521C15.1813 31.9029 15.65 31.7356 16.0699 31.4953C18.11 30.3301 17.2866 28.9348 18.0176 27.1351C18.8297 25.1355 20.9396 24.3235 22.9592 24.8983C23.1014 24.9387 23.8504 25.2075 23.911 25.2769C24.01 25.3903 23.9382 26.1646 23.9546 26.3873C24.0537 27.7188 25.1476 28.5034 26.4274 28.3942C26.334 28.8711 26.1117 29.3699 26.0671 29.8536C26.0527 30.011 26.0188 30.2658 26.1302 30.3787H28.6472C28.869 30.3435 29.371 30.0328 29.3141 29.7609C29.1262 29.6169 28.3736 29.5941 28.2781 29.4087L28.5271 28.42C30.0225 28.3009 30.9306 26.8451 30.502 25.4142L29.9054 24.47C30.1929 24.4105 30.4532 24.1961 30.7273 24.121C31.2243 23.9858 31.772 24.1303 32.2505 23.9956C32.3839 23.9578 32.6909 23.7393 32.7572 23.7408C32.9722 23.7455 34.0472 24.2385 34.3552 24.3437C34.9574 24.5488 35.5698 24.7419 36.1884 24.8947L36.2649 24.9594C36.1679 25.2956 35.9297 25.5851 35.8086 25.9233C35.6448 26.379 35.6273 26.8705 35.4887 27.3319L35.1612 26.7172C34.8255 26.2521 34.3978 25.96 33.8655 25.7617C33.7479 25.7182 33.1607 25.5022 33.1098 25.6477L34.0251 26.4313C34.7782 27.0947 35.3445 28.1026 35.2141 29.1327L34.0005 28.81C33.8814 28.781 33.9302 28.9794 33.9574 29.0395C34.0144 29.1658 34.3244 29.3419 34.4523 29.4175C35.5924 30.0913 36.9595 30.8133 38.1433 31.4187C38.534 31.6186 38.9852 31.7615 39.3512 31.9542C39.7419 32.1598 39.8769 32.5389 40.2029 32.8496C40.6305 33.2572 42.4391 34.6416 42.5859 35.0165C42.6593 35.205 42.5972 35.4034 42.8251 35.5137C42.9139 35.5567 43.0269 35.5536 43.1126 35.5929C43.4001 35.7229 43.4812 36.1285 43.6357 36.3812H42.9714V36.3802Z" fill="#AB162B"/>
<path d="M12.5617 27.6306C13.3913 27.4556 14.0176 27.0123 14.553 26.3613C14.6341 26.2629 14.9196 25.9288 14.7537 25.8107C14.589 25.6932 13.7378 26.3587 13.5545 26.4617C13.2214 26.6492 12.7065 26.8605 12.3343 26.9392C12.092 26.9905 11.0755 27.0397 11.0119 27.2707C10.8568 27.828 12.2665 27.6933 12.5617 27.6306Z" fill="#AB162B"/>
<path d="M40.5385 22.5621C40.5816 22.6139 40.8588 22.76 40.9158 22.6693C40.9928 22.3814 40.809 22.0727 40.4989 22.2488C40.4486 22.3203 40.4835 22.4953 40.5385 22.5621Z" fill="#AB162B"/>
</svg>
