<svg width="56" height="55" viewBox="0 0 56 55" fill="none" xmlns="http://www.w3.org/2000/svg">
<path d="M27.3105 33.0088L27.1338 32.9883C25.379 32.7839 23.7916 31.6609 22.6377 29.9375C21.4852 28.2162 20.7745 25.9073 20.7734 23.3652C20.974 16.8752 24.3962 13.7359 27.7158 13.7373C31.0355 13.7389 34.4557 16.8813 34.6543 23.3652C34.6532 25.9068 33.9431 28.2153 32.791 29.9365C31.6375 31.6598 30.0502 32.7823 28.2959 32.9873L28.1191 33.0088V40.1885H32.1934L32.2148 40.0137C32.4725 37.986 33.4748 36.1196 35.0342 34.7656C36.5932 33.4119 38.6021 32.664 40.6836 32.6621C41.0563 32.6656 42.0929 32.7316 42.9688 32.9404C43.4103 33.0457 43.7871 33.1824 44.0195 33.3486C44.1343 33.4307 44.1995 33.5101 44.2285 33.582C44.2548 33.6473 44.2591 33.7243 44.2158 33.8271C44.1957 33.8746 44.1663 33.9185 44.1289 33.9551C44.0914 33.9917 44.0464 34.0211 43.9971 34.041C43.9478 34.0609 43.8943 34.0706 43.8408 34.0703C43.7874 34.07 43.7346 34.0593 43.6855 34.0391H43.6846C39.1543 32.0743 33.6242 35.1614 33.0322 39.9648L33.0049 40.1885H44.0264L44.1045 40.1973C44.1819 40.2134 44.2528 40.252 44.3086 40.3076C44.3827 40.3816 44.4238 40.4807 44.4238 40.583C44.4237 40.6852 44.3826 40.7835 44.3086 40.8574C44.2345 40.9314 44.1334 40.9748 44.0264 40.9766C36.83 40.9763 18.363 40.9769 11.3994 40.9766C11.2912 40.9766 11.1878 40.9344 11.1123 40.8604C11.0369 40.7863 10.9952 40.6862 10.9951 40.583C10.9951 40.4797 11.0369 40.3798 11.1123 40.3057C11.1879 40.2314 11.2911 40.1885 11.3994 40.1885H22.124L22.1602 40.0332C22.4679 38.6804 22.394 37.2707 21.9473 35.9561C21.5004 34.6413 20.6974 33.4712 19.625 32.5723C18.5526 31.6734 17.2512 31.0794 15.8613 30.8535C14.4727 30.6278 13.0476 30.7777 11.7393 31.2881C11.6394 31.3247 11.529 31.3217 11.4316 31.2793C11.3345 31.2369 11.2592 31.1595 11.2207 31.0645C11.1822 30.9693 11.1833 30.863 11.2236 30.7686C11.2638 30.6746 11.3393 30.5974 11.4365 30.5566L11.4375 30.5576C17.5918 28.0631 24.3439 33.5496 23.001 39.9482L22.9502 40.1885H27.3105V33.0088ZM33.8457 23.3535C33.6754 17.5429 30.7539 14.5176 27.7139 14.5176C24.6739 14.5177 21.7523 17.5431 21.582 23.3535V23.3594C21.582 25.6373 22.1759 27.7232 23.1562 29.3008C24.1355 30.8765 25.5127 31.9614 27.082 32.1943L27.3105 32.2285V24.624C27.3107 24.5211 27.3527 24.4216 27.4277 24.3477C27.5032 24.2735 27.6067 24.2306 27.7148 24.2305C27.8232 24.2305 27.9264 24.2734 28.002 24.3477C28.0773 24.4217 28.119 24.5209 28.1191 24.624V27.542L28.4863 26.9912C29.433 25.5678 29.925 24.8666 30.2227 24.5205C30.372 24.3469 30.4576 24.2819 30.5107 24.2549C30.5531 24.2333 30.5823 24.2305 30.666 24.2305C30.7508 24.2322 30.8327 24.2597 30.9004 24.3086C30.9683 24.3576 31.0186 24.4256 31.0449 24.5029C31.0712 24.5801 31.0726 24.6633 31.0488 24.7412C31.0249 24.8193 30.9765 24.8894 30.9102 24.9404L30.8936 24.9521L30.8809 24.9678C30.7432 25.1269 30.393 25.6194 29.918 26.3135C29.439 27.0134 28.8241 27.9312 28.1523 28.9521L28.1191 29.0029V32.2285L28.3486 32.1943C29.9174 31.9605 31.2946 30.8755 32.2734 29.2998C33.2533 27.7223 33.8457 25.6367 33.8457 23.3594V23.3535Z" fill="#AB162B" stroke="#F2F2F2" stroke-width="0.4"/>
<path d="M27.4805 21.2979L27.4805 40.966" stroke="#AB162B" stroke-width="3"/>
<path d="M10.6543 40.0723L45.2226 40.0723" stroke="#AB162B" stroke-width="3"/>
<path d="M27.709 28.0044L31.1203 23.7578" stroke="#AB162B" stroke-width="3"/>
<g clip-path="url(#clip0_6561_4107)">
<path d="M40.4771 33.9489C40.2136 33.61 39.9909 32.9462 39.8357 32.7674C39.7199 32.6353 39.2972 32.4057 39.1108 32.2316C38.6342 31.7849 37.8609 30.8262 37.4916 30.2712C37.406 30.1422 37.1405 29.7582 37.1329 29.6271C37.3072 29.1218 37.2518 28.5699 37.3128 28.0569C37.3526 27.7232 37.7828 25.8955 38.0408 25.8037C38.4841 25.8421 38.9083 25.9981 39.3536 26.0297C39.8665 26.066 40.3934 25.9789 40.9053 26.0613C41.1572 26.5147 41.264 27.0687 41.7093 27.3977C42.4559 27.9481 43.5073 27.2972 43.5557 26.3769C43.5879 25.7644 43.1466 24.8585 42.9708 24.2538C42.7663 23.5506 42.6292 22.8215 42.3874 22.1297C42.2741 21.8042 42.1733 21.4581 41.931 21.2129C41.9139 21.144 42.1899 20.6906 42.1899 20.5258V19.4801C41.9864 19.4733 41.7542 19.507 41.5612 19.5832C41.3375 19.6713 40.9144 20.0838 40.7602 20.0874C40.5491 20.091 40.4443 19.8501 40.2942 19.7381C39.2095 18.9297 38.0226 18.8147 36.7773 19.294C36.9475 19.4702 37.8654 19.8267 37.9143 20.0211C37.9304 20.0843 37.9284 20.1138 37.877 20.1532C37.0448 19.9936 36.3586 19.7801 35.5102 20.0231C35.3798 20.0605 34.7435 20.318 34.6644 20.3849C34.6442 20.402 34.6044 20.4424 34.6206 20.4538C35.0684 20.4719 35.5082 20.7025 35.9218 20.8709C36.0891 21.0912 35.2291 21.0518 35.1722 21.0585C34.4624 21.1477 33.7717 21.5218 33.2573 22.0328C33.5122 22.0597 33.9671 22.0882 34.2009 22.1753C34.2588 22.1965 34.3208 22.1981 34.3132 22.2882C34.3037 22.3292 33.9233 22.5774 33.8518 22.6375C33.6291 22.8272 33.4054 23.1495 33.1021 23.1474C32.9535 23.1474 31.6306 22.6841 31.5802 22.6049C31.55 22.5587 31.5515 22.5033 31.5585 22.4499C31.5938 22.2193 31.8019 21.6493 31.8905 21.4052C32.1359 20.7362 32.6402 20.1584 32.1102 19.4562C31.7752 19.0106 31.485 18.9499 30.957 19.0256C30.293 19.1204 28.8431 20.26 28.2436 20.7134C27.1479 21.541 26.161 22.2157 27.0003 23.7827L27.4038 24.4486C27.0119 24.5062 26.6159 24.4326 26.2653 24.2351C25.898 24.0273 25.7353 23.6781 25.2244 23.7501C24.6375 23.8325 25.5887 24.6523 25.4688 24.7741C24.6401 24.801 23.8582 24.4201 23.0259 24.3569C21.6531 24.2527 20.1836 24.6476 19.1987 25.6908C17.8792 24.9627 16.2621 24.7445 14.8646 25.356C13.6847 25.8727 12.4499 27.1682 12.1895 28.5238C12.1744 28.6005 12.1401 28.6922 12.2454 28.6767C12.3673 28.6585 12.7381 28.4279 12.8535 28.343C13.0429 28.2025 13.452 27.7304 13.6525 27.6999C13.7134 27.6911 13.7371 27.6999 13.718 27.7688C13.6686 27.9476 13.4298 28.3792 13.3306 28.5679C12.9527 29.2882 12.5608 29.8442 11.93 30.3406C11.8827 30.378 11.4373 30.6029 11.52 30.6728C12.3693 30.692 13.0137 30.3552 13.6102 29.7447C13.6444 30.1111 13.4883 30.5189 13.3316 30.8449C12.9442 31.6507 12.2746 32.285 11.521 32.6943C11.519 32.7902 11.8671 32.7669 11.9376 32.7633C13.6092 32.6715 14.4595 31.1413 14.7185 29.5675C14.9487 28.1688 15.0656 27.077 16.4072 26.3334C16.5709 26.2427 17.1417 26.0338 17.3024 26.0779C17.3538 26.0913 17.387 26.1364 17.3271 26.1908C17.2092 26.2971 16.8999 26.4012 16.7422 26.5028C16.1266 26.8987 15.6576 27.4185 15.4581 28.1668C15.2943 28.7793 15.3165 29.6442 15.6445 30.1971C15.6722 30.2448 15.6424 30.2785 15.7432 30.2557C15.7966 30.0147 15.9724 29.853 16.0324 29.6079C16.1351 29.1928 16.1074 28.7487 16.252 28.3067C16.5699 27.3335 17.5649 26.7262 18.4717 26.4935C18.3936 26.8293 18.1805 27.0982 18.0742 27.4444C17.5891 29.026 18.5261 30.5194 17.452 31.9901C17.1095 32.4606 16.6969 32.6539 16.18 32.8415C15.9895 34.0194 15.453 35.1004 14.7855 36.0497C14.5754 36.3482 14.0681 37.0659 13.72 37.1136C13.6313 37.126 13.3593 36.9566 13.1719 36.9431C12.995 36.9307 12.7573 36.9499 12.6333 37.0981C12.4812 37.28 12.053 38.6682 12.1794 38.803C12.6102 38.8211 13.126 38.7159 13.516 38.518C13.7311 38.4096 13.8878 38.2298 14.1286 38.1428C14.3533 38.0624 14.7507 38.0557 14.9306 37.921C15.0772 37.8111 15.2198 37.4043 15.3291 37.2271C15.9286 36.2456 16.918 34.6169 17.8425 34.0277C18.8385 33.3924 19.7916 33.0711 20.6062 32.115C20.7423 31.9554 21.0037 31.4662 21.178 31.4605C21.2561 31.4584 21.2314 31.4807 21.2561 31.5227C21.4939 31.9362 21.5806 32.7208 21.5977 33.2037C21.6148 33.6727 21.5045 34.2142 21.5518 34.6464C21.6042 35.1211 22.2672 35.3154 22.6526 35.4818C23.5277 35.8606 24.5181 36.1383 25.365 36.5659C25.5383 36.654 25.9166 36.9447 25.9927 36.9716C26.0784 37.0012 26.557 37.0623 26.629 37.0416L26.8154 36.7203C26.9237 36.699 27.2749 37.0763 27.2275 37.1317C26.8814 37.2188 26.4638 37.2561 26.4895 37.7469C26.5162 38.2578 26.9852 38.4692 27.3943 38.5584C27.5827 38.5993 27.9479 38.6646 28.1288 38.6646C28.1867 38.6646 28.6139 38.6102 28.6366 38.5967C28.6839 38.5661 28.69 38.5257 28.6613 38.476C28.4557 38.1231 28.3303 37.7209 28.1257 37.368C27.8849 36.9509 27.1096 35.9741 26.7282 35.731C26.1156 35.3388 24.838 34.863 24.3872 34.2997C24.0703 33.9038 24.1181 33.5209 24.2103 33.0426C24.3453 32.3487 24.6879 31.5911 24.8773 30.9039C25.3398 30.99 25.764 31.2206 26.2129 31.3496C27.7273 31.7839 29.5091 31.889 31.0759 31.7896C31.5611 31.759 32.0376 31.6242 32.5193 31.5646C32.6669 31.6527 32.6764 31.8429 32.7923 31.9761C33.3898 32.6679 34.8568 33.0353 35.6397 33.4763C35.7007 33.5116 35.8805 33.6152 35.8926 33.6774C35.5722 34.2324 35.0337 34.6122 34.5274 34.9693C34.2069 35.1952 33.8311 35.3128 33.5828 35.6466C33.543 35.7414 33.816 35.8684 33.8281 35.9109C33.8815 36.113 33.5505 36.2285 33.3868 36.2036C33.3374 35.8824 33.5324 35.5626 33.2336 35.3673C32.681 35.0045 32.5399 35.3901 32.3374 35.8627C32.1777 36.2337 32.0739 36.6135 32.0215 37.0183L32.0956 37.1281C32.221 37.1722 33.1299 36.9913 33.3077 36.9348C33.4971 36.8747 33.6845 36.7395 33.8679 36.6897C34.1268 36.6187 34.5576 36.6716 34.7621 36.5653C34.9238 36.483 35.1742 36.1244 35.3521 35.9798C35.9541 35.487 37.5118 34.8257 37.8942 34.25C37.9743 34.1277 38.0685 33.737 38.1974 33.7494C39.0564 34.2231 39.7652 34.8402 40.4292 35.5761C40.6196 35.7875 41.2559 36.6571 41.4272 36.7042C41.5804 36.7472 41.8494 36.7079 41.9723 36.8747C42.0796 37.0203 41.8353 37.1494 41.801 37.3043C41.7411 37.5779 41.8086 37.8546 42.0101 38.0391C42.1738 38.1894 42.8313 38.4506 43.0459 38.4791C43.3104 38.5143 43.6318 38.4532 43.9038 38.4791C43.9134 38.4273 43.8963 38.3863 43.8822 38.3386C43.4454 36.7617 41.4675 35.2273 40.4725 33.9489L40.4766 33.95L40.4771 33.9489ZM39.664 25.4669C39.5174 25.4591 38.5148 25.3166 38.4387 25.2772C38.3959 25.256 38.3501 25.2363 38.3672 25.1767L38.9571 24.4056C39.2236 24.8036 39.5516 25.2063 39.9914 25.3814C40.1143 25.5115 39.7118 25.4695 39.664 25.4674V25.4669ZM40.9471 25.3234C40.6514 25.1617 39.798 24.531 39.6287 24.2527C39.2337 23.6014 39.5289 22.7246 40.2091 22.5017L41.0806 25.1347L41.0902 25.3788C41.0227 25.397 40.995 25.3493 40.9456 25.3234H40.9466H40.9471ZM42.9058 26.4349C42.8041 26.7199 42.4197 27.0568 42.1154 26.9231C41.8338 26.7997 41.5209 25.9789 41.538 25.6638L42.6937 25.243C42.8585 25.5073 43.0151 26.1292 42.9058 26.4344V26.4349ZM42.5436 24.8217L41.5572 25.1441L40.606 22.2919L40.6277 22.2219C40.7667 22.1338 41.6675 21.7809 41.7491 21.8545L42.5446 24.8223H42.5436V24.8217ZM40.7864 20.6683C40.9179 20.6357 41.6292 20.0895 41.6635 20.1314C41.7748 20.2672 41.3849 21.0155 41.3763 21.2414C41.3718 21.3342 41.4428 21.3954 41.4418 21.4088C41.4388 21.4664 40.5476 21.8545 40.4781 21.8011L40.1677 20.6424C40.3829 20.6051 40.5748 20.7217 40.7869 20.6683H40.7864ZM34.9803 22.5266C35.7793 21.9514 36.5606 21.4664 37.4735 21.1181C38.204 20.8388 38.9355 20.6331 39.7224 20.6491L40.0307 21.9581C39.9965 22.0633 39.3048 22.4354 39.1556 22.6163C39.0443 22.751 38.9823 23.0075 38.8846 23.1666C38.4927 23.804 37.9591 24.3548 37.6528 25.0477C37.5662 25.0689 37.471 25.0622 37.3838 25.0441C36.6987 24.9005 34.8286 24.2605 34.2407 23.9035C34.0684 23.7993 33.9666 23.4988 33.9717 23.2987C34.3143 23.0547 34.6377 22.7743 34.9792 22.5276V22.5266H34.9803ZM29.5656 22.5256C29.6557 22.4318 30.2744 22.0462 30.4114 21.9783C30.4648 21.9514 30.5152 21.9333 30.5752 21.9431C30.5968 21.9602 30.5313 22.0017 30.5313 22.012C30.5313 22.2587 30.4915 22.7323 30.5313 22.9412C30.6427 23.5247 31.7757 23.6589 32.218 23.8465L32.2492 23.9631L31.3454 24.4492C30.9782 24.1191 30.4396 24.0014 30.1127 23.6625C29.9812 23.5257 29.5132 22.9888 29.485 22.8386C29.4547 22.6769 29.4613 22.6365 29.5651 22.5266V22.5256H29.5656ZM27.6477 22.0473C28.0043 22.2012 28.6608 22.4261 28.8618 22.8002C28.9227 22.9132 28.9217 23.0593 28.9998 23.2127C29.1424 23.492 29.486 23.7926 29.6809 24.0491C29.9424 24.3937 30.3908 24.9264 30.5953 25.2918C30.6487 25.3866 30.8396 25.8229 30.8371 25.91C30.8326 26.0976 30.6603 26.4784 30.5832 26.6676C30.4472 26.9998 29.6709 28.5917 29.4557 28.7285C29.156 28.9182 29.157 28.4528 29.1731 28.2435C29.2104 27.7584 29.8487 26.2867 29.7761 26.0188C29.4013 25.6467 29.0275 25.2736 28.6668 24.8881C28.3822 24.5839 27.8895 24.09 27.6718 23.72C27.3978 23.2511 27.2542 22.4846 27.6472 22.0467L27.6477 22.0473ZM27.5837 25.6581C27.6749 26.1748 27.9283 26.679 28.225 27.0941C28.288 27.1822 28.6285 27.4662 28.5514 27.562L27.562 27.6594C27.227 27.6133 26.9172 27.6517 26.6381 27.4231C26.1197 27.0003 26.1862 26.225 26.1756 25.612C26.6476 25.6244 27.1106 25.7918 27.5837 25.6581ZM36.3506 34.4702C36.0805 34.6739 35.8387 34.9371 35.5294 35.0921C35.34 35.1859 35.2306 35.1273 35.3999 34.9553C35.6785 34.6749 36.2171 34.4252 36.4473 34.0634C36.7309 33.6178 36.5662 33.2675 36.1773 33.0073C35.5208 32.5663 34.6981 32.2466 33.9949 31.8745C33.814 31.7797 33.6477 31.7579 33.4583 31.6046C32.7258 31.0133 32.679 29.6499 32.82 28.7715C32.7752 28.7181 32.4205 29.113 32.3807 29.1674C31.9747 29.7245 32.1001 30.3645 32.2457 30.9988C31.8754 31.0646 31.4931 31.1402 31.1192 31.1807C29.7474 31.3309 28.2376 31.2247 26.8859 30.9231C26.2265 30.7759 25.5892 30.5106 24.9489 30.2982C25.0592 29.5271 24.9348 28.8114 24.5302 28.1616C24.1962 27.6247 23.697 27.2775 23.0783 27.3454C23.0174 27.3521 22.9594 27.3998 22.9196 27.4485C23.2078 27.6859 23.5751 27.8963 23.7977 28.2025C24.434 29.0798 24.3076 30.2805 24.0506 31.29C23.7756 32.3684 22.9947 33.5794 23.8002 34.6003C24.0421 34.9066 24.4385 35.0682 24.6793 35.3678C24.6043 35.4263 23.106 34.8558 22.8954 34.7661C22.6768 34.6734 22.2582 34.5692 22.2582 34.278C22.2582 33.9867 22.3468 33.5908 22.3493 33.3038C22.3569 32.3249 22.1126 30.9739 21.104 30.62C20.8727 30.5386 20.4969 30.6583 20.2118 30.6324C19.31 30.551 18.7629 29.5265 18.6954 28.6565C18.5271 26.452 20.576 25.0783 22.4587 25.0591C23.4869 25.0477 24.4537 25.4187 25.4723 25.4752C25.4703 25.9592 25.4401 26.41 25.5731 26.879C25.8088 27.7133 26.627 28.4482 27.4749 28.4482H28.6411L28.1142 30.862C28.4406 30.9387 30.9757 30.9444 31.0603 30.8169C30.893 30.2323 30.2638 30.039 29.7872 29.839C29.7273 29.7654 30.2467 28.7187 30.2351 28.5052C31.1248 28.2518 31.9057 27.8735 32.1046 26.8319C32.2331 26.1592 32.1001 25.6301 31.8734 25.0093L32.8981 24.2294C33.0825 24.2704 33.1873 24.3528 33.3888 24.3776C33.5717 24.4004 33.6845 24.2963 33.8074 24.3134C33.9596 24.3346 35.0231 24.9 35.3057 25.0119C35.9193 25.2539 36.5803 25.4768 37.2196 25.6167C37.0397 26.2204 36.7516 26.7899 36.6478 27.4268C36.5687 27.5024 36.3702 27.1148 36.3188 27.0547C36.0266 26.7179 35.6453 26.4442 35.1964 26.452C35.4961 26.8137 35.9203 27.2376 36.143 27.6584C36.4503 28.2404 36.615 29.0306 36.2276 29.6074C35.9395 30.0359 35.5788 30.1727 35.0906 30.1173C34.9591 30.1028 34.8034 29.9681 34.6684 30.0515C34.6714 30.2018 35.8271 31.233 36.0125 31.4206C36.3339 31.746 37.0397 32.3948 37.2654 32.7456C37.8382 33.6375 36.9022 34.0603 36.3521 34.4728V34.4718L36.3506 34.4702Z" fill="#AB162B"/>
<path d="M43.3661 39.6548C43.1903 39.52 42.5938 39.6434 42.3475 39.5449H14.403C14.1844 39.591 13.8503 39.5755 13.7209 39.8004C13.6085 39.9947 13.7123 40.0377 13.875 40.1056C14.1954 40.2404 14.7123 40.2751 15.0625 40.2922C17.1552 40.3963 19.3804 40.2751 21.4898 40.2875C28.114 40.3269 34.8114 40.3316 41.4628 40.1948C41.8518 40.1968 43.2064 40.3259 43.4417 39.8875C43.4563 39.86 43.4588 39.8263 43.4478 39.7968C43.4271 39.7424 43.3903 39.6729 43.3651 39.6543H43.3661V39.6548Z" fill="#AB162B"/>
<path d="M41.3437 22.7882C41.1221 22.8592 41.2183 23.2282 41.4521 23.3049C41.9201 23.4598 41.8556 22.6234 41.3437 22.7882Z" fill="#AB162B"/>
<path d="M32.6406 19.4698C33.2799 19.7497 33.7036 19.0558 33.6441 18.4583C33.5101 18.6293 33.3806 18.9864 33.1645 19.0418C32.8501 19.1232 32.5892 18.294 32.7237 18.1956C32.9187 18.0526 34.2612 18.676 34.3776 18.2852C34.4602 18.0064 34.0804 17.9137 33.9847 17.7675C33.8386 17.5437 33.8889 17.2291 33.6053 16.9628C32.7116 16.1248 31.437 17.0192 31.6557 18.2179C32.4003 18.2629 32.0355 19.2061 32.6401 19.4709L32.6406 19.4698Z" fill="#AB162B"/>
</g>
<defs>
<clipPath id="clip0_6561_4107">
<rect width="34" height="26" fill="white" transform="translate(10.709 14.332)"/>
</clipPath>
</defs>
</svg>
