<svg width="16" height="17" viewBox="0 0 16 17" fill="none" xmlns="http://www.w3.org/2000/svg">
<path d="M2.14614 3.354C2.09966 3.30751 2.06278 3.25232 2.03762 3.19158C2.01246 3.13084 1.99951 3.06574 1.99951 3C1.99951 2.93425 2.01246 2.86915 2.03762 2.80841C2.06278 2.74768 2.09966 2.69249 2.14614 2.646C2.19263 2.59951 2.24782 2.56263 2.30856 2.53748C2.3693 2.51232 2.4344 2.49937 2.50014 2.49937C2.56589 2.49937 2.63099 2.51232 2.69173 2.53748C2.75247 2.56263 2.80766 2.59951 2.85414 2.646L8.00014 7.793L13.1461 2.646C13.1926 2.59951 13.2478 2.56263 13.3086 2.53748C13.3693 2.51232 13.4344 2.49937 13.5001 2.49937C13.5659 2.49937 13.631 2.51232 13.6917 2.53748C13.7525 2.56263 13.8077 2.59951 13.8541 2.646C13.9006 2.69249 13.9375 2.74768 13.9627 2.80841C13.9878 2.86915 14.0008 2.93425 14.0008 3C14.0008 3.06574 13.9878 3.13084 13.9627 3.19158C13.9375 3.25232 13.9006 3.30751 13.8541 3.354L8.70714 8.5L13.8541 13.646C13.9006 13.6925 13.9375 13.7477 13.9627 13.8084C13.9878 13.8692 14.0008 13.9343 14.0008 14C14.0008 14.0657 13.9878 14.1308 13.9627 14.1916C13.9375 14.2523 13.9006 14.3075 13.8541 14.354C13.8077 14.4005 13.7525 14.4374 13.6917 14.4625C13.631 14.4877 13.5659 14.5006 13.5001 14.5006C13.4344 14.5006 13.3693 14.4877 13.3086 14.4625C13.2478 14.4374 13.1926 14.4005 13.1461 14.354L8.00014 9.207L2.85414 14.354C2.80766 14.4005 2.75247 14.4374 2.69173 14.4625C2.63099 14.4877 2.56589 14.5006 2.50014 14.5006C2.4344 14.5006 2.3693 14.4877 2.30856 14.4625C2.24782 14.4374 2.19263 14.4005 2.14614 14.354C2.09966 14.3075 2.06278 14.2523 2.03762 14.1916C2.01246 14.1308 1.99951 14.0657 1.99951 14C1.99951 13.9343 2.01246 13.8692 2.03762 13.8084C2.06278 13.7477 2.09966 13.6925 2.14614 13.646L7.29314 8.5L2.14614 3.354Z" fill="black"/>
</svg>
