<svg width="20" height="20" viewBox="0 0 20 20" fill="none" xmlns="http://www.w3.org/2000/svg">
<path d="M18.9542 8.82842C19.6785 8.82842 19.9808 7.89795 19.3925 7.46904L10.4417 0.958105C10.3139 0.864453 10.1596 0.813965 10.0011 0.813965C9.84266 0.813965 9.68832 0.864453 9.5605 0.958105L0.609716 7.46904C0.0214344 7.89561 0.323778 8.82842 1.05034 8.82842H2.50112V17.594H0.813622C0.710497 17.594 0.626122 17.6784 0.626122 17.7815V19.0003C0.626122 19.1034 0.710497 19.1878 0.813622 19.1878H19.1886C19.2917 19.1878 19.3761 19.1034 19.3761 19.0003V17.7815C19.3761 17.6784 19.2917 17.594 19.1886 17.594H17.5011V8.82842H18.9542ZM6.93081 17.594H4.18862V8.82842H6.93081V17.594ZM11.3605 17.594H8.61831V8.82842H11.3605V17.594ZM15.8136 17.594H13.048V8.82842H15.8136V17.594Z" fill="#6C757D"/>
</svg>
