<svg width="18" height="22" viewBox="0 0 18 22" fill="none" xmlns="http://www.w3.org/2000/svg">
<path d="M17.0297 5.79971C16.5884 4.78224 15.9523 3.861 15.157 3.08799C14.3592 2.30799 13.4186 1.68891 12.3867 1.26455C11.3133 0.819238 10.1742 0.594238 9 0.594238C7.82578 0.594238 6.68672 0.819238 5.61328 1.26221C4.575 1.69111 3.64453 2.30518 2.84297 3.08564C2.04826 3.8591 1.41215 4.78022 0.970312 5.79736C0.513281 6.85205 0.28125 7.97236 0.28125 9.12549C0.28125 10.7802 0.677344 12.4278 1.45547 14.0169C2.08125 15.2942 2.95547 16.5388 4.05703 17.7224C5.93906 19.7427 7.9125 20.9778 8.47266 21.3083C8.63166 21.4022 8.813 21.4516 8.99766 21.4513C9.18047 21.4513 9.36094 21.4044 9.52266 21.3083C10.0828 20.9778 12.0563 19.7427 13.9383 17.7224C15.0398 16.5411 15.9141 15.2942 16.5398 14.0169C17.3227 12.4302 17.7188 10.7849 17.7188 9.12783C17.7188 7.97471 17.4867 6.85439 17.0297 5.79971ZM9 19.6536C7.45547 18.6716 1.96875 14.7833 1.96875 9.12783C1.96875 7.30205 2.69766 5.58643 4.02188 4.29268C5.35078 2.99658 7.11797 2.28174 9 2.28174C10.882 2.28174 12.6492 2.99658 13.9781 4.29502C15.3023 5.58643 16.0312 7.30205 16.0312 9.12783C16.0312 14.7833 10.5445 18.6716 9 19.6536ZM9 5.18799C6.72188 5.18799 4.875 7.03486 4.875 9.31299C4.875 11.5911 6.72188 13.438 9 13.438C11.2781 13.438 13.125 11.5911 13.125 9.31299C13.125 7.03486 11.2781 5.18799 9 5.18799ZM10.8563 11.1692C10.6128 11.4134 10.3234 11.607 10.0049 11.739C9.68631 11.8709 9.3448 11.9385 9 11.938C8.29922 11.938 7.64062 11.6638 7.14375 11.1692C6.89959 10.9258 6.70597 10.6364 6.57404 10.3179C6.44211 9.9993 6.37446 9.65779 6.375 9.31299C6.375 8.61221 6.64922 7.95361 7.14375 7.45674C7.64062 6.95986 8.29922 6.68799 9 6.68799C9.70078 6.68799 10.3594 6.95986 10.8563 7.45674C11.3531 7.95361 11.625 8.61221 11.625 9.31299C11.625 10.0138 11.3531 10.6724 10.8563 11.1692Z" fill="#6C757D"/>
</svg>
