<svg width="156" height="25" viewBox="0 0 156 25" fill="none" xmlns="http://www.w3.org/2000/svg">
<g clip-path="url(#clip0_10794_858)">
<path d="M15.4253 5.75483V2.84855H14.1773V14.508H15.4253V7.89359C15.4456 5.55359 16.717 3.99359 18.5936 3.99359C19.3003 3.99359 19.8245 4.14959 20.2488 4.46159V3.21359C19.8168 2.93335 19.3095 2.79183 18.7949 2.80799C17.1803 2.80799 15.9494 3.85787 15.4253 5.75483Z" fill="#003D4C"/>
<path d="M26.272 2.58649C22.7198 2.58649 20.2176 5.25097 20.2176 8.68141C20.2176 12.1118 22.7198 14.82 26.272 14.82C29.8241 14.82 32.306 12.115 32.306 8.68453C32.306 5.25409 29.8444 2.58649 26.272 2.58649ZM26.272 13.6625C23.4062 13.6625 21.5093 11.4785 21.5093 8.67829C21.5093 5.87809 23.4 3.74401 26.272 3.74401C29.1439 3.74401 31.0346 5.86405 31.0346 8.68921C31.0346 11.5144 29.1377 13.6656 26.272 13.6656V13.6625Z" fill="#003D4C"/>
<path d="M43.0295 9.24612C43.0295 11.7686 41.5366 13.6656 39.014 13.6656C36.5524 13.6656 35.256 12.168 35.256 9.52848V2.84856H34.0236V9.69072C34.0236 12.9199 35.6788 14.8169 38.6662 14.8169C40.7441 14.8169 42.3587 13.6453 43.0248 11.5409V14.508H44.2556V2.84856H43.0248L43.0295 9.24612Z" fill="#003D4C"/>
<path d="M52.9714 2.58649C50.4083 2.58649 48.5316 4.11997 47.8046 6.19945V2.84857H46.5738V18.6046L47.8046 18.3596V11.4052C48.6112 13.3832 50.388 14.82 52.7888 14.82C55.9182 14.82 58.461 12.2164 58.461 8.60341C58.461 5.21041 56.2006 2.58649 52.9714 2.58649ZM52.4924 13.6625C49.6844 13.6625 47.8296 11.4629 47.8296 8.69857C47.8296 5.93425 49.7468 3.74401 52.5923 3.74401C55.4377 3.74401 57.2348 5.88433 57.2348 8.64865C57.2348 11.466 55.38 13.6656 52.4924 13.6656V13.6625Z" fill="#003D4C"/>
<path d="M70.955 8.53945V7.75945C70.955 4.63165 69.083 2.59273 65.7899 2.59273C62.1364 2.59273 59.9773 5.25721 59.9773 8.62681C59.9773 12.2538 62.4 14.82 66.0925 14.82C67.9084 14.82 69.5245 14.2132 70.6165 13.3052V12.1118C69.3997 13.1284 67.8621 13.6811 66.2766 13.6718C63.1691 13.6718 61.2721 11.6548 61.2518 8.64709V8.54569L70.955 8.53945ZM65.729 3.74401C68.353 3.74401 69.732 5.30401 69.7648 7.59097H61.308C61.6325 5.33053 63.18 3.74401 65.729 3.74401Z" fill="#003D4C"/>
<path d="M10.608 2.84857V6.08401C9.85452 4.06381 8.00436 2.58649 5.48964 2.58649C2.26044 2.58649 0 5.21041 0 8.60029C0 12.2132 2.5428 14.82 5.6706 14.82C8.03088 14.82 9.78432 13.4316 10.608 11.5081V12.8591C10.608 15.6842 8.91228 17.4595 5.78448 17.4595C3.92652 17.4595 2.41332 16.9151 1.1622 15.8246V17.0726C2.35248 18.1007 4.02792 18.6061 5.82348 18.6061C9.3366 18.6061 11.8186 16.5266 11.8186 12.9745V2.84857H10.608ZM5.96856 13.6656C3.08256 13.6656 1.22616 11.466 1.22616 8.64085C1.22616 5.87653 3.042 3.74401 5.86716 3.74401C8.69232 3.74401 10.6298 5.92801 10.6298 8.70949C10.6298 11.491 8.77344 13.6656 5.96856 13.6656Z" fill="#003D4C"/>
<path d="M155.162 19.8931C146.551 18.89 133.076 18.433 119.126 18.6732C107.504 18.8729 90.0011 19.6373 72.618 22.1411C72.3828 22.177 72.1697 22.3002 72.0212 22.4861C71.8727 22.6721 71.7997 22.9071 71.8166 23.1444C71.8335 23.3818 71.9391 23.604 72.1125 23.767C72.2859 23.93 72.5142 24.0217 72.7522 24.024C72.7976 24.0239 72.8429 24.0208 72.8879 24.0146C90.1727 21.5186 107.59 20.7652 119.159 20.5655C133.043 20.3268 146.418 20.7792 154.952 21.7729C155.081 21.801 155.214 21.8018 155.344 21.7752C155.473 21.7486 155.596 21.6951 155.703 21.6183C155.811 21.5415 155.901 21.443 155.969 21.3292C156.036 21.2153 156.078 21.0887 156.094 20.9574C156.109 20.8261 156.097 20.6931 156.058 20.5668C156.018 20.4406 155.953 20.324 155.866 20.2244C155.779 20.1249 155.672 20.0447 155.552 19.989C155.432 19.9333 155.302 19.9033 155.17 19.9009L155.162 19.8931Z" fill="#F2A900"/>
<path d="M150.443 0L146.993 0.6864V14.5142H150.443V0Z" fill="#F2A900"/>
<path d="M145.302 7.97472C145.302 4.50372 143.181 2.35872 139.247 2.35872C135.069 2.35872 132.586 5.08248 132.586 8.51292C132.586 12.2678 135.394 14.8699 139.751 14.8699C141.77 14.8699 143.687 14.2459 144.899 13.3567V10.7C143.628 11.6102 142.103 12.0971 140.54 12.0916C137.977 12.0916 136.383 11.023 135.999 9.22584H145.303L145.302 7.97472ZM136.032 7.41C136.335 5.99664 137.464 5.02788 139.32 5.02788C141.177 5.02788 142.227 5.8968 142.389 7.41H136.032Z" fill="#F2A900"/>
<path d="M76.3745 8.48016C76.3745 6.56136 77.2621 5.25096 78.7956 5.25096C80.209 5.25096 80.9546 6.279 80.9546 7.85304V14.508H84.3664V8.13696C84.3664 6.44124 85.1729 5.25096 86.7469 5.25096C88.2008 5.25096 88.9309 6.29928 88.9309 8.13696V14.508H92.3629V7.41C92.3629 4.1808 90.87 2.36496 88.1509 2.36496C86.112 2.36496 84.7813 3.29316 84.0949 5.25096C83.5489 3.41328 82.2229 2.36496 80.2994 2.36496C78.376 2.36496 77.064 3.276 76.3542 5.304V2.84856H72.9628V14.508H76.3745V8.48016Z" fill="#F2A900"/>
<path d="M99.3486 14.937C101.367 14.937 102.98 14.001 103.768 12.129V14.508H107.2V2.84856H103.768V8.94348C103.768 10.9621 102.676 12.2195 100.781 12.2195C98.9648 12.2195 98.0366 11.2102 98.0366 9.11196V2.84856H94.6046V9.81084C94.6062 13.104 96.3004 14.937 99.3486 14.937Z" fill="#F2A900"/>
<path d="M123.115 14.937C125.132 14.937 126.747 14.001 127.535 12.129V14.508H130.967V2.84856H127.535V8.94348C127.535 10.9621 126.443 12.2195 124.547 12.2195C122.731 12.2195 121.803 11.2102 121.803 9.11196V2.84856H118.371V9.81084C118.371 13.104 120.067 14.937 123.115 14.937Z" fill="#F2A900"/>
<path d="M117.321 13.87C116.482 14.5829 115.392 14.937 114.145 14.937C111.099 14.937 109.403 13.1009 109.403 9.81084V0.68172L112.835 0V2.84856H116.36V5.41164H112.835V9.10572C112.835 11.2039 113.771 12.2132 115.58 12.2132C115.932 12.2129 116.282 12.1603 116.618 12.0572C116.768 12.691 117.004 13.3011 117.321 13.87Z" fill="#F2A900"/>
</g>
<defs>
<clipPath id="clip0_10794_858">
<rect width="156" height="24.024" fill="white"/>
</clipPath>
</defs>
</svg>
