<svg width="24" height="24" viewBox="0 0 24 24" fill="none" xmlns="http://www.w3.org/2000/svg">
<g opacity="0.4">
<path d="M12.1521 22.9794C10.7691 22.9794 9.37211 22.7213 8.04568 22.203C5.24594 21.1093 2.99752 18.9476 1.877 16.2721C1.6352 15.6949 1.44061 15.0903 1.2986 14.4751C0.655911 11.6902 1.19752 8.64248 2.78457 6.11348C2.95183 5.84683 3.30365 5.76613 3.57038 5.93364C3.83703 6.10091 3.91752 6.45272 3.75021 6.71937C2.32307 8.99363 1.83438 11.727 2.40944 14.2187C2.53693 14.7711 2.71156 15.3139 2.92847 15.8316C3.93042 18.224 5.94675 20.1592 8.4605 21.1412C10.9721 22.1223 13.7607 22.068 16.1111 20.9921C18.1178 20.0733 19.7814 18.4239 20.7952 16.3475C21.8072 14.2749 22.0906 11.9465 21.5932 9.79127C21.4504 9.17239 21.2488 8.56699 20.9939 7.99185C20.0873 5.94621 18.4409 4.24726 16.3579 3.20802C14.2812 2.17177 11.9447 1.87642 9.77916 2.37632C9.18595 2.51324 8.60482 2.70498 8.05188 2.94617C7.10211 3.36049 6.22117 3.94274 5.43358 4.67671C5.20335 4.89135 4.84261 4.87862 4.62797 4.64835C4.41337 4.41808 4.42606 4.05734 4.65637 3.84277C5.53863 3.02058 6.52768 2.36731 7.59606 1.90123C8.21315 1.6321 8.86138 1.4182 9.5228 1.26557C14.5587 0.102972 19.9383 2.79635 22.0361 7.52999C22.3203 8.17111 22.545 8.84572 22.7041 9.53495C23.8575 14.5326 21.2271 19.9037 16.5856 22.0286C15.2028 22.6617 13.6861 22.9794 12.1521 22.9794Z" fill="#005362"/>
<path d="M10.7772 18.2039C10.2542 18.2039 9.74028 18.006 9.24621 17.6138C9.24634 17.6139 6.30946 15.2915 6.27643 15.2653C5.55085 14.6916 5.20875 13.8633 5.337 12.9922C5.47698 12.0411 6.16985 11.165 7.06104 10.8124C7.87774 10.4891 8.76347 10.635 9.491 11.2127C9.73755 11.4084 9.77873 11.767 9.58298 12.0134C9.38727 12.2601 9.02864 12.3013 8.78216 12.1055C8.26238 11.6927 7.78728 11.751 7.48053 11.8724C6.96385 12.0769 6.54618 12.6056 6.46482 13.1583C6.41654 13.4863 6.46722 13.9628 6.9827 14.3705C6.98275 14.3705 7.03992 14.4157 9.95418 16.7203C10.2848 16.9828 10.5908 17.0924 10.8909 17.0571C11.6314 16.9689 12.3625 16.0325 12.9498 15.2802C13.0236 15.1857 13.0955 15.0937 13.1654 15.0057C13.9721 13.9909 14.7777 12.975 15.5832 11.9592C16.1341 11.2644 16.6851 10.5697 17.2363 9.87536C17.7322 9.25069 17.6274 8.33904 17.0028 7.84311C16.3782 7.34726 15.4665 7.45202 14.9706 8.07661C14.1002 9.17322 13.2921 10.2451 12.5107 11.2817C11.7252 12.3237 10.913 13.4011 10.0339 14.5085C9.83809 14.7552 9.47959 14.7964 9.23303 14.6006C8.98651 14.4049 8.94529 14.0463 9.141 13.7998C10.0113 12.7034 10.8192 11.6318 11.6004 10.5954C12.386 9.55323 13.1984 8.47555 14.0778 7.36785C14.9645 6.2509 16.5946 6.06354 17.7116 6.95031C18.8286 7.83707 19.0159 9.46724 18.1292 10.5841C17.578 11.2784 17.0272 11.9729 16.4765 12.6675C15.6706 13.6837 14.8648 14.6999 14.0578 15.7151C13.9899 15.8005 13.9201 15.8899 13.8484 15.9818C13.1308 16.9009 12.2377 18.0448 11.0256 18.1891C10.9426 18.1989 10.8598 18.2039 10.7772 18.2039Z" fill="#005362"/>
</g>
</svg>
