<svg width="24" height="25" viewBox="0 0 24 25" fill="none" xmlns="http://www.w3.org/2000/svg">
<g clip-path="url(#clip0_40000088_1768)">
<path fill-rule="evenodd" clip-rule="evenodd" d="M15.6611 15.6872C15.8004 15.5478 15.9658 15.4371 16.1479 15.3617C16.33 15.2862 16.5252 15.2473 16.7223 15.2473C16.9195 15.2473 17.1146 15.2862 17.2967 15.3617C17.4788 15.4371 17.6443 15.5478 17.7836 15.6872L23.5586 21.4622C23.84 21.7435 23.9982 22.1251 23.9984 22.523C23.9985 22.9209 23.8406 23.3025 23.5593 23.584C23.2781 23.8655 22.8965 24.0237 22.4986 24.0238C22.1007 24.0239 21.719 23.866 21.4376 23.5847L15.6626 17.8097C15.5231 17.6704 15.4125 17.505 15.337 17.3229C15.2615 17.1408 15.2227 16.9456 15.2227 16.7485C15.2227 16.5514 15.2615 16.3562 15.337 16.1741C15.4125 15.992 15.5231 15.8266 15.6626 15.6872H15.6611Z" fill="#6C757D"/>
<path fill-rule="evenodd" clip-rule="evenodd" d="M9.75 18.0239C10.8334 18.0239 11.9062 17.8105 12.9071 17.3959C13.9081 16.9813 14.8175 16.3736 15.5836 15.6076C16.3497 14.8415 16.9574 13.932 17.372 12.9311C17.7866 11.9301 18 10.8573 18 9.77393C18 8.69052 17.7866 7.61772 17.372 6.61679C16.9574 5.61585 16.3497 4.70638 15.5836 3.94029C14.8175 3.17421 13.9081 2.56652 12.9071 2.15192C11.9062 1.73732 10.8334 1.52393 9.75 1.52393C7.56196 1.52393 5.46354 2.39312 3.91637 3.94029C2.36919 5.48747 1.5 7.58589 1.5 9.77393C1.5 11.962 2.36919 14.0604 3.91637 15.6076C5.46354 17.1547 7.56196 18.0239 9.75 18.0239ZM19.5 9.77393C19.5 12.3598 18.4728 14.8397 16.6443 16.6682C14.8158 18.4967 12.3359 19.5239 9.75 19.5239C7.16414 19.5239 4.68419 18.4967 2.85571 16.6682C1.02723 14.8397 0 12.3598 0 9.77393C0 7.18807 1.02723 4.70811 2.85571 2.87963C4.68419 1.05115 7.16414 0.0239258 9.75 0.0239258C12.3359 0.0239258 14.8158 1.05115 16.6443 2.87963C18.4728 4.70811 19.5 7.18807 19.5 9.77393Z" fill="#6C757D"/>
</g>
<defs>
<clipPath id="clip0_40000088_1768">
<rect width="24" height="24" fill="white" transform="translate(0 0.0239258)"/>
</clipPath>
</defs>
</svg>
