<svg width="14" height="13" viewBox="0 0 14 13" fill="none" xmlns="http://www.w3.org/2000/svg">
<path d="M12.7047 2.22969L11.0406 0.567188C10.8375 0.364063 10.5656 0.25 10.2781 0.25C9.99062 0.25 9.71875 0.3625 9.51562 0.567188L7.72344 2.35625C7.52031 2.55937 7.40625 2.83281 7.40625 3.12031C7.40625 3.40937 7.51875 3.67969 7.72344 3.88437L9.12344 5.28594C8.80451 6.02904 8.34626 6.70421 7.77344 7.275C7.2 7.85156 6.52969 8.30625 5.78594 8.62812L4.38594 7.22656C4.18281 7.02344 3.91094 6.90937 3.62344 6.90937C3.48163 6.90885 3.34114 6.93663 3.21021 6.9911C3.07928 7.04557 2.96054 7.12562 2.86094 7.22656L1.06719 9.01562C0.864063 9.21875 0.75 9.49219 0.75 9.77969C0.75 10.0687 0.8625 10.3391 1.06719 10.5437L2.72969 12.2062C3.07656 12.5531 3.55469 12.7516 4.04531 12.7516C4.14687 12.7516 4.24531 12.7437 4.34531 12.7266C6.41406 12.3859 8.46719 11.2844 10.125 9.62812C11.7812 7.96875 12.8813 5.91562 13.225 3.84531C13.3234 3.25781 13.1266 2.65312 12.7047 2.22969ZM12.1172 3.65937C11.8125 5.50156 10.8219 7.33906 9.32969 8.83125C7.8375 10.3234 6.00156 11.3141 4.15938 11.6187C3.92813 11.6578 3.69062 11.5797 3.52187 11.4125L1.88906 9.77969L3.62031 8.04687L5.49219 9.92187L5.50625 9.93594L5.84375 9.81094C6.86707 9.4347 7.79635 8.84044 8.56717 8.06934C9.338 7.29825 9.93193 6.36877 10.3078 5.34531L10.4328 5.00781L8.54531 3.12187L10.2766 1.38906L11.9094 3.02187C12.0781 3.19062 12.1562 3.42812 12.1172 3.65937Z" fill="#003D4C"/>
</svg>
