<svg width="1440" height="260" viewBox="0 0 1440 260" fill="none" xmlns="http://www.w3.org/2000/svg">
<g clip-path="url(#clip0_8272_17484)">
<path d="M1555.85 45.2499C1546.33 45.2499 1536.86 42.9194 1527.67 41.0433C1514.85 38.3748 1501.99 35.7646 1488.88 34.576C1453.4 31.2472 1417.77 39.4037 1388.48 57.5553C1365.07 71.8183 1345.45 90.7773 1328.53 110.937C1309.12 134.091 1294.96 160.344 1271.64 180.853C1253.26 196.992 1230.52 210.323 1205.13 215.567C1181.18 220.519 1159.51 216.033 1137.14 208.016C1087.75 190.269 1035.59 161.615 1013.22 116.577C995.178 80.2083 999.323 30.1479 1041.86 8.64856C1086.31 -13.818 1145.87 14.4749 1166.31 52.4746C1176.77 72.028 1177.7 94.0168 1174.15 115.132C1170.23 138.437 1162.39 161.393 1148.24 181.366C1118.05 224.202 1064.56 255.944 1007.27 259.043C939.281 262.702 877.827 230.226 824.767 196.025C796.655 177.894 769.628 157.152 739.136 142.248C711.992 128.964 671.772 121.855 651.937 149.333C634.821 173.128 656.265 201.642 643.19 225.868C638.522 234.456 629.722 240.422 618.686 239.781C604.643 238.977 592.536 228.525 581.709 221.673C560.122 208.074 536.599 194.988 511.861 186.505C494.706 180.609 476.557 178.581 458.409 181.692C425.511 187.321 396.523 202.97 362.527 204.998C338.507 206.478 314.462 202.364 291.789 195.489C262.422 186.586 238.586 172.055 214.985 154.425C192.613 137.715 170.123 120.142 141.763 112.265C118.358 105.774 90.5857 104.469 69.0768 116.542C42.9261 131.224 39.2911 159.342 48.1562 183.86C56.4852 207.025 80.0862 229.084 106.472 236.216C124.778 241.18 146.234 238.01 159.074 224.563C171.574 211.454 169.757 193.718 158.015 180.748C132.348 152.409 82.9759 154.122 46.6656 159.214C3.66073 165.239 -38.9258 178.266 -77.6419 195.955C-90.0112 201.607 -102.838 207.725 -113.22 216.091C-116.332 218.597 -120.961 214.495 -117.836 211.966C-107.375 203.565 -94.7444 197.295 -82.3229 191.562C-64.2571 183.294 -45.5714 176.15 -26.3995 170.179C14.2648 157.361 59.7278 147.107 103.164 151.535C134.545 154.763 176.478 171.951 174.268 205.65C172.032 239.886 127.197 251.026 96.6527 239.234C73.9015 230.459 53.5039 211.756 44.1289 191.306C34.9761 171.053 32.8711 144.788 47.9731 126.342C77.2881 90.5326 137.003 98.6896 174.111 119.198C200.785 133.928 222.49 154.553 248.288 170.296C272.961 185.328 303.086 194.93 332.728 198.356C352.665 200.628 372.91 199.324 392.273 194.522C408.212 190.618 423.354 184.687 439.057 180.166C454.303 175.773 470.137 173.174 486.128 174.805C508.356 176.985 528.205 186.307 547.583 195.711C559.026 201.281 570.118 207.408 580.807 214.064C592.248 221.149 609.573 237.253 624.871 233.466C640.169 229.678 641.764 212.129 640.444 200.733C638.822 186.75 636.194 171.892 640.535 158.026C647.191 136.783 671.21 123.731 695.282 124.232C727.97 124.978 756.331 143.984 781.671 160.438C838.091 197.062 894.328 239.269 965.039 250.782C1029.5 261.269 1093.03 236.658 1132.82 190.921C1150.68 170.389 1160.91 146.746 1166.4 121.401C1171.42 98.2118 1171.63 73.1001 1158.66 51.8338C1133.54 10.6528 1060.74 -13.6316 1024.6 30.043C1009.18 48.6875 1006.2 73.2865 1012.06 95.4035C1019.04 121.727 1037.22 143.739 1060.05 161.032C1081.83 177.591 1107.36 190.455 1133.52 200.395C1157.81 209.601 1181.32 215.381 1207.55 208.948C1235.62 202.061 1259.73 185.27 1278.34 165.751C1289.64 153.9 1298.03 140.511 1307.52 127.553C1316.24 115.591 1325.74 104.101 1335.99 93.1429C1363.97 63.4516 1400.06 37.6057 1443.75 30.2179C1472.32 25.4053 1500.45 29.3789 1528.38 35.1936C1537.32 37.058 1546.53 39.4002 1555.84 39.4002C1560.05 39.4002 1560.05 45.2266 1555.84 45.2266L1555.85 45.2499Z" fill="#FFE69C"/>
</g>
<defs>
<clipPath id="clip0_8272_17484">
<rect width="1678" height="258.645" fill="white" transform="matrix(-1 0 0 1 1559 0.701416)"/>
</clipPath>
</defs>
</svg>
