<svg width="12" height="15" viewBox="0 0 12 15" fill="none" xmlns="http://www.w3.org/2000/svg">
<path d="M11.3531 4.01719C11.059 3.33888 10.6348 2.72472 10.1047 2.20937C9.5728 1.68937 8.94576 1.27665 8.25781 0.99375C7.54219 0.696875 6.78281 0.546875 6 0.546875C5.21719 0.546875 4.45781 0.696875 3.74219 0.992188C3.05 1.27812 2.42969 1.6875 1.89531 2.20781C1.3655 2.72345 0.941431 3.33753 0.646875 4.01562C0.342187 4.71875 0.1875 5.46562 0.1875 6.23438C0.1875 7.3375 0.451563 8.43594 0.970313 9.49531C1.3875 10.3469 1.97031 11.1766 2.70469 11.9656C3.95938 13.3125 5.275 14.1359 5.64844 14.3562C5.75444 14.4189 5.87533 14.4518 5.99844 14.4516C6.12031 14.4516 6.24062 14.4203 6.34844 14.3562C6.72187 14.1359 8.0375 13.3125 9.29219 11.9656C10.0266 11.1781 10.6094 10.3469 11.0266 9.49531C11.5484 8.4375 11.8125 7.34062 11.8125 6.23594C11.8125 5.46719 11.6578 4.72031 11.3531 4.01719ZM6 13.2531C4.97031 12.5984 1.3125 10.0063 1.3125 6.23594C1.3125 5.01875 1.79844 3.875 2.68125 3.0125C3.56719 2.14844 4.74531 1.67188 6 1.67188C7.25469 1.67188 8.43281 2.14844 9.31875 3.01406C10.2016 3.875 10.6875 5.01875 10.6875 6.23594C10.6875 10.0063 7.02969 12.5984 6 13.2531ZM6 3.60938C4.48125 3.60938 3.25 4.84062 3.25 6.35938C3.25 7.87813 4.48125 9.10938 6 9.10938C7.51875 9.10938 8.75 7.87813 8.75 6.35938C8.75 4.84062 7.51875 3.60938 6 3.60938ZM7.2375 7.59688C7.07519 7.75965 6.8823 7.88873 6.66992 7.97668C6.45754 8.06464 6.22987 8.10973 6 8.10938C5.53281 8.10938 5.09375 7.92656 4.7625 7.59688C4.59972 7.43457 4.47065 7.24167 4.38269 7.0293C4.29474 6.81692 4.24964 6.58924 4.25 6.35938C4.25 5.89219 4.43281 5.45312 4.7625 5.12187C5.09375 4.79062 5.53281 4.60938 6 4.60938C6.46719 4.60938 6.90625 4.79062 7.2375 5.12187C7.56875 5.45312 7.75 5.89219 7.75 6.35938C7.75 6.82656 7.56875 7.26562 7.2375 7.59688Z" fill="#003D4C"/>
</svg>
