<svg width="16" height="17" viewBox="0 0 16 17" fill="none" xmlns="http://www.w3.org/2000/svg">
<path fill-rule="evenodd" clip-rule="evenodd" d="M1.64592 5.146C1.69236 5.09944 1.74754 5.06249 1.80828 5.03729C1.86903 5.01208 1.93415 4.99911 1.99992 4.99911C2.06568 4.99911 2.13081 5.01208 2.19155 5.03729C2.2523 5.06249 2.30747 5.09944 2.35392 5.146L7.99992 10.793L13.6459 5.146C13.6924 5.09951 13.7476 5.06264 13.8083 5.03748C13.8691 5.01232 13.9342 4.99937 13.9999 4.99937C14.0657 4.99937 14.1308 5.01232 14.1915 5.03748C14.2522 5.06264 14.3074 5.09951 14.3539 5.146C14.4004 5.19249 14.4373 5.24768 14.4624 5.30842C14.4876 5.36916 14.5005 5.43426 14.5005 5.5C14.5005 5.56574 14.4876 5.63085 14.4624 5.69158C14.4373 5.75232 14.4004 5.80751 14.3539 5.854L8.35392 11.854C8.30747 11.9006 8.2523 11.9375 8.19155 11.9627C8.13081 11.9879 8.06568 12.0009 7.99992 12.0009C7.93415 12.0009 7.86903 11.9879 7.80828 11.9627C7.74754 11.9375 7.69236 11.9006 7.64592 11.854L1.64592 5.854C1.59935 5.80756 1.56241 5.75238 1.5372 5.69163C1.512 5.63089 1.49902 5.56577 1.49902 5.5C1.49902 5.43423 1.512 5.36911 1.5372 5.30837C1.56241 5.24762 1.59935 5.19245 1.64592 5.146Z" fill="black"/>
</svg>
