<svg width="16" height="16" viewBox="0 0 16 16" fill="none" xmlns="http://www.w3.org/2000/svg">
<path d="M13.9682 7.21821C14.451 7.21821 14.6526 6.5979 14.2604 6.31196L8.2932 1.97134C8.20798 1.9089 8.10509 1.87524 7.99945 1.87524C7.89381 1.87524 7.79091 1.9089 7.7057 1.97134L1.73851 6.31196C1.34632 6.59634 1.54788 7.21821 2.03226 7.21821H2.99945V13.062H1.87445C1.8057 13.062 1.74945 13.1182 1.74945 13.187V13.9995C1.74945 14.0682 1.8057 14.1245 1.87445 14.1245H14.1244C14.1932 14.1245 14.2494 14.0682 14.2494 13.9995V13.187C14.2494 13.1182 14.1932 13.062 14.1244 13.062H12.9994V7.21821H13.9682ZM7.99945 3.0729L12.2354 6.15415H3.76351L7.99945 3.0729ZM4.12445 7.21821H5.95257V13.062H4.12445V7.21821ZM7.07757 7.21821H8.9057V13.062H7.07757V7.21821ZM11.8744 13.062H10.0307V7.21821H11.8744V13.062Z" fill="#003D4C"/>
</svg>
