<svg width="16" height="17" viewBox="0 0 16 17" fill="none" xmlns="http://www.w3.org/2000/svg">
<path d="M9.5 13.5C9.5 13.8978 9.34196 14.2794 9.06066 14.5607C8.77936 14.842 8.39782 15 8 15C7.60218 15 7.22064 14.842 6.93934 14.5607C6.65804 14.2794 6.5 13.8978 6.5 13.5C6.5 13.1022 6.65804 12.7206 6.93934 12.4393C7.22064 12.158 7.60218 12 8 12C8.39782 12 8.77936 12.158 9.06066 12.4393C9.34196 12.7206 9.5 13.1022 9.5 13.5ZM9.5 8.5C9.5 8.89782 9.34196 9.27936 9.06066 9.56066C8.77936 9.84196 8.39782 10 8 10C7.60218 10 7.22064 9.84196 6.93934 9.56066C6.65804 9.27936 6.5 8.89782 6.5 8.5C6.5 8.10218 6.65804 7.72064 6.93934 7.43934C7.22064 7.15804 7.60218 7 8 7C8.39782 7 8.77936 7.15804 9.06066 7.43934C9.34196 7.72064 9.5 8.10218 9.5 8.5ZM9.5 3.5C9.5 3.89782 9.34196 4.27936 9.06066 4.56066C8.77936 4.84196 8.39782 5 8 5C7.60218 5 7.22064 4.84196 6.93934 4.56066C6.65804 4.27936 6.5 3.89782 6.5 3.5C6.5 3.10218 6.65804 2.72064 6.93934 2.43934C7.22064 2.15804 7.60218 2 8 2C8.39782 2 8.77936 2.15804 9.06066 2.43934C9.34196 2.72064 9.5 3.10218 9.5 3.5Z" fill="black"/>
</svg>
