<svg width="17" height="17" viewBox="0 0 17 17" fill="none" xmlns="http://www.w3.org/2000/svg">
<g clip-path="url(#clip0_987_130)">
<path d="M16.5513 8.54746C16.845 8.25371 16.845 7.77871 16.5513 7.48809L11.3013 2.23496C11.0075 1.94121 10.5325 1.94121 10.2419 2.23496C9.95127 2.52871 9.94814 3.00371 10.2419 3.29434L14.2106 7.26309H1.52002C1.10439 7.26309 0.77002 7.59746 0.77002 8.01309C0.77002 8.42871 1.10439 8.76309 1.52002 8.76309H14.2106L10.2419 12.7318C9.94814 13.0256 9.94814 13.5006 10.2419 13.7912C10.5356 14.0818 11.0106 14.085 11.3013 13.7912L16.5513 8.54746Z" fill="#168362"/>
</g>
<defs>
<clipPath id="clip0_987_130">
<rect width="16" height="16" fill="white" transform="translate(0.77002 0.0161133)"/>
</clipPath>
</defs>
</svg>
