<svg width="16" height="17" viewBox="0 0 16 17" fill="none" xmlns="http://www.w3.org/2000/svg">
<g clip-path="url(#clip0_987_119)">
<path d="M15.7812 9.44736C16.075 9.15361 16.075 8.67861 15.7812 8.38799L10.5312 3.13486C10.2375 2.84111 9.7625 2.84111 9.47188 3.13486C9.18125 3.42861 9.17813 3.90361 9.47188 4.19424L13.4406 8.16299H0.75C0.334375 8.16299 0 8.49736 0 8.91299C0 9.32861 0.334375 9.66299 0.75 9.66299H13.4406L9.47188 13.6317C9.17813 13.9255 9.17813 14.4005 9.47188 14.6911C9.76562 14.9817 10.2406 14.9849 10.5312 14.6911L15.7812 9.44736Z" fill="black"/>
</g>
<defs>
<clipPath id="clip0_987_119">
<rect width="16" height="16" fill="white" transform="translate(0 0.916016)"/>
</clipPath>
</defs>
</svg>
