<svg width="108" height="108" viewBox="0 0 108 108" fill="none" xmlns="http://www.w3.org/2000/svg">
<g opacity="0.3" clip-path="url(#clip0_987_177)">
<path d="M11.1824 91.1566L53.6089 12.5859L96.0354 91.1566H11.1824ZM60.9802 5.08902C59.5143 2.38763 56.6873 0.691406 53.6089 0.691406C50.5306 0.691406 47.7036 2.38763 46.2377 5.08902L1.0051 88.8531C-0.397947 91.4498 -0.335124 94.5909 1.17263 97.1248C2.68038 99.6587 5.42366 101.208 8.37634 101.208H98.8415C101.794 101.208 104.517 99.6587 106.045 97.1248C107.574 94.5909 107.616 91.4498 106.213 88.8531L60.9802 5.08902ZM53.6089 35.8723C50.8238 35.8723 48.5831 38.113 48.5831 40.8982V64.3521C48.5831 67.1373 50.8238 69.3779 53.6089 69.3779C56.3941 69.3779 58.6348 67.1373 58.6348 64.3521V40.8982C58.6348 38.113 56.3941 35.8723 53.6089 35.8723ZM59.2002 81.1049C59.2469 80.3433 59.1372 79.5802 58.8778 78.8625C58.6185 78.1449 58.215 77.4879 57.6922 76.9321C57.1693 76.3763 56.5383 75.9334 55.8379 75.6306C55.1375 75.3278 54.3825 75.1716 53.6194 75.1716C52.8563 75.1716 52.1014 75.3278 51.4009 75.6306C50.7005 75.9334 50.0695 76.3763 49.5467 76.9321C49.0239 77.4879 48.6204 78.1449 48.361 78.8625C48.1017 79.5802 47.992 80.3433 48.0386 81.1049C47.992 81.8666 48.1017 82.6297 48.361 83.3473C48.6204 84.0649 49.0239 84.7219 49.5467 85.2777C50.0695 85.8335 50.7005 86.2765 51.4009 86.5792C52.1014 86.882 52.8563 87.0382 53.6194 87.0382C54.3825 87.0382 55.1375 86.882 55.8379 86.5792C56.5383 86.2765 57.1693 85.8335 57.6922 85.2777C58.215 84.7219 58.6185 84.0649 58.8778 83.3473C59.1372 82.6297 59.2469 81.8666 59.2002 81.1049Z" fill="white"/>
</g>
<defs>
<clipPath id="clip0_987_177">
<rect width="107.218" height="107.218" fill="white" transform="translate(0 0.691406)"/>
</clipPath>
</defs>
</svg>
