<svg width="128" height="45" viewBox="0 0 128 45" fill="none" xmlns="http://www.w3.org/2000/svg">
<path d="M63.9477 24.379C61.4354 24.379 59.3877 26.3147 59.3877 28.9807C59.3877 31.6307 61.4354 33.5826 63.9477 33.5826C66.4611 33.5826 68.5087 31.6307 68.5087 28.9807C68.5077 26.3147 66.46 24.379 63.9477 24.379ZM63.9477 31.7713C62.5709 31.7713 61.384 30.6211 61.384 28.9819C61.384 27.3253 62.5719 26.1924 63.9477 26.1924C65.3245 26.1924 66.5113 27.3253 66.5113 28.9819C66.5113 30.6201 65.3245 31.7713 63.9477 31.7713ZM53.9987 24.379C51.4865 24.379 49.4388 26.3147 49.4388 28.9807C49.4388 31.6307 51.4865 33.5826 53.9987 33.5826C56.5123 33.5826 58.5598 31.6307 58.5598 28.9807C58.5598 26.3147 56.5123 24.379 53.9987 24.379ZM53.9987 31.7713C52.622 31.7713 51.4352 30.6211 51.4352 28.9819C51.4352 27.3253 52.623 26.1924 53.9987 26.1924C55.3756 26.1924 56.5625 27.3253 56.5625 28.9819C56.5635 30.6201 55.3756 31.7713 53.9987 31.7713ZM42.1657 25.792V27.7441H46.778C46.6402 28.8422 46.2792 29.6441 45.728 30.2013C45.0571 30.8809 44.0072 31.6307 42.1657 31.6307C39.3265 31.6307 37.1068 29.3119 37.1068 26.4358C37.1068 23.5598 39.3265 21.241 42.1657 21.241C43.6974 21.241 44.8157 21.8513 45.6415 22.6358L47.0012 21.2583C45.8476 20.1428 44.3169 19.2891 42.1657 19.2891C38.2765 19.2891 35.0068 22.4961 35.0068 26.4358C35.0068 30.3755 38.2765 33.5826 42.1657 33.5826C44.2646 33.5826 45.8487 32.8847 47.0867 31.5776C48.3599 30.2879 48.7562 28.4743 48.7562 27.0104C48.7562 26.5581 48.7221 26.1393 48.6526 25.791L42.1657 25.792ZM90.5621 27.3079C90.1839 26.28 89.0303 24.379 86.6729 24.379C84.3326 24.379 82.3874 26.2443 82.3874 28.9807C82.3874 31.5603 84.3155 33.5826 86.8961 33.5826C88.978 33.5826 90.1829 32.2929 90.6828 31.5431L89.1339 30.4966C88.618 31.2638 87.912 31.7691 86.8961 31.7691C85.8814 31.7691 85.1582 31.2985 84.6936 30.3745L90.7682 27.8295L90.5621 27.3079ZM84.3667 28.8422C84.3154 27.0635 85.7265 26.1577 86.7423 26.1577C87.5338 26.1577 88.2046 26.5592 88.429 27.1337L84.3667 28.8422ZM79.4286 33.3045H81.424V19.7781H79.4286V33.3045ZM76.1578 25.4079H76.0896C75.642 24.867 74.7809 24.379 73.6979 24.379C71.4259 24.379 69.3441 26.4013 69.3441 28.9992C69.3441 31.5787 71.4259 33.5838 73.6979 33.5838C74.7821 33.5838 75.642 33.0957 76.0896 32.5385H76.1578V33.2007C76.1578 34.9611 75.2286 35.9026 73.7321 35.9026C72.5101 35.9026 71.7527 35.0141 71.4431 34.2643L69.7051 34.9968C70.204 36.2163 71.5285 37.716 73.7321 37.716C76.0724 37.716 78.0517 36.3212 78.0517 32.9216V24.6591H76.159L76.1578 25.4079ZM73.8699 31.7713C72.493 31.7713 71.3405 30.6028 71.3405 28.9992C71.3405 27.3772 72.493 26.1924 73.8699 26.1924C75.2286 26.1924 76.2956 27.3772 76.2956 28.9992C76.2956 30.6028 75.2286 31.7713 73.8699 31.7713ZM99.9128 19.7781H95.1371V33.3045H97.1292V28.18H99.9118C102.121 28.18 104.293 26.5603 104.293 23.9796C104.293 21.399 102.122 19.7781 99.9128 19.7781ZM99.964 26.2974H97.1292V21.6609H99.964C101.454 21.6609 102.3 22.9107 102.3 23.9796C102.3 25.0271 101.454 26.2974 99.964 26.2974ZM112.282 24.3551C110.839 24.3551 109.345 24.999 108.726 26.4261L110.495 27.1737C110.873 26.4261 111.578 26.1815 112.316 26.1815C113.347 26.1815 114.395 26.808 114.412 27.9215V28.0611C114.051 27.8522 113.278 27.5395 112.333 27.5395C110.427 27.5395 108.485 28.601 108.485 30.5844C108.485 32.3946 110.049 33.5599 111.8 33.5599C113.14 33.5599 113.879 32.9507 114.343 32.2366H114.411V33.2808H116.336V28.0946C116.337 25.6947 114.566 24.3551 112.282 24.3551ZM112.041 31.7681C111.389 31.7681 110.478 31.4369 110.478 30.6189C110.478 29.5748 111.612 29.1744 112.592 29.1744C113.467 29.1744 113.88 29.366 114.412 29.6267C114.257 30.8809 113.192 31.7681 112.041 31.7681ZM123.345 24.6505L121.061 30.5151H120.991L118.621 24.6505H116.474L120.03 32.8469L118.002 37.4065H120.081L125.561 24.6505H123.345ZM105.394 33.3045H107.386V19.7781H105.394V33.3045Z" fill="white"/>
<path d="M41.8224 11.9264C41.8224 12.8331 41.5574 13.5549 41.0265 14.0936C40.4241 14.7342 39.6379 15.0545 38.6723 15.0545C37.7473 15.0545 36.96 14.7299 36.3138 14.0807C35.6665 13.4304 35.3428 12.6253 35.3428 11.6645C35.3428 10.7026 35.6665 9.89757 36.3138 9.24835C36.96 8.59805 37.7473 8.27344 38.6723 8.27344C39.1316 8.27344 39.5706 8.36434 39.9872 8.54503C40.4049 8.72681 40.7391 8.96811 40.9891 9.26999L40.4263 9.8413C40.0021 9.32734 39.4178 9.0709 38.6712 9.0709C37.9961 9.0709 37.4129 9.3111 36.9205 9.79153C36.428 10.2719 36.1824 10.8963 36.1824 11.6634C36.1824 12.4306 36.428 13.0549 36.9205 13.5353C37.4129 14.0157 37.9961 14.256 38.6712 14.256C39.3868 14.256 39.984 14.0147 40.4615 13.531C40.7713 13.2161 40.9507 12.7779 40.9987 12.2163H38.6712V11.4362H41.7764C41.8084 11.6061 41.8224 11.7695 41.8224 11.9264Z" fill="white"/>
<path d="M46.7448 9.21543H43.8265V11.2734H46.4585V12.0536H43.8265V14.1116H46.7448V14.9101H43.0029V8.41797H46.7448V9.21543Z" fill="white"/>
<path d="M50.2144 14.9101H49.3908V9.21543H47.6006V8.41797H52.0047V9.21543H50.2144V14.9101Z" fill="white"/>
<path d="M55.1943 14.9101V8.41797H56.0178V14.9101H55.1943Z" fill="white"/>
<path d="M59.6675 14.9101H58.8439V9.21543H57.0537V8.41797H61.4577V9.21543H59.6675V14.9101Z" fill="white"/>
<path d="M69.7984 14.0692C69.1682 14.7249 68.3852 15.0528 67.4485 15.0528C66.5116 15.0528 65.7287 14.7249 65.0995 14.0692C64.4693 13.4134 64.1553 12.6106 64.1553 11.6617C64.1553 10.7127 64.4693 9.90988 65.0995 9.25417C65.7287 8.59847 66.5116 8.26953 67.4485 8.26953C68.3799 8.26953 69.1618 8.59954 69.7941 9.25851C70.4265 9.91746 70.7427 10.7182 70.7427 11.6617C70.7427 12.6106 70.4275 13.4134 69.7984 14.0692ZM65.7074 13.525C66.1816 14.0118 66.7616 14.2542 67.4485 14.2542C68.1353 14.2542 68.7164 14.0108 69.1896 13.525C69.6638 13.038 69.902 12.4169 69.902 11.6617C69.902 10.9064 69.6638 10.2854 69.1896 9.79844C68.7164 9.31153 68.1353 9.06915 67.4485 9.06915C66.7616 9.06915 66.1816 9.3126 65.7074 9.79844C65.2341 10.2854 64.9959 10.9064 64.9959 11.6617C64.9959 12.4169 65.2341 13.038 65.7074 13.525Z" fill="white"/>
<path d="M71.8936 14.9101V8.41797H72.8956L76.0102 13.4678H76.0456L76.0102 12.217V8.41797H76.8339V14.9101H75.974L72.715 9.61469H72.6798L72.715 10.8655V14.9101H71.8936Z" fill="white"/>
<path d="M41.8224 11.9264C41.8224 12.8331 41.5574 13.5549 41.0265 14.0936C40.4241 14.7342 39.6379 15.0545 38.6723 15.0545C37.7473 15.0545 36.96 14.7299 36.3138 14.0807C35.6665 13.4304 35.3428 12.6253 35.3428 11.6645C35.3428 10.7026 35.6665 9.89757 36.3138 9.24835C36.96 8.59805 37.7473 8.27344 38.6723 8.27344C39.1316 8.27344 39.5706 8.36434 39.9872 8.54503C40.4049 8.72681 40.7391 8.96811 40.9891 9.26999L40.4263 9.8413C40.0021 9.32734 39.4178 9.0709 38.6712 9.0709C37.9961 9.0709 37.4129 9.3111 36.9205 9.79153C36.428 10.2719 36.1824 10.8963 36.1824 11.6634C36.1824 12.4306 36.428 13.0549 36.9205 13.5353C37.4129 14.0157 37.9961 14.256 38.6712 14.256C39.3868 14.256 39.984 14.0147 40.4615 13.531C40.7713 13.2161 40.9507 12.7779 40.9987 12.2163H38.6712V11.4362H41.7764C41.8084 11.6061 41.8224 11.7695 41.8224 11.9264Z" stroke="white" stroke-width="0.209028" stroke-miterlimit="10"/>
<path d="M46.7448 9.21543H43.8265V11.2734H46.4585V12.0536H43.8265V14.1116H46.7448V14.9101H43.0029V8.41797H46.7448V9.21543Z" stroke="white" stroke-width="0.209028" stroke-miterlimit="10"/>
<path d="M50.2144 14.9101H49.3908V9.21543H47.6006V8.41797H52.0047V9.21543H50.2144V14.9101Z" stroke="white" stroke-width="0.209028" stroke-miterlimit="10"/>
<path d="M55.1943 14.9101V8.41797H56.0178V14.9101H55.1943Z" stroke="white" stroke-width="0.209028" stroke-miterlimit="10"/>
<path d="M59.6675 14.9101H58.8439V9.21543H57.0537V8.41797H61.4577V9.21543H59.6675V14.9101Z" stroke="white" stroke-width="0.209028" stroke-miterlimit="10"/>
<path d="M69.7984 14.0692C69.1682 14.7249 68.3852 15.0528 67.4485 15.0528C66.5116 15.0528 65.7287 14.7249 65.0995 14.0692C64.4693 13.4134 64.1553 12.6106 64.1553 11.6617C64.1553 10.7127 64.4693 9.90988 65.0995 9.25417C65.7287 8.59847 66.5116 8.26953 67.4485 8.26953C68.3799 8.26953 69.1618 8.59954 69.7941 9.25851C70.4265 9.91746 70.7427 10.7182 70.7427 11.6617C70.7427 12.6106 70.4275 13.4134 69.7984 14.0692ZM65.7074 13.525C66.1816 14.0118 66.7616 14.2542 67.4485 14.2542C68.1353 14.2542 68.7164 14.0108 69.1896 13.525C69.6638 13.038 69.902 12.4169 69.902 11.6617C69.902 10.9064 69.6638 10.2854 69.1896 9.79844C68.7164 9.31153 68.1353 9.06915 67.4485 9.06915C66.7616 9.06915 66.1816 9.3126 65.7074 9.79844C65.2341 10.2854 64.9959 10.9064 64.9959 11.6617C64.9959 12.4169 65.2341 13.038 65.7074 13.525Z" stroke="white" stroke-width="0.209028" stroke-miterlimit="10"/>
<path d="M71.8936 14.9101V8.41797H72.8956L76.0102 13.4678H76.0456L76.0102 12.217V8.41797H76.8339V14.9101H75.974L72.715 9.61469H72.6798L72.715 10.8655V14.9101H71.8936Z" stroke="white" stroke-width="0.209028" stroke-miterlimit="10"/>
<g filter="url(#filter0_dd_296_8090)">
<path d="M2.3178 8.99892C2.00696 9.33218 1.82324 9.84938 1.82324 10.5192V34.4493C1.82324 35.1201 2.00696 35.6362 2.3178 35.9695L2.39684 36.0474L15.6303 22.6421V22.4842V22.3262L2.39684 8.91992L2.3178 8.99892Z" fill="url(#paint0_linear_296_8090)"/>
<path d="M20.0423 27.1139L15.6318 22.6441V22.4861V22.3281L20.0433 17.8594L20.1427 17.9167L25.3693 20.9248C26.8614 21.7839 26.8614 23.1895 25.3693 24.0497L20.1427 27.0577L20.0423 27.1139Z" fill="url(#paint1_linear_296_8090)"/>
<g filter="url(#filter1_d_296_8090)">
<path d="M20.1388 27.0549L15.6269 22.4844L2.31543 35.9697C2.80678 36.4977 3.61965 36.5627 4.53509 36.0368L20.1388 27.0549Z" fill="url(#paint2_linear_296_8090)"/>
</g>
<path d="M20.1388 17.9148L4.53509 8.93396C3.61965 8.407 2.80678 8.47302 2.31543 9.00104L15.628 22.4864L20.1388 17.9148Z" fill="url(#paint3_linear_296_8090)"/>
</g>
<defs>
<filter id="filter0_dd_296_8090" x="1.82324" y="8.41354" width="24.6651" height="28.1436" filterUnits="userSpaceOnUse" color-interpolation-filters="sRGB">
<feFlood flood-opacity="0" result="BackgroundImageFix"/>
<feColorMatrix in="SourceAlpha" type="matrix" values="0 0 0 0 0 0 0 0 0 0 0 0 0 0 0 0 0 0 127 0" result="hardAlpha"/>
<feOffset dy="-0.156771"/>
<feComposite in2="hardAlpha" operator="out"/>
<feColorMatrix type="matrix" values="0 0 0 0 0 0 0 0 0 0 0 0 0 0 0 0 0 0 0.12 0"/>
<feBlend mode="normal" in2="BackgroundImageFix" result="effect1_dropShadow_296_8090"/>
<feColorMatrix in="SourceAlpha" type="matrix" values="0 0 0 0 0 0 0 0 0 0 0 0 0 0 0 0 0 0 127 0" result="hardAlpha"/>
<feOffset dy="0.156771"/>
<feComposite in2="hardAlpha" operator="out"/>
<feColorMatrix type="matrix" values="0 0 0 0 1 0 0 0 0 1 0 0 0 0 1 0 0 0 0.25 0"/>
<feBlend mode="normal" in2="effect1_dropShadow_296_8090" result="effect2_dropShadow_296_8090"/>
<feBlend mode="normal" in="SourceGraphic" in2="effect2_dropShadow_296_8090" result="shape"/>
</filter>
<filter id="filter1_d_296_8090" x="2.31543" y="22.3276" width="17.8233" height="14.0728" filterUnits="userSpaceOnUse" color-interpolation-filters="sRGB">
<feFlood flood-opacity="0" result="BackgroundImageFix"/>
<feColorMatrix in="SourceAlpha" type="matrix" values="0 0 0 0 0 0 0 0 0 0 0 0 0 0 0 0 0 0 127 0" result="hardAlpha"/>
<feOffset dy="-0.156771"/>
<feComposite in2="hardAlpha" operator="out"/>
<feColorMatrix type="matrix" values="0 0 0 0 0 0 0 0 0 0 0 0 0 0 0 0 0 0 0.08 0"/>
<feBlend mode="normal" in2="BackgroundImageFix" result="effect1_dropShadow_296_8090"/>
<feBlend mode="normal" in="SourceGraphic" in2="effect1_dropShadow_296_8090" result="shape"/>
</filter>
<linearGradient id="paint0_linear_296_8090" x1="14.4572" y1="10.266" x2="-3.69977" y2="28.1904" gradientUnits="userSpaceOnUse">
<stop stop-color="#00A0FF"/>
<stop offset="0.0066" stop-color="#00A1FF"/>
<stop offset="0.2601" stop-color="#00BEFF"/>
<stop offset="0.5122" stop-color="#00D2FF"/>
<stop offset="0.7604" stop-color="#00DFFF"/>
<stop offset="1" stop-color="#00E3FF"/>
</linearGradient>
<linearGradient id="paint1_linear_296_8090" x1="27.3117" y1="22.4861" x2="1.46649" y2="22.4861" gradientUnits="userSpaceOnUse">
<stop stop-color="#FFE000"/>
<stop offset="0.4087" stop-color="#FFBD00"/>
<stop offset="0.7754" stop-color="#FFA500"/>
<stop offset="1" stop-color="#FF9C00"/>
</linearGradient>
<linearGradient id="paint2_linear_296_8090" x1="17.6885" y1="24.9665" x2="-6.93469" y2="49.2743" gradientUnits="userSpaceOnUse">
<stop stop-color="#FF3A44"/>
<stop offset="1" stop-color="#C31162"/>
</linearGradient>
<linearGradient id="paint3_linear_296_8090" x1="-1.03711" y1="1.03495" x2="9.95786" y2="11.8891" gradientUnits="userSpaceOnUse">
<stop stop-color="#32A071"/>
<stop offset="0.0685" stop-color="#2DA771"/>
<stop offset="0.4762" stop-color="#15CF74"/>
<stop offset="0.8009" stop-color="#06E775"/>
<stop offset="1" stop-color="#00F076"/>
</linearGradient>
</defs>
</svg>
