<svg width="78" height="20" viewBox="0 0 78 20" fill="none" xmlns="http://www.w3.org/2000/svg">
<g clip-path="url(#clip0_296_8167)">
<path d="M55.0909 8.30078V10.0131H54.0176V11.1361H55.0909V14.9515C55.0909 16.2544 55.6803 16.7755 57.163 16.7755C57.4236 16.7755 57.6718 16.7445 57.8889 16.7072V15.5967C57.7028 15.6153 57.585 15.6278 57.3802 15.6278C56.7164 15.6278 56.4248 15.3176 56.4248 14.6103V11.1361H57.8889V10.0131H56.4248V8.30078H55.0909Z" fill="#101415"/>
<path d="M61.6667 16.8693C63.6397 16.8693 64.8494 15.5479 64.8494 13.3578C64.8494 11.1803 63.6334 9.85254 61.6667 9.85254C59.6939 9.85254 58.4779 11.1803 58.4779 13.3578C58.4779 15.5479 59.6876 16.8693 61.6667 16.8693ZM61.6667 15.6844C60.5066 15.6844 59.8551 14.8344 59.8551 13.3578C59.8551 11.8937 60.5066 11.0375 61.6667 11.0375C62.8207 11.0375 63.4783 11.8937 63.4783 13.3578C63.4783 14.8282 62.8207 15.6844 61.6667 15.6844Z" fill="#101415"/>
<path d="M65.8853 16.7389H67.219V12.7497C67.219 11.8005 67.9326 11.1615 68.9438 11.1615C69.1796 11.1615 69.5766 11.2049 69.6883 11.2422V9.92687C69.5456 9.88969 69.2912 9.87109 69.0927 9.87109C68.2117 9.87109 67.461 10.355 67.2687 11.0188H67.1694V9.98274H65.8853V16.7389Z" fill="#101415"/>
<path d="M72.9998 10.9879C73.9862 10.9879 74.6314 11.6765 74.6624 12.7374H71.2502C71.3247 11.6827 72.0132 10.9879 72.9998 10.9879ZM74.6562 14.9151C74.408 15.4424 73.8559 15.734 73.0494 15.734C71.9822 15.734 71.2937 14.9833 71.2502 13.7983V13.7239H76.0211V13.2586C76.0211 11.1368 74.8857 9.85254 73.0059 9.85254C71.1013 9.85254 69.8915 11.2237 69.8915 13.3827C69.8915 15.5417 71.0764 16.8693 73.0121 16.8693C74.5569 16.8693 75.6364 16.1249 75.9404 14.9151H74.6562Z" fill="#101415"/>
<path d="M46.3447 14.2444C46.4476 15.9034 47.8301 16.9643 49.8878 16.9643C52.087 16.9643 53.4631 15.8519 53.4631 14.0771C53.4631 12.6818 52.6786 11.9101 50.7752 11.4665L49.7528 11.2156C48.5439 10.9327 48.0552 10.5533 48.0552 9.89105C48.0552 9.05507 48.814 8.50854 49.9522 8.50854C51.0324 8.50854 51.7783 9.0422 51.9134 9.89749H53.3152C53.2316 8.33494 51.8556 7.23535 49.9715 7.23535C47.9459 7.23535 46.5956 8.33494 46.5956 9.9875C46.5956 11.3507 47.3607 12.1609 49.039 12.5532L50.2351 12.8425C51.4632 13.1319 52.0034 13.5563 52.0034 14.2637C52.0034 15.0867 51.1546 15.6847 49.9971 15.6847C48.7561 15.6847 47.8945 15.1253 47.7723 14.2444H46.3447Z" fill="#101415"/>
<path d="M32.5263 9.87109C31.608 9.87109 30.8139 10.3301 30.4045 11.0994H30.3052V9.98274H29.021V18.9848H30.3548V15.7153H30.4603C30.8139 16.4287 31.577 16.8506 32.5386 16.8506C34.2448 16.8506 35.3304 15.5043 35.3304 13.3577C35.3304 11.2111 34.2448 9.87109 32.5263 9.87109ZM32.1478 15.6532C31.031 15.6532 30.33 14.7723 30.33 13.3639C30.33 11.9494 31.031 11.0684 32.1539 11.0684C33.2831 11.0684 33.9594 11.9308 33.9594 13.3577C33.9594 14.7909 33.2831 15.6532 32.1478 15.6532Z" fill="#101415"/>
<path d="M39.9988 9.87109C39.0806 9.87109 38.2865 10.3301 37.877 11.0994H37.7777V9.98274H36.4935V18.9848H37.8274V15.7153H37.9329C38.2865 16.4287 39.0496 16.8506 40.0112 16.8506C41.7173 16.8506 42.803 15.5043 42.803 13.3577C42.803 11.2111 41.7173 9.87109 39.9988 9.87109ZM39.6203 15.6532C38.5037 15.6532 37.8026 14.7723 37.8026 13.3639C37.8026 11.9494 38.5037 11.0684 39.6266 11.0684C40.7557 11.0684 41.4319 11.9308 41.4319 13.3577C41.4319 14.7909 40.7557 15.6532 39.6203 15.6532Z" fill="#101415"/>
<path d="M26.6293 16.7389H28.1598L24.8096 7.45996H23.2598L19.9097 16.7389H21.3886L22.2439 14.2761H25.7806L26.6293 16.7389ZM23.9608 9.1447H24.0701L25.4141 13.0672H22.6104L23.9608 9.1447Z" fill="#101415"/>
<path d="M20.8059 0.460938V4.93713H22.422C23.7559 4.93713 24.5283 4.1151 24.5283 2.68512C24.5283 1.27677 23.7497 0.460938 22.422 0.460938H20.8059ZM21.5007 1.09375H22.3445C23.272 1.09375 23.821 1.68313 23.821 2.69442C23.821 3.72116 23.2813 4.30434 22.3445 4.30434H21.5007V1.09375Z" fill="#101415"/>
<path d="M26.8932 5.00156C27.8796 5.00156 28.4845 4.34078 28.4845 3.24584C28.4845 2.15699 27.8765 1.49316 26.8932 1.49316C25.9066 1.49316 25.2987 2.15699 25.2987 3.24584C25.2987 4.34078 25.9036 5.00156 26.8932 5.00156ZM26.8932 4.40908C26.313 4.40908 25.9874 3.98412 25.9874 3.24584C25.9874 2.51372 26.313 2.08565 26.8932 2.08565C27.4701 2.08565 27.799 2.51372 27.799 3.24584C27.799 3.98099 27.4701 4.40908 26.8932 4.40908Z" fill="#101415"/>
<path d="M33.6368 1.55859H32.9699L32.3681 4.13636H32.3154L31.6204 1.55859H30.9815L30.2867 4.13636H30.237L29.632 1.55859H28.9558L29.8865 4.93667H30.572L31.2668 2.44887H31.3196L32.0175 4.93667H32.7093L33.6368 1.55859Z" fill="#101415"/>
<path d="M34.4031 4.93639H35.07V2.96042C35.07 2.43308 35.3833 2.10426 35.8765 2.10426C36.3698 2.10426 36.6055 2.37413 36.6055 2.91697V4.93639H37.2724V2.74946C37.2724 1.94606 36.8568 1.49316 36.1029 1.49316C35.5942 1.49316 35.2592 1.71961 35.0948 2.09496H35.0452V1.55831H34.4031V4.93639Z" fill="#101415"/>
<path d="M38.3232 4.93765H38.9902V0.241211H38.3232V4.93765Z" fill="#101415"/>
<path d="M41.4983 5.00156C42.4847 5.00156 43.0896 4.34078 43.0896 3.24584C43.0896 2.15699 42.4816 1.49316 41.4983 1.49316C40.5118 1.49316 39.9038 2.15699 39.9038 3.24584C39.9038 4.34078 40.5087 5.00156 41.4983 5.00156ZM41.4983 4.40908C40.9182 4.40908 40.5925 3.98412 40.5925 3.24584C40.5925 2.51372 40.9182 2.08565 41.4983 2.08565C42.0752 2.08565 42.4041 2.51372 42.4041 3.24584C42.4041 3.98099 42.0752 4.40908 41.4983 4.40908Z" fill="#101415"/>
<path d="M45.0764 4.4308C44.7135 4.4308 44.4498 4.25398 44.4498 3.94997C44.4498 3.65221 44.6607 3.49399 45.126 3.46297L45.9512 3.41023V3.69252C45.9512 4.11123 45.5789 4.4308 45.0764 4.4308ZM44.9057 4.99226C45.3494 4.99226 45.7185 4.79989 45.9201 4.46182H45.9729V4.93639H46.615V2.62851C46.615 1.91504 46.1373 1.49316 45.2904 1.49316C44.5242 1.49316 43.9783 1.8654 43.91 2.44548H44.5552C44.6297 2.20662 44.8872 2.07014 45.2594 2.07014C45.7154 2.07014 45.9512 2.27177 45.9512 2.62851V2.9201L45.0361 2.97284C44.2326 3.02245 43.7798 3.37295 43.7798 3.98099C43.7798 4.59832 44.2544 4.99226 44.9057 4.99226Z" fill="#101415"/>
<path d="M48.8787 4.99352C49.344 4.99352 49.738 4.77326 49.9396 4.40408H49.9924V4.93765H50.6313V0.241211H49.9644V2.09621H49.9148C49.7318 1.72397 49.3409 1.50372 48.8787 1.50372C48.0257 1.50372 47.4766 2.17996 47.4766 3.2471C47.4766 4.31728 48.0194 4.99352 48.8787 4.99352ZM49.0679 2.10242C49.6263 2.10242 49.9768 2.546 49.9768 3.25013C49.9768 3.95739 49.6294 4.39478 49.0679 4.39478C48.5034 4.39478 48.1652 3.96365 48.1652 3.2471C48.1652 2.53669 48.5064 2.10242 49.0679 2.10242Z" fill="#101415"/>
<path d="M54.9557 5.00156C55.9421 5.00156 56.547 4.34078 56.547 3.24584C56.547 2.15699 55.939 1.49316 54.9557 1.49316C53.9691 1.49316 53.3612 2.15699 53.3612 3.24584C53.3612 4.34078 53.9661 5.00156 54.9557 5.00156ZM54.9557 4.40908C54.3755 4.40908 54.0499 3.98412 54.0499 3.24584C54.0499 2.51372 54.3755 2.08565 54.9557 2.08565C55.5326 2.08565 55.8614 2.51372 55.8614 3.24584C55.8614 3.98099 55.5326 4.40908 54.9557 4.40908Z" fill="#101415"/>
<path d="M57.4304 4.93639H58.0974V2.96042C58.0974 2.43308 58.4107 2.10426 58.9038 2.10426C59.3971 2.10426 59.6328 2.37413 59.6328 2.91697V4.93639H60.2998V2.74946C60.2998 1.94606 59.8841 1.49316 59.1303 1.49316C58.6215 1.49316 58.2865 1.71961 58.1221 2.09496H58.0725V1.55831H57.4304V4.93639Z" fill="#101415"/>
<path d="M63.3726 0.717773V1.57394H62.8359V2.1354H63.3726V4.04314C63.3726 4.69453 63.6673 4.9551 64.4087 4.9551C64.539 4.9551 64.6631 4.93964 64.7716 4.92104V4.36575C64.6785 4.37505 64.6196 4.38121 64.5173 4.38121C64.1854 4.38121 64.0396 4.22612 64.0396 3.87249V2.1354H64.7716V1.57394H64.0396V0.717773H63.3726Z" fill="#101415"/>
<path d="M65.6665 4.93765H66.3334V2.9648C66.3334 2.45294 66.6375 2.10862 67.1835 2.10862C67.6549 2.10862 67.9062 2.38159 67.9062 2.92136V4.93765H68.5731V2.75697C68.5731 1.95352 68.1296 1.49752 67.4099 1.49752C66.9012 1.49752 66.5444 1.72397 66.38 2.10242H66.3273V0.241211H65.6665V4.93765Z" fill="#101415"/>
<path d="M70.978 2.06084C71.4711 2.06084 71.7937 2.40516 71.8093 2.93557H70.1032C70.1404 2.40826 70.4847 2.06084 70.978 2.06084ZM71.8062 4.02443C71.6821 4.28804 71.4061 4.43384 71.0027 4.43384C70.4693 4.43384 70.1249 4.05849 70.1032 3.46601V3.42882H72.4887V3.19614C72.4887 2.13528 71.921 1.49316 70.981 1.49316C70.0287 1.49316 69.4238 2.17871 69.4238 3.25818C69.4238 4.33774 70.0163 5.00156 70.9841 5.00156C71.7566 5.00156 72.2963 4.62934 72.4483 4.02443H71.8062Z" fill="#101415"/>
<path d="M12.6718 9.12284C12.688 7.86646 13.3627 6.67766 14.4332 6.01956C13.7579 5.05522 12.6269 4.4437 11.4501 4.40696C10.1951 4.2752 8.97832 5.15793 8.33882 5.15793C7.68681 5.15793 6.70217 4.42001 5.64183 4.44182C4.25967 4.48652 2.97111 5.27226 2.29872 6.48064C0.853238 8.9833 1.93143 12.6613 3.31607 14.6842C4.00884 15.6748 4.81845 16.7813 5.87791 16.742C6.91457 16.699 7.3018 16.081 8.55318 16.081C9.79293 16.081 10.1561 16.742 11.237 16.7171C12.3495 16.699 13.0504 15.7221 13.7189 14.7222C14.2166 14.0163 14.5996 13.2362 14.8537 12.4108C13.5464 11.8579 12.6734 10.5423 12.6718 9.12284Z" fill="#101415"/>
<path d="M10.6315 3.07668C11.2381 2.34855 11.5369 1.41267 11.4645 0.467773C10.5379 0.565102 9.68186 1.00798 9.06712 1.70817C8.46597 2.39229 8.1532 3.31169 8.21228 4.22052C9.13935 4.23 10.0506 3.79914 10.6315 3.07668Z" fill="#101415"/>
</g>
<defs>
<clipPath id="clip0_296_8167">
<rect width="76.8757" height="19.0699" fill="white" transform="translate(0.62793 0.164062)"/>
</clipPath>
</defs>
</svg>
