<svg width="130" height="33" viewBox="0 0 130 33" fill="none" xmlns="http://www.w3.org/2000/svg">
<g clip-path="url(#clip0_296_8114)">
<path d="M91.7425 14.002V16.8754H89.9414V18.7597H91.7425V25.1621C91.7425 27.3484 92.7316 28.2229 95.2196 28.2229C95.6569 28.2229 96.0733 28.1708 96.4376 28.1083V26.2448C96.1253 26.276 95.9276 26.2969 95.584 26.2969C94.4701 26.2969 93.9808 25.7764 93.9808 24.5896V18.7597H96.4376V16.8754H93.9808V14.002H91.7425Z" fill="white"/>
<path d="M102.777 28.3799C106.087 28.3799 108.117 26.1624 108.117 22.4874C108.117 18.8334 106.077 16.6055 102.777 16.6055C99.4662 16.6055 97.4258 18.8334 97.4258 22.4874C97.4258 26.1624 99.4557 28.3799 102.777 28.3799ZM102.777 26.3915C100.83 26.3915 99.7368 24.9653 99.7368 22.4874C99.7368 20.0306 100.83 18.5939 102.777 18.5939C104.713 18.5939 105.817 20.0306 105.817 22.4874C105.817 24.9548 104.713 26.3915 102.777 26.3915Z" fill="white"/>
<path d="M109.855 28.1611H112.094V21.4672C112.094 19.8743 113.291 18.8021 114.988 18.8021C115.383 18.8021 116.05 18.8749 116.237 18.9374V16.7303C115.998 16.6679 115.571 16.6367 115.238 16.6367C113.759 16.6367 112.5 17.4487 112.177 18.5626H112.01V16.8241H109.855V28.1611Z" fill="white"/>
<path d="M121.794 18.5106C123.449 18.5106 124.532 19.6662 124.584 21.4464H118.858C118.983 19.6766 120.139 18.5106 121.794 18.5106ZM124.573 25.1006C124.157 25.9854 123.23 26.4747 121.877 26.4747C120.086 26.4747 118.931 25.215 118.858 23.2266V23.1017H126.864V22.3209C126.864 18.7605 124.959 16.6055 121.804 16.6055C118.608 16.6055 116.578 18.9063 116.578 22.5291C116.578 26.1521 118.567 28.3799 121.815 28.3799C124.407 28.3799 126.218 27.1307 126.728 25.1006H124.573Z" fill="white"/>
<path d="M77.0664 23.9742C77.2391 26.7581 79.559 28.5384 83.0118 28.5384C86.7021 28.5384 89.0112 26.6717 89.0112 23.6936C89.0112 21.3522 87.6948 20.0573 84.5008 19.3128L82.7853 18.8919C80.7567 18.4172 79.9367 17.7806 79.9367 16.6692C79.9367 15.2664 81.2099 14.3493 83.1198 14.3493C84.9326 14.3493 86.1841 15.2448 86.4108 16.68H88.7631C88.6229 14.058 86.3138 12.2129 83.1522 12.2129C79.7532 12.2129 77.4873 14.058 77.4873 16.8311C77.4873 19.1186 78.7713 20.4782 81.5876 21.1364L83.5946 21.6219C85.6554 22.1075 86.5618 22.8197 86.5618 24.0066C86.5618 25.3877 85.1376 26.3912 83.1953 26.3912C81.1128 26.3912 79.667 25.4525 79.4619 23.9742H77.0664Z" fill="white"/>
<path d="M53.878 16.6367C52.3372 16.6367 51.0046 17.407 50.3176 18.6979H50.151V16.8241H47.9961V31.9298H50.2342V26.4434H50.4112C51.0046 27.6406 52.2852 28.3486 53.8987 28.3486C56.7618 28.3486 58.5835 26.0894 58.5835 22.4873C58.5835 18.8854 56.7618 16.6367 53.878 16.6367ZM53.2429 26.3393C51.369 26.3393 50.1927 24.8611 50.1927 22.4978C50.1927 20.1242 51.369 18.6458 53.2533 18.6458C55.1481 18.6458 56.2828 20.093 56.2828 22.4873C56.2828 24.8923 55.1481 26.3393 53.2429 26.3393Z" fill="white"/>
<path d="M66.4171 16.6367C64.8763 16.6367 63.5439 17.407 62.8567 18.6979H62.6901V16.8241H60.5352V31.9298H62.7735V26.4434H62.9505C63.5439 27.6406 64.8243 28.3486 66.438 28.3486C69.3009 28.3486 71.1226 26.0894 71.1226 22.4873C71.1226 18.8854 69.3009 16.6367 66.4171 16.6367ZM65.782 26.3393C63.9082 26.3393 62.7318 24.8611 62.7318 22.4978C62.7318 20.1242 63.9082 18.6458 65.7925 18.6458C67.6872 18.6458 68.8219 20.093 68.8219 22.4873C68.8219 24.8923 67.6872 26.3393 65.782 26.3393Z" fill="white"/>
<path d="M43.9828 28.1601H46.551L40.9293 12.5898H38.3287L32.707 28.1601H35.1888L36.624 24.0275H42.5586L43.9828 28.1601ZM39.5049 15.4169H39.6883L41.9436 21.999H37.239L39.5049 15.4169Z" fill="white"/>
<path d="M34.2109 0.845703V8.35691H36.9228C39.1611 8.35691 40.4572 6.97751 40.4572 4.57796C40.4572 2.21469 39.1507 0.845703 36.9228 0.845703H34.2109ZM35.3769 1.90758H36.7927C38.3491 1.90758 39.2704 2.89658 39.2704 4.59356C39.2704 6.31646 38.3647 7.29506 36.7927 7.29506H35.3769V1.90758Z" fill="white"/>
<path d="M44.4255 8.46532C46.0808 8.46532 47.0958 7.35652 47.0958 5.51918C47.0958 3.69205 46.0755 2.57812 44.4255 2.57812C42.7701 2.57812 41.75 3.69205 41.75 5.51918C41.75 7.35652 42.765 8.46532 44.4255 8.46532ZM44.4255 7.47113C43.452 7.47113 42.9056 6.75803 42.9056 5.51918C42.9056 4.29066 43.452 3.57234 44.4255 3.57234C45.3936 3.57234 45.9455 4.29066 45.9455 5.51918C45.9455 6.75278 45.3936 7.47113 44.4255 7.47113Z" fill="white"/>
<path d="M55.7416 2.6875H54.6225L53.6127 7.01308H53.5242L52.3581 2.6875H51.2859L50.1199 7.01308H50.0365L49.0215 2.6875H47.8867L49.4484 8.35603H50.5987L51.7647 4.18141H51.8532L53.0244 8.35603H54.1852L55.7416 2.6875Z" fill="white"/>
<path d="M57.0273 8.35598H58.1465V5.04023C58.1465 4.15533 58.6722 3.60357 59.4998 3.60357C60.3275 3.60357 60.723 4.05642 60.723 4.96733V8.35598H61.8422V4.68623C61.8422 3.3381 61.1447 2.57812 59.8797 2.57812C59.0261 2.57812 58.4639 2.9581 58.188 3.58795H58.1048V2.68744H57.0273V8.35598Z" fill="white"/>
<path d="M63.6055 8.35734H64.7246V0.476562H63.6055V8.35734Z" fill="white"/>
<path d="M68.9334 8.46532C70.5886 8.46532 71.6037 7.35652 71.6037 5.51918C71.6037 3.69205 70.5834 2.57812 68.9334 2.57812C67.2781 2.57812 66.2578 3.69205 66.2578 5.51918C66.2578 7.35652 67.2729 8.46532 68.9334 8.46532ZM68.9334 7.47113C67.96 7.47113 67.4134 6.75803 67.4134 5.51918C67.4134 4.29066 67.96 3.57234 68.9334 3.57234C69.9015 3.57234 70.4533 4.29066 70.4533 5.51918C70.4533 6.75278 69.9015 7.47113 68.9334 7.47113Z" fill="white"/>
<path d="M74.9375 7.50757C74.3285 7.50757 73.886 7.21087 73.886 6.70072C73.886 6.20107 74.24 5.93558 75.0207 5.88352L76.4054 5.79502V6.26872C76.4054 6.97132 75.7808 7.50757 74.9375 7.50757ZM74.6511 8.44973C75.3956 8.44973 76.0149 8.12692 76.3533 7.55963H76.4418V8.35598H77.5193V4.48327C77.5193 3.28605 76.7177 2.57812 75.2966 2.57812C74.0109 2.57812 73.0949 3.20275 72.9803 4.17615H74.063C74.1879 3.77533 74.6199 3.54632 75.2445 3.54632C76.0098 3.54632 76.4054 3.88465 76.4054 4.48327V4.97258L74.8698 5.06108C73.5216 5.14433 72.7617 5.73248 72.7617 6.75278C72.7617 7.78868 73.5581 8.44973 74.6511 8.44973Z" fill="white"/>
<path d="M81.3177 8.45109C82.0985 8.45109 82.7595 8.08149 83.0979 7.46199H83.1864V8.35734H84.2586V0.476562H83.1395V3.58932H83.0562C82.7492 2.96469 82.0932 2.5951 81.3177 2.5951C79.8863 2.5951 78.9648 3.72985 78.9648 5.52054C78.9648 7.31634 79.8758 8.45109 81.3177 8.45109ZM81.6351 3.59973C82.5722 3.59973 83.1603 4.34407 83.1603 5.52564C83.1603 6.71244 82.5773 7.44639 81.6351 7.44639C80.6879 7.44639 80.1204 6.72294 80.1204 5.52054C80.1204 4.32846 80.693 3.59973 81.6351 3.59973Z" fill="white"/>
<path d="M91.5154 8.46532C93.1706 8.46532 94.1857 7.35652 94.1857 5.51918C94.1857 3.69205 93.1654 2.57812 91.5154 2.57812C89.86 2.57812 88.8398 3.69205 88.8398 5.51918C88.8398 7.35652 89.8549 8.46532 91.5154 8.46532ZM91.5154 7.47113C90.5419 7.47113 89.9954 6.75803 89.9954 5.51918C89.9954 4.29066 90.5419 3.57234 91.5154 3.57234C92.4835 3.57234 93.0352 4.29066 93.0352 5.51918C93.0352 6.75278 92.4835 7.47113 91.5154 7.47113Z" fill="white"/>
<path d="M95.668 8.35598H96.7871V5.04023C96.7871 4.15533 97.3129 3.60357 98.1404 3.60357C98.9681 3.60357 99.3637 4.05642 99.3637 4.96733V8.35598H100.483V4.68623C100.483 3.3381 99.7853 2.57812 98.5204 2.57812C97.6667 2.57812 97.1045 2.9581 96.8287 3.58795H96.7454V2.68744H95.668V8.35598Z" fill="white"/>
<path d="M105.639 1.27734V2.71401H104.738V3.65616H105.639V6.85742C105.639 7.95047 106.133 8.38772 107.377 8.38772C107.596 8.38772 107.804 8.36177 107.986 8.33057V7.39877C107.83 7.41437 107.731 7.42472 107.56 7.42472C107.003 7.42472 106.758 7.16447 106.758 6.57107V3.65616H107.986V2.71401H106.758V1.27734H105.639Z" fill="white"/>
<path d="M109.488 8.35734H110.607V5.04684C110.607 4.18792 111.118 3.61014 112.034 3.61014C112.825 3.61014 113.247 4.06819 113.247 4.97394V8.35734H114.366V4.69809C114.366 3.34987 113.621 2.58469 112.414 2.58469C111.56 2.58469 110.961 2.96469 110.686 3.59973H110.597V0.476562H109.488V8.35734Z" fill="white"/>
<path d="M118.401 3.5307C119.228 3.5307 119.77 4.10848 119.796 4.99852H116.933C116.995 4.11369 117.573 3.5307 118.401 3.5307ZM119.791 6.82568C119.582 7.26803 119.119 7.51268 118.442 7.51268C117.547 7.51268 116.969 6.88282 116.933 5.88862V5.82623H120.936V5.43577C120.936 3.65562 119.983 2.57812 118.406 2.57812C116.808 2.57812 115.793 3.72849 115.793 5.53987C115.793 7.35142 116.787 8.46532 118.411 8.46532C119.707 8.46532 120.613 7.84073 120.868 6.82568H119.791Z" fill="white"/>
<path d="M20.5622 15.3812C20.5893 13.273 21.7215 11.2781 23.5178 10.1738C22.3847 8.55561 20.4867 7.52946 18.5121 7.46781C16.4061 7.24671 14.3643 8.72796 13.2912 8.72796C12.1971 8.72796 10.5449 7.48971 8.76558 7.52631C6.44628 7.60131 4.28403 8.91981 3.15573 10.9475C0.730167 15.1471 2.53941 21.3188 4.86288 24.7133C6.02538 26.3756 7.38393 28.2323 9.16173 28.1665C10.9013 28.0943 11.5511 27.0572 13.6509 27.0572C15.7313 27.0572 16.3407 28.1665 18.1545 28.1246C20.0213 28.0943 21.1974 26.455 22.3191 24.7771C23.1543 23.5927 23.7971 22.2836 24.2234 20.8985C22.0298 19.9708 20.5647 17.7631 20.5622 15.3812Z" fill="white"/>
<path d="M17.1377 5.23526C18.1556 4.01342 18.6571 2.44298 18.5356 0.857422C16.9807 1.02074 15.5443 1.7639 14.5127 2.93885C13.504 4.08683 12.9791 5.62961 13.0783 7.15466C14.6339 7.17056 16.163 6.44756 17.1377 5.23526Z" fill="white"/>
</g>
<defs>
<clipPath id="clip0_296_8114">
<rect width="129" height="32" fill="white" transform="translate(0.351562 0.347656)"/>
</clipPath>
</defs>
</svg>
