<svg width="77" height="27" viewBox="0 0 77 27" fill="none" xmlns="http://www.w3.org/2000/svg">
<path d="M38.9637 14.5206C37.4665 14.5206 36.2462 15.6741 36.2462 17.2629C36.2462 18.8421 37.4665 20.0053 38.9637 20.0053C40.4615 20.0053 41.6818 18.8421 41.6818 17.2629C41.6811 15.6741 40.4608 14.5206 38.9637 14.5206ZM38.9637 18.9259C38.1432 18.9259 37.4359 18.2405 37.4359 17.2636C37.4359 16.2764 38.1438 15.6013 38.9637 15.6013C39.7842 15.6013 40.4914 16.2764 40.4914 17.2636C40.4914 18.2399 39.7842 18.9259 38.9637 18.9259ZM33.0348 14.5206C31.5376 14.5206 30.3173 15.6741 30.3173 17.2629C30.3173 18.8421 31.5376 20.0053 33.0348 20.0053C34.5326 20.0053 35.7529 18.8421 35.7529 17.2629C35.7529 15.6741 34.5326 14.5206 33.0348 14.5206ZM33.0348 18.9259C32.2143 18.9259 31.507 18.2405 31.507 17.2636C31.507 16.2764 32.2149 15.6013 33.0348 15.6013C33.8553 15.6013 34.5626 16.2764 34.5626 17.2636C34.5632 18.2399 33.8553 18.9259 33.0348 18.9259ZM25.983 15.3626V16.5259H28.7317C28.6495 17.1804 28.4344 17.6582 28.1059 17.9903C27.7061 18.3953 27.0804 18.8421 25.983 18.8421C24.291 18.8421 22.9682 17.4603 22.9682 15.7463C22.9682 14.0324 24.291 12.6505 25.983 12.6505C26.8958 12.6505 27.5623 13.0142 28.0544 13.4817L28.8647 12.6609C28.1772 11.9961 27.265 11.4873 25.983 11.4873C23.6653 11.4873 21.7168 13.3985 21.7168 15.7463C21.7168 18.0941 23.6653 20.0053 25.983 20.0053C27.2339 20.0053 28.1779 19.5894 28.9156 18.8105C29.6744 18.0419 29.9105 16.9611 29.9105 16.0887C29.9105 15.8192 29.8902 15.5696 29.8488 15.362L25.983 15.3626ZM54.8242 16.266C54.5988 15.6535 53.9113 14.5206 52.5065 14.5206C51.1117 14.5206 49.9526 15.6322 49.9526 17.2629C49.9526 18.8002 51.1016 20.0053 52.6395 20.0053C53.8802 20.0053 54.5982 19.2367 54.8961 18.7899L53.973 18.1663C53.6656 18.6235 53.2449 18.9246 52.6395 18.9246C52.0348 18.9246 51.6038 18.6441 51.3269 18.0935L54.947 16.5768L54.8242 16.266ZM51.1321 17.1804C51.1015 16.1204 51.9424 15.5806 52.5478 15.5806C53.0195 15.5806 53.4193 15.8198 53.553 16.1622L51.1321 17.1804ZM48.1893 19.8396H49.3784V11.7787H48.1893V19.8396ZM46.2401 15.1337H46.1995C45.9327 14.8114 45.4196 14.5206 44.7742 14.5206C43.4202 14.5206 42.1796 15.7257 42.1796 17.2739C42.1796 18.8111 43.4202 20.006 44.7742 20.006C45.4203 20.006 45.9327 19.7152 46.1995 19.3831H46.2401V19.7777C46.2401 20.8268 45.6864 21.3879 44.7945 21.3879C44.0664 21.3879 43.615 20.8584 43.4304 20.4116L42.3948 20.8481C42.692 21.5748 43.4813 22.4686 44.7945 22.4686C46.1892 22.4686 47.3688 21.6374 47.3688 19.6114V14.6875H46.2408L46.2401 15.1337ZM44.8767 18.9259C44.0561 18.9259 43.3693 18.2295 43.3693 17.2739C43.3693 16.3073 44.0561 15.6013 44.8767 15.6013C45.6864 15.6013 46.3223 16.3073 46.3223 17.2739C46.3223 18.2295 45.6864 18.9259 44.8767 18.9259ZM60.3966 11.7787H57.5505V19.8396H58.7377V16.7858H60.396C61.7124 16.7858 63.0071 15.8205 63.0071 14.2826C63.0071 12.7447 61.713 11.7787 60.3966 11.7787ZM60.4271 15.6638H58.7377V12.9008H60.4271C61.3151 12.9008 61.8193 13.6455 61.8193 14.2826C61.8193 14.9068 61.3151 15.6638 60.4271 15.6638ZM67.7679 14.5064C66.908 14.5064 66.0173 14.89 65.6488 15.7405L66.7029 16.1861C66.9282 15.7405 67.3484 15.5948 67.7882 15.5948C68.4026 15.5948 69.027 15.9681 69.0372 16.6317V16.7149C68.822 16.5904 68.3612 16.404 67.7985 16.404C66.6622 16.404 65.5049 17.0366 65.5049 18.2186C65.5049 19.2974 66.4369 19.9918 67.4808 19.9918C68.2791 19.9918 68.7196 19.6287 68.9958 19.2032H69.0366V19.8255H70.1837V16.7349C70.1843 15.3046 69.1288 14.5064 67.7679 14.5064ZM67.6241 18.924C67.2358 18.924 66.6928 18.7267 66.6928 18.2392C66.6928 17.617 67.3688 17.3784 67.9525 17.3784C68.4738 17.3784 68.7202 17.4925 69.0372 17.6479C68.9449 18.3953 68.3103 18.924 67.6241 18.924ZM74.3609 14.6824L72.9993 18.1773H72.9581L71.5454 14.6824H70.2658L72.3849 19.5669L71.1767 22.2841H72.4155L75.6813 14.6824H74.3609ZM63.6628 19.8396H64.8499V11.7787H63.6628V19.8396Z" fill="#101415"/>
<path d="M25.7782 7.09976C25.7782 7.64012 25.6203 8.07024 25.3039 8.39129C24.9449 8.77304 24.4763 8.96392 23.901 8.96392C23.3497 8.96392 22.8805 8.7705 22.4954 8.38358C22.1097 7.99605 21.9167 7.51631 21.9167 6.94372C21.9167 6.37047 22.1097 5.89073 22.4954 5.50384C22.8805 5.1163 23.3497 4.92285 23.901 4.92285C24.1746 4.92285 24.4363 4.97702 24.6845 5.08471C24.9334 5.19303 25.1326 5.33683 25.2816 5.51673L24.9462 5.8572C24.6934 5.55091 24.3452 5.39809 23.9003 5.39809C23.498 5.39809 23.1504 5.54123 22.857 5.82754C22.5635 6.11383 22.4171 6.4859 22.4171 6.94307C22.4171 7.40024 22.5635 7.77231 22.857 8.05859C23.1504 8.34487 23.498 8.48808 23.9003 8.48808C24.3268 8.48808 24.6826 8.34425 24.9672 8.05605C25.1518 7.86838 25.2587 7.60723 25.2873 7.27257H23.9003V6.80766H25.7508C25.7698 6.9089 25.7782 7.00626 25.7782 7.09976Z" fill="#101415"/>
<path d="M28.7118 5.48402H26.9728V6.71047H28.5412V7.17538H26.9728V8.40185H28.7118V8.87768H26.4819V5.00879H28.7118V5.48402Z" fill="#101415"/>
<path d="M30.7794 8.87768H30.2886V5.48402H29.2218V5.00879H31.8463V5.48402H30.7794V8.87768Z" fill="#101415"/>
<path d="M33.7472 8.87768V5.00879H34.2379V8.87768H33.7472Z" fill="#101415"/>
<path d="M36.4129 8.87768H35.922V5.48402H34.8552V5.00879H37.4797V5.48402H36.4129V8.87768Z" fill="#101415"/>
<path d="M42.4504 8.37613C42.0748 8.7669 41.6082 8.96232 41.0499 8.96232C40.4916 8.96232 40.0251 8.7669 39.6501 8.37613C39.2745 7.98535 39.0874 7.50693 39.0874 6.94143C39.0874 6.37592 39.2745 5.89746 39.6501 5.50671C40.0251 5.11595 40.4916 4.91992 41.0499 4.91992C41.605 4.91992 42.071 5.11659 42.4478 5.50929C42.8246 5.90198 43.0131 6.37915 43.0131 6.94143C43.0131 7.50693 42.8253 7.98535 42.4504 8.37613ZM40.0123 8.05183C40.295 8.34196 40.6406 8.48641 41.0499 8.48641C41.4592 8.48641 41.8055 8.34134 42.0875 8.05183C42.3701 7.76163 42.5121 7.39151 42.5121 6.94143C42.5121 6.49134 42.3701 6.12122 42.0875 5.83105C41.8055 5.54089 41.4592 5.39645 41.0499 5.39645C40.6406 5.39645 40.295 5.54153 40.0123 5.83105C39.7303 6.12122 39.5884 6.49134 39.5884 6.94143C39.5884 7.39151 39.7303 7.76163 40.0123 8.05183Z" fill="#101415"/>
<path d="M43.6989 8.87768V5.00879H44.296L46.1521 8.01817H46.1732L46.1521 7.27275V5.00879H46.643V8.87768H46.1305L44.1884 5.72196H44.1674L44.1884 6.46737V8.87768H43.6989Z" fill="#101415"/>
<path d="M25.7782 7.09976C25.7782 7.64012 25.6203 8.07024 25.3039 8.39129C24.9449 8.77304 24.4763 8.96392 23.901 8.96392C23.3497 8.96392 22.8805 8.7705 22.4954 8.38358C22.1097 7.99605 21.9167 7.51631 21.9167 6.94372C21.9167 6.37047 22.1097 5.89073 22.4954 5.50384C22.8805 5.1163 23.3497 4.92285 23.901 4.92285C24.1746 4.92285 24.4363 4.97702 24.6845 5.08471C24.9334 5.19303 25.1326 5.33683 25.2816 5.51673L24.9462 5.8572C24.6934 5.55091 24.3452 5.39809 23.9003 5.39809C23.498 5.39809 23.1504 5.54123 22.857 5.82754C22.5635 6.11383 22.4171 6.4859 22.4171 6.94307C22.4171 7.40024 22.5635 7.77231 22.857 8.05859C23.1504 8.34487 23.498 8.48808 23.9003 8.48808C24.3268 8.48808 24.6826 8.34425 24.9672 8.05605C25.1518 7.86838 25.2587 7.60723 25.2873 7.27257H23.9003V6.80766H25.7508C25.7698 6.9089 25.7782 7.00626 25.7782 7.09976Z" stroke="#101415" stroke-width="0.209028" stroke-miterlimit="10"/>
<path d="M28.7118 5.48402H26.9728V6.71047H28.5412V7.17538H26.9728V8.40185H28.7118V8.87768H26.4819V5.00879H28.7118V5.48402Z" stroke="#101415" stroke-width="0.209028" stroke-miterlimit="10"/>
<path d="M30.7794 8.87768H30.2886V5.48402H29.2218V5.00879H31.8463V5.48402H30.7794V8.87768Z" stroke="#101415" stroke-width="0.209028" stroke-miterlimit="10"/>
<path d="M33.7472 8.87768V5.00879H34.2379V8.87768H33.7472Z" stroke="#101415" stroke-width="0.209028" stroke-miterlimit="10"/>
<path d="M36.4129 8.87768H35.922V5.48402H34.8552V5.00879H37.4797V5.48402H36.4129V8.87768Z" stroke="#101415" stroke-width="0.209028" stroke-miterlimit="10"/>
<path d="M42.4504 8.37613C42.0748 8.7669 41.6082 8.96232 41.0499 8.96232C40.4916 8.96232 40.0251 8.7669 39.6501 8.37613C39.2745 7.98535 39.0874 7.50693 39.0874 6.94143C39.0874 6.37592 39.2745 5.89746 39.6501 5.50671C40.0251 5.11595 40.4916 4.91992 41.0499 4.91992C41.605 4.91992 42.071 5.11659 42.4478 5.50929C42.8246 5.90198 43.0131 6.37915 43.0131 6.94143C43.0131 7.50693 42.8253 7.98535 42.4504 8.37613ZM40.0123 8.05183C40.295 8.34196 40.6406 8.48641 41.0499 8.48641C41.4592 8.48641 41.8055 8.34134 42.0875 8.05183C42.3701 7.76163 42.5121 7.39151 42.5121 6.94143C42.5121 6.49134 42.3701 6.12122 42.0875 5.83105C41.8055 5.54089 41.4592 5.39645 41.0499 5.39645C40.6406 5.39645 40.295 5.54153 40.0123 5.83105C39.7303 6.12122 39.5884 6.49134 39.5884 6.94143C39.5884 7.39151 39.7303 7.76163 40.0123 8.05183Z" stroke="#101415" stroke-width="0.209028" stroke-miterlimit="10"/>
<path d="M43.6989 8.87768V5.00879H44.296L46.1521 8.01817H46.1732L46.1521 7.27275V5.00879H46.643V8.87768H46.1305L44.1884 5.72196H44.1674L44.1884 6.46737V8.87768H43.6989Z" stroke="#101415" stroke-width="0.209028" stroke-miterlimit="10"/>
<g filter="url(#filter0_dd_296_8143)">
<path d="M2.23613 5.35469C2.05089 5.55329 1.94141 5.86152 1.94141 6.26066V20.5215C1.94141 20.9213 2.05089 21.2288 2.23613 21.4274L2.28324 21.4738L10.1696 13.4852V13.3911V13.2969L2.28324 5.30762L2.23613 5.35469Z" fill="url(#paint0_linear_296_8143)"/>
<path d="M12.7988 16.1508L10.1704 13.4871V13.393V13.2988L12.7994 10.6357L12.8586 10.6699L15.9733 12.4625C16.8625 12.9745 16.8625 13.8121 15.9733 14.3248L12.8586 16.1174L12.7988 16.1508Z" fill="url(#paint1_linear_296_8143)"/>
<g filter="url(#filter1_d_296_8143)">
<path d="M12.8563 16.1154L10.1675 13.3916L2.23474 21.428C2.52756 21.7427 3.01197 21.7814 3.55752 21.468L12.8563 16.1154Z" fill="url(#paint2_linear_296_8143)"/>
</g>
<path d="M12.8563 10.6683L3.55752 5.31632C3.01197 5.00229 2.52756 5.04163 2.23474 5.3563L10.1682 13.3927L12.8563 10.6683Z" fill="url(#paint3_linear_296_8143)"/>
</g>
<defs>
<filter id="filter0_dd_296_8143" x="1.94141" y="4.94284" width="14.6989" height="16.8985" filterUnits="userSpaceOnUse" color-interpolation-filters="sRGB">
<feFlood flood-opacity="0" result="BackgroundImageFix"/>
<feColorMatrix in="SourceAlpha" type="matrix" values="0 0 0 0 0 0 0 0 0 0 0 0 0 0 0 0 0 0 127 0" result="hardAlpha"/>
<feOffset dy="-0.156771"/>
<feComposite in2="hardAlpha" operator="out"/>
<feColorMatrix type="matrix" values="0 0 0 0 0 0 0 0 0 0 0 0 0 0 0 0 0 0 0.12 0"/>
<feBlend mode="normal" in2="BackgroundImageFix" result="effect1_dropShadow_296_8143"/>
<feColorMatrix in="SourceAlpha" type="matrix" values="0 0 0 0 0 0 0 0 0 0 0 0 0 0 0 0 0 0 127 0" result="hardAlpha"/>
<feOffset dy="0.156771"/>
<feComposite in2="hardAlpha" operator="out"/>
<feColorMatrix type="matrix" values="0 0 0 0 1 0 0 0 0 1 0 0 0 0 1 0 0 0 0.25 0"/>
<feBlend mode="normal" in2="effect1_dropShadow_296_8143" result="effect2_dropShadow_296_8143"/>
<feBlend mode="normal" in="SourceGraphic" in2="effect2_dropShadow_296_8143" result="shape"/>
</filter>
<filter id="filter1_d_296_8143" x="2.23474" y="13.2348" width="10.6216" height="8.44974" filterUnits="userSpaceOnUse" color-interpolation-filters="sRGB">
<feFlood flood-opacity="0" result="BackgroundImageFix"/>
<feColorMatrix in="SourceAlpha" type="matrix" values="0 0 0 0 0 0 0 0 0 0 0 0 0 0 0 0 0 0 127 0" result="hardAlpha"/>
<feOffset dy="-0.156771"/>
<feComposite in2="hardAlpha" operator="out"/>
<feColorMatrix type="matrix" values="0 0 0 0 0 0 0 0 0 0 0 0 0 0 0 0 0 0 0.08 0"/>
<feBlend mode="normal" in2="BackgroundImageFix" result="effect1_dropShadow_296_8143"/>
<feBlend mode="normal" in="SourceGraphic" in2="effect1_dropShadow_296_8143" result="shape"/>
</filter>
<linearGradient id="paint0_linear_296_8143" x1="9.47045" y1="6.10977" x2="-1.34996" y2="16.7916" gradientUnits="userSpaceOnUse">
<stop stop-color="#00A0FF"/>
<stop offset="0.0066" stop-color="#00A1FF"/>
<stop offset="0.2601" stop-color="#00BEFF"/>
<stop offset="0.5122" stop-color="#00D2FF"/>
<stop offset="0.7604" stop-color="#00DFFF"/>
<stop offset="1" stop-color="#00E3FF"/>
</linearGradient>
<linearGradient id="paint1_linear_296_8143" x1="17.1309" y1="13.393" x2="1.72878" y2="13.393" gradientUnits="userSpaceOnUse">
<stop stop-color="#FFE000"/>
<stop offset="0.4087" stop-color="#FFBD00"/>
<stop offset="0.7754" stop-color="#FFA500"/>
<stop offset="1" stop-color="#FF9C00"/>
</linearGradient>
<linearGradient id="paint2_linear_296_8143" x1="11.3961" y1="14.8708" x2="-3.27773" y2="29.3567" gradientUnits="userSpaceOnUse">
<stop stop-color="#FF3A44"/>
<stop offset="1" stop-color="#C31162"/>
</linearGradient>
<linearGradient id="paint3_linear_296_8143" x1="0.236841" y1="0.609018" x2="6.78914" y2="7.07737" gradientUnits="userSpaceOnUse">
<stop stop-color="#32A071"/>
<stop offset="0.0685" stop-color="#2DA771"/>
<stop offset="0.4762" stop-color="#15CF74"/>
<stop offset="0.8009" stop-color="#06E775"/>
<stop offset="1" stop-color="#00F076"/>
</linearGradient>
</defs>
</svg>
