<svg width="12" height="12" viewBox="0 0 12 12" fill="none" xmlns="http://www.w3.org/2000/svg">
<path d="M9.033 6.70806H0.74193C0.531716 6.70806 0.355508 6.64064 0.213305 6.50581C0.0711016 6.37098 0 6.20391 0 6.00459C0 5.80528 0.0711016 5.6382 0.213305 5.50337C0.355508 5.36854 0.531716 5.30113 0.74193 5.30113H9.033L5.39754 1.85414C5.24915 1.71345 5.17805 1.5493 5.18423 1.36171C5.19042 1.17412 5.2677 1.00998 5.41609 0.869285C5.56447 0.740317 5.73759 0.672901 5.93544 0.667039C6.13329 0.661177 6.3064 0.728592 6.45479 0.869285L11.3515 5.51217C11.4257 5.58251 11.4783 5.65872 11.5092 5.74079C11.5401 5.82286 11.5556 5.9108 11.5556 6.00459C11.5556 6.09839 11.5401 6.18632 11.5092 6.26839C11.4783 6.35046 11.4257 6.42667 11.3515 6.49702L6.45479 11.1399C6.31877 11.2689 6.14874 11.3334 5.94471 11.3334C5.74068 11.3334 5.56447 11.2689 5.41609 11.1399C5.2677 10.9992 5.19351 10.8321 5.19351 10.6387C5.19351 10.4452 5.2677 10.2782 5.41609 10.1375L9.033 6.70806Z" fill="white"/>
</svg>
