<?xml version="1.0" encoding="utf-8"?>
<!-- Generator: Adobe Illustrator 27.7.0, SVG Export Plug-In . SVG Version: 6.00 Build 0)  -->
<svg version="1.1" id="Layer_1" xmlns="http://www.w3.org/2000/svg" xmlns:xlink="http://www.w3.org/1999/xlink" x="0px" y="0px"
	 viewBox="0 0 12 12" style="enable-background:new 0 0 12 12;" xml:space="preserve">
<style type="text/css">
	.st0{fill:#AA9F8E;}
</style>
<path class="st0" d="M9,6.7H0.7c-0.2,0-0.4-0.1-0.5-0.2C0.1,6.4,0,6.2,0,6c0-0.2,0.1-0.4,0.2-0.5c0.1-0.1,0.3-0.2,0.5-0.2H9L5.4,1.9
	C5.2,1.7,5.2,1.5,5.2,1.4c0-0.2,0.1-0.4,0.2-0.5c0.1-0.1,0.3-0.2,0.5-0.2c0.2,0,0.4,0.1,0.5,0.2l4.9,4.6c0.1,0.1,0.1,0.1,0.2,0.2
	s0,0.2,0,0.3c0,0.1,0,0.2,0,0.3c0,0.1-0.1,0.2-0.2,0.2l-4.9,4.6c-0.1,0.1-0.3,0.2-0.5,0.2c-0.2,0-0.4-0.1-0.5-0.2
	c-0.1-0.1-0.2-0.3-0.2-0.5c0-0.2,0.1-0.4,0.2-0.5L9,6.7z"/>
</svg>
