<svg width="12" height="7" viewBox="0 0 12 7" fill="none" xmlns="http://www.w3.org/2000/svg">
<path d="M5.3 6.30004L0.466663 1.46671C0.399996 1.40004 0.349996 1.32782 0.316663 1.25004C0.283329 1.17226 0.266663 1.08893 0.266663 1.00004C0.266663 0.822263 0.327774 0.666707 0.449996 0.533374C0.572218 0.400041 0.733329 0.333374 0.933329 0.333374H11.0667C11.2667 0.333374 11.4278 0.400041 11.55 0.533374C11.6722 0.666707 11.7333 0.822263 11.7333 1.00004C11.7333 1.04449 11.6667 1.20004 11.5333 1.46671L6.7 6.30004C6.58889 6.41115 6.47777 6.48893 6.36666 6.53337C6.25555 6.57782 6.13333 6.60004 6 6.60004C5.86666 6.60004 5.74444 6.57782 5.63333 6.53337C5.52222 6.48893 5.41111 6.41115 5.3 6.30004Z" fill="white"/>
</svg>
