<svg width="34" height="34" viewBox="0 0 34 34" fill="none" xmlns="http://www.w3.org/2000/svg">
<path d="M16.9997 33.333C14.7411 33.333 12.6161 32.9036 10.6247 32.0447C8.63333 31.1856 6.90527 30.0236 5.44055 28.5589C3.97583 27.0942 2.81388 25.3661 1.95472 23.3747C1.09583 21.3833 0.666382 19.2583 0.666382 16.9997C0.666382 14.7625 1.09583 12.6428 1.95472 10.6405C2.81388 8.6386 3.97583 6.90527 5.44055 5.44055C6.90527 3.97583 8.63333 2.81388 10.6247 1.95471C12.6161 1.09583 14.7411 0.666382 16.9997 0.666382C19.2369 0.666382 21.3567 1.09583 23.3589 1.95471C25.3608 2.81388 27.0942 3.97583 28.5589 5.44055C30.0236 6.90527 31.1856 8.6386 32.0447 10.6405C32.9036 12.6428 33.333 14.7625 33.333 16.9997C33.333 19.2583 32.9036 21.3833 32.0447 23.3747C31.1856 25.3661 30.0236 27.0942 28.5589 28.5589C27.0942 30.0236 25.3608 31.1856 23.3589 32.0447C21.3567 32.9036 19.2369 33.333 16.9997 33.333ZM16.9997 30.5543C17.9228 29.3257 18.6878 28.0986 19.2947 26.8731C19.9014 25.6478 20.4035 24.3268 20.801 22.9101H13.1985C13.6387 24.4121 14.1515 25.7758 14.7368 27.0014C15.3224 28.2267 16.0767 29.411 16.9997 30.5543ZM14.4614 30.221C13.7114 29.3876 13.0292 28.3101 12.4147 26.9885C11.8005 25.6668 11.3364 24.3074 11.0222 22.9101H4.79763C5.69735 24.8993 7.02374 26.5435 8.7768 27.8426C10.5301 29.1418 12.425 29.9346 14.4614 30.221ZM19.538 30.221C21.5744 29.9346 23.4693 29.1418 25.2226 27.8426C26.9757 26.5435 28.3021 24.8993 29.2018 22.9101H22.9772C22.5564 24.3287 22.0387 25.6989 21.4243 27.0205C20.8101 28.3422 20.1814 29.409 19.538 30.221ZM3.9518 20.8268H10.5926C10.4943 20.1985 10.419 19.56 10.3668 18.9114C10.3143 18.2631 10.288 17.6258 10.288 16.9997C10.288 16.3736 10.3143 15.7364 10.3668 15.088C10.419 14.4394 10.4943 13.801 10.5926 13.1726H3.9518C3.77013 13.694 3.63541 14.295 3.54763 14.9755C3.46013 15.6561 3.41638 16.3308 3.41638 16.9997C3.41638 17.6686 3.46013 18.3433 3.54763 19.0239C3.63541 19.7044 3.77013 20.3054 3.9518 20.8268ZM12.7176 20.8268H21.2818C21.4079 20.1985 21.4971 19.5707 21.5493 18.9435C21.6018 18.3165 21.628 17.6686 21.628 16.9997C21.628 16.3308 21.6018 15.6829 21.5493 15.056C21.4971 14.4287 21.4079 13.801 21.2818 13.1726H12.7176C12.5915 13.801 12.5024 14.4287 12.4501 15.056C12.3976 15.6829 12.3714 16.3308 12.3714 16.9997C12.3714 17.6686 12.3976 18.3165 12.4501 18.9435C12.5024 19.5707 12.5915 20.1985 12.7176 20.8268ZM23.4068 20.8268H30.0476C30.2293 20.3054 30.364 19.7044 30.4518 19.0239C30.5393 18.3433 30.583 17.6686 30.583 16.9997C30.583 16.3308 30.5393 15.6561 30.4518 14.9755C30.364 14.295 30.2293 13.694 30.0476 13.1726H23.4068C23.5051 13.801 23.5804 14.4394 23.6326 15.088C23.6851 15.7364 23.7114 16.3736 23.7114 16.9997C23.7114 17.6258 23.6851 18.2631 23.6326 18.9114C23.5804 19.56 23.5051 20.1985 23.4068 20.8268ZM22.9772 11.0893H29.2018C28.2807 9.05735 26.9703 7.41319 25.2705 6.1568C23.5708 4.90041 21.66 4.09694 19.538 3.74638C20.288 4.68666 20.9596 5.80152 21.5526 7.09097C22.1457 8.38069 22.6206 9.71347 22.9772 11.0893ZM13.1985 11.0893H20.801C20.3607 9.60874 19.8318 8.23597 19.2143 6.97097C18.5968 5.70597 17.8586 4.46124 16.9997 3.2368C16.1408 4.46124 15.4026 5.70597 14.7851 6.97097C14.1676 8.23597 13.6387 9.60874 13.1985 11.0893ZM4.79763 11.0893H11.0222C11.3789 9.71347 11.8537 8.38069 12.4468 7.09097C13.0399 5.80152 13.7114 4.68666 14.4614 3.74638C12.318 4.09694 10.4019 4.90569 8.71305 6.17263C7.02388 7.43986 5.71874 9.07874 4.79763 11.0893Z" fill="#BBB2A5"/>
</svg>
