<?xml version="1.0" encoding="utf-8"?>
<!-- Generator: Adobe Illustrator 27.7.0, SVG Export Plug-In . SVG Version: 6.00 Build 0)  -->
<svg version="1.1" id="Layer_1" xmlns="http://www.w3.org/2000/svg" xmlns:xlink="http://www.w3.org/1999/xlink" x="0px" y="0px"
	 viewBox="0 0 12 7" style="enable-background:new 0 0 12 7;" xml:space="preserve">
<style type="text/css">
	.st0{fill:#AA9F8E;}
</style>
<path class="st0" d="M5.6,0.4c0.1,0,0.2-0.1,0.4-0.1c0.1,0,0.3,0,0.4,0.1c0.1,0,0.2,0.1,0.3,0.2l4.8,4.8c0.1,0.3,0.2,0.4,0.2,0.5
	c0,0.2-0.1,0.3-0.2,0.5c-0.1,0.1-0.3,0.2-0.5,0.2H0.9c-0.2,0-0.4-0.1-0.5-0.2S0.3,6.1,0.3,5.9c0-0.1,0-0.2,0-0.3
	c0-0.1,0.1-0.2,0.2-0.2l4.8-4.8C5.4,0.5,5.5,0.4,5.6,0.4z"/>
</svg>
