<svg width="17" height="18" viewBox="0 0 17 18" fill="none" xmlns="http://www.w3.org/2000/svg">
<path d="M9.56206 13.5495L9.56206 1.1129C9.56206 0.797575 9.46093 0.533262 9.25869 0.319958C9.05644 0.106653 8.80583 3.63059e-07 8.50686 3.49991e-07C8.20788 3.36922e-07 7.95727 0.106653 7.75503 0.319958C7.55278 0.533262 7.45166 0.797575 7.45166 1.11289L7.45166 13.5495L2.28118 8.09631C2.07014 7.87373 1.82392 7.76708 1.54254 7.77635C1.26115 7.78563 1.01494 7.90155 0.803897 8.12413C0.610444 8.34671 0.509321 8.60639 0.500527 8.90316C0.491734 9.19993 0.592857 9.4596 0.803897 9.68218L7.76822 17.0273C7.87374 17.1386 7.98805 17.2174 8.11116 17.2638C8.23426 17.3101 8.36616 17.3333 8.50686 17.3333C8.64755 17.3333 8.77945 17.3101 8.90256 17.2638C9.02566 17.2174 9.13998 17.1386 9.2455 17.0273L16.2098 9.68218C16.4033 9.47815 16.5 9.22311 16.5 8.91707C16.5 8.61102 16.4033 8.34671 16.2098 8.12413C15.9988 7.90155 15.7482 7.79026 15.458 7.79026C15.1678 7.79026 14.9172 7.90155 14.7062 8.12413L9.56206 13.5495Z" fill="#BBB2A5"/>
</svg>
