<svg width="12" height="7" viewBox="0 0 12 7" fill="none" xmlns="http://www.w3.org/2000/svg">
<path d="M5.30006 6.30004L0.466724 1.46671C0.400057 1.40004 0.350057 1.32782 0.316724 1.25004C0.28339 1.17226 0.266724 1.08893 0.266724 1.00004C0.266724 0.822263 0.327835 0.666707 0.450057 0.533374C0.572279 0.400041 0.73339 0.333374 0.93339 0.333374H11.0667C11.2667 0.333374 11.4278 0.400041 11.5501 0.533374C11.6723 0.666707 11.7334 0.822263 11.7334 1.00004C11.7334 1.04449 11.6667 1.20004 11.5334 1.46671L6.70006 6.30004C6.58895 6.41115 6.47784 6.48893 6.36672 6.53337C6.25561 6.57782 6.13339 6.60004 6.00006 6.60004C5.86672 6.60004 5.7445 6.57782 5.63339 6.53337C5.52228 6.48893 5.41117 6.41115 5.30006 6.30004Z" fill="black"/>
</svg>
