<svg width="12" height="11" viewBox="0 0 12 11" fill="none" xmlns="http://www.w3.org/2000/svg">
<path d="M9.033 6.20812H0.74193C0.531716 6.20812 0.355508 6.1407 0.213305 6.00587C0.0711016 5.87104 0 5.70397 0 5.50465C0 5.30534 0.0711016 5.13826 0.213305 5.00343C0.355508 4.8686 0.531716 4.80119 0.74193 4.80119H9.033L5.39754 1.3542C5.24915 1.21351 5.17805 1.04936 5.18423 0.861773C5.19042 0.674182 5.2677 0.51004 5.41609 0.369346C5.56447 0.240378 5.73759 0.172962 5.93544 0.1671C6.13329 0.161238 6.3064 0.228653 6.45479 0.369346L11.3515 5.01223C11.4257 5.08257 11.4783 5.15878 11.5092 5.24085C11.5401 5.32292 11.5556 5.41086 11.5556 5.50465C11.5556 5.59845 11.5401 5.68638 11.5092 5.76845C11.4783 5.85052 11.4257 5.92673 11.3515 5.99708L6.45479 10.64C6.31877 10.7689 6.14874 10.8334 5.94471 10.8334C5.74068 10.8334 5.56447 10.7689 5.41609 10.64C5.2677 10.4993 5.19351 10.3322 5.19351 10.1387C5.19351 9.94529 5.2677 9.77821 5.41609 9.63752L9.033 6.20812Z" fill="white"/>
</svg>
