<?xml version="1.0" encoding="utf-8"?>
<!-- Generator: Adobe Illustrator 27.7.0, SVG Export Plug-In . SVG Version: 6.00 Build 0)  -->
<svg version="1.1" id="Layer_1" xmlns="http://www.w3.org/2000/svg" xmlns:xlink="http://www.w3.org/1999/xlink" x="0px" y="0px"
	 viewBox="0 0 12 7" style="enable-background:new 0 0 12 7;" xml:space="preserve">
<style type="text/css">
	.st0{fill:#FFFFFF;}
</style>
<path class="st0" d="M5,6.3L0.2,1.5C0.1,1.4,0,1.2,0,1c0-0.2,0.1-0.3,0.2-0.5c0.1-0.1,0.3-0.2,0.5-0.2h10.1c0.2,0,0.4,0.1,0.5,0.2
	c0.1,0.1,0.2,0.3,0.2,0.5c0,0-0.1,0.2-0.2,0.5L6.4,6.3C6.3,6.4,6.2,6.5,6.1,6.6C6,6.6,5.9,6.6,5.7,6.6c-0.1,0-0.2,0-0.4-0.1
	C5.2,6.5,5.1,6.4,5,6.3z"/>
</svg>
