<svg width="140" height="44" viewBox="0 0 140 44" fill="none" xmlns="http://www.w3.org/2000/svg">
<path d="M0.769577 20.0637L5.58351 15.2497H15.2114L3.66254 26.8093L0.769577 23.9164C-0.292862 22.8539 -0.292862 21.1261 0.769577 20.0637ZM8.33237 5.65254H15.1393L21.9463 12.4595H5.60344V8.38146C5.60344 6.84835 6.79926 5.65254 8.33237 5.65254ZM5.61417 35.5894V28.7824L12.4211 21.9755V38.3183H8.34309C6.80999 38.3183 5.61417 37.1225 5.61417 35.5894ZM15.2114 38.3275V28.7104L26.771 40.2485L23.878 43.1415C22.8156 44.2039 21.0878 44.2039 20.0253 43.1415L15.2114 38.3275ZM17.1216 3.7009L20.0039 0.807938C21.0663 -0.254501 22.7941 -0.254501 23.8565 0.807938L28.6705 5.62187V15.2497L17.1216 3.7009ZM21.9463 31.4899H38.2784V35.5679C38.2784 37.101 37.0826 38.2969 35.5602 38.2969H28.7533L21.9463 31.4899ZM40.2209 17.1508L43.1031 20.0438C44.1655 21.1062 44.1655 22.834 43.1031 23.8964L38.2892 28.7104H28.672L40.2209 17.1508ZM31.4515 5.64334H35.5296C37.0627 5.64334 38.2585 6.83916 38.2585 8.37226V15.1792L31.4515 21.9755V5.64334ZM56.205 9.84403C56.205 9.32278 56.3169 8.72027 56.4809 8.37226H57.3502C57.2168 8.7402 57.1463 9.20013 57.1463 9.56808C57.1463 10.7746 57.6476 11.5611 59.4046 11.5611H63.8705L63.3906 10.1507C63.084 9.27219 63.176 8.65895 63.5945 8.20821C63.9211 7.8602 64.3718 7.6563 65.1583 7.6563H67.7538V11.5611H69.9615V7.6563H70.9427V12.4595H66.7726V8.5547H64.9222C64.4009 8.5547 64.1556 8.7494 64.1556 9.14801C64.1556 9.32125 64.2062 9.50522 64.2783 9.71065L64.9636 11.7451V12.461H59.311C56.7968 12.461 56.2034 11.1012 56.2034 9.84403H56.205ZM56.4503 18.7253H60.303V26.4215H70.3294L78.0363 18.7253H83.4942L73.7023 28.5065L83.4942 38.2969H78.0363L70.0244 30.2849H60.3045V38.2969H56.4518V18.7253H56.4503ZM59.4245 13.9834L60.119 13.2889L60.8135 13.9834L60.119 14.6779L59.4245 13.9834ZM60.815 13.9834L61.5095 13.2889L62.204 13.9834L61.5095 14.6779L60.815 13.9834ZM65.169 6.13393L65.8635 5.43943L66.558 6.13393L65.8635 6.82842L65.169 6.13393ZM66.558 6.13393L67.2632 5.43943L67.9577 6.13393L67.2632 6.82842L66.558 6.13393ZM68.3671 13.9834L69.0616 13.2889L69.7561 13.9834L69.0616 14.6779L68.3671 13.9834ZM69.7576 13.9834L70.4521 13.2889L71.1466 13.9834L70.4521 14.6779L69.7576 13.9834ZM72.8851 13.778H74.3768C75.174 13.778 75.706 13.6247 75.706 12.8275V12.4595H74.6436C72.9372 12.4595 72.4053 11.6424 72.416 10.0679C72.4267 8.41212 72.9878 7.6563 74.6436 7.6563H76.6872V11.5611H82.1144V10.0786C82.1144 9.20933 81.7572 8.92417 80.868 8.92417H78.3537V8.20821L80.244 5.65254H81.3371L79.528 8.03344H80.8971C82.5728 8.03344 83.094 8.7586 83.094 10.1691V11.5596H85.0564V5.65254H86.0376V12.4595H76.6749V12.8167C76.6749 14.1459 75.7352 14.6764 74.3753 14.6764H72.8836V13.7764L72.8851 13.778ZM75.706 11.5611V8.55623H74.6436C73.5505 8.55623 73.3864 8.91344 73.3972 10.0694C73.4079 11.1012 73.5091 11.5611 74.6436 11.5611H75.706ZM86.9483 18.7253H110.199V22.578H90.8009V26.4215H105.979V30.2849H90.8009V38.2969H86.9483V18.7253ZM87.5508 5.65254H88.5319V12.4595H87.5508V5.65254ZM91.8542 10.0985H92.7127C92.5901 10.5891 92.4981 11.0904 92.4981 11.8877C92.4981 12.9808 92.8967 13.8914 94.2565 13.8914C94.8805 13.8914 95.3803 13.6875 95.6563 13.3395C95.8908 13.0329 95.9736 12.6143 95.9736 12.0011L95.9844 5.65407H96.9655V11.5611H99.1732V7.6563H100.154V12.4595H96.9548C96.8214 13.9006 95.8203 14.7898 94.1952 14.7898C92.2742 14.7898 91.569 13.502 91.569 12.0916C91.569 11.3557 91.7024 10.5784 91.8557 10.0985H91.8542ZM97.5772 13.9834L98.2717 13.2889L98.9662 13.9834L98.2717 14.6779L97.5772 13.9834ZM98.9678 13.9834L99.6623 13.2889L100.357 13.9834L99.6623 14.6779L98.9678 13.9834ZM102.095 13.778H103.587C104.384 13.778 104.916 13.6247 104.916 12.8275V12.4595H103.854C102.167 12.4595 101.626 11.6424 101.626 10.0679C101.626 8.38146 102.239 7.6563 103.854 7.6563H105.897V11.5611H108.105V7.6563H109.914C111.662 7.6563 112.378 8.42285 112.378 10.0985V11.5596H114.412V7.65477H115.393V11.5596H117.601V5.65254H118.582V12.4595H105.899V12.8167C105.899 14.1459 104.948 14.6764 103.589 14.6764H102.097V13.7764L102.095 13.778ZM104.916 11.5611V8.55623H103.854C102.77 8.55623 102.607 8.93491 102.607 10.0694C102.607 11.0812 102.741 11.5826 103.854 11.5718L104.916 11.5611ZM111.395 11.5611V10.1001C111.395 8.90424 111.027 8.55623 109.913 8.55623H109.085V11.5611H111.395ZM113.511 6.13393L114.205 5.43943L114.9 6.13393L114.205 6.82842L113.511 6.13393ZM113.675 18.7253H117.527V26.4215H135.526V18.7253H139.379V38.2969H135.526V30.2849H117.527V38.2969H113.675V18.7253ZM114.901 6.13393L115.596 5.43943L116.29 6.13393L115.596 6.82842L114.901 6.13393ZM120.092 5.65254H121.074V12.4595H120.092V5.65254ZM124.284 9.84403C124.284 9.32278 124.396 8.72027 124.56 8.37226H125.429C125.296 8.7402 125.225 9.20013 125.225 9.56808C125.225 10.7746 125.727 11.5611 127.483 11.5611H132.021V7.6563H133.003V11.5611H135.21V7.6563H136.191V11.5611H138.399V7.6563H139.38V12.4595H127.391C124.877 12.4595 124.284 11.0996 124.284 9.8425V9.84403ZM127.35 7.6563L128.045 6.9618L128.739 7.6563L128.045 8.35079L127.35 7.6563ZM128.739 7.6563L129.434 6.9618L130.128 7.6563L129.434 8.35079L128.739 7.6563ZM134.309 13.9834L135.003 13.2889L135.698 13.9834L135.003 14.6779L134.309 13.9834ZM135.699 13.9834L136.394 13.2889L137.088 13.9834L136.394 14.6779L135.699 13.9834ZM138.194 13.9834L138.888 13.2889L139.583 13.9834L138.888 14.6779L138.194 13.9834Z" fill="#BBB2A5"/>
</svg>
