<svg width="16" height="16" viewBox="0 0 16 16" fill="none" xmlns="http://www.w3.org/2000/svg">
<path d="M2.15842 15.625C1.62204 15.625 1.17329 15.4444 0.812174 15.0833C0.451063 14.7222 0.270508 14.2735 0.270508 13.7371V1.3125C0.270508 1.125 0.338286 0.963542 0.473841 0.828125C0.609397 0.692708 0.770994 0.625 0.958633 0.625C1.14627 0.625 1.30766 0.692708 1.4428 0.828125C1.57794 0.963542 1.64551 1.125 1.64551 1.3125V13.7371C1.64551 13.8654 1.69891 13.983 1.80572 14.0898C1.91252 14.1966 2.03009 14.25 2.15842 14.25H15.0413C15.2288 14.25 15.3903 14.3178 15.5257 14.4533C15.6611 14.5889 15.7288 14.7505 15.7288 14.9381C15.7288 15.1258 15.6611 15.2872 15.5257 15.4223C15.3903 15.5574 15.2288 15.625 15.0413 15.625H2.15842ZM4.92926 12.1667C4.68717 12.1667 4.48002 12.0806 4.3078 11.9083C4.13544 11.736 4.04926 11.5288 4.04926 11.2869V6.74833C4.04926 6.50639 4.13544 6.29931 4.3078 6.12708C4.48002 5.95472 4.68717 5.86854 4.92926 5.86854H5.02217C5.28231 5.86854 5.50467 5.96125 5.68926 6.14667C5.8737 6.33208 5.96592 6.55549 5.96592 6.81688V11.225C5.96592 11.4864 5.8737 11.7087 5.68926 11.8919C5.50467 12.0751 5.28231 12.1667 5.02217 12.1667H4.92926ZM8.92926 12.1667C8.68717 12.1667 8.48002 12.0806 8.3078 11.9083C8.13544 11.736 8.04926 11.5288 8.04926 11.2869V2.5625C8.04926 2.30236 8.14155 2.08 8.32613 1.89542C8.51072 1.71083 8.73308 1.61854 8.99322 1.61854H9.08613C9.32822 1.61854 9.53537 1.70472 9.70759 1.87708C9.87981 2.04931 9.96593 2.25639 9.96593 2.49833V11.2227C9.96593 11.4828 9.8737 11.7052 9.68926 11.8898C9.50467 12.0744 9.28231 12.1667 9.02217 12.1667H8.92926ZM12.9293 12.1667C12.6872 12.1667 12.48 12.0806 12.3078 11.9083C12.1354 11.736 12.0493 11.5288 12.0493 11.2869V10.2292C12.0493 9.96903 12.1415 9.74667 12.3261 9.56208C12.5107 9.3775 12.7331 9.28521 12.9932 9.28521H13.0861C13.3282 9.28521 13.5354 9.37139 13.7076 9.54375C13.88 9.71597 13.9661 9.92306 13.9661 10.165V11.2227C13.9661 11.4828 13.8738 11.7052 13.6893 11.8898C13.5047 12.0744 13.2823 12.1667 13.0222 12.1667H12.9293Z" fill="white"/>
</svg>
