<svg width="16" height="14" viewBox="0 0 16 14" fill="none" xmlns="http://www.w3.org/2000/svg">
<path d="M7.99958 13.6858C7.72292 13.6858 7.46007 13.6332 7.21104 13.528C6.96215 13.4228 6.74264 13.2542 6.5525 13.0224L0.638958 5.92138C0.493681 5.75902 0.384722 5.57152 0.312083 5.35888C0.239445 5.14624 0.203125 4.93096 0.203125 4.71304C0.203125 4.56777 0.226597 4.42784 0.273542 4.29325C0.320625 4.15853 0.368195 4.02013 0.41625 3.87804L1.73187 1.19867C1.89437 0.877001 2.13132 0.621099 2.44271 0.43096C2.7541 0.240821 3.08611 0.145752 3.43875 0.145752H12.5604C12.9131 0.145752 13.2451 0.240821 13.5565 0.43096C13.8678 0.621099 14.1048 0.877001 14.2673 1.19867L15.5829 3.87804C15.631 4.02013 15.6785 4.15853 15.7256 4.29325C15.7726 4.42784 15.796 4.56777 15.796 4.71304C15.796 4.93096 15.7597 5.14624 15.6871 5.35888C15.6144 5.57152 15.5055 5.75902 15.3602 5.92138L9.44667 13.0224C9.25653 13.2542 9.03701 13.4228 8.78813 13.528C8.5391 13.6332 8.27625 13.6858 7.99958 13.6858ZM5.78479 4.31242H10.2144L8.81854 1.52075H7.18063L5.78479 4.31242ZM7.31208 11.7995V5.68742H2.24313L7.31208 11.7995ZM8.68708 11.7995L13.756 5.68742H8.68708V11.7995ZM11.7431 4.31242H14.2769L13.0252 1.80929C12.9824 1.72374 12.9183 1.65429 12.8329 1.60096C12.7475 1.54749 12.6567 1.52075 12.5604 1.52075H10.3473L11.7431 4.31242ZM1.72229 4.31242H4.25604L5.65188 1.52075H3.43875C3.3425 1.52075 3.25167 1.54749 3.16625 1.60096C3.08083 1.65429 3.01674 1.72374 2.97396 1.80929L1.72229 4.31242Z" fill="#BBB2A5"/>
</svg>
