<svg width="16" height="17" viewBox="0 0 16 17" fill="none" xmlns="http://www.w3.org/2000/svg">
<path d="M3.06762 16.6666C2.40081 16.6666 1.83401 16.4332 1.3672 15.9664C0.900395 15.4996 0.666992 14.9328 0.666992 14.266V2.73388C0.666992 2.0786 0.898381 1.51471 1.36116 1.04221C1.8238 0.569572 2.38567 0.333252 3.04678 0.333252H10.0837C10.6205 0.333252 11.0693 0.513668 11.4301 0.874502C11.7911 1.23533 11.9716 1.68422 11.9716 2.22117V11.4166C11.9716 11.9534 11.7911 12.4022 11.4301 12.763C11.0693 13.124 10.6205 13.3045 10.0837 13.3045H3.06762C2.78873 13.3045 2.5481 13.3994 2.34574 13.5893C2.14324 13.7792 2.04199 14.0144 2.04199 14.2951C2.04199 14.5758 2.14324 14.8121 2.34574 15.0039C2.5481 15.1957 2.78873 15.2916 3.06762 15.2916H13.4457C13.5953 15.2916 13.7182 15.2435 13.8145 15.1474C13.9106 15.0512 13.9587 14.9283 13.9587 14.7787V2.68742C13.9587 2.49992 14.0264 2.33846 14.162 2.20304C14.2975 2.06763 14.4591 1.99992 14.6468 1.99992C14.8344 1.99992 14.9958 2.06763 15.131 2.20304C15.2661 2.33846 15.3337 2.49992 15.3337 2.68742V14.7787C15.3337 15.3156 15.1532 15.7645 14.7924 16.1253C14.4316 16.4862 13.9827 16.6666 13.4457 16.6666H3.06762ZM5.40408 11.9295H10.0837C10.2332 11.9295 10.3561 11.8814 10.4522 11.7851C10.5485 11.689 10.5966 11.5662 10.5966 11.4166V2.22117C10.5966 2.07159 10.5485 1.94867 10.4522 1.85242C10.3561 1.75631 10.2332 1.70825 10.0837 1.70825H5.40408V11.9295ZM4.02908 11.9295V1.70825H3.06762C2.77706 1.70825 2.53345 1.8095 2.33678 2.012C2.14026 2.21436 2.04199 2.45499 2.04199 2.73388V12.2468C2.17769 12.1517 2.33234 12.075 2.50595 12.0168C2.67942 11.9586 2.86664 11.9295 3.06762 11.9295H4.02908Z" fill="#BBB2A5"/>
</svg>
