<svg width="16" height="15" viewBox="0 0 16 15" fill="none" xmlns="http://www.w3.org/2000/svg">
<path d="M2.55491 14.8333C2.02227 14.8333 1.57449 14.6518 1.21158 14.2887C0.84852 13.9258 0.666992 13.478 0.666992 12.9454V2.05454C0.666992 1.5219 0.84852 1.07413 1.21158 0.71121C1.57449 0.348154 2.02227 0.166626 2.55491 0.166626H11.3176C11.5725 0.166626 11.8187 0.217459 12.0564 0.319126C12.2941 0.420793 12.4993 0.558501 12.6718 0.732252L14.768 2.8285C14.9418 3.001 15.0795 3.20614 15.1812 3.44392C15.2828 3.68156 15.3337 3.92781 15.3337 4.18267V12.9454C15.3337 13.478 15.1521 13.9258 14.7891 14.2887C14.4262 14.6518 13.9784 14.8333 13.4457 14.8333H2.55491ZM13.9587 3.96746L11.5328 1.54163H2.55491C2.40533 1.54163 2.28241 1.58968 2.18616 1.68579C2.09005 1.78204 2.04199 1.90496 2.04199 2.05454V12.9454C2.04199 13.095 2.09005 13.2179 2.18616 13.3141C2.28241 13.4102 2.40533 13.4583 2.55491 13.4583H13.4457C13.5953 13.4583 13.7182 13.4102 13.8145 13.3141C13.9106 13.2179 13.9587 13.095 13.9587 12.9454V3.96746ZM8.00283 11.5737C8.54394 11.5737 9.00519 11.3822 9.38658 10.9991C9.76796 10.6161 9.95866 10.154 9.95866 9.61288C9.95866 9.07176 9.76713 8.61052 9.38408 8.22913C9.00102 7.84774 8.53894 7.65704 7.99783 7.65704C7.45671 7.65704 6.99546 7.84857 6.61408 8.23163C6.23269 8.61468 6.04199 9.07677 6.04199 9.61788C6.04199 10.159 6.23352 10.6202 6.61658 11.0016C6.99963 11.383 7.46171 11.5737 8.00283 11.5737ZM4.29366 5.93267H9.25824C9.52116 5.93267 9.74422 5.84107 9.92741 5.65788C10.1106 5.47454 10.2022 5.25149 10.2022 4.98871V3.79329C10.2022 3.53038 10.1106 3.30732 9.92741 3.12413C9.74422 2.94093 9.52116 2.84933 9.25824 2.84933H4.29366C4.03074 2.84933 3.80769 2.94093 3.62449 3.12413C3.4413 3.30732 3.3497 3.53038 3.3497 3.79329V4.98871C3.3497 5.25149 3.4413 5.47454 3.62449 5.65788C3.80769 5.84107 4.03074 5.93267 4.29366 5.93267ZM2.04199 3.96746V13.4583V1.54163V3.96746Z" fill="#BBB2A5"/>
</svg>
