<svg width="20" height="21" viewBox="0 0 20 21" fill="none" xmlns="http://www.w3.org/2000/svg">
<path d="M18.1668 5.92966V15.0705C18.1668 15.6031 17.9853 16.0509 17.6222 16.4138C17.2593 16.7769 16.8116 16.9584 16.2789 16.9584H3.72141C3.18877 16.9584 2.741 16.7769 2.37808 16.4138C2.01502 16.0509 1.8335 15.6031 1.8335 15.0705V5.92966C1.8335 5.39703 2.01502 4.94925 2.37808 4.58633C2.741 4.22328 3.18877 4.04175 3.72141 4.04175H16.2789C16.8116 4.04175 17.2593 4.22328 17.6222 4.58633C17.9853 4.94925 18.1668 5.39703 18.1668 5.92966ZM3.2085 7.38154H16.7918V5.92966C16.7918 5.80133 16.7384 5.68376 16.6316 5.57696C16.5248 5.47015 16.4072 5.41675 16.2789 5.41675H3.72141C3.59308 5.41675 3.47551 5.47015 3.3687 5.57696C3.2619 5.68376 3.2085 5.80133 3.2085 5.92966V7.38154ZM3.2085 10.2436V15.0705C3.2085 15.1988 3.2619 15.3164 3.3687 15.4232C3.47551 15.53 3.59308 15.5834 3.72141 15.5834H16.2789C16.4072 15.5834 16.5248 15.53 16.6316 15.4232C16.7384 15.3164 16.7918 15.1988 16.7918 15.0705V10.2436H3.2085Z" fill="#BBB2A5"/>
</svg>
