<svg width="184" height="59" viewBox="0 0 184 59" fill="none" xmlns="http://www.w3.org/2000/svg">
<path d="M86.1602 0H76.2334V37.3684H86.1602V0Z" fill="#2A7F67"/>
<path d="M54.8532 0L0.30838 37.3684H13.2433L28.1486 27.577H56.4399V37.3684H65.7576V0H54.8532ZM37.7144 21.29L56.4399 7.10669V21.29H37.7144Z" fill="#2A7F67"/>
<path d="M131.169 0H123.491V16.0634L103.713 0H95.1695V37.3684H103.713V7.7384L121.047 22.2676H131.169V11.1376L166.018 37.3684H181.442L131.169 0Z" fill="#2A7F67"/>
<path d="M3.99328 47.6641H5.48982L9.47559 57.8616H7.97152L6.85852 54.7933H2.54186L1.39878 57.8616H0L3.98576 47.6641H3.99328ZM2.97804 53.6502H6.43738L4.73779 48.8899H4.70771L2.97804 53.6502Z" fill="#2A7F67"/>
<path d="M9.67862 56.9368L14.1382 51.5523H9.96439V50.4844H15.7099V51.3116L11.1977 56.7939H15.913V57.8618H9.68614V56.9368H9.67862Z" fill="#2A7F67"/>
<path d="M18.4247 49.1462H17.214V47.6572H18.4247V49.1462ZM17.214 50.4773H18.4247V57.8623H17.214V50.4773Z" fill="#2A7F67"/>
<path d="M26.6144 55.5228C26.2835 57.1547 25.1178 58.0346 23.4559 58.0346C21.102 58.0346 19.9815 56.4027 19.9138 54.1466C19.9138 51.9356 21.3727 50.3037 23.3882 50.3037C26.0052 50.3037 26.8024 52.7478 26.7347 54.5301H21.2073C21.1622 55.8161 21.8916 56.9592 23.5085 56.9592C24.5087 56.9592 25.2081 56.4704 25.4262 55.5153H26.6294L26.6144 55.5228ZM25.4412 53.4622C25.381 52.3041 24.5162 51.3791 23.313 51.3791C22.042 51.3791 21.2825 52.3342 21.1998 53.4622H25.4412Z" fill="#2A7F67"/>
<path d="M27.983 50.4767H29.1261V51.6498H29.1562C29.6676 50.7324 30.5023 50.3037 31.5552 50.3037C33.4954 50.3037 34.097 51.4167 34.097 53.0035V57.8616H32.8863V52.8606C32.8863 51.9582 32.3147 51.3716 31.3897 51.3716C29.9158 51.3716 29.2013 52.3568 29.2013 53.6878V57.8616H27.9905V50.4767H27.983Z" fill="#2A7F67"/>
<path d="M42.5273 57.8616H41.3166V56.8614H41.2865C40.8879 57.6736 39.9404 58.0346 38.9326 58.0346C36.6615 58.0346 35.5334 56.2372 35.5334 54.1466C35.5334 52.0559 36.6465 50.3037 38.9025 50.3037C39.6621 50.3037 40.745 50.5895 41.2865 51.4618H41.3166V47.6641H42.5273V57.8616ZM39.0981 56.9667C40.73 56.9667 41.3542 55.5679 41.3542 54.1842C41.3542 52.7252 40.6999 51.3866 39.0229 51.3866C37.3458 51.3866 36.8119 52.8004 36.8119 54.2443C36.8119 55.6882 37.5263 56.9742 39.0981 56.9742V56.9667Z" fill="#2A7F67"/>
<path d="M50.7019 55.5228C50.371 57.1547 49.1979 58.0346 47.5434 58.0346C45.1895 58.0346 44.069 56.4027 44.0013 54.1466C44.0013 51.9356 45.4603 50.3037 47.4757 50.3037C50.0928 50.3037 50.8899 52.7478 50.8222 54.5301H45.2948C45.2497 55.8161 45.9792 56.9592 47.596 56.9592C48.5962 56.9592 49.2956 56.4704 49.5137 55.5153H50.717L50.7019 55.5228ZM49.5288 53.4622C49.4686 52.3041 48.6038 51.3791 47.4005 51.3791C46.1296 51.3791 45.37 52.3342 45.2873 53.4622H49.5288Z" fill="#2A7F67"/>
<path d="M56.3045 47.6641H57.6582V57.8616H56.3045V47.6641Z" fill="#2A7F67"/>
<path d="M59.7489 50.4767H60.8919V51.6498H60.922C61.4334 50.7324 62.2682 50.3037 63.321 50.3037C65.2612 50.3037 65.8629 51.4167 65.8629 53.0035V57.8616H64.6521V52.8606C64.6521 51.9582 64.0806 51.3716 63.1556 51.3716C61.6816 51.3716 60.9671 52.3568 60.9671 53.6878V57.8616H59.7564V50.4767H59.7489Z" fill="#2A7F67"/>
<path d="M74.2931 57.8616H73.0823V56.8614H73.0522C72.6537 57.6736 71.7061 58.0346 70.6984 58.0346C68.4273 58.0346 67.2992 56.2372 67.2992 54.1466C67.2992 52.0559 68.4122 50.3037 70.6683 50.3037C71.4279 50.3037 72.5108 50.5895 73.0522 51.4618H73.0823V47.6641H74.2931V57.8616ZM70.8638 56.9667C72.4957 56.9667 73.1199 55.5679 73.1199 54.1842C73.1199 52.7252 72.4657 51.3866 70.7886 51.3866C69.1116 51.3866 68.5777 52.8004 68.5777 54.2443C68.5777 55.6882 69.2921 56.9742 70.8638 56.9742V56.9667Z" fill="#2A7F67"/>
<path d="M82.2797 57.8615H81.1366V56.6883H81.1065C80.5952 57.6058 79.7604 58.0345 78.7076 58.0345C76.7673 58.0345 76.1657 56.9215 76.1657 55.3347V50.4766H77.3765V55.4776C77.3765 56.38 77.948 56.9666 78.873 56.9666C80.347 56.9666 81.0614 55.9814 81.0614 54.6503V50.4766H82.2722V57.8615H82.2797Z" fill="#2A7F67"/>
<path d="M84.8516 55.5375C84.8968 56.6204 85.8368 56.9663 86.837 56.9663C87.5966 56.9663 88.6193 56.7933 88.6193 55.8683C88.6193 54.9433 87.4161 54.7704 86.2053 54.4996C85.002 54.2289 83.7913 53.8303 83.7913 52.4165C83.7913 50.9275 85.2653 50.3184 86.5512 50.3184C88.1831 50.3184 89.4766 50.8297 89.5819 52.6346H88.3711C88.2884 51.6946 87.4537 51.3938 86.6565 51.3938C85.927 51.3938 85.0848 51.5968 85.0848 52.3338C85.0848 53.2062 86.3707 53.349 87.4988 53.6198C88.7096 53.8905 89.9128 54.2891 89.9128 55.7179C89.9128 57.4777 88.2734 58.0492 86.7693 58.0492C85.1149 58.0492 83.7086 57.3799 83.6409 55.5525H84.8516V55.5375Z" fill="#2A7F67"/>
<path d="M92.9359 50.477H94.4099V51.5449H92.9359V56.1323C92.9359 56.6888 93.0939 56.7865 93.8534 56.7865H94.4099V57.8544H93.4774C92.2215 57.8544 91.7177 57.5987 91.7177 56.2375V51.5374H90.4618V50.4695H91.7177V48.251H92.9359V50.4695V50.477Z" fill="#2A7F67"/>
<path d="M95.711 50.4771H96.8541V52.0338H96.8841C97.4707 50.8456 98.2829 50.2591 99.599 50.3042V51.5901C97.6437 51.5901 96.9293 52.7032 96.9293 54.5757V57.8621H95.7185V50.4771H95.711Z" fill="#2A7F67"/>
<path d="M101.795 49.1462H100.577V47.6572H101.795V49.1462ZM100.584 50.4773H101.802V57.8623H100.584V50.4773Z" fill="#2A7F67"/>
<path d="M110.225 57.8309C110.007 57.9587 109.736 58.0339 109.353 58.0339C108.721 58.0339 108.322 57.688 108.322 56.8908C107.653 57.6729 106.751 58.0339 105.72 58.0339C104.374 58.0339 103.276 57.4323 103.276 55.9658C103.276 54.2963 104.517 53.9353 105.781 53.6947C107.127 53.439 108.262 53.5217 108.262 52.6118C108.262 51.5514 107.39 51.386 106.623 51.386C105.593 51.386 104.841 51.7018 104.78 52.7847H103.562C103.637 50.9573 105.051 50.3105 106.691 50.3105C108.022 50.3105 109.466 50.6114 109.466 52.341V56.1388C109.466 56.7103 109.466 56.966 109.849 56.966C109.947 56.966 110.067 56.951 110.218 56.8983V57.8384L110.225 57.8309ZM108.255 54.0481C107.781 54.3941 106.871 54.4016 106.051 54.552C105.254 54.6949 104.562 54.9807 104.562 55.8831C104.562 56.6802 105.247 56.966 105.991 56.966C107.593 56.966 108.247 55.9658 108.247 55.2965V54.0557L108.255 54.0481Z" fill="#2A7F67"/>
<path d="M111.428 47.6641H112.647V57.8616H111.428V47.6641Z" fill="#2A7F67"/>
<path d="M115.813 49.1462H114.594V47.6572H115.813V49.1462ZM114.602 50.4773H115.82V57.8623H114.602V50.4773Z" fill="#2A7F67"/>
<path d="M121.897 47.6641H123.754L126.965 56.2372L130.192 47.6641H132.049V57.8616H130.763V49.3787H130.733L127.544 57.8616H126.386L123.198 49.3787H123.168V57.8616H121.882V47.6641H121.897Z" fill="#2A7F67"/>
<path d="M140.419 55.5228C140.088 57.1547 138.915 58.0346 137.261 58.0346C134.907 58.0346 133.786 56.4027 133.719 54.1466C133.719 51.9356 135.178 50.3037 137.193 50.3037C139.81 50.3037 140.607 52.7478 140.539 54.5301H135.012C134.967 55.8161 135.696 56.9592 137.313 56.9592C138.313 56.9592 139.013 56.4704 139.231 55.5153H140.434L140.419 55.5228ZM139.246 53.4622C139.186 52.3041 138.313 51.3791 137.118 51.3791C135.847 51.3791 135.087 52.3342 135.005 53.4622H139.246Z" fill="#2A7F67"/>
<path d="M141.788 50.4767H142.931V51.6498H142.961C143.472 50.7324 144.307 50.3037 145.36 50.3037C147.3 50.3037 147.902 51.4167 147.902 53.0035V57.8616H146.684V52.8606C146.684 51.9582 146.112 51.3716 145.187 51.3716C143.713 51.3716 142.999 52.3568 142.999 53.6878V57.8616H141.78V50.4767H141.788Z" fill="#2A7F67"/>
<path d="M156.332 57.8616H155.121V56.8614H155.091C154.693 57.6736 153.745 58.0346 152.737 58.0346C150.466 58.0346 149.338 56.2372 149.338 54.1466C149.338 52.0559 150.451 50.3037 152.707 50.3037C153.467 50.3037 154.55 50.5895 155.091 51.4618H155.121V47.6641H156.332V57.8616ZM152.903 56.9667C154.535 56.9667 155.159 55.5679 155.159 54.1842C155.159 52.7252 154.505 51.3866 152.828 51.3866C151.151 51.3866 150.617 52.8004 150.617 54.2443C150.617 55.6882 151.331 56.9742 152.903 56.9742V56.9667Z" fill="#2A7F67"/>
<path d="M158.167 50.4771H159.31V52.0338H159.34C159.927 50.8456 160.739 50.2591 162.055 50.3042V51.5901C160.1 51.5901 159.385 52.7032 159.385 54.5757V57.8621H158.175V50.4771H158.167Z" fill="#2A7F67"/>
<path d="M164.251 49.1462H163.033V47.6572H164.251V49.1462ZM163.04 50.4773H164.259V57.8623H163.04V50.4773Z" fill="#2A7F67"/>
<path d="M166.883 55.5375C166.928 56.6204 167.868 56.9663 168.869 56.9663C169.628 56.9663 170.651 56.7933 170.651 55.8683C170.651 54.9433 169.448 54.7704 168.237 54.4996C167.034 54.2289 165.823 53.8303 165.823 52.4165C165.823 50.9275 167.297 50.3184 168.583 50.3184C170.215 50.3184 171.508 50.8297 171.613 52.6346H170.395C170.312 51.6946 169.478 51.3938 168.68 51.3938C167.951 51.3938 167.109 51.5968 167.109 52.3338C167.109 53.2062 168.395 53.349 169.523 53.6198C170.741 53.8905 171.937 54.2891 171.937 55.7179C171.937 57.4777 170.297 58.0492 168.793 58.0492C167.139 58.0492 165.733 57.3799 165.665 55.5525H166.883V55.5375Z" fill="#2A7F67"/>
<path d="M174.569 49.1462H173.351V47.6572H174.569V49.1462ZM173.351 50.4773H174.569V57.8623H173.351V50.4773Z" fill="#2A7F67"/>
<path d="M179.638 50.3037C181.984 50.3037 183.225 52.0033 183.225 54.1767C183.225 56.35 181.984 58.0346 179.638 58.0346C177.291 58.0346 176.05 56.335 176.05 54.1767C176.05 52.0183 177.291 50.3037 179.638 50.3037ZM179.638 56.9667C180.908 56.9667 181.939 55.9665 181.939 54.1842C181.939 52.4019 180.908 51.3866 179.638 51.3866C178.367 51.3866 177.336 52.3868 177.336 54.1842C177.336 55.9815 178.367 56.9667 179.638 56.9667Z" fill="#2A7F67"/>
</svg>
