<svg width="136" height="46" viewBox="0 0 136 46" fill="none" xmlns="http://www.w3.org/2000/svg">
<rect x="0.00952148" y="0.948242" width="135.009" height="45" rx="22.5" fill="white"/>
<path fill-rule="evenodd" clip-rule="evenodd" d="M70.7045 17.1488H69.8962V10.6323H70.7045V17.1488ZM47.2197 17.1491H49.3352C50.155 17.1491 50.8458 16.8686 51.4076 16.3076C51.9694 15.7465 52.2503 14.968 52.2503 13.9719C52.2503 12.9698 51.9723 12.1853 51.4162 11.6182C50.8601 11.0512 50.1722 10.7677 49.3524 10.7677H47.2197V17.1491ZM49.3093 16.3653H48.0624V11.55H49.3265C49.9228 11.55 50.4144 11.76 50.8013 12.18C51.1883 12.6 51.3818 13.1971 51.3818 13.9711C51.3818 14.7392 51.1854 15.3302 50.7927 15.7443C50.4 16.1583 49.9056 16.3653 49.3093 16.3653ZM54.1766 16.1227C54.4288 16.3927 54.7355 16.5277 55.0967 16.5277C55.4579 16.5277 55.7632 16.3912 56.0125 16.1182C56.2619 15.8452 56.3866 15.4657 56.3866 14.9796C56.3866 14.4996 56.2619 14.1231 56.0125 13.8501C55.7632 13.577 55.4579 13.4405 55.0967 13.4405C54.7355 13.4405 54.4303 13.577 54.1809 13.8501C53.9315 14.1231 53.8068 14.4996 53.8068 14.9796C53.8068 15.4657 53.9301 15.8467 54.1766 16.1227ZM55.0967 12.6847C54.4833 12.6847 53.9759 12.9037 53.5746 13.3418C53.1791 13.7738 52.9813 14.3198 52.9813 14.9799C52.9813 15.6459 53.1791 16.1965 53.5746 16.6315C53.9702 17.0665 54.4776 17.284 55.0967 17.284C55.7159 17.284 56.2232 17.0665 56.6188 16.6315C57.0144 16.1965 57.2122 15.6459 57.2122 14.9799C57.2122 14.3198 57.0129 13.7723 56.6145 13.3373C56.2161 12.9022 55.7101 12.6847 55.0967 12.6847ZM60.5745 12.8192H61.4086L62.4835 16.0774L63.3951 12.8192H64.2464L62.9049 17.1485H62.0708L60.97 13.8543L59.8951 17.1485H59.0438L57.6851 12.8192H58.5708L59.4996 16.0774L60.5745 12.8192ZM65.8717 17.1488V14.6466C65.8717 14.3046 65.9562 14.0211 66.1254 13.796C66.2945 13.571 66.531 13.4585 66.8348 13.4585C67.4769 13.4585 67.7979 13.8215 67.7979 14.5476V17.1488H68.6063V14.4036C68.6063 13.8996 68.4787 13.4885 68.2236 13.1705C67.9685 12.8525 67.603 12.6935 67.1272 12.6935C66.5539 12.6935 66.1297 12.9425 65.8545 13.4405V12.8195H65.0633V17.1488H65.8717ZM73.8519 16.5277C73.4907 16.5277 73.184 16.3927 72.9317 16.1227C72.6852 15.8467 72.562 15.4657 72.562 14.9796C72.562 14.4996 72.6866 14.1231 72.936 13.8501C73.1854 13.577 73.4907 13.4405 73.8519 13.4405C74.213 13.4405 74.5183 13.577 74.7677 13.8501C75.0171 14.1231 75.1418 14.4996 75.1418 14.9796C75.1418 15.4657 75.0171 15.8452 74.7677 16.1182C74.5183 16.3912 74.213 16.5277 73.8519 16.5277ZM72.3298 13.3418C72.7311 12.9037 73.2384 12.6847 73.8519 12.6847C74.4653 12.6847 74.9712 12.9022 75.3696 13.3373C75.7681 13.7723 75.9673 14.3198 75.9673 14.9799C75.9673 15.6459 75.7695 16.1965 75.3739 16.6315C74.9784 17.0665 74.471 17.284 73.8519 17.284C73.2327 17.284 72.7254 17.0665 72.3298 16.6315C71.9342 16.1965 71.7364 15.6459 71.7364 14.9799C71.7364 14.3198 71.9342 13.7738 72.3298 13.3418ZM77.0852 15.0924C76.8559 15.3174 76.7412 15.6159 76.7412 15.9879C76.7412 16.342 76.8702 16.6465 77.1282 16.9015C77.3862 17.1565 77.7187 17.284 78.1257 17.284C78.4582 17.284 78.7349 17.212 78.9556 17.068C79.1763 16.924 79.344 16.756 79.4586 16.564C79.4586 16.774 79.473 16.969 79.5016 17.149H80.2928C80.2584 16.933 80.2412 16.696 80.2412 16.438V14.2688C80.2412 13.8068 80.1007 13.4273 79.8198 13.1302C79.5389 12.8332 79.1061 12.6847 78.5213 12.6847C78.0741 12.6847 77.69 12.8152 77.369 13.0762C77.0479 13.3373 76.8674 13.6748 76.8272 14.0888L77.6012 14.2778C77.6298 14.0138 77.7244 13.8023 77.885 13.6433C78.0455 13.4843 78.2633 13.4048 78.5385 13.4048C78.8366 13.4048 79.0602 13.4768 79.2092 13.6208C79.3583 13.7648 79.4328 13.9508 79.4328 14.1788C79.4328 14.3648 79.3268 14.4728 79.1147 14.5028L77.9967 14.6739C77.6184 14.7279 77.3145 14.8674 77.0852 15.0924ZM78.2375 16.5724C78.5987 16.5724 78.8882 16.4704 79.106 16.2664C79.3239 16.0624 79.4328 15.7384 79.4328 15.2943V15.0963L78.1687 15.2943C77.9853 15.3243 77.8391 15.3933 77.7302 15.5014C77.6212 15.6094 77.5668 15.7564 77.5668 15.9424C77.5668 16.1104 77.6284 16.2574 77.7516 16.3834C77.8749 16.5094 78.0369 16.5724 78.2375 16.5724ZM82.3007 16.0867C82.0857 15.7987 81.9782 15.4267 81.9782 14.9706C81.9782 14.5206 82.09 14.1546 82.3136 13.8726C82.5372 13.5905 82.8324 13.4495 83.1993 13.4495C83.5662 13.4495 83.8557 13.5875 84.0679 13.8636C84.28 14.1396 84.386 14.5026 84.386 14.9526C84.386 15.4087 84.2771 15.7837 84.0593 16.0777C83.8414 16.3717 83.5519 16.5187 83.1907 16.5187C82.8124 16.5187 82.5157 16.3747 82.3007 16.0867ZM84.3973 16.7252L84.3946 16.4917C84.2857 16.7138 84.1209 16.8983 83.9002 17.0453C83.6795 17.1923 83.4172 17.2658 83.1133 17.2658C82.5228 17.2658 82.0485 17.0483 81.6901 16.6132C81.3318 16.1782 81.1527 15.6307 81.1527 14.9706C81.1527 14.3406 81.3361 13.805 81.703 13.364C82.0699 12.923 82.54 12.7025 83.1133 12.7025C83.4516 12.7025 83.7267 12.773 83.9389 12.914C84.151 13.055 84.2972 13.2275 84.3774 13.4315V10.6323H85.1772V16.3477C85.1772 16.6417 85.1915 16.9088 85.2202 17.1488H84.4376C84.4161 17.0228 84.4027 16.8816 84.3973 16.7252ZM90.4744 16.5277C90.1132 16.5277 89.8065 16.3927 89.5542 16.1227C89.3077 15.8467 89.1845 15.4657 89.1845 14.9796C89.1845 14.4996 89.3091 14.1231 89.5585 13.8501C89.8079 13.577 90.1132 13.4405 90.4744 13.4405C90.8355 13.4405 91.1408 13.577 91.3902 13.8501C91.6396 14.1231 91.7643 14.4996 91.7643 14.9796C91.7643 15.4657 91.6396 15.8452 91.3902 16.1182C91.1408 16.3912 90.8355 16.5277 90.4744 16.5277ZM88.9523 13.3418C89.3536 12.9037 89.861 12.6847 90.4744 12.6847C91.0878 12.6847 91.5937 12.9022 91.9922 13.3373C92.3906 13.7723 92.5898 14.3198 92.5898 14.9799C92.5898 15.6459 92.392 16.1965 91.9965 16.6315C91.6009 17.0665 91.0935 17.284 90.4744 17.284C89.8552 17.284 89.3479 17.0665 88.9523 16.6315C88.5567 16.1965 88.3589 15.6459 88.3589 14.9799C88.3589 14.3198 88.5567 13.7738 88.9523 13.3418ZM94.4301 17.1488V14.6466C94.4301 14.3046 94.5146 14.0211 94.6837 13.796C94.8529 13.571 95.0893 13.4585 95.3932 13.4585C96.0353 13.4585 96.3563 13.8215 96.3563 14.5476V17.1488H97.1646V14.4036C97.1646 13.8996 97.0371 13.4885 96.782 13.1705C96.5269 12.8525 96.1614 12.6935 95.6856 12.6935C95.1123 12.6935 94.688 12.9425 94.4129 13.4405V12.8195H93.6217V17.1488H94.4301ZM101.688 11.4514V12.8195H102.582V13.5845H101.688V15.8347C101.688 16.0387 101.732 16.1887 101.821 16.2847C101.91 16.3807 102.058 16.4287 102.264 16.4287C102.384 16.4287 102.49 16.4167 102.582 16.3927V17.1128C102.445 17.1668 102.261 17.1938 102.032 17.1938C101.676 17.1938 101.396 17.0858 101.189 16.8698C100.983 16.6537 100.88 16.3507 100.88 15.9607V13.5845H100.088V12.8195H100.312C100.524 12.8195 100.683 12.758 100.789 12.635C100.895 12.512 100.948 12.3514 100.948 12.1534V11.4514H101.688ZM104.465 17.1488V14.6016C104.477 14.2656 104.566 13.9911 104.732 13.778C104.898 13.565 105.13 13.4585 105.429 13.4585C106.071 13.4585 106.392 13.8215 106.392 14.5476V17.1488H107.2V14.4036C107.2 13.8996 107.072 13.4885 106.817 13.1705C106.562 12.8525 106.197 12.6935 105.721 12.6935C105.159 12.6935 104.741 12.9035 104.465 13.3235V10.6323H103.657V17.1488H104.465ZM109.015 14.5389H111.276C111.265 14.2149 111.161 13.9494 110.967 13.7424C110.772 13.5353 110.496 13.4318 110.141 13.4318C109.82 13.4318 109.556 13.5413 109.35 13.7604C109.143 13.9794 109.032 14.2389 109.015 14.5389ZM112.093 15.9159L111.397 15.6639C111.213 16.246 110.826 16.537 110.236 16.537C109.886 16.537 109.592 16.414 109.354 16.168C109.116 15.9219 108.994 15.6069 108.989 15.2229H112.102C112.113 15.1509 112.119 15.0609 112.119 14.9529C112.119 14.2628 111.944 13.7123 111.594 13.3013C111.245 12.8902 110.757 12.6847 110.132 12.6847C109.594 12.6847 109.129 12.9007 108.739 13.3328C108.349 13.7648 108.155 14.3108 108.155 14.9709C108.155 15.6789 108.357 16.2415 108.761 16.6585C109.165 17.0755 109.657 17.284 110.236 17.284C110.7 17.284 111.096 17.1565 111.422 16.9015C111.749 16.6465 111.973 16.318 112.093 15.9159Z" fill="black"/>
<path fill-rule="evenodd" clip-rule="evenodd" d="M54.2887 34.2491H56.0912L52.2937 24.0388H50.3812L46.5837 34.2491H48.3311L49.2392 31.6857H53.3669L54.2887 34.2491ZM51.3031 25.9112L52.789 30.0875H49.8171L51.3031 25.9112ZM58.8429 36.9851V33.4568C59.1869 33.9896 59.9161 34.4217 60.8793 34.4217C62.8055 34.4217 64.0301 32.8376 64.0301 30.735C64.0301 28.6613 62.9156 27.0772 60.9343 27.0772C59.9024 27.0772 59.1319 27.5812 58.8017 28.186V27.2356H57.2607V36.9851H58.8429ZM62.434 30.7346C62.434 32.0739 61.691 32.938 60.6316 32.938C59.5859 32.938 58.8292 32.0739 58.8292 30.7346C58.8292 29.4241 59.5859 28.5601 60.6316 28.5601C61.7048 28.5601 62.434 29.4241 62.434 30.7346ZM67.1533 36.9851V33.4568C67.4973 33.9896 68.2265 34.4217 69.1897 34.4217C71.1159 34.4217 72.3405 32.8376 72.3405 30.735C72.3405 28.6613 71.226 27.0772 69.2447 27.0772C68.2128 27.0772 67.4423 27.5812 67.1121 28.186V27.2356H65.5711V36.9851H67.1533ZM70.7444 30.7346C70.7444 32.0739 70.0014 32.938 68.942 32.938C67.8963 32.938 67.1396 32.0739 67.1396 30.7346C67.1396 29.4241 67.8963 28.5601 68.942 28.5601C70.0152 28.5601 70.7444 29.4241 70.7444 30.7346ZM83.8429 26.4293C83.6228 25.2917 82.7284 23.8228 80.4307 23.8228C78.6145 23.8228 77.1148 25.2341 77.1148 26.9478C77.1148 28.4743 78.1054 29.4968 79.5914 29.8136L80.9673 30.116C81.8066 30.3032 82.2744 30.836 82.2744 31.4985C82.2744 32.2905 81.669 32.9098 80.4995 32.9098C79.0961 32.9098 78.3669 31.9305 78.2706 30.8648L76.7296 31.3257C76.8809 32.7946 78.0229 34.4651 80.4995 34.4651C82.7284 34.4651 83.953 32.953 83.953 31.3689C83.953 29.9288 83.0311 28.7911 81.3113 28.4311L79.9079 28.1287C79.1511 27.9558 78.7659 27.4662 78.7659 26.8182C78.7659 26.0405 79.4538 25.3493 80.4445 25.3493C81.7516 25.3493 82.2606 26.2853 82.357 26.919L83.8429 26.4293ZM87.5578 25.09H86.1131V26.1413C86.1131 26.7606 85.7967 27.2358 85.0812 27.2358H84.7373V28.7191H85.9756V32.2473C85.9756 33.5578 86.7461 34.3355 87.9844 34.3355C88.5622 34.3355 88.8649 34.2203 88.9612 34.1771V32.7946L88.7851 32.8233C88.676 32.8381 88.5367 32.8522 88.4109 32.8522C87.8193 32.8522 87.5578 32.593 87.5578 31.9737V28.7191H88.9475V27.2358H87.5578V25.09ZM93.5017 32.9674C92.5248 32.9674 91.6305 32.1898 91.6305 30.7353C91.6305 29.2808 92.5248 28.5319 93.5017 28.5319C94.4923 28.5319 95.3729 29.2808 95.3729 30.7353C95.3729 32.2042 94.4923 32.9674 93.5017 32.9674ZM93.5017 27.0196C91.5066 27.0196 90.0344 28.5893 90.0344 30.735C90.0344 32.8952 91.5066 34.4649 93.5017 34.4649C95.5105 34.4649 96.9827 32.8952 96.9827 30.735C96.9827 28.5893 95.5105 27.0196 93.5017 27.0196ZM102.445 27.1926C102.376 27.1782 102.211 27.1494 102.018 27.1494C101.138 27.1494 100.395 27.5958 100.078 28.3591V27.2358H98.5237V34.2491H100.12V30.9081C100.12 29.5976 100.684 28.8487 101.922 28.8487C102.087 28.8487 102.266 28.8631 102.445 28.8919V27.1926ZM104.867 29.9712C104.922 29.2224 105.499 28.4159 106.504 28.4159C107.605 28.4159 108.127 29.1504 108.155 29.9712H104.867ZM108.334 31.8007L109.682 32.2471C109.324 33.4712 108.265 34.4649 106.655 34.4649C104.839 34.4649 103.229 33.0824 103.229 30.7062C103.229 28.4885 104.798 27.0196 106.49 27.0196C108.554 27.0196 109.765 28.4453 109.765 30.663C109.765 30.9366 109.737 31.167 109.723 31.1958H104.825C104.867 32.2615 105.665 33.0248 106.655 33.0248C107.618 33.0248 108.114 32.4919 108.334 31.8007Z" fill="black"/>
<path fill-rule="evenodd" clip-rule="evenodd" d="M27.006 14.0323C27.7535 13.1888 28.2592 12.017 28.1211 10.8481C27.0432 10.8887 25.7373 11.5147 24.9651 12.3578C24.271 13.1051 23.6644 14.2985 23.8264 15.4438C25.0296 15.5304 26.257 14.8747 27.006 14.0323ZM29.3001 22.1C29.2769 19.4802 31.2676 18.2231 31.3569 18.1613C30.2381 16.3833 28.4947 16.1397 27.8745 16.1125C26.3914 15.9484 24.9806 17.0599 24.2272 17.0599C23.4767 17.0599 22.3157 16.1344 21.0851 16.159C19.468 16.1868 17.9775 17.1796 17.146 18.7532C15.4659 21.9182 16.715 26.608 18.3529 29.1748C19.1531 30.4318 20.1066 31.8416 21.3585 31.7903C22.5657 31.7399 23.0215 30.9433 24.4798 30.9433C25.9371 30.9433 26.3473 31.7903 27.6228 31.7648C28.9207 31.7399 29.7432 30.4838 30.5378 29.2235C31.4559 27.7666 31.8338 26.3552 31.8568 26.2836C31.8276 26.2679 29.3265 25.2292 29.3001 22.1Z" fill="black"/>
</svg>
