<svg width="16" height="17" viewBox="0 0 16 17" fill="none" xmlns="http://www.w3.org/2000/svg">
<g clip-path="url(#clip0_987_180)">
<path d="M15.7812 8.87949C16.075 8.58574 16.075 8.11074 15.7812 7.82012L10.5312 2.56699C10.2375 2.27324 9.7625 2.27324 9.47188 2.56699C9.18125 2.86074 9.17813 3.33574 9.47188 3.62637L13.4406 7.59512H0.75C0.334375 7.59512 0 7.92949 0 8.34512C0 8.76074 0.334375 9.09512 0.75 9.09512H13.4406L9.47188 13.0639C9.17813 13.3576 9.17813 13.8326 9.47188 14.1232C9.76562 14.4139 10.2406 14.417 10.5312 14.1232L15.7812 8.87949Z" fill="white"/>
</g>
<defs>
<clipPath id="clip0_987_180">
<rect width="16" height="16" fill="white" transform="translate(0 0.348633)"/>
</clipPath>
</defs>
</svg>
