<svg width="287" height="287" viewBox="0 0 287 287" fill="none" xmlns="http://www.w3.org/2000/svg">
<g filter="url(#filter0_d_7045_2273)">
<circle cx="143.884" cy="139.827" r="123.116" fill="#168362"/>
</g>
<path d="M63.7409 71.1445H65.9809V80.5525H70.3169V82.3125H63.7409V71.1445ZM71.5969 74.0725H73.7409V82.3125H71.5969V74.0725ZM71.5969 70.5205H73.7409V72.5685H71.5969V70.5205ZM75.09 74.0725H77.394L79.442 80.0725H79.474L81.458 74.0725H83.602L80.562 82.3125H78.146L75.09 74.0725ZM90.0606 77.3845C90.0393 76.8405 89.8953 76.3872 89.6286 76.0245C89.3513 75.6512 88.914 75.4592 88.3166 75.4485C87.73 75.4592 87.2766 75.6405 86.9566 75.9925C86.6366 76.3552 86.4553 76.8192 86.4126 77.3845H90.0606ZM91.5006 81.8485C90.7433 82.2858 89.7993 82.5045 88.6686 82.5045C85.8313 82.4618 84.3966 81.0378 84.3646 78.2325C84.3646 77.0058 84.6846 75.9765 85.3246 75.1445C85.9646 74.3232 86.9193 73.9018 88.1886 73.8805C89.6926 73.8912 90.7326 74.3552 91.3086 75.2725C91.8526 76.1898 92.1193 77.3845 92.1086 78.8565H86.4126C86.466 79.5178 86.706 80.0245 87.1326 80.3765C87.5593 80.7498 88.1033 80.9365 88.7646 80.9365C89.2873 80.9365 89.778 80.8512 90.2366 80.6805C90.6846 80.5312 91.106 80.3392 91.5006 80.1045V81.8485ZM93.8313 70.3125H95.9753V82.3125H93.8313V70.3125ZM98.2844 70.3125H100.428V82.3125H98.2844V70.3125ZM102.162 78.2485C102.172 76.8725 102.588 75.8005 103.41 75.0325C104.21 74.2752 105.228 73.8912 106.466 73.8805C107.724 73.8912 108.754 74.2752 109.554 75.0325C110.364 75.8005 110.775 76.8725 110.786 78.2485C110.786 79.4538 110.412 80.4565 109.666 81.2565C108.919 82.0672 107.852 82.4832 106.466 82.5045C105.1 82.4832 104.044 82.0672 103.298 81.2565C102.54 80.4565 102.162 79.4538 102.162 78.2485ZM104.402 77.9925C104.402 78.1525 104.412 78.3125 104.434 78.4725C104.455 78.6538 104.482 78.8245 104.514 78.9845C104.578 79.3258 104.684 79.6352 104.834 79.9125C104.994 80.1898 105.207 80.4085 105.474 80.5685C105.73 80.7498 106.06 80.8405 106.466 80.8405C106.882 80.8405 107.228 80.7552 107.506 80.5845C107.772 80.4245 107.986 80.2058 108.146 79.9285C108.306 79.6512 108.412 79.3418 108.466 79.0005C108.519 78.6698 108.546 78.3338 108.546 77.9925C108.546 77.3312 108.38 76.7605 108.05 76.2805C107.698 75.8005 107.17 75.5552 106.466 75.5445C105.783 75.5552 105.271 75.8058 104.93 76.2965C104.578 76.7765 104.402 77.3418 104.402 77.9925ZM118.636 78.1685C118.625 78.7658 118.753 79.3525 119.02 79.9285C119.159 80.1845 119.345 80.3978 119.58 80.5685C119.804 80.7498 120.092 80.8405 120.444 80.8405C120.817 80.8405 121.121 80.7498 121.356 80.5685C121.601 80.3978 121.793 80.1845 121.932 79.9285C122.081 79.6618 122.188 79.3738 122.252 79.0645C122.305 78.7552 122.332 78.4565 122.332 78.1685C122.332 77.5498 122.188 76.9685 121.9 76.4245C121.74 76.1578 121.543 75.9445 121.308 75.7845C121.063 75.6245 120.764 75.5445 120.412 75.5445C119.74 75.5658 119.271 75.8592 119.004 76.4245C118.876 76.6805 118.785 76.9632 118.732 77.2725C118.668 77.5818 118.636 77.8805 118.636 78.1685ZM122.412 81.3845H122.38C121.719 82.1418 120.876 82.5152 119.852 82.5045C118.604 82.4832 117.713 82.0405 117.18 81.1765C116.647 80.3338 116.385 79.3312 116.396 78.1685C116.385 76.9952 116.647 75.9925 117.18 75.1605C117.713 74.3285 118.604 73.9018 119.852 73.8805C120.887 73.8805 121.708 74.2645 122.316 75.0325H122.348V70.3125H124.492V82.3125H122.412V81.3845ZM126.753 74.0725H128.897V82.3125H126.753V74.0725ZM126.753 70.5205H128.897V72.5685H126.753V70.5205ZM137.323 78.1685C137.313 78.7658 137.441 79.3525 137.707 79.9285C137.846 80.1845 138.033 80.3978 138.267 80.5685C138.491 80.7498 138.779 80.8405 139.131 80.8405C139.505 80.8405 139.809 80.7498 140.043 80.5685C140.289 80.3978 140.481 80.1845 140.619 79.9285C140.769 79.6618 140.875 79.3738 140.939 79.0645C140.993 78.7552 141.019 78.4565 141.019 78.1685C141.019 77.5498 140.875 76.9685 140.587 76.4245C140.427 76.1578 140.23 75.9445 139.995 75.7845C139.75 75.6245 139.451 75.5445 139.099 75.5445C138.427 75.5658 137.958 75.8592 137.691 76.4245C137.563 76.6805 137.473 76.9632 137.419 77.2725C137.355 77.5818 137.323 77.8805 137.323 78.1685ZM141.099 81.3845H141.067C140.406 82.1418 139.563 82.5152 138.539 82.5045C137.291 82.4832 136.401 82.0405 135.867 81.1765C135.334 80.3338 135.073 79.3312 135.083 78.1685C135.073 76.9952 135.334 75.9925 135.867 75.1605C136.401 74.3285 137.291 73.9018 138.539 73.8805C139.574 73.8805 140.395 74.2645 141.003 75.0325H141.035V70.3125H143.179V82.3125H141.099V81.3845ZM145.441 74.0725H147.585V82.3125H145.441V74.0725ZM145.441 70.5205H147.585V72.5685H145.441V70.5205ZM154.742 75.8005C154.432 75.6832 154.134 75.5925 153.846 75.5285C153.558 75.4752 153.216 75.4485 152.822 75.4485C152.523 75.4485 152.246 75.5072 151.99 75.6245C151.712 75.7632 151.568 76.0085 151.558 76.3605C151.568 76.6698 151.766 76.8885 152.15 77.0165C152.331 77.0912 152.534 77.1605 152.758 77.2245C152.982 77.2885 153.206 77.3632 153.43 77.4485C153.675 77.5232 153.91 77.6192 154.134 77.7365C154.347 77.8645 154.539 78.0138 154.71 78.1845C154.891 78.3658 155.035 78.5845 155.142 78.8405C155.238 79.1072 155.286 79.4325 155.286 79.8165C155.264 80.7658 154.912 81.4538 154.23 81.8805C153.547 82.2965 152.747 82.5045 151.83 82.5045C151.008 82.4938 150.198 82.3765 149.398 82.1525L149.526 80.3925C150.198 80.7552 150.902 80.9365 151.638 80.9365C151.936 80.9365 152.24 80.8618 152.55 80.7125C152.87 80.5738 153.035 80.3125 153.046 79.9285C153.046 79.7152 152.998 79.5392 152.902 79.4005C152.795 79.2725 152.651 79.1712 152.47 79.0965C152.096 78.9472 151.67 78.8085 151.19 78.6805C150.966 78.6058 150.742 78.5152 150.518 78.4085C150.294 78.3018 150.091 78.1632 149.91 77.9925C149.728 77.8218 149.59 77.6085 149.494 77.3525C149.376 77.1072 149.318 76.8032 149.318 76.4405C149.328 75.5445 149.664 74.8938 150.326 74.4885C150.944 74.0832 151.686 73.8805 152.55 73.8805C153.051 73.8805 153.488 73.9072 153.862 73.9605C154.224 74.0245 154.566 74.0992 154.886 74.1845L154.742 75.8005ZM156.955 74.0725H159.003V75.2405H159.035C159.494 74.3658 160.347 73.9125 161.595 73.8805C162.843 73.9018 163.739 74.3285 164.283 75.1605C164.806 75.9925 165.062 76.9952 165.051 78.1685C165.062 79.3312 164.806 80.3338 164.283 81.1765C163.739 82.0405 162.827 82.4832 161.547 82.5045C161.099 82.5045 160.683 82.4245 160.299 82.2645C159.904 82.1045 159.515 81.8058 159.131 81.3685H159.099V85.6725H156.955V74.0725ZM161.035 75.5445C160.352 75.5658 159.862 75.8592 159.563 76.4245C159.264 76.9685 159.115 77.5498 159.115 78.1685C159.104 78.7872 159.248 79.3738 159.547 79.9285C159.696 80.1845 159.888 80.3978 160.123 80.5685C160.358 80.7498 160.651 80.8405 161.003 80.8405C161.355 80.8405 161.654 80.7498 161.899 80.5685C162.134 80.3978 162.315 80.1845 162.443 79.9285C162.582 79.6512 162.683 79.3578 162.747 79.0485C162.79 78.7392 162.811 78.4458 162.811 78.1685C162.811 77.5712 162.694 76.9898 162.459 76.4245C162.331 76.1578 162.15 75.9445 161.915 75.7845C161.68 75.6245 161.387 75.5445 161.035 75.5445ZM166.208 78.2485C166.219 76.8725 166.635 75.8005 167.456 75.0325C168.256 74.2752 169.275 73.8912 170.512 73.8805C171.771 73.8912 172.8 74.2752 173.6 75.0325C174.411 75.8005 174.822 76.8725 174.832 78.2485C174.832 79.4538 174.459 80.4565 173.712 81.2565C172.966 82.0672 171.899 82.4832 170.512 82.5045C169.147 82.4832 168.091 82.0672 167.344 81.2565C166.587 80.4565 166.208 79.4538 166.208 78.2485ZM168.448 77.9925C168.448 78.1525 168.459 78.3125 168.48 78.4725C168.502 78.6538 168.528 78.8245 168.56 78.9845C168.624 79.3258 168.731 79.6352 168.88 79.9125C169.04 80.1898 169.254 80.4085 169.52 80.5685C169.776 80.7498 170.107 80.8405 170.512 80.8405C170.928 80.8405 171.275 80.7552 171.552 80.5845C171.819 80.4245 172.032 80.2058 172.192 79.9285C172.352 79.6512 172.459 79.3418 172.512 79.0005C172.566 78.6698 172.592 78.3338 172.592 77.9925C172.592 77.3312 172.427 76.7605 172.096 76.2805C171.744 75.8005 171.216 75.5552 170.512 75.5445C169.83 75.5552 169.318 75.8058 168.976 76.2965C168.624 76.7765 168.448 77.3418 168.448 77.9925ZM176.518 74.0725H178.55V75.1925H178.582C179.264 74.3072 180.166 73.8698 181.286 73.8805C182.256 73.8912 182.971 74.1952 183.43 74.7925C183.867 75.3898 184.086 76.1632 184.086 77.1125V82.3125H181.942V77.9125C181.942 77.6458 181.936 77.3738 181.926 77.0965C181.915 76.8192 181.862 76.5685 181.766 76.3445C181.691 76.0992 181.558 75.9018 181.366 75.7525C181.163 75.6138 180.891 75.5445 180.55 75.5445C180.166 75.5445 179.856 75.6352 179.622 75.8165C179.387 75.9978 179.195 76.2272 179.046 76.5045C178.907 76.7818 178.811 77.0752 178.758 77.3845C178.694 77.7045 178.662 78.0032 178.662 78.2805V82.3125H176.518V74.0725ZM186.347 74.0725H188.491V82.3125H186.347V74.0725ZM186.347 70.5205H188.491V72.5685H186.347V70.5205ZM192.912 78.1685C192.901 78.7872 193.045 79.3738 193.344 79.9285C193.493 80.1845 193.685 80.3978 193.92 80.5685C194.155 80.7498 194.448 80.8405 194.8 80.8405C195.152 80.8405 195.451 80.7498 195.696 80.5685C195.931 80.3978 196.112 80.1845 196.24 79.9285C196.379 79.6512 196.48 79.3578 196.544 79.0485C196.587 78.7392 196.608 78.4458 196.608 78.1685C196.608 77.5712 196.491 76.9898 196.256 76.4245C196.128 76.1578 195.947 75.9445 195.712 75.7845C195.477 75.6245 195.184 75.5445 194.832 75.5445C194.149 75.5658 193.659 75.8592 193.36 76.4245C193.061 76.9685 192.912 77.5498 192.912 78.1685ZM190.752 70.3125H192.896V75.1285H192.928C193.483 74.3072 194.304 73.8912 195.392 73.8805C196.64 73.9018 197.536 74.3285 198.08 75.1605C198.603 75.9925 198.859 76.9952 198.848 78.1685C198.859 79.3312 198.603 80.3338 198.08 81.1765C197.536 82.0405 196.64 82.4832 195.392 82.5045C194.933 82.5045 194.48 82.4138 194.032 82.2325C193.584 82.0405 193.195 81.7312 192.864 81.3045H192.832V82.3125H190.752V70.3125ZM200.581 74.0725H202.725V82.3125H200.581V74.0725ZM200.581 70.5205H202.725V72.5685H200.581V70.5205ZM205.034 70.3125H207.178V82.3125H205.034V70.3125ZM209.488 74.0725H211.632V82.3125H209.488V74.0725ZM209.488 70.5205H211.632V72.5685H209.488V70.5205ZM214.597 75.6405H213.013V74.0725H214.597V72.4245L216.741 71.7365V74.0725H218.645V75.6405H216.741V79.4805C216.73 79.8432 216.799 80.1525 216.949 80.4085C217.087 80.6858 217.354 80.8298 217.749 80.8405C218.154 80.8405 218.479 80.7658 218.725 80.6165L218.789 82.3125C218.362 82.4405 217.834 82.5045 217.205 82.5045C215.477 82.4618 214.607 81.5712 214.597 79.8325V75.6405ZM220.479 74.5045C221.397 74.0992 222.351 73.8912 223.343 73.8805C225.743 73.8485 226.927 75.0058 226.895 77.3525V78.4085C226.895 79.2085 226.906 79.8965 226.927 80.4725C226.949 81.0805 226.981 81.6938 227.023 82.3125H225.135C225.071 81.8112 225.039 81.4005 225.039 81.0805H225.007C224.751 81.5285 224.394 81.8752 223.935 82.1205C223.466 82.3765 222.975 82.5045 222.463 82.5045C221.717 82.4938 221.061 82.2805 220.495 81.8645C219.898 81.4485 219.594 80.8458 219.583 80.0565C219.583 79.4378 219.722 78.9365 219.999 78.5525C220.255 78.1685 220.586 77.8858 220.991 77.7045C221.418 77.5018 221.871 77.3685 222.351 77.3045C222.842 77.2512 223.311 77.2245 223.759 77.2245H224.943C224.943 76.5632 224.794 76.0992 224.495 75.8325C224.197 75.5765 223.727 75.4485 223.087 75.4485C222.149 75.4592 221.301 75.7578 220.543 76.3445L220.479 74.5045ZM221.631 79.9285C221.631 80.2698 221.765 80.5205 222.031 80.6805C222.277 80.8512 222.597 80.9365 222.991 80.9365C223.653 80.9258 224.154 80.6805 224.495 80.2005C224.805 79.7205 224.954 79.1552 224.943 78.5045H224.015C223.898 78.5045 223.775 78.5045 223.647 78.5045C223.519 78.5045 223.391 78.5152 223.263 78.5365C222.986 78.5685 222.725 78.6325 222.479 78.7285C222.234 78.8245 222.037 78.9685 221.887 79.1605C221.717 79.3525 221.631 79.6085 221.631 79.9285ZM224.543 72.9525H223.215L221.023 70.6165H223.215L224.543 72.9525Z" fill="white"/>
<path d="M77.7005 163.116H80.1805V177.076H77.3805V166.296L75.0205 168.216L73.6205 166.396L77.7005 163.116Z" fill="white"/>
<path d="M209.018 175.622C209.978 176.035 211.012 176.248 212.118 176.262C212.425 176.262 212.752 176.222 213.098 176.142C213.418 176.062 213.732 175.948 214.038 175.802C214.345 175.642 214.592 175.428 214.778 175.162C214.965 174.922 215.058 174.628 215.058 174.282C215.045 173.468 214.758 172.895 214.198 172.562C213.638 172.255 212.898 172.102 211.978 172.102H210.618V169.902H211.898C212.858 169.902 213.612 169.742 214.158 169.422C214.705 169.115 214.985 168.662 214.998 168.062C214.998 167.702 214.938 167.402 214.818 167.162C214.685 166.922 214.505 166.735 214.278 166.602C213.825 166.348 213.265 166.222 212.598 166.222C211.492 166.222 210.445 166.468 209.458 166.962L209.298 164.722C210.445 164.268 211.745 164.035 213.198 164.022C213.652 164.022 214.138 164.062 214.658 164.142C215.192 164.235 215.692 164.415 216.158 164.682C216.638 164.935 217.032 165.295 217.338 165.762C217.632 166.228 217.785 166.842 217.798 167.602C217.785 168.535 217.538 169.255 217.058 169.762C216.565 170.282 215.945 170.675 215.198 170.942V170.982C216.092 171.115 216.758 171.482 217.198 172.082C217.638 172.682 217.858 173.422 217.858 174.302C217.845 175.115 217.685 175.795 217.378 176.342C217.045 176.875 216.612 177.302 216.078 177.622C215.812 177.755 215.538 177.875 215.258 177.982C214.965 178.088 214.665 178.182 214.358 178.262C213.732 178.395 213.118 178.462 212.518 178.462C211.212 178.462 209.992 178.308 208.858 178.002L209.018 175.622Z" fill="white"/>
<path d="M139.147 123.076V120.736C139.507 120.403 140.014 119.93 140.667 119.316C141.32 118.73 141.987 118.063 142.667 117.316C143.374 116.556 143.967 115.803 144.447 115.056C144.927 114.31 145.174 113.61 145.187 112.956C145.174 112.316 144.94 111.836 144.487 111.516C144.047 111.223 143.52 111.076 142.907 111.076C142.32 111.076 141.754 111.183 141.207 111.396C140.66 111.623 140.154 111.89 139.687 112.196L139.467 109.876C140.774 109.223 142.154 108.89 143.607 108.876C146.46 108.876 147.92 110.236 147.987 112.956C147.974 113.69 147.814 114.41 147.507 115.116C147.187 115.823 146.76 116.51 146.227 117.176C145.107 118.523 143.94 119.756 142.727 120.876H148.427V123.076H139.147Z" fill="white"/>
<g clip-path="url(#clip0_7045_2273)">
<path d="M184.037 146.559L176.156 151.034L169.586 161.01C175.75 167.174 179.563 175.69 179.563 185.096C179.563 193.106 176.798 200.47 172.171 206.286C170.786 208.027 170.936 210.532 172.51 212.106L180.799 220.395C182.619 222.215 185.608 222.085 187.263 220.114C195.213 210.643 200 198.429 200 185.096C200 170.046 193.9 156.421 184.037 146.559Z" fill="#FF1A1A"/>
<path d="M111.438 185.096C111.438 175.69 115.25 167.174 121.414 161.01L114.844 151.034L106.963 146.559C97.1002 156.421 91 170.046 91 185.096C91 198.429 95.7875 210.643 103.737 220.114C105.392 222.085 108.381 222.215 110.201 220.395L118.49 212.106C120.064 210.532 120.214 208.027 118.829 206.286C114.202 200.47 111.438 193.106 111.438 185.096Z" fill="#46FB61"/>
<path d="M145.5 151.033C154.906 151.033 163.422 154.846 169.586 161.01L184.037 146.558C174.175 136.696 160.55 130.596 145.5 130.596C130.45 130.596 116.825 136.696 106.963 146.558L121.414 161.01C127.578 154.846 136.094 151.033 145.5 151.033Z" fill="#FFF082"/>
<path d="M135.815 189.389L141.092 192.872L145.5 176.421L139.189 176.8C136.247 176.977 133.297 176.678 130.451 175.915L110.072 170.455C107.346 169.724 104.544 171.342 103.814 174.068C103.083 176.793 104.701 179.595 107.427 180.325L127.806 185.786C130.652 186.548 133.357 187.765 135.815 189.389Z" fill="#005147"/>
<path d="M145.5 195.314C151.144 195.314 155.719 190.739 155.719 185.096C155.719 179.452 151.144 174.877 145.5 174.877C139.856 174.877 135.281 179.452 135.281 185.096C135.281 190.739 139.856 195.314 145.5 195.314Z" fill="#005147"/>
</g>
<defs>
<filter id="filter0_d_7045_2273" x="0.767578" y="0.710938" width="286.232" height="286.232" filterUnits="userSpaceOnUse" color-interpolation-filters="sRGB">
<feFlood flood-opacity="0" result="BackgroundImageFix"/>
<feColorMatrix in="SourceAlpha" type="matrix" values="0 0 0 0 0 0 0 0 0 0 0 0 0 0 0 0 0 0 127 0" result="hardAlpha"/>
<feOffset dy="4"/>
<feGaussianBlur stdDeviation="10"/>
<feComposite in2="hardAlpha" operator="out"/>
<feColorMatrix type="matrix" values="0 0 0 0 0 0 0 0 0 0 0 0 0 0 0 0 0 0 0.1 0"/>
<feBlend mode="normal" in2="BackgroundImageFix" result="effect1_dropShadow_7045_2273"/>
<feBlend mode="normal" in="SourceGraphic" in2="effect1_dropShadow_7045_2273" result="shape"/>
</filter>
<clipPath id="clip0_7045_2273">
<rect width="109" height="109" fill="white" transform="translate(91 127.076)"/>
</clipPath>
</defs>
</svg>
