<svg width="20" height="20" viewBox="0 0 20 20" fill="none" xmlns="http://www.w3.org/2000/svg">
<path d="M6.76664 7.74167L9.99997 10.975L13.2333 7.74167C13.3105 7.66452 13.402 7.60332 13.5028 7.56157C13.6037 7.51981 13.7117 7.49832 13.8208 7.49832C13.9299 7.49832 14.038 7.51981 14.1388 7.56157C14.2396 7.60332 14.3312 7.66452 14.4083 7.74167C14.4855 7.81882 14.5467 7.91042 14.5884 8.01122C14.6302 8.11202 14.6517 8.22006 14.6517 8.32917C14.6517 8.43828 14.6302 8.54632 14.5884 8.64713C14.5467 8.74793 14.4855 8.83952 14.4083 8.91667L10.5833 12.7417C10.5062 12.8189 10.4146 12.8802 10.3138 12.922C10.213 12.9639 10.1049 12.9854 9.9958 12.9854C9.88666 12.9854 9.77859 12.9639 9.67778 12.922C9.57697 12.8802 9.4854 12.8189 9.4083 12.7417L5.5833 8.91667C5.50605 8.83958 5.44476 8.748 5.40294 8.64719C5.36112 8.54638 5.3396 8.43831 5.3396 8.32917C5.3396 8.22003 5.36112 8.11196 5.40294 8.01115C5.44476 7.91034 5.50605 7.81877 5.5833 7.74167C5.9083 7.42501 6.44164 7.41667 6.76664 7.74167Z" fill="#003D4C"/>
</svg>
