<svg width="77" height="103" viewBox="0 0 77 103" fill="none" xmlns="http://www.w3.org/2000/svg">
<g clip-path="url(#clip0_987_532)">
<path d="M12.7492 9.8676H35.0604V27.3978C35.0604 35.3263 41.4749 41.7407 49.4033 41.7407H66.9335V89.5504C66.9335 91.3034 65.4993 92.7377 63.7462 92.7377H12.7492C10.9962 92.7377 9.56194 91.3034 9.56194 89.5504V13.0549C9.56194 11.3019 10.9962 9.8676 12.7492 9.8676ZM44.6224 13.8318L62.9693 32.1788H49.4033C46.7539 32.1788 44.6224 30.0473 44.6224 27.3978V13.8318ZM12.7492 0.305664C5.71724 0.305664 0 6.0229 0 13.0549V89.5504C0 96.5824 5.71724 102.3 12.7492 102.3H63.7462C70.7782 102.3 76.4955 96.5824 76.4955 89.5504V37.4578C76.4955 34.0713 75.1608 30.8242 72.7703 28.4337L48.3475 4.03083C45.9571 1.64035 42.7299 0.305664 39.3434 0.305664H12.7492ZM23.9048 51.3027C21.2554 51.3027 19.1239 53.4342 19.1239 56.0836C19.1239 58.7331 21.2554 60.8646 23.9048 60.8646H52.5906C55.2401 60.8646 57.3716 58.7331 57.3716 56.0836C57.3716 53.4342 55.2401 51.3027 52.5906 51.3027H23.9048ZM23.9048 70.4265C21.2554 70.4265 19.1239 72.558 19.1239 75.2075C19.1239 77.8569 21.2554 79.9885 23.9048 79.9885H52.5906C55.2401 79.9885 57.3716 77.8569 57.3716 75.2075C57.3716 72.558 55.2401 70.4265 52.5906 70.4265H23.9048Z" fill="white" fill-opacity="0.3"/>
</g>
<defs>
<clipPath id="clip0_987_532">
<rect width="76.4955" height="101.994" fill="white" transform="translate(0 0.305664)"/>
</clipPath>
</defs>
</svg>
