<svg width="24" height="25" viewBox="0 0 24 25" fill="none" xmlns="http://www.w3.org/2000/svg">
<g id="Group 66">
<path id="Vector" d="M22.9941 12.4077C22.9941 18.4828 18.0693 23.4077 11.9941 23.4077C5.91902 23.4077 0.994146 18.4828 0.99414 12.4077C0.99414 6.33259 5.91902 1.40772 11.9941 1.40771C18.0693 1.40771 22.9941 6.33259 22.9941 12.4077Z" fill="#D80027" stroke="white" stroke-width="2"/>
<path id="Vector_2" d="M11.9951 22.408C16.2947 22.408 19.9601 19.6942 21.373 15.8862L2.61701 15.8862C4.02998 19.6942 7.69541 22.408 11.9951 22.408Z" fill="#F1EA29"/>
<path id="Vector_3" d="M11.995 2.40771C7.69541 2.40771 4.02998 5.12146 2.61705 8.92946L21.373 8.92947C19.9601 5.12146 16.2947 2.40771 11.995 2.40771Z" fill="black"/>
</g>
</svg>
