<svg width="25" height="25" viewBox="0 0 25 25" fill="none" xmlns="http://www.w3.org/2000/svg">
<g id="Group 67">
<path id="Vector" d="M23.7148 12.6538C23.7148 18.7289 18.79 23.6538 12.7148 23.6538C6.63973 23.6538 1.71485 18.7289 1.71484 12.6538C1.71484 6.57869 6.63972 1.65381 12.7148 1.65381C18.79 1.65381 23.7148 6.57868 23.7148 12.6538Z" fill="white" stroke="white" stroke-width="2"/>
<path id="Vector_2" d="M12.7158 22.6541C17.0154 22.6541 20.6808 19.9403 22.0938 16.1323L3.33772 16.1323C4.75068 19.9403 8.41611 22.6541 12.7158 22.6541Z" fill="#D80027"/>
<path id="Vector_3" d="M12.7158 2.65381C8.41611 2.65381 4.75068 5.36755 3.33775 9.17556L22.0937 9.17556C20.6808 5.36756 17.0154 2.65381 12.7158 2.65381Z" fill="#D80027"/>
</g>
</svg>
