<svg width="215" height="68" viewBox="0 0 215 68" fill="none" xmlns="http://www.w3.org/2000/svg">
<path d="M100.929 0H89.3006V43.7737H100.929V0Z" fill="#2A7F67"/>
<path d="M64.2556 0L0.361267 43.7737H15.5134L32.9735 32.3039H66.1143V43.7737H77.0291V0H64.2556ZM44.179 24.9393L66.1143 8.32485V24.9393H44.179Z" fill="#2A7F67"/>
<path d="M153.653 0H144.659V18.8168L121.49 0H111.482V43.7737H121.49V9.06483L141.796 26.0845H153.653V13.0467L194.475 43.7737H212.543L153.653 0Z" fill="#2A7F67"/>
<path d="M4.67777 55.835H6.43083L11.0998 67.7805H9.33792L8.03414 64.1862H2.97756L1.63854 67.7805H0L4.66896 55.835H4.67777ZM3.48851 62.8472H7.54082L5.5499 57.2709H5.51466L3.48851 62.8472Z" fill="#2A7F67"/>
<path d="M11.3376 66.6971L16.5616 60.3896H11.6724V59.1387H18.4028V60.1077L13.1171 66.5297H18.6406V67.7807H11.3465V66.6971H11.3376Z" fill="#2A7F67"/>
<path d="M21.583 57.5714H20.1646V55.8271H21.583V57.5714ZM20.1646 59.1307H21.583V67.7815H20.1646V59.1307Z" fill="#2A7F67"/>
<path d="M31.1764 65.0405C30.7887 66.9521 29.4233 67.9828 27.4764 67.9828C24.7191 67.9828 23.4065 66.0711 23.3272 63.4283C23.3272 60.8384 25.0362 58.9268 27.3971 58.9268C30.4628 58.9268 31.3966 61.7898 31.3173 63.8776H24.8424C24.7896 65.384 25.6441 66.723 27.5381 66.723C28.7097 66.723 29.529 66.1504 29.7845 65.0316H31.194L31.1764 65.0405ZM29.8021 62.6267C29.7316 61.27 28.7185 60.1865 27.309 60.1865C25.8203 60.1865 24.9305 61.3053 24.8336 62.6267H29.8021Z" fill="#2A7F67"/>
<path d="M32.7796 59.1294H34.1187V60.5036H34.1539C34.7529 59.4289 35.7308 58.9268 36.9641 58.9268C39.2369 58.9268 39.9416 60.2305 39.9416 62.0893V67.7802H38.5233V61.9219C38.5233 60.8648 37.8538 60.1777 36.7703 60.1777C35.0436 60.1777 34.2067 61.3317 34.2067 62.891V67.7802H32.7884V59.1294H32.7796Z" fill="#2A7F67"/>
<path d="M49.817 67.7805H48.3987V66.6088H48.3634C47.8965 67.5602 46.7866 67.9831 45.6061 67.9831C42.9457 67.9831 41.6243 65.8776 41.6243 63.4286C41.6243 60.9796 42.9281 58.927 45.5709 58.927C46.4606 58.927 47.7292 59.2618 48.3634 60.2837H48.3987V55.835H49.817V67.7805ZM45.7999 66.7321C47.7115 66.7321 48.4427 65.0936 48.4427 63.4727C48.4427 61.7637 47.6763 60.1956 45.7118 60.1956C43.7473 60.1956 43.1219 61.8518 43.1219 63.5432C43.1219 65.2346 43.9588 66.7409 45.7999 66.7409V66.7321Z" fill="#2A7F67"/>
<path d="M59.3927 65.0405C59.0051 66.9521 57.6308 67.9828 55.6928 67.9828C52.9355 67.9828 51.6229 66.0711 51.5436 63.4283C51.5436 60.8384 53.2526 58.9268 55.6135 58.9268C58.6792 58.9268 59.613 61.7898 59.5337 63.8776H53.0588C53.0059 65.384 53.8604 66.723 55.7545 66.723C56.9261 66.723 57.7454 66.1504 58.0008 65.0316H59.4103L59.3927 65.0405ZM58.0185 62.6267C57.948 61.27 56.9349 60.1865 55.5254 60.1865C54.0366 60.1865 53.1469 61.3053 53.05 62.6267H58.0185Z" fill="#2A7F67"/>
<path d="M65.9556 55.835H67.5413V67.7805H65.9556V55.835Z" fill="#2A7F67"/>
<path d="M69.9904 59.1294H71.3294V60.5036H71.3647C71.9637 59.4289 72.9416 58.9268 74.1749 58.9268C76.4477 58.9268 77.1524 60.2305 77.1524 62.0893V67.7802H75.7341V61.9219C75.7341 60.8648 75.0646 60.1777 73.9811 60.1777C72.2544 60.1777 71.4175 61.3317 71.4175 62.891V67.7802H69.9992V59.1294H69.9904Z" fill="#2A7F67"/>
<path d="M87.0277 67.7805H85.6094V66.6088H85.5741C85.1072 67.5602 83.9972 67.9831 82.8168 67.9831C80.1564 67.9831 78.835 65.8776 78.835 63.4286C78.835 60.9796 80.1387 58.927 82.7816 58.927C83.6713 58.927 84.9399 59.2618 85.5741 60.2837H85.6094V55.835H87.0277V67.7805ZM83.0106 66.7321C84.9222 66.7321 85.6534 65.0936 85.6534 63.4727C85.6534 61.7637 84.887 60.1956 82.9225 60.1956C80.958 60.1956 80.3325 61.8518 80.3325 63.5432C80.3325 65.2346 81.1694 66.7409 83.0106 66.7409V66.7321Z" fill="#2A7F67"/>
<path d="M96.3833 67.7797H95.0443V66.4054H95.0091C94.41 67.4802 93.4322 67.9823 92.1989 67.9823C89.9261 67.9823 89.2213 66.6785 89.2213 64.8198V59.1289H90.6396V64.9871C90.6396 66.0443 91.3091 66.7314 92.3927 66.7314C94.1193 66.7314 94.9562 65.5774 94.9562 64.0181V59.1289H96.3745V67.7797H96.3833Z" fill="#2A7F67"/>
<path d="M99.3961 65.058C99.4489 66.3266 100.55 66.7318 101.722 66.7318C102.612 66.7318 103.81 66.5292 103.81 65.4456C103.81 64.3621 102.4 64.1595 100.982 63.8423C99.5723 63.5252 98.154 63.0583 98.154 61.4021C98.154 59.6579 99.8806 58.9443 101.387 58.9443C103.299 58.9443 104.814 59.5434 104.937 61.6576H103.519C103.422 60.5565 102.444 60.2041 101.51 60.2041C100.656 60.2041 99.6692 60.4419 99.6692 61.3052C99.6692 62.3271 101.176 62.4945 102.497 62.8116C103.915 63.1288 105.325 63.5957 105.325 65.2695C105.325 67.3308 103.404 68.0004 101.642 68.0004C99.7044 68.0004 98.0571 67.2163 97.9778 65.0757H99.3961V65.058Z" fill="#2A7F67"/>
<path d="M108.866 59.13H110.593V60.381H108.866V65.7547C108.866 66.4066 109.051 66.5211 109.941 66.5211H110.593V67.772H109.5C108.029 67.772 107.439 67.4725 107.439 65.878V60.3722H105.968V59.1212H107.439V56.5225H108.866V59.1212V59.13Z" fill="#2A7F67"/>
<path d="M112.117 59.1293H113.456V60.9528H113.491C114.178 59.5609 115.13 58.8738 116.671 58.9267V60.4331C114.381 60.4331 113.544 61.7368 113.544 63.9304V67.7801H112.126V59.1293H112.117Z" fill="#2A7F67"/>
<path d="M119.244 57.5714H117.816V55.8271H119.244V57.5714ZM117.825 59.1307H119.252V67.7815H117.825V59.1307Z" fill="#2A7F67"/>
<path d="M129.119 67.7439C128.863 67.8937 128.546 67.9818 128.097 67.9818C127.357 67.9818 126.89 67.5766 126.89 66.6428C126.106 67.5589 125.049 67.9818 123.842 67.9818C122.265 67.9818 120.979 67.277 120.979 65.5592C120.979 63.6035 122.433 63.1807 123.913 62.8988C125.489 62.5993 126.82 62.6962 126.82 61.6302C126.82 60.3881 125.798 60.1943 124.899 60.1943C123.692 60.1943 122.811 60.5643 122.741 61.8329H121.314C121.402 59.6922 123.058 58.9346 124.978 58.9346C126.538 58.9346 128.229 59.2869 128.229 61.3131V65.7618C128.229 66.4313 128.229 66.7309 128.678 66.7309C128.793 66.7309 128.934 66.7132 129.11 66.6516V67.7527L129.119 67.7439ZM126.811 63.3128C126.256 63.7181 125.19 63.7269 124.23 63.903C123.296 64.0704 122.485 64.4052 122.485 65.4623C122.485 66.3961 123.287 66.7309 124.159 66.7309C126.036 66.7309 126.802 65.5592 126.802 64.7752V63.3216L126.811 63.3128Z" fill="#2A7F67"/>
<path d="M130.528 55.835H131.955V67.7805H130.528V55.835Z" fill="#2A7F67"/>
<path d="M135.664 57.5714H134.237V55.8271H135.664V57.5714ZM134.246 59.1307H135.673V67.7815H134.246V59.1307Z" fill="#2A7F67"/>
<path d="M142.791 55.835H144.967L148.728 65.8776L152.508 55.835H154.684V67.7805H153.177V57.8435H153.142L149.407 67.7805H148.05L144.315 57.8435H144.28V67.7805H142.773V55.835H142.791Z" fill="#2A7F67"/>
<path d="M164.488 65.0405C164.101 66.9521 162.727 67.9828 160.788 67.9828C158.031 67.9828 156.719 66.0711 156.639 63.4283C156.639 60.8384 158.348 58.9268 160.709 58.9268C163.775 58.9268 164.709 61.7898 164.629 63.8776H158.154C158.102 65.384 158.956 66.723 160.85 66.723C162.022 66.723 162.841 66.1504 163.097 65.0316H164.506L164.488 65.0405ZM163.114 62.6267C163.044 61.27 162.022 60.1865 160.621 60.1865C159.132 60.1865 158.243 61.3053 158.146 62.6267H163.114Z" fill="#2A7F67"/>
<path d="M166.092 59.1294H167.431V60.5036H167.466C168.065 59.4289 169.043 58.9268 170.276 58.9268C172.549 58.9268 173.254 60.2305 173.254 62.0893V67.7802H171.827V61.9219C171.827 60.8648 171.157 60.1777 170.074 60.1777C168.347 60.1777 167.51 61.3317 167.51 62.891V67.7802H166.083V59.1294H166.092Z" fill="#2A7F67"/>
<path d="M183.129 67.7805H181.711V66.6088H181.675C181.209 67.5602 180.099 67.9831 178.918 67.9831C176.258 67.9831 174.936 65.8776 174.936 63.4286C174.936 60.9796 176.24 58.927 178.883 58.927C179.773 58.927 181.041 59.2618 181.675 60.2837H181.711V55.835H183.129V67.7805ZM179.112 66.7321C181.024 66.7321 181.755 65.0936 181.755 63.4727C181.755 61.7637 180.988 60.1956 179.024 60.1956C177.059 60.1956 176.434 61.8518 176.434 63.5432C176.434 65.2346 177.271 66.7409 179.112 66.7409V66.7321Z" fill="#2A7F67"/>
<path d="M185.279 59.1293H186.618V60.9528H186.653C187.34 59.5609 188.291 58.8738 189.833 58.9267V60.4331C187.543 60.4331 186.706 61.7368 186.706 63.9304V67.7801H185.287V59.1293H185.279Z" fill="#2A7F67"/>
<path d="M192.405 57.5714H190.978V55.8271H192.405V57.5714ZM190.987 59.1307H192.414V67.7815H190.987V59.1307Z" fill="#2A7F67"/>
<path d="M195.489 65.058C195.541 66.3266 196.643 66.7318 197.814 66.7318C198.704 66.7318 199.902 66.5292 199.902 65.4456C199.902 64.3621 198.493 64.1595 197.074 63.8423C195.665 63.5252 194.246 63.0583 194.246 61.4021C194.246 59.6579 195.973 58.9443 197.479 58.9443C199.391 58.9443 200.906 59.5434 201.03 61.6576H199.603C199.506 60.5565 198.528 60.2041 197.594 60.2041C196.74 60.2041 195.753 60.4419 195.753 61.3052C195.753 62.3271 197.259 62.4945 198.581 62.8116C200.008 63.1288 201.408 63.5957 201.408 65.2695C201.408 67.3308 199.488 68.0004 197.726 68.0004C195.788 68.0004 194.141 67.2163 194.061 65.0757H195.489V65.058Z" fill="#2A7F67"/>
<path d="M204.492 57.5714H203.065V55.8271H204.492V57.5714ZM203.065 59.1307H204.492V67.7815H203.065V59.1307Z" fill="#2A7F67"/>
<path d="M210.429 58.9268C213.178 58.9268 214.631 60.9177 214.631 63.4636C214.631 66.0095 213.178 67.9828 210.429 67.9828C207.681 67.9828 206.227 65.9919 206.227 63.4636C206.227 60.9353 207.681 58.9268 210.429 58.9268ZM210.429 66.7318C211.918 66.7318 213.125 65.5602 213.125 63.4724C213.125 61.3846 211.918 60.1953 210.429 60.1953C208.94 60.1953 207.734 61.3669 207.734 63.4724C207.734 65.5778 208.94 66.7318 210.429 66.7318Z" fill="#2A7F67"/>
</svg>
