<svg width="16" height="17" viewBox="0 0 16 17" fill="none" xmlns="http://www.w3.org/2000/svg">
<path d="M0 8.5C0 6.37827 0.842855 4.34344 2.34315 2.84315C3.84344 1.34285 5.87827 0.5 8 0.5C10.1217 0.5 12.1566 1.34285 13.6569 2.84315C15.1571 4.34344 16 6.37827 16 8.5C16 10.6217 15.1571 12.6566 13.6569 14.1569C12.1566 15.6571 10.1217 16.5 8 16.5C5.87827 16.5 3.84344 15.6571 2.34315 14.1569C0.842855 12.6566 0 10.6217 0 8.5ZM7.5 1.577C6.83 1.781 6.165 2.397 5.613 3.432C5.43123 3.77614 5.27481 4.13309 5.145 4.5H7.5V1.577ZM4.09 4.5C4.25684 3.96888 4.47103 3.45381 4.73 2.961C4.90404 2.63472 5.10367 2.32274 5.327 2.028C4.08815 2.54207 3.02221 3.39981 2.255 4.5H4.09ZM3.508 8C3.538 7.123 3.646 6.282 3.82 5.5H1.674C1.30205 6.28539 1.07959 7.13317 1.018 8H3.508ZM4.847 5.5C4.65032 6.3198 4.53707 7.1574 4.509 8H7.5V5.5H4.847ZM8.5 5.5V8H11.49C11.4623 7.15743 11.3493 6.31984 11.153 5.5H8.5ZM4.51 9C4.53774 9.84257 4.65065 10.6802 4.847 11.5H7.5V9H4.51ZM8.5 9V11.5H11.153C11.34 10.735 11.459 9.892 11.491 9H8.5ZM5.145 12.5C5.28367 12.8867 5.43967 13.2427 5.613 13.568C6.165 14.603 6.831 15.218 7.5 15.423V12.5H5.145ZM5.327 14.972C5.10367 14.6773 4.90404 14.3653 4.73 14.039C4.47103 13.5462 4.25684 13.0311 4.09 12.5H2.255C3.02097 13.6013 4.08728 14.4594 5.327 14.972ZM3.82 11.5C3.63943 10.678 3.53499 9.84115 3.508 9H1.018C1.08 9.89 1.309 10.733 1.674 11.5H3.82ZM10.673 14.972C11.9127 14.4594 12.979 13.6013 13.745 12.5H11.91C11.7432 13.0311 11.529 13.5462 11.27 14.039C11.096 14.3653 10.8963 14.6773 10.673 14.972ZM8.5 12.5V15.423C9.17 15.219 9.835 14.603 10.387 13.568C10.5603 13.2433 10.7163 12.8873 10.855 12.5H8.5ZM12.18 11.5H14.326C14.691 10.733 14.92 9.89 14.982 9H12.492C12.465 9.84115 12.3606 10.678 12.18 11.5ZM14.982 8C14.9204 7.13317 14.698 6.28539 14.326 5.5H12.18C12.354 6.282 12.462 7.123 12.492 8H14.982ZM11.27 2.961C11.517 3.425 11.732 3.941 11.91 4.5H13.745C12.979 3.39866 11.9127 2.54061 10.673 2.028C10.891 2.312 11.091 2.626 11.27 2.961ZM10.855 4.5C10.7252 4.13309 10.5688 3.77614 10.387 3.432C9.835 2.397 9.17 1.782 8.5 1.577V4.5H10.855Z" fill="black"/>
</svg>
