<svg width="135" height="46" viewBox="0 0 135 46" fill="none" xmlns="http://www.w3.org/2000/svg">
<rect y="0.948242" width="135.009" height="45" rx="22.5" fill="black"/>
<path fill-rule="evenodd" clip-rule="evenodd" d="M59.5901 12.0813C59.5901 12.2493 59.6413 12.3933 59.7437 12.5133C59.8515 12.6273 59.9808 12.6843 60.1317 12.6843C60.2826 12.6843 60.412 12.6258 60.5198 12.5088C60.6276 12.3918 60.6815 12.2493 60.6815 12.0813C60.6815 11.9073 60.6276 11.7618 60.5198 11.6448C60.412 11.5277 60.2826 11.4692 60.1317 11.4692C59.9808 11.4692 59.8528 11.5292 59.7477 11.6493C59.6426 11.7693 59.5901 11.9133 59.5901 12.0813ZM48.7085 18.0487H49.3471V14.9255H46.6065V15.7175H48.5953C48.5845 15.8976 48.5454 16.0776 48.4781 16.2576C48.4107 16.4376 48.311 16.6161 48.179 16.7931C48.0469 16.9701 47.8637 17.1126 47.6292 17.2206C47.3948 17.3287 47.1266 17.3827 46.8248 17.3827C46.2751 17.3827 45.8048 17.1621 45.4141 16.7211C45.0233 16.2801 44.828 15.6575 44.828 14.8535C44.828 14.0554 45.0274 13.4374 45.4262 12.9993C45.825 12.5613 46.302 12.3423 46.8572 12.3423C47.2991 12.3423 47.6804 12.4698 48.0011 12.7248C48.3218 12.9798 48.5468 13.3384 48.6761 13.8004L49.3957 13.4584C49.2286 12.8763 48.9173 12.4098 48.4619 12.0588C48.0065 11.7078 47.4716 11.5322 46.8572 11.5322C46.3721 11.5322 45.918 11.6553 45.4949 11.9013C45.0718 12.1473 44.7202 12.5283 44.4399 13.0443C44.1597 13.5604 44.0195 14.1634 44.0195 14.8535C44.0195 15.5435 44.1529 16.1466 44.4197 16.6626C44.6865 17.1786 45.0274 17.5612 45.4424 17.8102C45.8574 18.0592 46.3101 18.1837 46.8006 18.1837C47.2479 18.1837 47.6306 18.0817 47.9485 17.8777C48.2665 17.6737 48.4956 17.4307 48.6357 17.1486L48.7085 18.0487ZM53.1064 15.4385H50.9802C50.9964 15.1385 51.1015 14.879 51.2955 14.66C51.4895 14.4409 51.7374 14.3314 52.0393 14.3314C52.3734 14.3314 52.6321 14.4349 52.8154 14.642C52.9986 14.849 53.0956 15.1145 53.1064 15.4385ZM53.2196 16.5636L53.8744 16.8156C53.7612 17.2176 53.551 17.5462 53.2438 17.8012C52.9366 18.0562 52.5647 18.1837 52.1282 18.1837C51.5838 18.1837 51.1217 17.9752 50.7417 17.5582C50.3617 17.1411 50.1718 16.5786 50.1718 15.8705C50.1718 15.2105 50.355 14.6645 50.7215 14.2324C51.088 13.8004 51.5245 13.5844 52.0312 13.5844C52.6186 13.5844 53.0768 13.7899 53.4055 14.2009C53.7343 14.612 53.8987 15.1625 53.8987 15.8525C53.8987 15.9606 53.8933 16.0506 53.8825 16.1226H50.9559C50.9613 16.5066 51.0759 16.8216 51.2995 17.0676C51.5232 17.3137 51.7994 17.4367 52.1282 17.4367C52.6833 17.4367 53.0471 17.1456 53.2196 16.5636ZM55.8874 13.7194V12.3513H55.1922V13.0533C55.1922 13.2514 55.1423 13.4119 55.0426 13.5349C54.9429 13.6579 54.7933 13.7194 54.5939 13.7194H54.3837V14.4845H55.1275V16.8606C55.1275 17.2506 55.2245 17.5537 55.4185 17.7697C55.6126 17.9857 55.8766 18.0937 56.2108 18.0937C56.4264 18.0937 56.5989 18.0667 56.7282 18.0127V17.2926C56.642 17.3166 56.5423 17.3287 56.4291 17.3287C56.2351 17.3287 56.0963 17.2806 56.0127 17.1846C55.9292 17.0886 55.8874 16.9386 55.8874 16.7346V14.4845H56.7282V13.7194H55.8874ZM60.5117 18.0487H59.7599V13.7194H60.5117V18.0487ZM62.8238 12.3513V13.7194H63.6646V14.4845H62.8238V16.7346C62.8238 16.9386 62.8656 17.0886 62.9492 17.1846C63.0327 17.2806 63.1715 17.3287 63.3655 17.3287C63.4787 17.3287 63.5784 17.3166 63.6646 17.2926V18.0127C63.5353 18.0667 63.3628 18.0937 63.1472 18.0937C62.8131 18.0937 62.549 17.9857 62.3549 17.7697C62.1609 17.5537 62.0639 17.2506 62.0639 16.8606V14.4845H61.3201V13.7194H61.5303C61.7298 13.7194 61.8793 13.6579 61.979 13.5349C62.0787 13.4119 62.1286 13.2514 62.1286 13.0533V12.3513H62.8238ZM68.3617 17.4277C68.0221 17.4277 67.7338 17.2926 67.4966 17.0226C67.2649 16.7466 67.149 16.3656 67.149 15.8795C67.149 15.3995 67.2662 15.023 67.5007 14.75C67.7351 14.4769 68.0221 14.3404 68.3617 14.3404C68.7012 14.3404 68.9882 14.4769 69.2226 14.75C69.4571 15.023 69.5743 15.3995 69.5743 15.8795C69.5743 16.3656 69.4571 16.7451 69.2226 17.0181C68.9882 17.2911 68.7012 17.4277 68.3617 17.4277ZM66.9307 14.2414C67.308 13.8034 67.785 13.5844 68.3617 13.5844C68.9383 13.5844 69.414 13.8019 69.7886 14.2369C70.1631 14.672 70.3504 15.2195 70.3504 15.8795C70.3504 16.5456 70.1645 17.0961 69.7926 17.5312C69.4207 17.9662 68.9437 18.1837 68.3617 18.1837C67.7796 18.1837 67.3026 17.9662 66.9307 17.5312C66.5588 17.0961 66.3729 16.5456 66.3729 15.8795C66.3729 15.2195 66.5588 14.6735 66.9307 14.2414ZM72.0805 18.0487V15.5465C72.0805 15.2045 72.16 14.921 72.319 14.696C72.478 14.4709 72.7003 14.3584 72.9859 14.3584C73.5896 14.3584 73.8914 14.7215 73.8914 15.4475V18.0487H74.6513V15.3035C74.6513 14.7995 74.5314 14.3884 74.2916 14.0704C74.0517 13.7524 73.7081 13.5934 73.2608 13.5934C72.7218 13.5934 72.323 13.8424 72.0643 14.3404V13.7194H71.3205V18.0487H72.0805Z" fill="white"/>
<path fill-rule="evenodd" clip-rule="evenodd" d="M52.8916 28.179V33.3489H51.6369L51.5205 32.0528C51.1195 32.8017 50.1752 33.565 48.7135 33.565C46.3206 33.565 44.1992 31.6064 44.1992 28.2366C44.1992 24.8811 46.437 22.9226 48.817 22.9226C51.0419 22.9226 52.4647 24.3483 52.9562 26.0332L51.4946 26.6525C51.1841 25.5004 50.2787 24.5211 48.817 24.5211C47.3295 24.5211 45.7773 25.702 45.7773 28.2366C45.7773 30.728 47.226 31.9808 48.8041 31.9808C50.6538 31.9808 51.3523 30.5695 51.4299 29.6911H48.4031V28.179H52.8916ZM55.6467 29.8348C55.6467 31.2893 56.4875 32.0669 57.4059 32.0669C58.3372 32.0669 59.1651 31.3037 59.1651 29.8348C59.1651 28.3803 58.3372 27.6314 57.4059 27.6314C56.4875 27.6314 55.6467 28.3803 55.6467 29.8348ZM57.4059 26.1194C55.5303 26.1194 54.1463 27.6891 54.1463 29.8349C54.1463 31.995 55.5303 33.5647 57.4059 33.5647C59.2944 33.5647 60.6785 31.995 60.6785 29.8349C60.6785 27.6891 59.2944 26.1194 57.4059 26.1194ZM63.1361 29.8348C63.1361 31.2893 63.9769 32.0669 64.8953 32.0669C65.8266 32.0669 66.6545 31.3037 66.6545 29.8348C66.6545 28.3803 65.8266 27.6314 64.8953 27.6314C63.9769 27.6314 63.1361 28.3803 63.1361 29.8348ZM64.8953 26.1194C63.0197 26.1194 61.6357 27.6891 61.6357 29.8349C61.6357 31.995 63.0197 33.5647 64.8953 33.5647C66.7838 33.5647 68.1679 31.995 68.1679 29.8349C68.1679 27.6891 66.7838 26.1194 64.8953 26.1194ZM72.1648 36.3009C70.4962 36.3009 69.332 35.1488 69.1638 33.7375L70.5479 33.3343C70.6514 34.1984 71.2593 34.8464 72.126 34.8464C73.316 34.8464 73.911 34.1696 73.911 32.7439V32.0094C73.6394 32.5567 73.0056 33.0319 72.0872 33.0319C70.4056 33.0319 69.1768 31.5918 69.1768 29.6188C69.1768 27.7467 70.3539 26.2058 72.0872 26.2058C73.0702 26.2058 73.6782 26.6522 73.9498 27.2283V26.3354H75.3985V32.6863C75.3985 34.5584 74.5319 36.3009 72.1648 36.3009ZM72.3329 31.6061C71.3499 31.6061 70.6902 30.8428 70.6902 29.6187C70.6902 28.4235 71.3757 27.6458 72.3329 27.6458C73.2643 27.6458 73.9498 28.4235 73.9498 29.6187C73.9498 30.8284 73.2901 31.6061 72.3329 31.6061ZM78.7358 22.9226V33.3489H77.2353V22.9226H78.7358ZM81.7238 29.0715C81.7755 28.3227 82.3188 27.5162 83.263 27.5162C84.2978 27.5162 84.7894 28.2507 84.8152 29.0715H81.7238ZM83.4053 32.1246C84.3108 32.1246 84.7764 31.5918 84.9834 30.9005L86.251 31.347C85.9147 32.5711 84.9187 33.5647 83.4053 33.5647C81.6979 33.5647 80.1845 32.1822 80.1845 29.8061C80.1845 27.5883 81.6591 26.1194 83.2501 26.1194C85.1904 26.1194 86.3286 27.5451 86.3286 29.7629C86.3286 30.0365 86.3028 30.2669 86.2898 30.2957H81.685C81.7238 31.3614 82.474 32.1246 83.4053 32.1246ZM92.6539 27.8334V24.6651H94.2708C95.2538 24.6651 95.8488 25.2844 95.8488 26.2636C95.8488 27.2285 95.2538 27.8334 94.2708 27.8334H92.6539ZM97.4269 26.2492C97.4269 28.0494 96.2628 29.3599 94.5036 29.3599H92.6539V33.3489H91.1017V23.1386H94.5036C96.2628 23.1386 97.4269 24.4635 97.4269 26.2492ZM100.26 33.3489V22.9226H98.7592V33.3489H100.26ZM103.946 33.5647C102.627 33.5647 101.812 32.5567 101.812 31.4478C101.812 30.1949 102.64 29.5036 103.713 29.3308L105.33 29.0572C105.692 28.9996 105.796 28.798 105.796 28.5532C105.796 27.9627 105.434 27.4875 104.606 27.4875C103.817 27.4875 103.377 28.0491 103.312 28.7548L101.941 28.4092C102.058 27.1995 103.041 26.1194 104.593 26.1194C106.533 26.1194 107.27 27.3435 107.27 28.7404L107.272 32.3793C107.278 32.7274 107.302 32.9983 107.322 33.1663L107.348 33.3487H105.951C105.938 33.3055 105.886 33.0175 105.886 32.4559C105.589 32.9887 104.968 33.5647 103.946 33.5647ZM104.231 32.254C103.636 32.254 103.312 31.8219 103.312 31.3467C103.312 30.7707 103.687 30.4826 104.153 30.3962L105.796 30.1226V30.4394C105.796 31.8075 105.072 32.254 104.231 32.254ZM109.392 36.1857H110.996L115.006 26.3354H113.415L111.72 30.7709L109.909 26.3354H108.215L110.905 32.5134L109.392 36.1857Z" fill="white"/>
<path d="M16.2464 13.6648C16.2009 13.8454 16.1689 14.0391 16.1689 14.2612V32.5442C16.1689 32.7632 16.1997 32.956 16.2443 33.1342L25.4018 23.4125L16.2464 13.6648Z" fill="#48A0DC"/>
<path d="M18.2838 12.9547C17.8576 12.6635 17.4373 12.5906 17.0825 12.6911L26.2783 22.4827L28.9757 19.6195L18.2838 12.9547Z" fill="#88C057"/>
<path d="M32.9177 22.0762L30.0635 20.2971L27.1406 23.4003L30.1184 26.5717L32.8956 24.8628C34.2501 23.9977 33.7554 22.6038 32.9177 22.0762Z" fill="#FFCC66"/>
<path d="M26.2639 24.3301L17.0566 34.1041C17.4169 34.2172 17.8467 34.15 18.2839 33.8513L29.0092 27.253L26.2639 24.3301Z" fill="#ED7161"/>
</svg>
