<svg width="152" height="46" viewBox="0 0 152 46" fill="none" xmlns="http://www.w3.org/2000/svg">
<g clip-path="url(#clip0_410_25259)">
<mask id="mask0_410_25259" style="mask-type:luminance" maskUnits="userSpaceOnUse" x="0" y="0" width="151" height="46">
<path d="M150.564 0.948242H0.557373V45.9515H150.564V0.948242Z" fill="white"/>
</mask>
<g mask="url(#mask0_410_25259)">
<path d="M139.984 0.948242H9.92454H8.90447C8.15854 0.959089 7.41441 1.02528 6.67827 1.14626C5.94689 1.27013 5.23873 1.50484 4.57808 1.84231C3.91363 2.18201 3.30629 2.62335 2.77795 3.15044C2.24973 3.67775 1.80825 4.28531 1.46982 4.95057C1.12827 5.62054 0.891498 6.33892 0.767773 7.08068C0.643429 7.81537 0.57723 8.5587 0.569759 9.30384C0.551758 9.64886 0.551758 9.98489 0.551758 10.3269V36.5762C0.551758 36.9211 0.551758 37.2572 0.569759 37.6022C0.57748 38.3473 0.643684 39.0906 0.767773 39.8254C0.890429 40.5566 1.12414 41.2648 1.46082 41.9255C2.14141 43.2693 3.22934 44.3634 4.56908 45.0517C5.22995 45.3898 5.93797 45.6264 6.66927 45.7538C7.40548 45.8738 8.14954 45.939 8.89547 45.9488H9.91554H141.179H142.201C142.945 45.9396 143.688 45.8744 144.421 45.7538C145.159 45.626 145.874 45.3894 146.543 45.0517C147.209 44.7156 147.817 44.2738 148.343 43.7436C148.873 43.2172 149.317 42.6095 149.657 41.9435C149.99 41.282 150.222 40.574 150.344 39.8434C150.468 39.1085 150.537 38.3654 150.551 37.6202V36.5942V35.394V11.539V10.3388V9.31576C150.537 8.57058 150.468 7.8275 150.344 7.0926C150.221 6.36224 149.989 5.65441 149.657 4.99241C148.977 3.64479 147.891 2.54491 146.552 1.84815C145.883 1.51415 145.168 1.28255 144.43 1.1611C143.697 1.03945 142.954 0.973264 142.21 0.963082H141.188L139.984 0.948242Z" fill="black"/>
</g>
<mask id="mask1_410_25259" style="mask-type:luminance" maskUnits="userSpaceOnUse" x="0" y="0" width="151" height="46">
<path d="M150.564 0.948242H0.557373V45.9515H150.564V0.948242Z" fill="white"/>
</mask>
<g mask="url(#mask1_410_25259)">
<path d="M9.93594 44.9794H8.93086C8.23534 44.9704 7.54139 44.9102 6.85475 44.7993C6.21556 44.6908 5.5959 44.4886 5.01558 44.1993C3.86283 43.6084 2.92383 42.6716 2.33035 41.5201C2.03831 40.94 1.83599 40.3188 1.7303 39.678C1.61559 38.9898 1.5544 38.2936 1.5473 37.5958C1.5473 37.3618 1.5293 36.5818 1.5293 36.5818V10.3269C1.5293 10.3269 1.5293 9.55884 1.5473 9.33382C1.55248 8.63512 1.61268 7.93793 1.72731 7.24871C1.83163 6.6056 2.034 5.98232 2.32735 5.40054C2.61897 4.82811 3.00089 4.30639 3.45839 3.85547C3.91537 3.39803 4.44068 3.01441 5.0155 2.71835C5.59446 2.42852 6.21326 2.22629 6.85164 2.11831C7.54011 2.00509 8.23616 1.94391 8.93382 1.9353H142.2C142.89 1.94122 143.581 2.00141 144.263 2.11532C144.908 2.22108 145.533 2.42337 146.117 2.71537C147.273 3.31138 148.211 4.25616 148.799 5.41556C149.091 5.99286 149.293 6.61084 149.4 7.24865C149.515 7.94307 149.579 8.64499 149.591 9.34884V10.3389V11.539V35.3604V36.5604V37.5954C149.581 38.2853 149.517 38.9733 149.402 39.6537C149.3 40.299 149.097 40.9246 148.803 41.5078C148.206 42.6549 147.269 43.5889 146.12 44.181C145.538 44.4733 144.913 44.6756 144.27 44.781C143.582 44.8925 142.888 44.9527 142.193 44.961H141.197H9.93402L9.93594 44.9794Z" fill="black"/>
</g>
<mask id="mask2_410_25259" style="mask-type:luminance" maskUnits="userSpaceOnUse" x="0" y="0" width="151" height="46">
<path d="M150.564 0.948242H0.557373V45.9515H150.564V0.948242Z" fill="white"/>
</mask>
<g mask="url(#mask2_410_25259)">
<path d="M56.2385 31.3289H50.9611L49.68 34.8511H47.3608L52.5212 21.6921H54.7113L59.9887 34.8511H57.5616L56.2385 31.3289ZM51.6331 29.5288H55.5635L54.1563 25.7604C53.9643 25.2414 53.7723 24.6654 53.5863 24.0353C53.4152 24.5934 53.2293 25.1604 53.0312 25.7424L51.6331 29.5288Z" fill="white"/>
</g>
<mask id="mask3_410_25259" style="mask-type:luminance" maskUnits="userSpaceOnUse" x="0" y="0" width="151" height="46">
<path d="M150.564 0.948242H0.557373V45.9515H150.564V0.948242Z" fill="white"/>
</mask>
<g mask="url(#mask3_410_25259)">
<path d="M60.9221 27.4496C60.9221 26.7235 60.898 25.9234 60.8501 25.0493H62.9502C63.0292 25.4608 63.0833 25.8766 63.1122 26.2945C63.4797 25.8541 63.9381 25.4985 64.456 25.252C64.9739 25.0053 65.539 24.8738 66.1124 24.8664C66.7849 24.8557 67.4452 25.0458 68.0091 25.4125C68.5729 25.7792 69.0146 26.3056 69.2777 26.9245C69.6468 27.7754 69.8221 28.6977 69.7907 29.6247C69.8135 30.6355 69.6085 31.6383 69.1907 32.5589C68.8412 33.3229 68.2706 33.9647 67.5525 34.401C66.8138 34.828 65.9725 35.0448 65.1193 35.0281C64.4481 35.0277 63.7817 34.914 63.1482 34.6921V38.7513L60.9041 38.9434L60.9221 27.4496ZM66.8205 32.4509C67.2766 31.8509 67.5075 30.9508 67.5075 29.7507C67.5075 28.6567 67.3175 27.8565 66.9375 27.3506C66.7658 27.1153 66.5396 26.9253 66.2784 26.7968C66.017 26.6682 65.7284 26.605 65.4374 26.6125C65.0182 26.6069 64.6046 26.7103 64.2373 26.9125C63.8472 27.1335 63.4922 27.4117 63.1842 27.7376V32.9879C63.4328 33.1051 63.6948 33.1918 63.9643 33.246C64.2541 33.3087 64.5498 33.3408 64.8464 33.342C65.2229 33.3645 65.5995 33.2952 65.9433 33.14C66.2873 32.9847 66.5882 32.7483 66.8205 32.4509Z" fill="white"/>
</g>
<mask id="mask4_410_25259" style="mask-type:luminance" maskUnits="userSpaceOnUse" x="0" y="0" width="151" height="46">
<path d="M150.564 0.948242H0.557373V45.9515H150.564V0.948242Z" fill="white"/>
</mask>
<g mask="url(#mask4_410_25259)">
<path d="M71.156 27.4496C71.156 26.7235 71.132 25.9234 71.084 25.0493H73.1842C73.2655 25.4604 73.3206 25.8764 73.3492 26.2945C74.2232 25.3424 75.2233 24.8664 76.3494 24.8664C77.0218 24.8557 77.6821 25.0458 78.246 25.4125C78.8098 25.7792 79.2515 26.3056 79.5147 26.9245C79.8837 27.7754 80.059 28.6977 80.0276 29.6247C80.0552 30.6342 79.8552 31.6371 79.4425 32.5589C79.0923 33.3234 78.5205 33.9651 77.8015 34.401C77.0629 34.8283 76.2214 35.0452 75.3683 35.0281C74.6971 35.0277 74.0307 34.914 73.3971 34.6921V38.7513L71.1531 38.9434L71.156 27.4496ZM77.0634 32.4509C77.5194 31.8368 77.7475 30.9368 77.7475 29.7507C77.7475 28.6567 77.5585 27.8565 77.1805 27.3506C77.0088 27.1153 76.7825 26.9253 76.5213 26.7968C76.26 26.6682 75.9714 26.605 75.6804 26.6125C75.2612 26.6075 74.8477 26.7107 74.4803 26.9125C74.0901 27.1335 73.7351 27.4117 73.4272 27.7376V32.9879C73.6762 33.1042 73.938 33.1909 74.2072 33.246C74.4971 33.3087 74.7927 33.3408 75.0893 33.342C75.4658 33.364 75.8422 33.2945 76.186 33.1392C76.5298 32.9841 76.8309 32.7479 77.0634 32.4509Z" fill="white"/>
</g>
<mask id="mask5_410_25259" style="mask-type:luminance" maskUnits="userSpaceOnUse" x="0" y="0" width="151" height="46">
<path d="M150.564 0.948242H0.557373V45.9515H150.564V0.948242Z" fill="white"/>
</mask>
<g mask="url(#mask5_410_25259)">
<path d="M84.1528 34.2292C83.1941 33.7035 82.4153 32.9017 81.9177 31.9281C81.3737 30.8279 81.1059 29.6118 81.1375 28.3849C81.0986 27.0721 81.4092 25.7728 82.0376 24.6196C82.605 23.6188 83.4572 22.8096 84.4858 22.2944C85.5669 21.7663 86.7571 21.5001 87.96 21.5174C88.6896 21.5141 89.4169 21.5989 90.1263 21.7694C90.7896 21.9256 91.4336 22.155 92.0463 22.4535L91.4643 24.1785C90.403 23.6432 89.2354 23.3521 88.0471 23.3265C87.2082 23.3125 86.3804 23.5195 85.6469 23.9265C84.9509 24.326 84.3915 24.9263 84.0418 25.6487C83.6396 26.5054 83.4444 27.4448 83.4717 28.3909C83.4568 29.2432 83.6055 30.0906 83.9097 30.8871C84.1861 31.5919 84.6719 32.1951 85.3019 32.6152C86.0196 33.0642 86.8562 33.2858 87.702 33.2512C88.1404 33.2501 88.5779 33.2129 89.0102 33.1402C89.4284 33.0737 89.8394 32.9672 90.2372 32.8222V30.146H87.195V28.4029H92.4184V33.9502C91.6605 34.3034 90.8669 34.574 90.0512 34.7573C89.2424 34.9437 88.4151 35.0383 87.585 35.0393C86.3904 35.068 85.2085 34.7891 84.1528 34.2292Z" fill="white"/>
</g>
<mask id="mask6_410_25259" style="mask-type:luminance" maskUnits="userSpaceOnUse" x="0" y="0" width="151" height="46">
<path d="M150.564 0.948242H0.557373V45.9515H150.564V0.948242Z" fill="white"/>
</mask>
<g mask="url(#mask6_410_25259)">
<path d="M100.39 34.8502C100.305 34.4217 100.253 33.9875 100.234 33.5512C99.8593 33.9872 99.4014 34.3441 98.887 34.6012C98.3063 34.8953 97.6627 35.0436 97.0118 35.0332C96.4793 35.04 95.9521 34.9261 95.4698 34.7002C95.0109 34.485 94.6273 34.137 94.3687 33.7011C94.082 33.2072 93.9397 32.6428 93.9577 32.072C93.9408 31.6391 94.0251 31.2082 94.2036 30.8134C94.3823 30.4187 94.6504 30.0709 94.9867 29.7979C95.6707 29.2298 96.8118 28.9468 98.41 28.9488C99.0052 28.9486 99.5997 28.9906 100.189 29.0748V28.8827C100.189 28.0187 100.005 27.4087 99.6371 27.0527C99.1971 26.6741 98.6261 26.4834 98.0469 26.5217C97.5282 26.528 97.0123 26.5985 96.5108 26.7316C96.0141 26.8514 95.5299 27.0182 95.0648 27.2297L94.7107 25.5975C95.2195 25.3804 95.7479 25.2126 96.2888 25.0965C96.9691 24.9427 97.6645 24.8662 98.3619 24.8685C99.1009 24.8483 99.8361 24.9801 100.522 25.2555C101.125 25.5222 101.617 25.9913 101.911 26.5816C102.279 27.372 102.451 28.2397 102.412 29.1108V33.0111C102.412 33.4111 102.436 34.0252 102.484 34.8532L100.39 34.8502ZM99.046 33.05C99.4785 32.8491 99.8669 32.5647 100.189 32.213V30.4129C99.6911 30.354 99.1904 30.3209 98.689 30.3138C97.7629 30.3138 97.1219 30.4639 96.7659 30.7639C96.5922 30.9106 96.4541 31.0949 96.3621 31.3028C96.2702 31.5107 96.2266 31.7369 96.2348 31.964C96.2185 32.1603 96.2447 32.3578 96.3115 32.5431C96.3783 32.7285 96.484 32.8973 96.6219 33.0381C96.9143 33.2847 97.2899 33.4103 97.6719 33.3891C98.1497 33.3818 98.6197 33.2659 99.046 33.05Z" fill="white"/>
</g>
<mask id="mask7_410_25259" style="mask-type:luminance" maskUnits="userSpaceOnUse" x="0" y="0" width="151" height="46">
<path d="M150.564 0.948242H0.557373V45.9515H150.564V0.948242Z" fill="white"/>
</mask>
<g mask="url(#mask7_410_25259)">
<path d="M104.146 32.499V20.9185L106.378 20.7385V32.1007C106.346 32.4161 106.421 32.733 106.591 33.0008C106.676 33.0929 106.782 33.1644 106.9 33.2096C107.017 33.2548 107.143 33.2727 107.269 33.2618C107.472 33.253 107.674 33.2187 107.869 33.1597L108.133 34.7679C107.882 34.8628 107.621 34.9311 107.356 34.9719C107.069 35.0215 106.779 35.0476 106.489 35.0499C104.927 35.0399 104.146 34.1891 104.146 32.499Z" fill="white"/>
</g>
<mask id="mask8_410_25259" style="mask-type:luminance" maskUnits="userSpaceOnUse" x="0" y="0" width="151" height="46">
<path d="M150.564 0.948242H0.557373V45.9515H150.564V0.948242Z" fill="white"/>
</mask>
<g mask="url(#mask8_410_25259)">
<path d="M109.729 32.499V20.9185L111.964 20.7385V32.1007C111.933 32.4161 112.008 32.733 112.178 33.0008C112.263 33.0929 112.369 33.1644 112.486 33.2096C112.604 33.2548 112.73 33.2727 112.856 33.2618C113.058 33.253 113.261 33.2187 113.456 33.1597L113.717 34.7679C113.467 34.8628 113.207 34.9312 112.943 34.9719C112.655 35.0218 112.364 35.0479 112.073 35.0499C110.512 35.0399 109.731 34.1891 109.729 32.499Z" fill="white"/>
</g>
<mask id="mask9_410_25259" style="mask-type:luminance" maskUnits="userSpaceOnUse" x="0" y="0" width="151" height="46">
<path d="M150.564 0.948242H0.557373V45.9515H150.564V0.948242Z" fill="white"/>
</mask>
<g mask="url(#mask9_410_25259)">
<path d="M122.894 30.2363H116.482C116.584 32.2905 117.562 33.3175 119.416 33.3175C119.892 33.3151 120.367 33.2587 120.829 33.1494C121.303 33.0394 121.765 32.8889 122.213 32.6994L122.705 34.2356C121.549 34.7799 120.285 35.053 119.009 35.0336C118.094 35.0601 117.187 34.8535 116.374 34.4336C115.67 34.0529 115.105 33.4583 114.761 32.7354C114.379 31.898 114.195 30.9848 114.221 30.0653C114.195 29.1016 114.392 28.1452 114.793 27.2691C115.135 26.5255 115.69 25.8994 116.386 25.469C117.1 25.0485 117.917 24.8347 118.745 24.8509C119.566 24.8218 120.377 25.0494 121.063 25.5019C121.683 25.9317 122.163 26.5336 122.444 27.2331C122.753 27.995 122.906 28.8111 122.894 29.6332V30.2363ZM120.707 28.8111C120.711 28.1742 120.5 27.5545 120.107 27.0531C119.93 26.8559 119.713 26.6998 119.47 26.5961C119.227 26.4925 118.964 26.4435 118.7 26.453C118.434 26.4476 118.17 26.4981 117.924 26.6015C117.679 26.7049 117.459 26.8588 117.277 27.0531C116.854 27.5459 116.596 28.1584 116.536 28.8052L120.707 28.8111Z" fill="white"/>
</g>
<mask id="mask10_410_25259" style="mask-type:luminance" maskUnits="userSpaceOnUse" x="0" y="0" width="151" height="46">
<path d="M150.564 0.948242H0.557373V45.9515H150.564V0.948242Z" fill="white"/>
</mask>
<g mask="url(#mask10_410_25259)">
<path d="M124.593 27.5126C124.593 26.9755 124.566 26.1535 124.519 25.0524H126.618C126.654 25.3254 126.688 25.6524 126.724 26.0275C126.76 26.4025 126.778 26.7145 126.789 26.9515C127.015 26.5691 127.272 26.2059 127.557 25.8655C127.805 25.5745 128.104 25.3314 128.439 25.1483C128.792 24.958 129.188 24.8619 129.588 24.8693C129.892 24.8619 130.196 24.8994 130.488 24.9804L130.207 26.9245C129.855 26.8228 129.486 26.7969 129.125 26.8487C128.762 26.9004 128.415 27.0286 128.106 27.2246C127.61 27.5936 127.177 28.0416 126.825 28.5506V34.851H124.593V27.5126Z" fill="white"/>
</g>
<mask id="mask11_410_25259" style="mask-type:luminance" maskUnits="userSpaceOnUse" x="0" y="0" width="151" height="46">
<path d="M150.564 0.948242H0.557373V45.9515H150.564V0.948242Z" fill="white"/>
</mask>
<g mask="url(#mask11_410_25259)">
<path d="M131.737 38.8623C131.462 38.8179 131.194 38.7528 130.929 38.6672L131.338 37.0321C131.527 37.083 131.718 37.1239 131.91 37.1551C132.126 37.1934 132.346 37.2136 132.565 37.2152C133.564 37.2152 134.309 36.5761 134.797 35.298L134.943 34.935L131.329 25.0522H133.728L135.565 30.5756C135.8 31.2861 135.99 32.0105 136.135 32.7448C136.306 32.0367 136.504 31.3287 136.735 30.6206L138.565 25.0522H140.824L137.224 34.98C136.952 35.7797 136.583 36.5425 136.123 37.2512C135.773 37.7864 135.293 38.2257 134.731 38.5292C134.127 38.8239 133.461 38.968 132.79 38.9492C132.437 38.9506 132.085 38.9215 131.737 38.8623Z" fill="white"/>
</g>
<mask id="mask12_410_25259" style="mask-type:luminance" maskUnits="userSpaceOnUse" x="0" y="0" width="151" height="46">
<path d="M150.564 0.948242H0.557373V45.9515H150.564V0.948242Z" fill="white"/>
</mask>
<g mask="url(#mask12_410_25259)">
<path d="M47.3604 9.16284H51.3507L51.2396 10.1289H48.5245V11.998H51.0836V12.898H48.5245V14.9682H51.3836L51.2846 15.9493H47.3604V9.16284Z" fill="white"/>
</g>
<mask id="mask13_410_25259" style="mask-type:luminance" maskUnits="userSpaceOnUse" x="0" y="0" width="151" height="46">
<path d="M150.564 0.948242H0.557373V45.9515H150.564V0.948242Z" fill="white"/>
</mask>
<g mask="url(#mask13_410_25259)">
<path d="M54.1087 12.4871L52.0085 9.16284H53.3406L54.7687 11.6051L56.2687 9.16284H57.5619L55.4617 12.4452L57.7329 15.9493H56.3828L54.7656 13.2792L53.1185 15.9493H51.8254L54.1087 12.4871Z" fill="white"/>
</g>
<mask id="mask14_410_25259" style="mask-type:luminance" maskUnits="userSpaceOnUse" x="0" y="0" width="151" height="46">
<path d="M150.564 0.948242H0.557373V45.9515H150.564V0.948242Z" fill="white"/>
</mask>
<g mask="url(#mask14_410_25259)">
<path d="M58.5933 9.16284H60.4234C61.2814 9.16284 61.9395 9.33786 62.3975 9.68788C62.6253 9.86714 62.8066 10.0988 62.9256 10.3631C63.0448 10.6274 63.0982 10.9166 63.0815 11.206C63.0943 11.6194 62.9903 12.028 62.7816 12.3851C62.5778 12.7208 62.2807 12.9898 61.9265 13.1591C61.533 13.3452 61.1016 13.4376 60.6664 13.4291C60.3643 13.4249 60.0631 13.3938 59.7664 13.3362V15.9493H58.5933V9.16284ZM61.5334 12.193C61.6615 12.0701 61.7613 11.9209 61.8261 11.7557C61.8908 11.5904 61.9189 11.4131 61.9085 11.236C61.9237 11.0662 61.897 10.8953 61.8306 10.7383C61.7641 10.5813 61.66 10.4431 61.5275 10.3359C61.1898 10.1303 60.7968 10.0339 60.4024 10.0599H59.7664V12.46C59.9893 12.5002 60.215 12.5232 60.4414 12.529C60.8348 12.5586 61.2247 12.4386 61.5334 12.193Z" fill="white"/>
</g>
<mask id="mask15_410_25259" style="mask-type:luminance" maskUnits="userSpaceOnUse" x="0" y="0" width="151" height="46">
<path d="M150.564 0.948242H0.557373V45.9515H150.564V0.948242Z" fill="white"/>
</mask>
<g mask="url(#mask15_410_25259)">
<path d="M64.24 9.16284H65.4101V14.9473H68.2183L68.1193 15.9493H64.24V9.16284Z" fill="white"/>
</g>
<mask id="mask16_410_25259" style="mask-type:luminance" maskUnits="userSpaceOnUse" x="0" y="0" width="151" height="46">
<path d="M150.564 0.948242H0.557373V45.9515H150.564V0.948242Z" fill="white"/>
</mask>
<g mask="url(#mask16_410_25259)">
<path d="M70.0004 15.616C69.5087 15.3393 69.1115 14.9213 68.8604 14.416C68.5874 13.8559 68.4527 13.2387 68.4674 12.6159C68.453 11.965 68.5971 11.3204 68.8874 10.7376C69.1535 10.2124 69.5717 9.77952 70.0875 9.49556C70.6649 9.19313 71.3112 9.04629 71.9626 9.06952C72.5786 9.053 73.188 9.1989 73.7297 9.49255C74.2185 9.77022 74.6126 10.1883 74.8608 10.6927C75.1283 11.2469 75.261 11.8566 75.2478 12.4719C75.2641 13.1299 75.1189 13.782 74.8248 14.371C74.5562 14.8944 74.1386 15.3267 73.6248 15.6131C73.0574 15.9148 72.4221 16.0657 71.7796 16.0511C71.1584 16.0668 70.5443 15.9166 70.0004 15.616ZM73.0367 14.785C73.3675 14.5658 73.6245 14.2522 73.7747 13.8849C73.9431 13.4645 74.0258 13.0146 74.0178 12.5619C74.0253 12.1173 73.9521 11.6751 73.8017 11.2568C73.6671 10.8944 73.4266 10.5808 73.1117 10.3567C72.7463 10.1332 72.3264 10.0149 71.8981 10.0149C71.4698 10.0149 71.0498 10.1332 70.6845 10.3567C70.3528 10.5868 70.0945 10.9076 69.9405 11.2808C69.7698 11.6839 69.685 12.1181 69.6914 12.5558C69.6842 13.0069 69.7636 13.455 69.9255 13.876C70.0692 14.2611 70.332 14.5904 70.6757 14.816C71.0194 15.0415 71.426 15.1515 71.8366 15.13C72.2625 15.1406 72.6814 15.02 73.0367 14.785Z" fill="white"/>
</g>
<mask id="mask17_410_25259" style="mask-type:luminance" maskUnits="userSpaceOnUse" x="0" y="0" width="151" height="46">
<path d="M150.564 0.948242H0.557373V45.9515H150.564V0.948242Z" fill="white"/>
</mask>
<g mask="url(#mask17_410_25259)">
<path d="M76.553 9.1628H78.6771C79.2994 9.11876 79.9188 9.2823 80.4382 9.62784C80.6375 9.78431 80.7961 9.98656 80.9006 10.2174C81.005 10.4483 81.0523 10.7009 81.0382 10.9539C81.0453 11.2829 80.9711 11.6085 80.8222 11.902C80.692 12.1593 80.5102 12.387 80.2882 12.5711C80.0897 12.7313 79.8669 12.859 79.6282 12.9491L81.7283 15.9493H80.3632L78.5961 13.2491H77.735V15.9493H76.553V9.1628ZM78.392 12.3731C78.6526 12.3787 78.9108 12.3221 79.1452 12.2081C79.3561 12.1067 79.5341 11.9475 79.6582 11.749C79.782 11.5371 79.8453 11.2953 79.8411 11.05C79.8533 10.9084 79.83 10.766 79.7734 10.6356C79.7168 10.5052 79.6288 10.3909 79.5171 10.3029C79.2358 10.1268 78.9062 10.0439 78.5751 10.0659H77.726V12.385L78.392 12.3731Z" fill="white"/>
</g>
<mask id="mask18_410_25259" style="mask-type:luminance" maskUnits="userSpaceOnUse" x="0" y="0" width="151" height="46">
<path d="M150.564 0.948242H0.557373V45.9515H150.564V0.948242Z" fill="white"/>
</mask>
<g mask="url(#mask18_410_25259)">
<path d="M82.6431 9.16284H86.6424L86.5284 10.1289H83.8282V11.998H86.3634V12.898H83.8041V14.9682H86.6634L86.5763 15.9493H82.6431V9.16284Z" fill="white"/>
</g>
<mask id="mask19_410_25259" style="mask-type:luminance" maskUnits="userSpaceOnUse" x="0" y="0" width="151" height="46">
<path d="M150.564 0.948242H0.557373V45.9515H150.564V0.948242Z" fill="white"/>
</mask>
<g mask="url(#mask19_410_25259)">
<path d="M90.9934 9.16284H92.1635V15.9493H90.9934V9.16284Z" fill="white"/>
</g>
<mask id="mask20_410_25259" style="mask-type:luminance" maskUnits="userSpaceOnUse" x="0" y="0" width="151" height="46">
<path d="M150.564 0.948242H0.557373V45.9515H150.564V0.948242Z" fill="white"/>
</mask>
<g mask="url(#mask20_410_25259)">
<path d="M95.2618 10.1409H93.1616L93.2637 9.16284H98.544L98.436 10.1409H96.4349V15.9492H95.2618V10.1409Z" fill="white"/>
</g>
<mask id="mask21_410_25259" style="mask-type:luminance" maskUnits="userSpaceOnUse" x="0" y="0" width="151" height="46">
<path d="M150.564 0.948242H0.557373V45.9515H150.564V0.948242Z" fill="white"/>
</mask>
<g mask="url(#mask21_410_25259)">
<path d="M103.63 15.6159C103.139 15.339 102.743 14.9209 102.493 14.4159C102.218 13.8566 102.082 13.2389 102.097 12.6158C102.083 11.9649 102.227 11.3203 102.517 10.7375C102.784 10.2128 103.202 9.78016 103.717 9.49546C104.29 9.19153 104.932 9.04065 105.58 9.05742C106.204 9.04064 106.82 9.19084 107.365 9.49245C107.855 9.76923 108.249 10.1876 108.497 10.6926C108.765 11.2465 108.899 11.8561 108.887 12.4718C108.903 13.1302 108.757 13.7826 108.461 14.3709C108.193 14.895 107.775 15.3273 107.26 15.613C106.693 15.9155 106.058 16.0664 105.415 16.051C104.792 16.0678 104.176 15.9175 103.63 15.6159ZM106.669 14.7849C106.999 14.5647 107.254 14.2513 107.404 13.8848C107.573 13.4644 107.655 13.0145 107.647 12.5618C107.655 12.1172 107.582 11.675 107.431 11.2567C107.298 10.8945 107.059 10.5809 106.744 10.3566C106.379 10.1328 105.958 10.0144 105.529 10.0144C105.101 10.0144 104.68 10.1328 104.314 10.3566C103.983 10.5867 103.724 10.9075 103.57 11.2807C103.401 11.6842 103.316 12.1182 103.321 12.5557C103.314 13.0068 103.393 13.4549 103.555 13.8759C103.698 14.2459 103.948 14.5653 104.272 14.7939C104.627 15.0283 105.047 15.1459 105.472 15.1299C105.897 15.1387 106.314 15.0184 106.669 14.7849Z" fill="white"/>
</g>
<mask id="mask22_410_25259" style="mask-type:luminance" maskUnits="userSpaceOnUse" x="0" y="0" width="151" height="46">
<path d="M150.564 0.948242H0.557373V45.9515H150.564V0.948242Z" fill="white"/>
</mask>
<g mask="url(#mask22_410_25259)">
<path d="M110.185 9.16284H111.529L114.887 14.4223C114.856 13.9213 114.845 13.4622 114.845 13.0392V9.16284H115.931V15.9493H114.629L111.22 10.606C111.253 11.206 111.271 11.7491 111.271 12.2201V15.9493H110.185V9.16284Z" fill="white"/>
</g>
<mask id="mask23_410_25259" style="mask-type:luminance" maskUnits="userSpaceOnUse" x="0" y="0" width="151" height="46">
<path d="M150.564 0.948242H0.557373V45.9515H150.564V0.948242Z" fill="white"/>
</mask>
<g mask="url(#mask23_410_25259)">
<path fill-rule="evenodd" clip-rule="evenodd" d="M30.8601 9.19873H18.4065C12.5351 9.19873 10.387 11.3468 10.387 17.2183V29.6808C10.387 35.5522 12.5351 37.7004 18.4065 37.7004H30.8601C36.7315 37.7004 38.8827 35.5522 38.8827 29.6808V17.2183C38.8886 11.347 36.7405 9.19873 30.8601 9.19873Z" fill="#C8102E"/>
</g>
<mask id="mask24_410_25259" style="mask-type:luminance" maskUnits="userSpaceOnUse" x="0" y="0" width="151" height="46">
<path d="M150.564 0.948242H0.557373V45.9515H150.564V0.948242Z" fill="white"/>
</mask>
<g mask="url(#mask24_410_25259)">
<path d="M16.0293 23.45H16.7854V27.1793H16.0293V25.6641H14.3222V27.1793H13.5662V23.45H14.3222V24.95H16.0293V23.45ZM20.2896 25.5831C20.2896 26.1831 19.9896 26.5132 19.4436 26.5132C18.8976 26.5132 18.5916 26.1831 18.5916 25.5501V23.45H17.8355V25.5801C17.8355 26.6272 18.4175 27.2272 19.4315 27.2272C20.4457 27.2272 21.0457 26.6272 21.0457 25.5471V23.45H20.2896V25.5831ZM29.0262 26.0121L28.1802 23.45H27.5591L26.7191 26.0151L25.894 23.45H25.09L26.389 27.1793H27.0162L27.8592 24.7311L28.7052 27.1793H29.3383L30.6373 23.45H29.8514L29.0262 26.0121ZM31.9905 25.5711H33.3676V24.896H31.9905V24.134H33.9886V23.45H31.2465V27.1703H34.0606V26.4981H31.9905V25.5711ZM34.9607 27.1703H35.7077V23.45H34.9607V27.1703ZM22.5398 26.3991L22.2008 27.1732H21.4297L23.0588 23.45H23.7248L25.36 27.1732H24.5799L24.2589 26.4022L22.5398 26.3991ZM22.8219 25.7271H23.9589L23.3889 24.395L22.8219 25.7271Z" fill="white"/>
</g>
</g>
<defs>
<clipPath id="clip0_410_25259">
<path d="M0.019043 23.4482C0.019043 11.0218 10.0926 0.948242 22.519 0.948242H128.59C141.017 0.948242 151.09 11.0218 151.09 23.4482C151.09 35.8746 141.017 45.9482 128.59 45.9482H22.5191C10.0927 45.9482 0.019043 35.8746 0.019043 23.4482Z" fill="white"/>
</clipPath>
</defs>
</svg>
