<svg width="12" height="7" viewBox="0 0 12 7" fill="none" xmlns="http://www.w3.org/2000/svg">
<path d="M5.29994 6.29992L0.466602 1.46659C0.399935 1.39992 0.349935 1.3277 0.316602 1.24992C0.283268 1.17214 0.266602 1.08881 0.266602 0.999919C0.266602 0.822141 0.327713 0.666585 0.449935 0.533252C0.572157 0.399919 0.733268 0.333252 0.933268 0.333252H11.0666C11.2666 0.333252 11.4277 0.399919 11.5499 0.533252C11.6722 0.666585 11.7333 0.822141 11.7333 0.999919C11.7333 1.04436 11.6666 1.19992 11.5333 1.46659L6.69994 6.29992C6.58882 6.41103 6.47771 6.48881 6.3666 6.53325C6.25549 6.5777 6.13327 6.59992 5.99994 6.59992C5.8666 6.59992 5.74438 6.5777 5.63327 6.53325C5.52216 6.48881 5.41105 6.41103 5.29994 6.29992Z" fill="#433F3E"/>
</svg>
