<svg width="16" height="16" viewBox="0 0 16 16" fill="none" xmlns="http://www.w3.org/2000/svg">
<path d="M11.033 8.70803H2.74193C2.53172 8.70803 2.35551 8.64061 2.2133 8.50578C2.0711 8.37095 2 8.20388 2 8.00456C2 7.80525 2.0711 7.63817 2.2133 7.50334C2.35551 7.36851 2.53172 7.3011 2.74193 7.3011H11.033L7.39754 3.85411C7.24915 3.71341 7.17805 3.54927 7.18423 3.36168C7.19042 3.17409 7.2677 3.00995 7.41609 2.86925C7.56447 2.74029 7.73759 2.67287 7.93544 2.66701C8.13329 2.66115 8.3064 2.72856 8.45479 2.86925L13.3515 7.51214C13.4257 7.58248 13.4783 7.65869 13.5092 7.74076C13.5401 7.82283 13.5556 7.91077 13.5556 8.00456C13.5556 8.09836 13.5401 8.18629 13.5092 8.26836C13.4783 8.35043 13.4257 8.42664 13.3515 8.49699L8.45479 13.1399C8.31877 13.2688 8.14874 13.3333 7.94471 13.3333C7.74068 13.3333 7.56447 13.2688 7.41609 13.1399C7.2677 12.9992 7.19351 12.8321 7.19351 12.6386C7.19351 12.4452 7.2677 12.2781 7.41609 12.1374L11.033 8.70803Z" fill="#399624"/>
</svg>
