<svg width="80" height="80" viewBox="0 0 80 80" fill="none" xmlns="http://www.w3.org/2000/svg">
<g id="document (1) 2" clip-path="url(#clip0_228_8401)">
<path id="Vector" d="M12.125 71.1817H16.0752V75.1313C16.0752 77.3132 17.8436 79.0815 20.0255 79.0815H67.4254C69.6066 79.0815 71.375 77.3132 71.375 75.1313V11.9317C71.375 9.74981 69.6066 7.98142 67.4254 7.98142H63.4751V4.03178C63.4751 1.84993 61.7067 0.081543 59.5255 0.081543H22.6588C22.631 0.081543 22.6057 0.0960083 22.578 0.0972137C22.4611 0.105049 22.3453 0.127953 22.2344 0.165924C22.1935 0.180389 22.1543 0.190636 22.1145 0.20932C21.9705 0.272606 21.8391 0.361809 21.7276 0.47271L8.56109 13.6392C8.45079 13.7513 8.36159 13.8821 8.2977 14.0249C8.27901 14.0659 8.26877 14.1069 8.2543 14.1491C8.21633 14.2582 8.19343 14.3721 8.1868 14.4872C8.1868 14.5161 8.16992 14.5415 8.16992 14.5704V67.2314C8.16992 68.2802 8.58701 69.2855 9.32896 70.0262C10.0709 70.7676 11.0769 71.1829 12.125 71.1817ZM67.4254 10.6147C68.1522 10.6147 68.7417 11.2042 68.7417 11.9317V75.1313C68.7417 75.8588 68.1522 76.4482 67.4254 76.4482H20.0255C19.298 76.4482 18.7085 75.8588 18.7085 75.1313V71.1817H59.5255C61.7067 71.1817 63.4751 69.4133 63.4751 67.2314V10.6147H67.4254ZM60.8418 4.03178V67.2314C60.8418 67.9589 60.2524 68.5484 59.5255 68.5484H12.125C11.3981 68.5484 10.8086 67.9589 10.8086 67.2314V15.8813H20.0255C22.2067 15.8813 23.9751 14.1129 23.9751 11.9317V2.71484H59.5255C60.2524 2.71484 60.8418 3.3043 60.8418 4.03178ZM21.3418 4.57664V11.9317C21.3418 12.6585 20.7524 13.248 20.0255 13.248H12.6704L21.3418 4.57664Z" fill="white" fill-opacity="0.3"/>
<g id="Group">
<path id="Vector_2" fill-rule="evenodd" clip-rule="evenodd" d="M17.3925 22.4644C16.6656 22.4644 16.0762 23.0538 16.0762 23.7813C16.0762 24.5082 16.6656 25.0976 17.3925 25.0976H54.2592C54.9867 25.0976 55.5762 24.5082 55.5762 23.7813C55.5762 23.0538 54.9867 22.4644 54.2592 22.4644H17.3925Z" fill="white" fill-opacity="0.3"/>
<path id="Vector_3" fill-rule="evenodd" clip-rule="evenodd" d="M54.2592 48.7983H17.3925C16.6656 48.7983 16.0762 49.3878 16.0762 50.1147C16.0762 50.8422 16.6656 51.4316 17.3925 51.4316H54.2592C54.9867 51.4316 55.5762 50.8422 55.5762 50.1147C55.5762 49.3878 54.9867 48.7983 54.2592 48.7983Z" fill="white" fill-opacity="0.3"/>
<path id="Vector_4" fill-rule="evenodd" clip-rule="evenodd" d="M54.2593 29.0483H47.6763C46.9488 29.0483 46.3594 29.6378 46.3594 30.3647C46.3594 31.0922 46.9488 31.6816 47.6763 31.6816H54.2593C54.9867 31.6816 55.5762 31.0922 55.5762 30.3647C55.5762 29.6378 54.9867 29.0483 54.2593 29.0483Z" fill="white" fill-opacity="0.3"/>
<path id="Vector_5" fill-rule="evenodd" clip-rule="evenodd" d="M42.4097 30.3647C42.4097 29.6378 41.8202 29.0483 41.0928 29.0483H17.3925C16.6656 29.0483 16.0762 29.6378 16.0762 30.3647C16.0762 31.0922 16.6656 31.6816 17.3925 31.6816H41.0928C41.8202 31.6816 42.4097 31.0922 42.4097 30.3647Z" fill="white" fill-opacity="0.3"/>
<path id="Vector_6" fill-rule="evenodd" clip-rule="evenodd" d="M33.1938 55.3804H31.8769C31.15 55.3804 30.5605 55.9698 30.5605 56.6973C30.5605 57.4242 31.15 58.0137 31.8769 58.0137H33.1938C33.9207 58.0137 34.5102 57.4242 34.5102 56.6973C34.5102 55.9698 33.9207 55.3804 33.1938 55.3804Z" fill="white" fill-opacity="0.3"/>
<path id="Vector_7" fill-rule="evenodd" clip-rule="evenodd" d="M25.293 55.3804H17.3925C16.6656 55.3804 16.0762 55.9698 16.0762 56.6973C16.0762 57.4242 16.6656 58.0137 17.3925 58.0137H25.293C26.0199 58.0137 26.6093 57.4242 26.6093 56.6973C26.6093 55.9698 26.0199 55.3804 25.293 55.3804Z" fill="white" fill-opacity="0.3"/>
<path id="Vector_8" fill-rule="evenodd" clip-rule="evenodd" d="M17.3925 38.2637H23.9761C24.7035 38.2637 25.293 37.6742 25.293 36.9473C25.293 36.2198 24.7035 35.6304 23.9761 35.6304H17.3925C16.6656 35.6304 16.0762 36.2198 16.0762 36.9473C16.0762 37.6742 16.6656 38.2637 17.3925 38.2637Z" fill="white" fill-opacity="0.3"/>
<path id="Vector_9" fill-rule="evenodd" clip-rule="evenodd" d="M54.2588 35.6304H30.5591C29.8316 35.6304 29.2422 36.2198 29.2422 36.9473C29.2422 37.6742 29.8316 38.2637 30.5591 38.2637H54.2588C54.9863 38.2637 55.5757 37.6742 55.5757 36.9473C55.5757 36.2198 54.9863 35.6304 54.2588 35.6304Z" fill="white" fill-opacity="0.3"/>
<path id="Vector_10" fill-rule="evenodd" clip-rule="evenodd" d="M17.3925 44.8476H21.3428C22.0702 44.8476 22.6597 44.2582 22.6597 43.5313C22.6597 42.8038 22.0702 42.2144 21.3428 42.2144H17.3925C16.6656 42.2144 16.0762 42.8038 16.0762 43.5313C16.0762 44.2582 16.6656 44.8476 17.3925 44.8476Z" fill="white" fill-opacity="0.3"/>
<path id="Vector_11" fill-rule="evenodd" clip-rule="evenodd" d="M27.9263 44.8476H43.7261C44.4536 44.8476 45.043 44.2582 45.043 43.5313C45.043 42.8038 44.4536 42.2144 43.7261 42.2144H27.9263C27.1988 42.2144 26.6094 42.8038 26.6094 43.5313C26.6094 44.2582 27.1988 44.8476 27.9263 44.8476Z" fill="white" fill-opacity="0.3"/>
<path id="Vector_12" fill-rule="evenodd" clip-rule="evenodd" d="M54.2588 42.2144H50.3091C49.5816 42.2144 48.9922 42.8038 48.9922 43.5313C48.9922 44.2582 49.5816 44.8476 50.3091 44.8476H54.2588C54.9863 44.8476 55.5757 44.2582 55.5757 43.5313C55.5757 42.8038 54.9863 42.2144 54.2588 42.2144Z" fill="white" fill-opacity="0.3"/>
</g>
</g>
<defs>
<clipPath id="clip0_228_8401">
<rect width="79" height="79" fill="white" transform="translate(0.300781 0.081543)"/>
</clipPath>
</defs>
</svg>
