<svg width="88" height="88" viewBox="0 0 88 88" fill="none" xmlns="http://www.w3.org/2000/svg">
<g id="gallery 1" clip-path="url(#clip0_228_8429)">
<path id="Vector" d="M79.7218 22.6555H78.9757C78.539 18.9133 75.5275 15.9463 71.764 15.5832C71.3319 11.5488 67.9095 8.396 63.763 8.396H12.4094C5.53682 8.396 -0.0546875 13.9875 -0.0546875 20.8594V56.8663C-0.0546875 61.042 3.14065 64.4836 7.21347 64.8772C7.64093 68.8684 10.9962 71.9947 15.083 72.0604C15.0936 72.7686 15.2045 73.4523 15.4056 74.0975C16.3209 77.0359 19.0675 79.1752 22.3034 79.1752H79.7218C83.705 79.1752 86.9455 75.9348 86.9455 71.9522V29.8792C86.9455 25.896 83.705 22.6555 79.7218 22.6555ZM83.547 29.8792V57.702L76.1554 52.1184C74.1356 50.5931 71.4042 50.5692 69.3585 52.0594L60.0082 58.8722L42.177 40.4887C40.0529 38.2983 36.5967 38.1636 34.3088 40.1827L18.4788 54.1489V29.8792C18.4788 27.7698 20.1946 26.054 22.3034 26.054H79.7218C81.8312 26.054 83.547 27.7698 83.547 29.8792ZM83.547 71.9515C83.547 74.061 81.8312 75.7768 79.7225 75.7768H22.3034C20.5902 75.7768 19.1359 74.6438 18.6514 73.0879C18.5392 72.7288 18.4788 72.3471 18.4788 71.9522V58.6804L36.5576 42.7309C37.4822 41.9145 38.8787 41.9689 39.7376 42.8544L47.785 51.1513C47.785 51.152 47.785 51.152 47.7857 51.152L63.8029 67.6657C64.1361 68.0095 64.5788 68.1821 65.0229 68.1821C65.449 68.1821 65.8758 68.0228 66.2057 67.7028C66.8787 67.049 66.8953 65.9737 66.2422 65.3L62.3977 61.3361L71.3598 54.8067C72.1868 54.204 73.2906 54.2133 74.1071 54.8299L83.547 61.9607V71.9515ZM10.5654 64.015V23.8948C10.5654 23.7242 10.5741 23.5549 10.5913 23.389C10.8449 20.8952 12.9576 18.9431 15.5171 18.9431H36.302C37.2406 18.9431 38.0012 18.1825 38.0012 17.2439C38.0012 16.3053 37.2406 15.5447 36.302 15.5447H15.5171C10.9126 15.5447 7.16701 19.2903 7.16701 23.8948V61.4436C4.99585 61.0526 3.34376 59.149 3.34376 56.8663V20.8594C3.34376 15.8613 7.41061 11.7944 12.4094 11.7944H63.763C66.0185 11.7944 67.9042 13.4094 68.3244 15.5447H49.8958C48.9572 15.5447 48.1966 16.3053 48.1966 17.2439C48.1966 18.1825 48.9572 18.9431 49.8958 18.9431H70.1112H70.1132H70.9847C73.2269 18.9431 75.104 20.5395 75.5388 22.6555H22.3034C18.3208 22.6555 15.0803 25.896 15.0803 29.8792V57.9124V57.9137V68.662C12.5786 68.5909 10.5654 66.5339 10.5654 64.015Z" fill="white" fill-opacity="0.3"/>
<path id="Vector_2" d="M65.9635 32.9692C61.9531 32.9692 58.6914 36.2316 58.6914 40.2407C58.6914 44.2505 61.9538 47.5129 65.9635 47.5129C69.9726 47.5129 73.235 44.2505 73.235 40.2407C73.235 36.2316 69.9726 32.9692 65.9635 32.9692ZM65.9635 44.1144C63.8276 44.1144 62.0899 42.3767 62.0899 40.2414C62.0899 38.1054 63.8276 36.3677 65.9635 36.3677C68.0989 36.3677 69.8366 38.1054 69.8366 40.2414C69.8366 42.3767 68.0989 44.1144 65.9635 44.1144Z" fill="white" fill-opacity="0.3"/>
<path id="Vector_3" d="M41.5292 17.8946C41.5717 17.9968 41.6241 18.0951 41.6852 18.1873C41.7469 18.2803 41.8179 18.3672 41.8963 18.4455C41.9746 18.5232 42.0609 18.5949 42.1545 18.6579C42.2461 18.719 42.3463 18.7714 42.4485 18.8139C42.5501 18.8564 42.6576 18.8889 42.7664 18.9108C42.8746 18.9327 42.9868 18.9434 43.0977 18.9434C43.2098 18.9434 43.32 18.9327 43.4309 18.9108C43.5391 18.8889 43.6446 18.8564 43.7481 18.8139C43.8504 18.7714 43.9486 18.719 44.0409 18.6579C44.1338 18.5949 44.2207 18.5232 44.2991 18.4455C44.3787 18.3672 44.4484 18.2803 44.5115 18.1873C44.5725 18.0951 44.625 17.9968 44.6674 17.8946C44.7099 17.7911 44.7425 17.6842 44.7644 17.5773C44.7863 17.4665 44.7969 17.3543 44.7969 17.2441C44.7969 17.1333 44.7863 17.0211 44.7644 16.9129C44.7425 16.8041 44.7099 16.6965 44.6674 16.595C44.625 16.4914 44.5725 16.3925 44.5115 16.3009C44.4484 16.2073 44.3787 16.1211 44.2991 16.0427C44.2207 15.9644 44.1338 15.8934 44.0409 15.8317C43.9486 15.7706 43.8504 15.7182 43.7481 15.6757C43.6446 15.6332 43.5391 15.6007 43.4309 15.5788C43.2112 15.5343 42.9855 15.5343 42.7664 15.5788C42.6576 15.6007 42.5501 15.6332 42.4485 15.6757C42.3463 15.7182 42.2461 15.7706 42.1545 15.8317C42.0609 15.8934 41.9746 15.9644 41.8963 16.0427C41.8179 16.1211 41.7469 16.2073 41.6852 16.3009C41.6241 16.3925 41.5717 16.4914 41.5292 16.595C41.4867 16.6965 41.4542 16.8041 41.4323 16.9129C41.4104 17.0211 41.3984 17.1333 41.3984 17.2441C41.3984 17.3543 41.4104 17.4665 41.4323 17.5773C41.4542 17.6842 41.4867 17.7911 41.5292 17.8946Z" fill="white" fill-opacity="0.3"/>
</g>
<defs>
<clipPath id="clip0_228_8429">
<rect width="87" height="87" fill="white" transform="translate(0.115234 0.239746)"/>
</clipPath>
</defs>
</svg>
