<svg width="12" height="12" viewBox="0 0 12 12" fill="none" xmlns="http://www.w3.org/2000/svg">
<path d="M9.033 6.70788H0.74193C0.531716 6.70788 0.355508 6.64046 0.213305 6.50563C0.0711016 6.3708 0 6.20372 0 6.00441C0 5.80509 0.0711016 5.63802 0.213305 5.50319C0.355508 5.36836 0.531716 5.30094 0.74193 5.30094H9.033L5.39754 1.85396C5.24915 1.71326 5.17805 1.54912 5.18423 1.36153C5.19042 1.17394 5.2677 1.0098 5.41609 0.869102C5.56447 0.740133 5.73759 0.672718 5.93544 0.666856C6.13329 0.660993 6.3064 0.728409 6.45479 0.869102L11.3515 5.51198C11.4257 5.58233 11.4783 5.65854 11.5092 5.74061C11.5401 5.82268 11.5556 5.91061 11.5556 6.00441C11.5556 6.09821 11.5401 6.18614 11.5092 6.26821C11.4783 6.35028 11.4257 6.42649 11.3515 6.49684L6.45479 11.1397C6.31877 11.2687 6.14874 11.3332 5.94471 11.3332C5.74068 11.3332 5.56447 11.2687 5.41609 11.1397C5.2677 10.999 5.19351 10.832 5.19351 10.6385C5.19351 10.445 5.2677 10.278 5.41609 10.1373L9.033 6.70788Z" fill="#433F3E"/>
</svg>
