<svg width="19" height="19" viewBox="0 0 19 19" fill="none" xmlns="http://www.w3.org/2000/svg">
<path d="M7.39583 14.1667C5.50347 14.1667 3.90191 13.5113 2.59115 12.2005C1.28038 10.8898 0.625 9.28819 0.625 7.39583C0.625 5.50347 1.28038 3.90191 2.59115 2.59115C3.90191 1.28038 5.50347 0.625 7.39583 0.625C9.28819 0.625 10.8898 1.28038 12.2005 2.59115C13.5113 3.90191 14.1667 5.50347 14.1667 7.39583C14.1667 8.15972 14.0451 8.88021 13.8021 9.55729C13.559 10.2344 13.2292 10.8333 12.8125 11.3542L18.6458 17.1875C18.8368 17.3785 18.9323 17.6215 18.9323 17.9167C18.9323 18.2118 18.8368 18.4549 18.6458 18.6458C18.4549 18.8368 18.2118 18.9323 17.9167 18.9323C17.6215 18.9323 17.3785 18.8368 17.1875 18.6458L11.3542 12.8125C10.8333 13.2292 10.2344 13.559 9.55729 13.8021C8.88021 14.0451 8.15972 14.1667 7.39583 14.1667ZM7.39583 12.0833C8.69792 12.0833 9.80469 11.6276 10.7161 10.7161C11.6276 9.80469 12.0833 8.69792 12.0833 7.39583C12.0833 6.09375 11.6276 4.98698 10.7161 4.07552C9.80469 3.16406 8.69792 2.70833 7.39583 2.70833C6.09375 2.70833 4.98698 3.16406 4.07552 4.07552C3.16406 4.98698 2.70833 6.09375 2.70833 7.39583C2.70833 8.69792 3.16406 9.80469 4.07552 10.7161C4.98698 11.6276 6.09375 12.0833 7.39583 12.0833Z" fill="#399624"/>
</svg>
