<svg width="12" height="7" viewBox="0 0 12 7" fill="none" xmlns="http://www.w3.org/2000/svg">
<path d="M5.29994 6.30065L0.466602 1.46732C0.399935 1.40065 0.349935 1.32843 0.316602 1.25065C0.283268 1.17287 0.266602 1.08954 0.266602 1.00065C0.266602 0.822873 0.327713 0.667318 0.449935 0.533984C0.572157 0.400651 0.733268 0.333984 0.933268 0.333984H11.0666C11.2666 0.333984 11.4277 0.400651 11.5499 0.533984C11.6722 0.667318 11.7333 0.822873 11.7333 1.00065C11.7333 1.0451 11.6666 1.20065 11.5333 1.46732L6.69994 6.30065C6.58882 6.41176 6.47771 6.48954 6.3666 6.53398C6.25549 6.57843 6.13327 6.60065 5.99994 6.60065C5.8666 6.60065 5.74438 6.57843 5.63327 6.53398C5.52216 6.48954 5.41105 6.41176 5.29994 6.30065Z" fill="#399624"/>
</svg>
