<svg width="22" height="22" viewBox="0 0 22 22" fill="none" xmlns="http://www.w3.org/2000/svg">
<path d="M16.5666 12.3335H1.66659C1.28881 12.3335 0.972141 12.2057 0.716585 11.9501C0.46103 11.6946 0.333252 11.3779 0.333252 11.0001C0.333252 10.6224 0.46103 10.3057 0.716585 10.0501C0.972141 9.79459 1.28881 9.66681 1.66659 9.66681H16.5666L10.0333 3.13348C9.76659 2.86681 9.63881 2.5557 9.64992 2.20015C9.66103 1.84459 9.79992 1.53348 10.0666 1.26681C10.3333 1.02237 10.6444 0.89459 10.9999 0.883479C11.3555 0.872368 11.6666 1.00015 11.9333 1.26681L20.7333 10.0668C20.8666 10.2001 20.961 10.3446 21.0166 10.5001C21.0721 10.6557 21.0999 10.8224 21.0999 11.0001C21.0999 11.1779 21.0721 11.3446 21.0166 11.5001C20.961 11.6557 20.8666 11.8001 20.7333 11.9335L11.9333 20.7335C11.6888 20.9779 11.3833 21.1001 11.0166 21.1001C10.6499 21.1001 10.3333 20.9779 10.0666 20.7335C9.79992 20.4668 9.66659 20.1501 9.66659 19.7835C9.66659 19.4168 9.79992 19.1001 10.0666 18.8335L16.5666 12.3335Z" fill="#399624"/>
</svg>
