<svg width="13" height="10" viewBox="0 0 13 10" fill="none" xmlns="http://www.w3.org/2000/svg">
<path d="M9.18308 7.21978H11.8541C12.1733 7.21978 12.4441 7.12218 12.6665 6.92699C12.8889 6.73179 13.0001 6.49413 13.0001 6.21399V3.786C13.0001 3.50587 12.8889 3.26821 12.6665 3.07301C12.4441 2.87782 12.1733 2.78022 11.8541 2.78022H9.18308L6.34053 0.241024C6.07463 -0.00699929 5.76076 -0.0636028 5.39892 0.0712116C5.03707 0.206174 4.85615 0.435846 4.85615 0.760229V9.23977C4.85615 9.56415 5.03707 9.79383 5.39892 9.92879C5.76076 10.0636 6.07463 10.007 6.34053 9.75898L9.18308 7.21978ZM0.00012207 5C0.00012207 5.52934 0.101964 6.0191 0.305648 6.46927C0.509163 6.91959 0.828176 7.32743 1.26269 7.69281C1.43012 7.7998 1.60396 7.81201 1.78421 7.72944C1.96445 7.64686 2.05458 7.51737 2.05458 7.34097V2.65902C2.05458 2.48263 1.96445 2.35314 1.78421 2.27056C1.60396 2.18799 1.43012 2.2002 1.26269 2.30719C0.828176 2.66132 0.509163 3.06628 0.305648 3.52207C0.101964 3.97801 0.00012207 4.47066 0.00012207 5ZM6.52541 2.46946L8.49818 4.24528H11.3309V5.75472H8.49818L6.52541 7.53054V2.46946Z" fill="black"/>
</svg>
