<svg width="14" height="14" viewBox="0 0 14 14" fill="none" xmlns="http://www.w3.org/2000/svg">
<path d="M10.9791 7.83245H1.66665C1.43054 7.83245 1.23262 7.75259 1.0729 7.59286C0.913174 7.43314 0.833313 7.23523 0.833313 6.99911C0.833313 6.763 0.913174 6.56509 1.0729 6.40536C1.23262 6.24564 1.43054 6.16578 1.66665 6.16578H10.9791L6.89581 2.08245C6.72915 1.91578 6.64928 1.72134 6.65623 1.49911C6.66317 1.27689 6.74998 1.08245 6.91665 0.915781C7.08331 0.763003 7.27776 0.683142 7.49998 0.676198C7.7222 0.669253 7.91665 0.749115 8.08331 0.915781L13.5833 6.41578C13.6666 6.49911 13.7257 6.58939 13.7604 6.68661C13.7951 6.78384 13.8125 6.888 13.8125 6.99911C13.8125 7.11023 13.7951 7.21439 13.7604 7.31161C13.7257 7.40884 13.6666 7.49911 13.5833 7.58245L8.08331 13.0824C7.93053 13.2352 7.73956 13.3116 7.5104 13.3116C7.28123 13.3116 7.08331 13.2352 6.91665 13.0824C6.74998 12.9158 6.66665 12.7179 6.66665 12.4887C6.66665 12.2595 6.74998 12.0616 6.91665 11.8949L10.9791 7.83245Z" fill="#2D7864"/>
</svg>
