<svg width="79" height="80" viewBox="0 0 79 80" fill="none" xmlns="http://www.w3.org/2000/svg">
<g id="document (1) 1" clip-path="url(#clip0_228_8387)">
<path id="Vector" d="M11.8242 71.3164H15.7744V75.2661C15.7744 77.4479 17.5428 79.2163 19.7247 79.2163H67.1246C69.3058 79.2163 71.0742 77.4479 71.0742 75.2661V12.0664C71.0742 9.88457 69.3058 8.11619 67.1246 8.11619H63.1743V4.16655C63.1743 1.9847 61.4059 0.216309 59.2247 0.216309H22.358C22.3303 0.216309 22.3049 0.230774 22.2772 0.231979C22.1603 0.239815 22.0446 0.262718 21.9337 0.30069C21.8927 0.315155 21.8535 0.325401 21.8137 0.344086C21.6697 0.407371 21.5383 0.496574 21.4268 0.607475L8.26031 13.7739C8.15001 13.886 8.06081 14.0168 7.99692 14.1597C7.97823 14.2007 7.96799 14.2417 7.95352 14.2838C7.91555 14.3929 7.89265 14.5069 7.88602 14.622C7.88602 14.6509 7.86914 14.6762 7.86914 14.7051V67.3662C7.86914 68.4149 8.28622 69.4203 9.02818 70.161C9.77013 70.9024 10.7761 71.3176 11.8242 71.3164ZM67.1246 10.7495C67.8515 10.7495 68.4409 11.3389 68.4409 12.0664V75.2661C68.4409 75.9936 67.8515 76.583 67.1246 76.583H19.7247C18.9972 76.583 18.4077 75.9936 18.4077 75.2661V71.3164H59.2247C61.4059 71.3164 63.1743 69.548 63.1743 67.3662V10.7495H67.1246ZM60.541 4.16655V67.3662C60.541 68.0937 59.9516 68.6831 59.2247 68.6831H11.8242C11.0973 68.6831 10.5079 68.0937 10.5079 67.3662V16.0161H19.7247C21.9059 16.0161 23.6743 14.2477 23.6743 12.0664V2.8496H59.2247C59.9516 2.8496 60.541 3.43906 60.541 4.16655ZM21.041 4.71141V12.0664C21.041 12.7933 20.4516 13.3828 19.7247 13.3828H12.3697L21.041 4.71141Z" fill="white" fill-opacity="0.3"/>
<g id="Group">
<path id="Vector_2" fill-rule="evenodd" clip-rule="evenodd" d="M17.0917 22.5991C16.3649 22.5991 15.7754 23.1886 15.7754 23.9161C15.7754 24.643 16.3649 25.2324 17.0917 25.2324H53.9584C54.6859 25.2324 55.2754 24.643 55.2754 23.9161C55.2754 23.1886 54.6859 22.5991 53.9584 22.5991H17.0917Z" fill="white" fill-opacity="0.3"/>
<path id="Vector_3" fill-rule="evenodd" clip-rule="evenodd" d="M53.9584 48.9331H17.0917C16.3649 48.9331 15.7754 49.5226 15.7754 50.2495C15.7754 50.9769 16.3649 51.5664 17.0917 51.5664H53.9584C54.6859 51.5664 55.2754 50.9769 55.2754 50.2495C55.2754 49.5226 54.6859 48.9331 53.9584 48.9331Z" fill="white" fill-opacity="0.3"/>
<path id="Vector_4" fill-rule="evenodd" clip-rule="evenodd" d="M53.9585 29.1831H47.3755C46.6481 29.1831 46.0586 29.7726 46.0586 30.4995C46.0586 31.2269 46.6481 31.8164 47.3755 31.8164H53.9585C54.686 31.8164 55.2754 31.2269 55.2754 30.4995C55.2754 29.7726 54.686 29.1831 53.9585 29.1831Z" fill="white" fill-opacity="0.3"/>
<path id="Vector_5" fill-rule="evenodd" clip-rule="evenodd" d="M42.1089 30.4995C42.1089 29.7726 41.5195 29.1831 40.792 29.1831H17.0917C16.3649 29.1831 15.7754 29.7726 15.7754 30.4995C15.7754 31.2269 16.3649 31.8164 17.0917 31.8164H40.792C41.5195 31.8164 42.1089 31.2269 42.1089 30.4995Z" fill="white" fill-opacity="0.3"/>
<path id="Vector_6" fill-rule="evenodd" clip-rule="evenodd" d="M32.8931 55.5151H31.5761C30.8492 55.5151 30.2598 56.1046 30.2598 56.8321C30.2598 57.559 30.8492 58.1484 31.5761 58.1484H32.8931C33.6199 58.1484 34.2094 57.559 34.2094 56.8321C34.2094 56.1046 33.6199 55.5151 32.8931 55.5151Z" fill="white" fill-opacity="0.3"/>
<path id="Vector_7" fill-rule="evenodd" clip-rule="evenodd" d="M24.9922 55.5151H17.0917C16.3649 55.5151 15.7754 56.1046 15.7754 56.8321C15.7754 57.559 16.3649 58.1484 17.0917 58.1484H24.9922C25.7191 58.1484 26.3086 57.559 26.3086 56.8321C26.3086 56.1046 25.7191 55.5151 24.9922 55.5151Z" fill="white" fill-opacity="0.3"/>
<path id="Vector_8" fill-rule="evenodd" clip-rule="evenodd" d="M17.0917 38.3984H23.6753C24.4028 38.3984 24.9922 37.809 24.9922 37.0821C24.9922 36.3546 24.4028 35.7651 23.6753 35.7651H17.0917C16.3649 35.7651 15.7754 36.3546 15.7754 37.0821C15.7754 37.809 16.3649 38.3984 17.0917 38.3984Z" fill="white" fill-opacity="0.3"/>
<path id="Vector_9" fill-rule="evenodd" clip-rule="evenodd" d="M53.958 35.7651H30.2584C29.5309 35.7651 28.9414 36.3546 28.9414 37.0821C28.9414 37.809 29.5309 38.3984 30.2584 38.3984H53.958C54.6855 38.3984 55.2749 37.809 55.2749 37.0821C55.2749 36.3546 54.6855 35.7651 53.958 35.7651Z" fill="white" fill-opacity="0.3"/>
<path id="Vector_10" fill-rule="evenodd" clip-rule="evenodd" d="M17.0917 44.9824H21.042C21.7695 44.9824 22.3589 44.393 22.3589 43.6661C22.3589 42.9386 21.7695 42.3491 21.042 42.3491H17.0917C16.3649 42.3491 15.7754 42.9386 15.7754 43.6661C15.7754 44.393 16.3649 44.9824 17.0917 44.9824Z" fill="white" fill-opacity="0.3"/>
<path id="Vector_11" fill-rule="evenodd" clip-rule="evenodd" d="M27.6255 44.9824H43.4253C44.1528 44.9824 44.7422 44.393 44.7422 43.6661C44.7422 42.9386 44.1528 42.3491 43.4253 42.3491H27.6255C26.8981 42.3491 26.3086 42.9386 26.3086 43.6661C26.3086 44.393 26.8981 44.9824 27.6255 44.9824Z" fill="white" fill-opacity="0.3"/>
<path id="Vector_12" fill-rule="evenodd" clip-rule="evenodd" d="M53.958 42.3491H50.0084C49.2809 42.3491 48.6914 42.9386 48.6914 43.6661C48.6914 44.393 49.2809 44.9824 50.0084 44.9824H53.958C54.6855 44.9824 55.2749 44.393 55.2749 43.6661C55.2749 42.9386 54.6855 42.3491 53.958 42.3491Z" fill="white" fill-opacity="0.3"/>
</g>
</g>
<defs>
<clipPath id="clip0_228_8387">
<rect width="79" height="79" fill="white" transform="translate(0 0.216309)"/>
</clipPath>
</defs>
</svg>
