<svg width="14" height="12" viewBox="0 0 14 12" fill="none" xmlns="http://www.w3.org/2000/svg">
<path d="M4.1601 8.29174H1.50182C1.18416 8.29174 0.914666 8.19098 0.693331 7.98947C0.471996 7.78795 0.361328 7.54259 0.361328 7.25338V4.74676C0.361328 4.45755 0.471996 4.21219 0.693331 4.01067C0.914666 3.80916 1.18416 3.7084 1.50182 3.7084H4.1601L6.98904 1.08696C7.25367 0.830909 7.56604 0.772472 7.92615 0.911653C8.28626 1.05099 8.46631 1.2881 8.46631 1.62299V10.3772C8.46631 10.712 8.28626 10.9492 7.92615 11.0885C7.56604 11.2277 7.25367 11.1692 6.98904 10.9132L4.1601 8.29174ZM13.2991 6.00007C13.2991 6.54656 13.1977 7.05217 12.995 7.51692C12.7925 7.98183 12.475 8.40288 12.0426 8.78009C11.8759 8.89055 11.7029 8.90315 11.5236 8.8179C11.3442 8.73265 11.2545 8.59897 11.2545 8.41686V3.58328C11.2545 3.40117 11.3442 3.26749 11.5236 3.18224C11.7029 3.09699 11.8759 3.10959 12.0426 3.22005C12.475 3.58565 12.7925 4.00372 12.995 4.47428C13.1977 4.94499 13.2991 5.45358 13.2991 6.00007ZM6.80504 3.38757L4.84172 5.2209H2.0226V6.77924H4.84172L6.80504 8.61257V3.38757Z" fill="white"/>
</svg>
