<svg width="43" height="27" viewBox="0 0 43 27" fill="none" xmlns="http://www.w3.org/2000/svg">
<g id="Group 91">
<g id="Mask group">
<mask id="mask0_228_8439" style="mask-type:alpha" maskUnits="userSpaceOnUse" x="0" y="0" width="29" height="27">
<path id="&#226;&#128;&#156;" d="M6.0714 0.178711H10.1919L6.42458 16.7785C8.66143 17.3671 10.1919 19.2508 10.1919 21.6054C10.1919 24.4309 8.07278 26.55 5.36502 26.55C2.4218 26.55 0.42041 24.3131 0.42041 21.6054C0.42041 19.9572 0.65587 18.7799 1.47997 16.1898L6.0714 0.178711ZM24.4371 16.7785C26.6739 17.3671 28.2044 19.2508 28.2044 21.6054C28.2044 24.4309 26.0853 26.55 23.3775 26.55C20.4343 26.55 18.4329 24.3131 18.4329 21.6054C18.4329 19.9572 18.6684 18.7799 19.4925 16.1898L24.0839 0.178711H28.2044L24.4371 16.7785Z" fill="#E7F3FB"/>
</mask>
<g mask="url(#mask0_228_8439)">
<rect id="Rectangle 110" x="-1.58301" y="-2.94287" width="15.8956" height="32.5139" fill="#C9E0F6"/>
</g>
</g>
<g id="Mask group_2">
<mask id="mask1_228_8439" style="mask-type:alpha" maskUnits="userSpaceOnUse" x="14" y="0" width="29" height="27">
<path id="&#226;&#128;&#156;_2" d="M19.9635 0.17865H24.084L20.3167 16.7784C22.5535 17.3671 24.084 19.2507 24.084 21.6053C24.084 24.4308 21.9649 26.5499 19.2571 26.5499C16.3139 26.5499 14.3125 24.3131 14.3125 21.6053C14.3125 19.9571 14.548 18.7798 15.3721 16.1898L19.9635 0.17865ZM38.3292 16.7784C40.566 17.3671 42.0965 19.2507 42.0965 21.6053C42.0965 24.4308 39.9774 26.5499 37.2696 26.5499C34.3264 26.5499 32.325 24.3131 32.325 21.6053C32.325 19.9571 32.5605 18.7798 33.3846 16.1898L37.976 0.17865H42.0965L38.3292 16.7784Z" fill="#E7F3FB"/>
</mask>
<g mask="url(#mask1_228_8439)">
<rect id="Rectangle 110_2" x="12.3091" y="-2.94293" width="15.8956" height="32.5139" fill="#C9E0F6"/>
</g>
</g>
</g>
</svg>
