<svg width="34" height="34" viewBox="0 0 34 34" fill="none" xmlns="http://www.w3.org/2000/svg">
<path d="M16.9998 33.3327C14.7412 33.3327 12.6162 32.9032 10.6248 32.0443C8.63345 31.1852 6.90539 30.0232 5.44067 28.5585C3.97595 27.0938 2.814 25.3657 1.95484 23.3743C1.09595 21.383 0.666504 19.258 0.666504 16.9993C0.666504 14.7621 1.09595 12.6424 1.95484 10.6402C2.814 8.63824 3.97595 6.90491 5.44067 5.44018C6.90539 3.97546 8.63345 2.81351 10.6248 1.95435C12.6162 1.09546 14.7412 0.666016 16.9998 0.666016C19.2371 0.666016 21.3568 1.09546 23.359 1.95435C25.3609 2.81351 27.0943 3.97546 28.559 5.44018C30.0237 6.90491 31.1857 8.63824 32.0448 10.6402C32.9037 12.6424 33.3332 14.7621 33.3332 16.9993C33.3332 19.258 32.9037 21.383 32.0448 23.3743C31.1857 25.3657 30.0237 27.0938 28.559 28.5585C27.0943 30.0232 25.3609 31.1852 23.359 32.0443C21.3568 32.9032 19.2371 33.3327 16.9998 33.3327ZM16.9998 30.5539C17.9229 29.3253 18.6879 28.0982 19.2948 26.8727C19.9015 25.6474 20.4036 24.3264 20.8011 22.9098H13.1986C13.6389 24.4117 14.1516 25.7755 14.7369 27.001C15.3225 28.2263 16.0768 29.4106 16.9998 30.5539ZM14.4615 30.2206C13.7115 29.3873 13.0293 28.3098 12.4148 26.9881C11.8007 25.6664 11.3365 24.307 11.0223 22.9098H4.79775C5.69748 24.8989 7.02386 26.5431 8.77692 27.8423C10.5303 29.1414 12.4251 29.9342 14.4615 30.2206ZM19.5382 30.2206C21.5746 29.9342 23.4694 29.1414 25.2228 27.8423C26.9758 26.5431 28.3022 24.8989 29.2019 22.9098H22.9773C22.5565 24.3284 22.0389 25.6985 21.4244 27.0202C20.8103 28.3419 20.1815 29.4087 19.5382 30.2206ZM3.95192 20.8264H10.5928C10.4944 20.1981 10.4191 19.5596 10.3669 18.911C10.3144 18.2627 10.2882 17.6255 10.2882 16.9993C10.2882 16.3732 10.3144 15.736 10.3669 15.0877C10.4191 14.4391 10.4944 13.8006 10.5928 13.1723H3.95192C3.77025 13.6937 3.63553 14.2946 3.54775 14.9752C3.46025 15.6557 3.4165 16.3305 3.4165 16.9993C3.4165 17.6682 3.46025 18.343 3.54775 19.0235C3.63553 19.7041 3.77025 20.305 3.95192 20.8264ZM12.7178 20.8264H21.2819C21.408 20.1981 21.4972 19.5703 21.5494 18.9431C21.6019 18.3162 21.6282 17.6682 21.6282 16.9993C21.6282 16.3305 21.6019 15.6825 21.5494 15.0556C21.4972 14.4284 21.408 13.8006 21.2819 13.1723H12.7178C12.5916 13.8006 12.5025 14.4284 12.4503 15.0556C12.3978 15.6825 12.3715 16.3305 12.3715 16.9993C12.3715 17.6682 12.3978 18.3162 12.4503 18.9431C12.5025 19.5703 12.5916 20.1981 12.7178 20.8264ZM23.4069 20.8264H30.0478C30.2294 20.305 30.3641 19.7041 30.4519 19.0235C30.5394 18.343 30.5832 17.6682 30.5832 16.9993C30.5832 16.3305 30.5394 15.6557 30.4519 14.9752C30.3641 14.2946 30.2294 13.6937 30.0478 13.1723H23.4069C23.5053 13.8006 23.5805 14.4391 23.6328 15.0877C23.6853 15.736 23.7115 16.3732 23.7115 16.9993C23.7115 17.6255 23.6853 18.2627 23.6328 18.911C23.5805 19.5596 23.5053 20.1981 23.4069 20.8264ZM22.9773 11.0889H29.2019C28.2808 9.05699 26.9704 7.41282 25.2707 6.15643C23.5709 4.90004 21.6601 4.09657 19.5382 3.74602C20.2882 4.68629 20.9597 5.80115 21.5528 7.0906C22.1458 8.38032 22.6207 9.7131 22.9773 11.0889ZM13.1986 11.0889H20.8011C20.3608 9.60838 19.8319 8.2356 19.2144 6.9706C18.5969 5.7056 17.8587 4.46088 16.9998 3.23643C16.1409 4.46088 15.4028 5.7056 14.7853 6.9706C14.1678 8.2356 13.6389 9.60838 13.1986 11.0889ZM4.79775 11.0889H11.0223C11.379 9.7131 11.8539 8.38032 12.4469 7.0906C13.04 5.80115 13.7115 4.68629 14.4615 3.74602C12.3182 4.09657 10.4021 4.90532 8.71317 6.17227C7.024 7.43949 5.71886 9.07838 4.79775 11.0889Z" fill="#399624"/>
</svg>
