<svg width="42" height="27" viewBox="0 0 42 27" fill="none" xmlns="http://www.w3.org/2000/svg">
<g id="Group 92">
<g id="Mask group">
<mask id="mask0_228_8446" style="mask-type:alpha" maskUnits="userSpaceOnUse" x="14" y="0" width="28" height="27">
<path id="&#226;&#128;&#156;" d="M36.225 26.4463H32.1045L35.8718 9.84652C33.635 9.25788 32.1045 7.37422 32.1045 5.01963C32.1045 2.19415 34.2236 0.0750313 36.9314 0.0750313C39.8746 0.0750313 41.876 2.31187 41.876 5.01963C41.876 6.66784 41.6405 7.84514 40.8164 10.4352L36.225 26.4463ZM17.8593 9.84652C15.6224 9.25788 14.092 7.37422 14.092 5.01963C14.092 2.19415 16.2111 0.0750313 18.9188 0.0750313C21.8621 0.0750313 23.8635 2.31187 23.8635 5.01963C23.8635 6.66784 23.628 7.84514 22.8039 10.4352L18.2125 26.4463H14.092L17.8593 9.84652Z" fill="#E7F3FB"/>
</mask>
<g mask="url(#mask0_228_8446)">
<rect id="Rectangle 110" x="43.8794" y="29.5679" width="15.8956" height="32.5139" transform="rotate(180 43.8794 29.5679)" fill="#C9E0F6"/>
</g>
</g>
<g id="Mask group_2">
<mask id="mask1_228_8446" style="mask-type:alpha" maskUnits="userSpaceOnUse" x="0" y="0" width="28" height="27">
<path id="&#226;&#128;&#156;_2" d="M22.3329 26.4464H18.2124L21.9797 9.84658C19.7429 9.25794 18.2124 7.37428 18.2124 5.0197C18.2124 2.19421 20.3315 0.0750923 23.0393 0.0750923C25.9825 0.0750923 27.9839 2.31193 27.9839 5.0197C27.9839 6.6679 27.7484 7.8452 26.9243 10.4352L22.3329 26.4464ZM3.9672 9.84658C1.73035 9.25794 0.199881 7.37428 0.199881 5.0197C0.199881 2.19421 2.319 0.0750923 5.02676 0.0750923C7.96998 0.0750923 9.97138 2.31193 9.97138 5.0197C9.97138 6.6679 9.73592 7.8452 8.91181 10.4352L4.32039 26.4464H0.199881L3.9672 9.84658Z" fill="#E7F3FB"/>
</mask>
<g mask="url(#mask1_228_8446)">
<rect id="Rectangle 110_2" x="29.9873" y="29.5679" width="15.8956" height="32.5139" transform="rotate(180 29.9873 29.5679)" fill="#C9E0F6"/>
</g>
</g>
</g>
</svg>
