<svg width="44" height="48" viewBox="0 0 44 48" fill="none" xmlns="http://www.w3.org/2000/svg">
<path d="M39.099 31.5421V47.4158C39.099 47.7377 38.8366 48 38.5144 48H30.5531C30.2274 48 29.965 47.7377 29.965 47.4158V31.5421H29.699C28.7828 31.9004 27.8255 32.1755 26.8461 32.3652C25.7107 32.5806 24.5977 32.6766 23.3991 32.6509C23.2632 32.9728 23.0734 33.2679 22.8344 33.5102C24.0072 34.5628 24.0599 36.6503 22.9539 37.7684C24.1267 38.821 24.1794 40.9085 23.0734 42.0266C24.4911 43.2981 24.3751 46.1583 21.9603 46.8889C20.3294 47.3806 18.2005 47.6593 16.0588 47.7155C13.9428 47.7717 11.8081 47.609 10.1209 47.2179L6.4408 47.3338C6.16546 47.6827 5.78 47.8782 5.30783 47.9052C4.2885 47.9918 3.07234 47.9684 2.02607 47.9977C1.19889 48.0211 0.508795 47.3701 0.481847 46.5412C0.322504 41.3405 0.096379 36.0965 0.000304673 30.8958C-0.0160983 30.0728 0.631817 29.3961 1.46134 29.3691L4.73607 29.2766C5.41679 29.2567 6.01784 29.6981 6.2135 30.335L9.27617 29.8175L10.2029 25.447C5.84209 18.9818 6.66927 10.3132 12.2053 4.78124C18.5848 -1.59375 28.9304 -1.59375 35.3135 4.78124C40.3316 9.79927 41.5443 17.4984 38.2859 23.8043L43.3943 30.6078C43.6837 30.9965 43.3943 31.5409 42.9256 31.5409V31.5445H39.099V31.5421ZM25.7178 31.363C25.5022 31.1405 25.4987 30.8151 25.7049 30.5668L27.3288 28.4032C25.6111 28.9078 23.7951 29.0436 22.0119 28.7954C23.0546 29.1443 23.6463 30.3748 23.6322 31.4871C24.3692 31.4859 25.0031 31.452 25.7178 31.363ZM28.6363 26.6529L34.0669 19.4174C34.2426 19.1855 34.5589 19.1188 34.8073 19.2511C36.7101 12.0355 31.283 4.91003 23.7611 4.91003C16.3611 4.91003 10.9352 11.8365 12.6446 18.9888C12.8309 19.7686 13.1027 20.5249 13.4449 21.2426C14.504 21.5213 15.3441 22.5797 15.7834 23.7411C15.9065 24.0631 15.999 24.412 16.0728 24.7738C17.0828 25.6928 18.2615 26.4328 19.5538 26.9444C22.4794 28.1035 25.7904 28.0005 28.6363 26.6529ZM35.6978 20.3481L37.5044 22.7576C40.2109 16.9798 38.9959 10.113 34.4851 5.60899C28.5637 -0.311724 18.9586 -0.311724 13.0336 5.60899C8.21114 10.4245 7.19885 17.8824 10.5556 23.7996C10.8216 22.6417 11.3429 21.6887 12.1959 21.3234C10.1432 16.5747 11.2094 11.0684 14.8532 7.42724C19.7717 2.50872 27.7459 2.50872 32.6679 7.42724C36.0329 10.7898 37.235 15.7937 35.6978 20.3481ZM37.9298 46.828V30.9544C37.9298 30.6324 38.1922 30.3702 38.5144 30.3702H41.7587L34.532 20.7427L27.3088 30.3702H30.5531C30.8753 30.3702 31.1378 30.6324 31.1378 30.9544V46.828H37.9298ZM21.8256 41.4552C22.0048 41.4318 22.238 41.2363 22.3669 41.0607C22.839 40.4238 22.8121 39.3818 22.3036 38.7741C22.1337 38.5751 21.9287 38.4393 21.7096 38.4053L16.2193 39.1488C15.4589 39.2518 15.3031 38.0939 16.0635 37.9909L21.3147 37.2802C21.3815 37.2498 21.4577 37.2298 21.5338 37.2298C22.4735 37.1994 22.9949 35.4842 22.1853 34.5148C22.0154 34.3122 21.8068 34.1799 21.5877 34.146L16.2205 34.873C15.4601 34.9761 15.3042 33.8181 16.0646 33.7151L21.1988 33.0185C21.2655 32.9916 21.3382 32.9717 21.4143 32.9717C22.388 32.9412 22.8789 31.1663 22.0318 30.1875C21.8455 29.9721 21.6229 29.8421 21.3909 29.8761C19.4143 30.1383 18.2591 30.4041 15.9674 30.623C15.4554 30.6734 15.2339 30.3374 15.1742 29.7239C15.1472 29.4218 15.1472 28.991 15.1508 28.4758C15.1543 27.2816 15.1707 25.4189 14.6926 24.1544C14.0283 22.3959 12.3119 21.1642 11.6769 24.1509L10.3412 30.4463C10.2908 30.6757 10.1092 30.8607 9.86316 30.9005L6.42908 31.4812C6.49938 34.1027 6.54156 36.4829 6.58491 38.8619L6.75714 46.1537L10.1221 46.0471C10.1889 46.0401 10.2545 46.0436 10.3213 46.06C13.4999 46.8128 18.5052 46.7074 21.6229 45.7649C23.0312 45.34 23.071 43.8074 22.4231 43.03C22.2204 42.7911 21.9615 42.6448 21.6955 42.6518L16.2193 43.3953C15.4589 43.4983 15.3031 42.3404 16.0635 42.2373L21.8256 41.4552ZM4.7677 30.4404C3.67456 30.4732 2.5826 30.4966 1.48946 30.5329C1.3102 30.5399 1.16374 30.6991 1.17077 30.8713C1.40979 36.0555 1.48946 41.3159 1.6488 46.5096C1.65583 46.6887 1.81517 46.8351 1.99443 46.8315C3.08757 46.7988 4.18305 46.7753 5.27619 46.7391C5.43202 46.732 5.56559 46.5962 5.57847 46.5072C5.5691 46.122 5.55856 45.7404 5.54918 45.3692C5.34649 40.521 5.2633 35.6118 5.11451 30.7635C5.10982 30.5832 4.95048 30.4369 4.7677 30.4404ZM16.3247 29.4148C18.3271 29.2052 19.4401 28.957 21.2362 28.7182L21.4553 28.7053C19.569 28.3564 17.8057 27.5837 16.2779 26.4515C16.3447 27.5661 16.2849 28.5016 16.3247 29.4148ZM24.3024 6.55851L26.6703 12.512L33.0698 12.9206C33.5982 12.9534 33.8103 13.6207 33.4049 13.9556L28.4699 18.044L30.0575 24.2539C30.1876 24.755 29.6287 25.1999 29.1436 24.8674L23.76 21.4627L18.34 24.8908C17.8947 25.173 17.3335 24.7609 17.4636 24.2539H17.4601L19.0511 18.044L14.1162 13.9556C13.7108 13.6207 13.9135 12.9429 14.4712 12.9206L20.8508 12.512L23.2151 6.55851C23.4132 6.06677 24.1103 6.07028 24.3024 6.55851ZM25.7213 13.2847L23.7623 8.34982L21.8162 13.2484C21.7436 13.4709 21.5409 13.6395 21.2948 13.6535L15.9979 13.9919L20.0634 17.3638C20.2462 17.4996 20.3388 17.7384 20.279 17.9749L18.9621 23.1159L23.4354 20.2849C23.6217 20.162 23.8701 20.1526 24.0693 20.2779L28.559 23.1159L27.2432 17.9749C27.187 17.763 27.2561 17.5265 27.4354 17.3813L31.5232 13.9931L26.2263 13.6535H26.2298C26.0095 13.6406 25.8068 13.5037 25.7213 13.2847Z" fill="#0E4C8C"/>
</svg>
