<svg width="18" height="18" viewBox="0 0 18 18" fill="none" xmlns="http://www.w3.org/2000/svg">
<path d="M6.92505 13.2245C5.10838 13.2245 3.57105 12.5952 2.31305 11.3365C1.05505 10.0778 0.425716 8.5405 0.425049 6.7245C0.424383 4.9085 1.05372 3.37117 2.31305 2.1125C3.57238 0.853836 5.10972 0.224503 6.92505 0.224503C8.74038 0.224503 10.278 0.853836 11.538 2.1125C12.798 3.37117 13.427 4.9085 13.425 6.7245C13.425 7.45784 13.3084 8.1495 13.075 8.7995C12.8417 9.4495 12.525 10.0245 12.125 10.5245L17.725 16.1245C17.9084 16.3078 18 16.5412 18 16.8245C18 17.1078 17.9084 17.3412 17.725 17.5245C17.5417 17.7078 17.3084 17.7995 17.025 17.7995C16.7417 17.7995 16.5084 17.7078 16.325 17.5245L10.725 11.9245C10.225 12.3245 9.65005 12.6412 9.00005 12.8745C8.35005 13.1078 7.65838 13.2245 6.92505 13.2245ZM6.92505 11.2245C8.17505 11.2245 9.23772 10.7872 10.113 9.9125C10.9884 9.03784 11.4257 7.97517 11.425 6.7245C11.4244 5.47384 10.987 4.4115 10.113 3.5375C9.23905 2.6635 8.17638 2.22584 6.92505 2.2245C5.67372 2.22317 4.61138 2.66084 3.73805 3.5375C2.86472 4.41417 2.42705 5.4765 2.42505 6.7245C2.42305 7.9725 2.86072 9.03517 3.73805 9.9125C4.61538 10.7898 5.67772 11.2272 6.92505 11.2245Z" fill="black"/>
</svg>
