<svg width="66" height="29" viewBox="0 0 66 29" fill="none" xmlns="http://www.w3.org/2000/svg">
<g id="Group 82">
<path id="Vector" d="M9.51957 14.8759H7.24191C6.71312 14.8759 6.28235 14.4474 6.28235 13.9213V12.0044H0.00137329V9.25613L0.0271694 9.21764L5.9496 0.251678H8.56259C9.09138 0.251678 9.52215 0.680218 9.52215 1.20627V9.14836H10.4121C10.9409 9.14836 11.3716 9.5769 11.3716 10.1029V12.0044H9.52215V14.8759H9.51957ZM0.313487 11.6939H6.59447V13.9187C6.59447 14.2754 6.88594 14.5628 7.24191 14.5628H9.20746V11.6914H11.0569V10.0978C11.0569 9.74113 10.7654 9.45372 10.4095 9.45372H9.20746V1.2037C9.20746 0.84958 8.91598 0.559611 8.56001 0.559611H6.11469L0.313487 9.34851V11.6939ZM5.63491 9.45629H2.92132L6.31072 4.21374H6.59188V8.5017C6.59188 9.02775 6.16112 9.45629 5.63233 9.45629M3.49138 9.14579H5.63491C5.99087 9.14579 6.28235 8.85582 6.28235 8.5017V4.83217L3.49138 9.14579Z" fill="white"/>
<path id="Vector_2" d="M15.7978 14.8298C15.6431 14.8298 15.4857 14.799 15.3361 14.7374C15.1194 14.6476 14.9157 14.5398 14.7274 14.4166C14.018 13.9522 13.4505 13.3466 13.0404 12.6127C12.6354 11.8865 12.3491 11.0679 12.1892 10.18C12.0318 9.29982 11.9544 8.41965 11.9544 7.56514C11.9544 6.71062 12.0344 5.83045 12.1892 4.95028C12.3465 4.06241 12.6328 3.24382 13.0404 2.51761C13.4505 1.78627 14.018 1.17811 14.7274 0.713641C15.4419 0.24661 16.3601 0.0105286 17.4538 0.0105286C18.5475 0.0105286 19.4684 0.24661 20.1803 0.713641C20.8897 1.17811 21.4572 1.78371 21.8673 2.51761C22.2723 3.24382 22.5586 4.06241 22.7185 4.95028C22.7727 5.24794 22.7056 5.55075 22.5328 5.80479L20.2577 9.16638C20.1571 9.31522 19.9765 9.37424 19.8089 9.31778C19.6386 9.25876 19.5303 9.09967 19.5432 8.91747C19.5767 8.38372 19.5948 7.92952 19.5948 7.56257C19.5948 7.19562 19.5793 6.74142 19.5458 6.21793C19.5122 5.70728 19.422 5.20945 19.2775 4.73729C19.1356 4.27539 18.9138 3.88021 18.6198 3.56458C18.336 3.25921 17.9543 3.11038 17.4538 3.11038C16.9534 3.11038 16.5562 3.25921 16.2802 3.56458C15.9913 3.88278 15.7746 4.27796 15.6327 4.73986C15.4883 5.21202 15.398 5.70984 15.3645 6.2205C15.3309 6.73885 15.3155 7.19305 15.3155 7.56514C15.3155 7.93722 15.3309 8.39142 15.3645 8.90977C15.398 9.42043 15.4883 9.91825 15.6327 10.3904C15.7746 10.8523 15.9913 11.2475 16.2802 11.5657C16.5562 11.8711 16.9405 12.0199 17.4538 12.0199C17.4977 12.0199 17.539 12.0199 17.5828 12.0173C17.7273 12.0071 17.864 12.084 17.9388 12.2098C18.0136 12.3407 18.0084 12.4998 17.9233 12.6229L16.7832 14.3089C16.5588 14.6424 16.1822 14.8298 15.7978 14.8298ZM17.4564 0.318461C16.4221 0.318461 15.5631 0.53658 14.9002 0.970251C14.2321 1.40649 13.6982 1.97616 13.3138 2.66645C12.9243 3.36443 12.6509 4.14965 12.4987 5.00416C12.3439 5.86638 12.2665 6.72859 12.2665 7.56514C12.2665 8.40169 12.3439 9.2639 12.4961 10.1261C12.6483 10.9806 12.9217 11.7684 13.3138 12.4638C13.6982 13.1515 14.2321 13.7238 14.9002 14.16C15.073 14.2729 15.2613 14.373 15.4599 14.4551C15.8468 14.6168 16.2931 14.4833 16.5278 14.1395L17.6679 12.4536C17.6937 12.4151 17.6757 12.3766 17.6679 12.3663C17.6602 12.3509 17.6447 12.3253 17.6009 12.3278C17.5544 12.3304 17.5054 12.333 17.4564 12.333C16.858 12.333 16.3834 12.1456 16.0506 11.7761C15.7333 11.4246 15.4909 10.9883 15.3361 10.4828C15.1839 9.98754 15.0885 9.46662 15.0549 8.9303C15.0214 8.40425 15.0034 7.94492 15.0034 7.56514C15.0034 7.18535 15.0214 6.72602 15.0549 6.19997C15.0885 5.66622 15.1839 5.14273 15.3361 4.64748C15.4909 4.14452 15.7308 3.70828 16.0506 3.35673C16.3859 2.98721 16.858 2.79988 17.4564 2.79988C18.0549 2.79988 18.5088 2.98721 18.8519 3.35673C19.1769 3.70828 19.422 4.14452 19.5767 4.65004C19.7289 5.1453 19.8244 5.66622 19.8579 6.20254C19.8914 6.73372 19.9095 7.19305 19.9095 7.5677C19.9095 7.94235 19.8914 8.40169 19.8579 8.93287C19.8527 9.00215 19.8966 9.02268 19.9121 9.03038C19.9327 9.03808 19.974 9.04321 20.0023 8.99959L22.2774 5.63799C22.4038 5.45067 22.4528 5.22998 22.4141 5.01443C22.2619 4.15479 21.9859 3.36956 21.5964 2.67414C21.2121 1.98643 20.6782 1.41419 20.0101 0.977949C19.3472 0.546844 18.4882 0.326159 17.4538 0.326159" fill="white"/>
<path id="Vector_3" d="M30.5085 22.9361H20.072V18.702L29.8327 3.91873H34.0372C34.7749 3.91873 35.3707 4.51407 35.3707 5.24541V18.702H37.1093C37.847 18.702 38.4455 19.2974 38.4455 20.0313V22.9361H35.3733V27.7065H31.8472C31.1095 27.7065 30.5111 27.1112 30.5111 26.3773V22.9361H30.5085ZM30.5085 10.5034H30.4414L25.138 18.702H29.1723C29.91 18.702 30.5085 18.1067 30.5085 17.3728V10.5034Z" fill="white"/>
<path id="Vector_4" d="M19.4043 11.5525H20.4309V9.73056H20.9597C21.2718 9.73056 21.5246 9.98204 21.5246 10.2925V11.5525H23.356V11.9374C23.356 12.3249 23.0388 12.6405 22.6493 12.6405H21.5246V14.4625H20.9623C20.6682 14.4625 20.4309 14.2264 20.4309 13.9338V12.6405H18.5995V12.3531C18.5995 11.9117 18.9606 11.5525 19.4043 11.5525Z" fill="white"/>
<path id="Vector_5" d="M62.127 7.4112L65.1991 5.8818C65.359 5.80225 65.359 5.57387 65.1991 5.49432L62.127 3.96492C62.0031 3.90334 61.8587 3.90334 61.7375 3.96492L58.6653 5.49432C58.5054 5.57387 58.5054 5.80225 58.6653 5.8818L61.7375 7.4112C61.8613 7.47278 62.0057 7.47278 62.127 7.4112Z" fill="white"/>
<path id="Vector_6" d="M40.0034 15.8126C40.0034 14.4012 40.1324 12.9693 40.3929 11.5118C40.6508 10.0568 41.1126 8.73526 41.7781 7.54716C42.441 6.35905 43.3489 5.39163 44.4968 4.63976C45.6447 3.89046 47.1072 3.51324 48.887 3.51324C50.6669 3.51324 52.1294 3.8879 53.2773 4.63976C54.4251 5.39163 55.3305 6.35905 55.996 7.54716C56.6589 8.73526 57.1207 10.0568 57.3812 11.5118C57.6391 12.9693 57.7707 14.4012 57.7707 15.8126C57.7707 17.2239 57.6417 18.6584 57.3812 20.1134C57.1232 21.5709 56.6615 22.8899 55.996 24.078C55.3331 25.2661 54.4251 26.2335 53.2773 26.9854C52.1294 27.7347 50.6643 28.1119 48.887 28.1119C47.1098 28.1119 45.6447 27.7373 44.4968 26.9854C43.3489 26.2361 42.441 25.2661 41.7781 24.078C41.1151 22.8899 40.6534 21.5709 40.3929 20.1134C40.1349 18.6584 40.0034 17.2239 40.0034 15.8126ZM45.0694 15.8126C45.0694 16.4413 45.0978 17.1906 45.1546 18.063C45.2113 18.9355 45.3635 19.7772 45.6111 20.583C45.8588 21.3887 46.2354 22.0739 46.7435 22.6333C47.2491 23.1927 47.9636 23.4724 48.8896 23.4724C49.8156 23.4724 50.4992 23.1927 51.0177 22.6333C51.5361 22.0739 51.9179 21.3913 52.1655 20.583C52.4132 19.7772 52.5653 18.9355 52.6221 18.063C52.6788 17.1906 52.7072 16.4387 52.7072 15.8126C52.7072 15.1864 52.6788 14.4346 52.6221 13.5621C52.5653 12.6896 52.4132 11.8479 52.1655 11.0422C51.9179 10.2364 51.5336 9.55385 51.0177 8.99187C50.4992 8.43246 49.7899 8.15276 48.8896 8.15276C47.9894 8.15276 47.2517 8.43246 46.7435 8.99187C46.2379 9.55128 45.8588 10.2339 45.6111 11.0422C45.3635 11.8505 45.2113 12.6896 45.1546 13.5621C45.0978 14.4346 45.0694 15.1864 45.0694 15.8126Z" fill="white"/>
</g>
</svg>
