<svg width="140" height="45" viewBox="0 0 140 45" fill="none" xmlns="http://www.w3.org/2000/svg">
<g clip-path="url(#clip0_410_25174)">
<path d="M0.769485 21.012L5.58342 16.1981H15.2113L3.66245 27.7577L0.769485 24.8647C-0.292954 23.8023 -0.292954 22.0745 0.769485 21.012ZM8.33227 6.6009H15.1392L21.9462 13.4079H5.60335V9.32982C5.60335 7.79672 6.79917 6.6009 8.33227 6.6009ZM5.61408 36.5378V29.7308L12.4211 22.9238V39.2667H8.343C6.8099 39.2667 5.61408 38.0709 5.61408 36.5378ZM15.2113 39.2759V29.6587L26.7709 41.1969L23.8779 44.0898C22.8155 45.1523 21.0877 45.1523 20.0252 44.0898L15.2113 39.2759ZM17.1215 4.64926L20.0038 1.7563C21.0662 0.693863 22.794 0.693863 23.8565 1.7563L28.6704 6.57024V16.1981L17.1215 4.64926ZM21.9462 32.4383H38.2783V36.5163C38.2783 38.0494 37.0825 39.2452 35.5601 39.2452H28.7532L21.9462 32.4383ZM40.2208 18.0992L43.103 20.9921C44.1654 22.0546 44.1654 23.7824 43.103 24.8448L38.2891 29.6587H28.6719L40.2208 18.0992ZM31.4514 6.5917H35.5295C37.0626 6.5917 38.2584 7.78752 38.2584 9.32062V16.1276L31.4514 22.9238V6.5917ZM56.2049 10.7924C56.2049 10.2711 56.3168 9.66864 56.4808 9.32062H57.3501C57.2167 9.68857 57.1462 10.1485 57.1462 10.5164C57.1462 11.723 57.6475 12.5095 59.4045 12.5095H63.8704L63.3905 11.099C63.0839 10.2206 63.1759 9.60731 63.5944 9.15658C63.921 8.80856 64.3717 8.60466 65.1582 8.60466H67.7537V12.5095H69.9614V8.60466H70.9426V13.4079H66.7725V9.50306H64.9221C64.4008 9.50306 64.1555 9.69776 64.1555 10.0964C64.1555 10.2696 64.2061 10.4536 64.2782 10.659L64.9635 12.6934V13.4094H59.3109C56.7967 13.4094 56.2034 12.0495 56.2034 10.7924H56.2049ZM56.4502 19.6737H60.3029V27.3698H70.3293L78.0362 19.6737H83.4941L73.7022 29.4548L83.4941 39.2452H78.0362L70.0243 31.2332H60.3044V39.2452H56.4517V19.6737H56.4502ZM59.4244 14.9318L60.1189 14.2373L60.8134 14.9318L60.1189 15.6263L59.4244 14.9318ZM60.8149 14.9318L61.5094 14.2373L62.2039 14.9318L61.5094 15.6263L60.8149 14.9318ZM65.1689 7.08229L65.8634 6.3878L66.5579 7.08229L65.8634 7.77679L65.1689 7.08229ZM66.5579 7.08229L67.2631 6.3878L67.9576 7.08229L67.2631 7.77679L66.5579 7.08229ZM68.367 14.9318L69.0615 14.2373L69.756 14.9318L69.0615 15.6263L68.367 14.9318ZM69.7575 14.9318L70.452 14.2373L71.1465 14.9318L70.452 15.6263L69.7575 14.9318ZM72.885 14.7263H74.3767C75.174 14.7263 75.7059 14.573 75.7059 13.7758V13.4079H74.6435C72.9371 13.4079 72.4052 12.5907 72.4159 11.0162C72.4266 9.36049 72.9877 8.60466 74.6435 8.60466H76.6871V12.5095H82.1143V11.027C82.1143 10.1577 81.7571 9.87254 80.8679 9.87254H78.3536V9.15658L80.2439 6.6009H81.337L79.5279 8.98181H80.897C82.5727 8.98181 83.0939 9.70696 83.0939 11.1174V12.5079H85.0563V6.6009H86.0375V13.4079H76.6749V13.7651C76.6749 15.0943 75.7351 15.6247 74.3752 15.6247H72.8835V14.7248L72.885 14.7263ZM75.7059 12.5095V9.50459H74.6435C73.5504 9.50459 73.3863 9.86181 73.3971 11.0178C73.4078 12.0495 73.509 12.5095 74.6435 12.5095H75.7059ZM86.9482 19.6737H110.199V23.5263H90.8008V27.3698H105.979V31.2332H90.8008V39.2452H86.9482V19.6737ZM87.5507 6.6009H88.5319V13.4079H87.5507V6.6009ZM91.8541 11.0469H92.7126C92.59 11.5375 92.498 12.0388 92.498 12.836C92.498 13.9291 92.8966 14.8398 94.2565 14.8398C94.8804 14.8398 95.3802 14.6359 95.6562 14.2879C95.8907 13.9813 95.9735 13.5627 95.9735 12.9495L95.9843 6.60243H96.9654V12.5095H99.1731V8.60466H100.154V13.4079H96.9547C96.8213 14.849 95.8202 15.7382 94.1951 15.7382C92.2741 15.7382 91.5689 14.4504 91.5689 13.0399C91.5689 12.304 91.7023 11.5268 91.8556 11.0469H91.8541ZM97.5771 14.9318L98.2716 14.2373L98.9661 14.9318L98.2716 15.6263L97.5771 14.9318ZM98.9677 14.9318L99.6622 14.2373L100.357 14.9318L99.6622 15.6263L98.9677 14.9318ZM102.095 14.7263H103.587C104.384 14.7263 104.916 14.573 104.916 13.7758V13.4079H103.854C102.167 13.4079 101.626 12.5907 101.626 11.0162C101.626 9.32982 102.239 8.60466 103.854 8.60466H105.897V12.5095H108.105V8.60466H109.914C111.662 8.60466 112.378 9.37121 112.378 11.0469V12.5079H114.412V8.60313H115.393V12.5079H117.601V6.6009H118.582V13.4079H105.899V13.7651C105.899 15.0943 104.948 15.6247 103.588 15.6247H102.097V14.7248L102.095 14.7263ZM104.916 12.5095V9.50459H103.854C102.77 9.50459 102.607 9.88327 102.607 11.0178C102.607 12.0296 102.741 12.5309 103.854 12.5202L104.916 12.5095ZM111.395 12.5095V11.0484C111.395 9.85261 111.027 9.50459 109.912 9.50459H109.085V12.5095H111.395ZM113.511 7.08229L114.205 6.3878L114.9 7.08229L114.205 7.77679L113.511 7.08229ZM113.675 19.6737H117.527V27.3698H135.526V19.6737H139.379V39.2452H135.526V31.2332H117.527V39.2452H113.675V19.6737ZM114.901 7.08229L115.596 6.3878L116.29 7.08229L115.596 7.77679L114.901 7.08229ZM120.092 6.6009H121.073V13.4079H120.092V6.6009ZM124.284 10.7924C124.284 10.2711 124.396 9.66864 124.56 9.32062H125.429C125.296 9.68857 125.225 10.1485 125.225 10.5164C125.225 11.723 125.726 12.5095 127.483 12.5095H132.021V8.60466H133.003V12.5095H135.21V8.60466H136.191V12.5095H138.399V8.60466H139.38V13.4079H127.391C124.877 13.4079 124.284 12.048 124.284 10.7909V10.7924ZM127.35 8.60466L128.044 7.91017L128.739 8.60466L128.044 9.29916L127.35 8.60466ZM128.739 8.60466L129.433 7.91017L130.128 8.60466L129.433 9.29916L128.739 8.60466ZM134.309 14.9318L135.003 14.2373L135.698 14.9318L135.003 15.6263L134.309 14.9318ZM135.699 14.9318L136.394 14.2373L137.088 14.9318L136.394 15.6263L135.699 14.9318ZM138.194 14.9318L138.888 14.2373L139.583 14.9318L138.888 15.6263L138.194 14.9318Z" fill="white"/>
</g>
<defs>
<clipPath id="clip0_410_25174">
<rect width="139.512" height="44" fill="white" transform="translate(0 0.948242)"/>
</clipPath>
</defs>
</svg>
