<svg width="140" height="45" viewBox="0 0 140 45" fill="none" xmlns="http://www.w3.org/2000/svg">
<g clip-path="url(#clip0_410_28891)">
<path d="M1.25728 21.012L6.07121 16.1981H15.6991L4.15024 27.7577L1.25728 24.8647C0.194839 23.8023 0.194839 22.0745 1.25728 21.012ZM8.82007 6.6009H15.627L22.434 13.4079H6.09115V9.32982C6.09115 7.79672 7.28696 6.6009 8.82007 6.6009ZM6.10188 36.5378V29.7308L12.9088 22.9238V39.2667H8.8308C7.2977 39.2667 6.10188 38.0709 6.10188 36.5378ZM15.6991 39.2759V29.6587L27.2587 41.1969L24.3657 44.0898C23.3033 45.1523 21.5755 45.1523 20.513 44.0898L15.6991 39.2759ZM17.6093 4.64926L20.4916 1.7563C21.554 0.693863 23.2818 0.693863 24.3442 1.7563L29.1582 6.57024V16.1981L17.6093 4.64926ZM22.434 32.4383H38.7661V36.5163C38.7661 38.0494 37.5703 39.2452 36.0479 39.2452H29.241L22.434 32.4383ZM40.7086 18.0992L43.5908 20.9921C44.6532 22.0546 44.6532 23.7824 43.5908 24.8448L38.7769 29.6587H29.1597L40.7086 18.0992ZM31.9392 6.5917H36.0173C37.5504 6.5917 38.7462 7.78752 38.7462 9.32062V16.1276L31.9392 22.9238V6.5917ZM56.6927 10.7924C56.6927 10.2711 56.8046 9.66864 56.9686 9.32062H57.8379C57.7045 9.68857 57.634 10.1485 57.634 10.5164C57.634 11.723 58.1353 12.5095 59.8923 12.5095H64.3582L63.8783 11.099C63.5717 10.2206 63.6637 9.60731 64.0822 9.15658C64.4088 8.80856 64.8595 8.60466 65.646 8.60466H68.2415V12.5095H70.4492V8.60466H71.4304V13.4079H67.2603V9.50306H65.4099C64.8886 9.50306 64.6433 9.69776 64.6433 10.0964C64.6433 10.2696 64.6939 10.4536 64.766 10.659L65.4513 12.6934V13.4094H59.7987C57.2845 13.4094 56.6911 12.0495 56.6911 10.7924H56.6927ZM56.938 19.6737H60.7907V27.3698H70.8171L78.524 19.6737H83.9819L74.19 29.4548L83.9819 39.2452H78.524L70.5121 31.2332H60.7922V39.2452H56.9395V19.6737H56.938ZM59.9122 14.9318L60.6067 14.2373L61.3012 14.9318L60.6067 15.6263L59.9122 14.9318ZM61.3027 14.9318L61.9972 14.2373L62.6917 14.9318L61.9972 15.6263L61.3027 14.9318ZM65.6567 7.08229L66.3512 6.3878L67.0457 7.08229L66.3512 7.77679L65.6567 7.08229ZM67.0457 7.08229L67.7509 6.3878L68.4454 7.08229L67.7509 7.77679L67.0457 7.08229ZM68.8548 14.9318L69.5493 14.2373L70.2438 14.9318L69.5493 15.6263L68.8548 14.9318ZM70.2453 14.9318L70.9398 14.2373L71.6343 14.9318L70.9398 15.6263L70.2453 14.9318ZM73.3728 14.7263H74.8645C75.6617 14.7263 76.1937 14.573 76.1937 13.7758V13.4079H75.1313C73.4249 13.4079 72.893 12.5907 72.9037 11.0162C72.9144 9.36049 73.4755 8.60466 75.1313 8.60466H77.1749V12.5095H82.6021V11.027C82.6021 10.1577 82.2449 9.87254 81.3557 9.87254H78.8414V9.15658L80.7317 6.6009H81.8248L80.0157 8.98181H81.3848C83.0605 8.98181 83.5817 9.70696 83.5817 11.1174V12.5079H85.5441V6.6009H86.5253V13.4079H77.1626V13.7651C77.1626 15.0943 76.2229 15.6247 74.863 15.6247H73.3713V14.7248L73.3728 14.7263ZM76.1937 12.5095V9.50459H75.1313C74.0382 9.50459 73.8741 9.86181 73.8849 11.0178C73.8956 12.0495 73.9968 12.5095 75.1313 12.5095H76.1937ZM87.436 19.6737H110.687V23.5263H91.2886V27.3698H106.466V31.2332H91.2886V39.2452H87.436V19.6737ZM88.0385 6.6009H89.0196V13.4079H88.0385V6.6009ZM92.3419 11.0469H93.2004C93.0778 11.5375 92.9858 12.0388 92.9858 12.836C92.9858 13.9291 93.3844 14.8398 94.7442 14.8398C95.3682 14.8398 95.868 14.6359 96.144 14.2879C96.3785 13.9813 96.4613 13.5627 96.4613 12.9495L96.4721 6.60243H97.4532V12.5095H99.6609V8.60466H100.642V13.4079H97.4425C97.3091 14.849 96.308 15.7382 94.6829 15.7382C92.7619 15.7382 92.0567 14.4504 92.0567 13.0399C92.0567 12.304 92.1901 11.5268 92.3434 11.0469H92.3419ZM98.0649 14.9318L98.7594 14.2373L99.4539 14.9318L98.7594 15.6263L98.0649 14.9318ZM99.4555 14.9318L100.15 14.2373L100.844 14.9318L100.15 15.6263L99.4555 14.9318ZM102.583 14.7263H104.075C104.872 14.7263 105.404 14.573 105.404 13.7758V13.4079H104.341C102.655 13.4079 102.114 12.5907 102.114 11.0162C102.114 9.32982 102.727 8.60466 104.341 8.60466H106.385V12.5095H108.593V8.60466H110.402C112.15 8.60466 112.866 9.37121 112.866 11.0469V12.5079H114.9V8.60313H115.881V12.5079H118.089V6.6009H119.07V13.4079H106.387V13.7651C106.387 15.0943 105.436 15.6247 104.076 15.6247H102.585V14.7248L102.583 14.7263ZM105.404 12.5095V9.50459H104.341C103.258 9.50459 103.095 9.88327 103.095 11.0178C103.095 12.0296 103.228 12.5309 104.341 12.5202L105.404 12.5095ZM111.883 12.5095V11.0484C111.883 9.85261 111.515 9.50459 110.4 9.50459H109.572V12.5095H111.883ZM113.998 7.08229L114.693 6.3878L115.387 7.08229L114.693 7.77679L113.998 7.08229ZM114.162 19.6737H118.015V27.3698H136.014V19.6737H139.866V39.2452H136.014V31.2332H118.015V39.2452H114.162V19.6737ZM115.389 7.08229L116.083 6.3878L116.778 7.08229L116.083 7.77679L115.389 7.08229ZM120.58 6.6009H121.561V13.4079H120.58V6.6009ZM124.772 10.7924C124.772 10.2711 124.883 9.66864 125.048 9.32062H125.917C125.783 9.68857 125.713 10.1485 125.713 10.5164C125.713 11.723 126.214 12.5095 127.971 12.5095H132.509V8.60466H133.49V12.5095H135.698V8.60466H136.679V12.5095H138.887V8.60466H139.868V13.4079H127.879C125.365 13.4079 124.772 12.048 124.772 10.7909V10.7924ZM127.838 8.60466L128.532 7.91017L129.227 8.60466L128.532 9.29916L127.838 8.60466ZM129.227 8.60466L129.921 7.91017L130.616 8.60466L129.921 9.29916L129.227 8.60466ZM134.797 14.9318L135.491 14.2373L136.186 14.9318L135.491 15.6263L134.797 14.9318ZM136.187 14.9318L136.882 14.2373L137.576 14.9318L136.882 15.6263L136.187 14.9318ZM138.681 14.9318L139.376 14.2373L140.07 14.9318L139.376 15.6263L138.681 14.9318Z" fill="white"/>
</g>
<defs>
<clipPath id="clip0_410_28891">
<rect width="139.512" height="44" fill="white" transform="translate(0.487793 0.948242)"/>
</clipPath>
</defs>
</svg>
