<svg width="140" height="44" viewBox="0 0 140 44" fill="none" xmlns="http://www.w3.org/2000/svg">
<g clip-path="url(#clip0_3559_1722)">
<path d="M0.769485 20.0638L5.58342 15.2499H15.2113L3.66245 26.8095L0.769485 23.9165C-0.292954 22.8541 -0.292954 21.1262 0.769485 20.0638ZM8.33227 5.65266H15.1392L21.9462 12.4596H5.60335V8.38158C5.60335 6.84848 6.79917 5.65266 8.33227 5.65266ZM5.61408 35.5895V28.7826L12.4211 21.9756V38.3184H8.343C6.8099 38.3184 5.61408 37.1226 5.61408 35.5895ZM15.2113 38.3276V28.7105L26.7709 40.2486L23.8779 43.1416C22.8155 44.204 21.0877 44.204 20.0252 43.1416L15.2113 38.3276ZM17.1215 3.70102L20.0038 0.80806C21.0662 -0.254379 22.794 -0.254379 23.8565 0.80806L28.6704 5.622V15.2499L17.1215 3.70102ZM21.9462 31.49H38.2783V35.5681C38.2783 37.1012 37.0825 38.297 35.5601 38.297H28.7532L21.9462 31.49ZM40.2208 17.1509L43.103 20.0439C44.1654 21.1063 44.1654 22.8341 43.103 23.8966L38.2891 28.7105H28.6719L40.2208 17.1509ZM31.4514 5.64346H35.5295C37.0626 5.64346 38.2584 6.83928 38.2584 8.37238V15.1793L31.4514 21.9756V5.64346ZM56.2049 9.84416C56.2049 9.3229 56.3168 8.72039 56.4808 8.37238H57.3501C57.2167 8.74032 57.1462 9.20025 57.1462 9.5682C57.1462 10.7747 57.6475 11.5612 59.4045 11.5612H63.8704L63.3905 10.1508C63.0839 9.27231 63.1759 8.65907 63.5944 8.20834C63.921 7.86032 64.3717 7.65642 65.1582 7.65642H67.7537V11.5612H69.9614V7.65642H70.9426V12.4596H66.7725V8.55482H64.9221C64.4008 8.55482 64.1555 8.74952 64.1555 9.14813C64.1555 9.32137 64.2061 9.50534 64.2782 9.71078L64.9635 11.7452V12.4612H59.3109C56.7967 12.4612 56.2034 11.1013 56.2034 9.84416H56.2049ZM56.4502 18.7254H60.3029V26.4216H70.3293L78.0362 18.7254H83.4941L73.7022 28.5066L83.4941 38.297H78.0362L70.0243 30.285H60.3044V38.297H56.4517V18.7254H56.4502ZM59.4244 13.9835L60.1189 13.289L60.8134 13.9835L60.1189 14.678L59.4244 13.9835ZM60.8149 13.9835L61.5094 13.289L62.2039 13.9835L61.5094 14.678L60.8149 13.9835ZM65.1689 6.13405L65.8634 5.43956L66.5579 6.13405L65.8634 6.82855L65.1689 6.13405ZM66.5579 6.13405L67.2631 5.43956L67.9576 6.13405L67.2631 6.82855L66.5579 6.13405ZM68.367 13.9835L69.0615 13.289L69.756 13.9835L69.0615 14.678L68.367 13.9835ZM69.7575 13.9835L70.452 13.289L71.1465 13.9835L70.452 14.678L69.7575 13.9835ZM72.885 13.7781H74.3767C75.174 13.7781 75.7059 13.6248 75.7059 12.8276V12.4596H74.6435C72.9371 12.4596 72.4052 11.6425 72.4159 10.068C72.4266 8.41224 72.9877 7.65642 74.6435 7.65642H76.6871V11.5612H82.1143V10.0787C82.1143 9.20945 81.7571 8.9243 80.8679 8.9243H78.3536V8.20834L80.2439 5.65266H81.337L79.5279 8.03356H80.897C82.5727 8.03356 83.0939 8.75872 83.0939 10.1692V11.5597H85.0563V5.65266H86.0375V12.4596H76.6749V12.8168C76.6749 14.146 75.7351 14.6765 74.3752 14.6765H72.8835V13.7766L72.885 13.7781ZM75.7059 11.5612V8.55635H74.6435C73.5504 8.55635 73.3863 8.91356 73.3971 10.0695C73.4078 11.1013 73.509 11.5612 74.6435 11.5612H75.7059ZM86.9482 18.7254H110.199V22.5781H90.8008V26.4216H105.979V30.285H90.8008V38.297H86.9482V18.7254ZM87.5507 5.65266H88.5319V12.4596H87.5507V5.65266ZM91.8541 10.0987H92.7126C92.59 10.5892 92.498 11.0906 92.498 11.8878C92.498 12.9809 92.8966 13.8915 94.2565 13.8915C94.8804 13.8915 95.3802 13.6876 95.6562 13.3396C95.8907 13.033 95.9735 12.6145 95.9735 12.0012L95.9843 5.65419H96.9654V11.5612H99.1731V7.65642H100.154V12.4596H96.9547C96.8213 13.9007 95.8202 14.7899 94.1951 14.7899C92.2741 14.7899 91.5689 13.5021 91.5689 12.0917C91.5689 11.3558 91.7023 10.5785 91.8556 10.0987H91.8541ZM97.5771 13.9835L98.2716 13.289L98.9661 13.9835L98.2716 14.678L97.5771 13.9835ZM98.9677 13.9835L99.6622 13.289L100.357 13.9835L99.6622 14.678L98.9677 13.9835ZM102.095 13.7781H103.587C104.384 13.7781 104.916 13.6248 104.916 12.8276V12.4596H103.854C102.167 12.4596 101.626 11.6425 101.626 10.068C101.626 8.38158 102.239 7.65642 103.854 7.65642H105.897V11.5612H108.105V7.65642H109.914C111.662 7.65642 112.378 8.42297 112.378 10.0987V11.5597H114.412V7.65489H115.393V11.5597H117.601V5.65266H118.582V12.4596H105.899V12.8168C105.899 14.146 104.948 14.6765 103.588 14.6765H102.097V13.7766L102.095 13.7781ZM104.916 11.5612V8.55635H103.854C102.77 8.55635 102.607 8.93503 102.607 10.0695C102.607 11.0814 102.741 11.5827 103.854 11.572L104.916 11.5612ZM111.395 11.5612V10.1002C111.395 8.90437 111.027 8.55635 109.912 8.55635H109.085V11.5612H111.395ZM113.511 6.13405L114.205 5.43956L114.9 6.13405L114.205 6.82855L113.511 6.13405ZM113.675 18.7254H117.527V26.4216H135.526V18.7254H139.379V38.297H135.526V30.285H117.527V38.297H113.675V18.7254ZM114.901 6.13405L115.596 5.43956L116.29 6.13405L115.596 6.82855L114.901 6.13405ZM120.092 5.65266H121.073V12.4596H120.092V5.65266ZM124.284 9.84416C124.284 9.3229 124.396 8.72039 124.56 8.37238H125.429C125.296 8.74032 125.225 9.20025 125.225 9.5682C125.225 10.7747 125.726 11.5612 127.483 11.5612H132.021V7.65642H133.003V11.5612H135.21V7.65642H136.191V11.5612H138.399V7.65642H139.38V12.4596H127.391C124.877 12.4596 124.284 11.0998 124.284 9.84263V9.84416ZM127.35 7.65642L128.044 6.96193L128.739 7.65642L128.044 8.35092L127.35 7.65642ZM128.739 7.65642L129.433 6.96193L130.128 7.65642L129.433 8.35092L128.739 7.65642ZM134.309 13.9835L135.003 13.289L135.698 13.9835L135.003 14.678L134.309 13.9835ZM135.699 13.9835L136.394 13.289L137.088 13.9835L136.394 14.678L135.699 13.9835ZM138.194 13.9835L138.888 13.289L139.583 13.9835L138.888 14.678L138.194 13.9835Z" fill="#43B02A"/>
</g>
<defs>
<clipPath id="clip0_3559_1722">
<rect width="139.512" height="44" fill="white"/>
</clipPath>
</defs>
</svg>
