<svg width="33" height="34" viewBox="0 0 33 34" fill="none" xmlns="http://www.w3.org/2000/svg">
<g id="loading 1" clip-path="url(#clip0_1147_1756)">
<g id="Group">
<path id="Vector" d="M16.6091 0.336649C15.8121 0.335718 15.1628 1.00373 15.1618 1.82583L15.1548 7.89215C15.1538 8.71425 15.8015 9.38377 16.5986 9.3847C17.3958 9.38563 18.045 8.71762 18.046 7.89553L18.0531 1.8292C18.054 1.0071 17.4063 0.33758 16.6091 0.336649Z" fill="#002F6C"/>
<path id="Vector_2" opacity="0.3" d="M16.5818 24.2886C15.7847 24.2876 15.1354 24.9556 15.1345 25.7777L15.1274 31.8441C15.1264 32.6662 15.7742 33.3357 16.5712 33.3366C17.3684 33.3375 18.0177 32.6695 18.0187 31.8474L18.0257 25.7811C18.0267 24.959 17.379 24.2895 16.5818 24.2886Z" fill="#002F6C"/>
<path id="Vector_3" opacity="0.15" d="M10.4515 21.6621C10.0653 21.6616 9.70209 21.8165 9.42888 22.0977L5.26413 26.3822C4.70007 26.9628 4.69897 27.9087 5.2621 28.4911C5.5349 28.7727 5.89765 28.928 6.2834 28.9285C6.66928 28.9289 7.03227 28.7745 7.30616 28.493L11.4709 24.2082C11.7441 23.9268 11.895 23.5528 11.8955 23.1545C11.8959 22.7563 11.7459 22.3817 11.4734 22.1001C11.2006 21.8183 10.8377 21.6625 10.4515 21.6621Z" fill="#002F6C"/>
<path id="Vector_4" opacity="0.85" d="M22.7276 12.3598C23.1138 12.3603 23.477 12.2055 23.7504 11.9241L27.9151 7.63964C28.4792 7.05906 28.4803 6.11315 27.917 5.5308C27.3544 4.95006 26.4376 4.94854 25.8731 5.52886L21.7083 9.81362C21.435 10.0951 21.2842 10.4691 21.2838 10.8673C21.2833 11.2656 21.4333 11.6402 21.7059 11.9217C21.9787 12.2039 22.3415 12.3594 22.7276 12.3598Z" fill="#002F6C"/>
<path id="Vector_5" opacity="0.45" d="M23.7384 22.1145C23.4656 21.8327 23.1028 21.6769 22.7166 21.6765C22.3303 21.676 21.9671 21.8309 21.694 22.112C21.4206 22.3932 21.2697 22.7674 21.2693 23.1657C21.2688 23.5639 21.4187 23.9383 21.6915 24.2204L25.8464 28.5153C26.1192 28.7969 26.4819 28.9522 26.8677 28.9527C27.2536 28.9531 27.6166 28.7987 27.8906 28.5172C28.4546 27.9366 28.4557 26.9907 27.8929 26.4088L23.7384 22.1145Z" fill="#002F6C"/>
<path id="Vector_6" opacity="0.05" d="M9.36344 16.828C9.3644 16.0059 8.71668 15.3364 7.91949 15.3355L2.03687 15.3286C1.23981 15.3277 0.590528 15.9957 0.589568 16.8178C0.588608 17.6399 1.23633 18.3094 2.03339 18.3103L7.91601 18.3172C8.7132 18.3181 9.36248 17.6501 9.36344 16.828Z" fill="#002F6C"/>
<path id="Vector_7" opacity="0.6" d="M31.1461 15.3626L25.2634 15.3557C24.4664 15.3548 23.8171 16.0228 23.8161 16.8449C23.8152 17.667 24.4629 18.3365 25.26 18.3374L31.1426 18.3443C31.9398 18.3452 32.589 17.6772 32.59 16.8551C32.591 16.033 31.9432 15.3635 31.1461 15.3626Z" fill="#002F6C"/>
</g>
</g>
<defs>
<clipPath id="clip0_1147_1756">
<rect width="32" height="33" fill="white" transform="translate(0.608887 0.317871) rotate(0.0668979)"/>
</clipPath>
</defs>
</svg>
