<svg width="336" height="132" viewBox="0 0 336 132" fill="none" xmlns="http://www.w3.org/2000/svg">
<path d="M49.374 76.4324H37.6796C34.9646 76.4324 32.7529 74.2321 32.7529 71.5311V61.6891H0.503906V47.5783L0.636354 47.3807L31.0444 1.34595H44.4605C47.1755 1.34595 49.3872 3.54623 49.3872 6.24718V47.0249H53.9564C56.6714 47.0249 58.8832 49.2252 58.8832 51.9262V61.6891H49.3872V76.4324H49.374ZM2.10642 60.0949H34.3554V71.5179C34.3554 73.3493 35.852 74.825 37.6796 74.825H47.7715V60.0817H57.2674V51.8998C57.2674 50.0685 55.7708 48.5928 53.9432 48.5928H47.7715V6.23401C47.7715 4.41581 46.2749 2.92699 44.4473 2.92699H31.892L2.10642 48.0526V60.0949ZM29.4287 48.606H15.496L32.8986 21.6887H34.3421V43.7047C34.3421 46.4057 32.1304 48.606 29.4154 48.606M18.423 47.0118H29.4287C31.2563 47.0118 32.7529 45.5229 32.7529 43.7047V24.864L18.423 47.0118Z" fill="#C9E0F6"/>
<path d="M81.6104 76.1952C80.8158 76.1952 80.0079 76.0371 79.2397 75.7208C78.1273 75.2597 77.081 74.7063 76.1142 74.0739C72.4721 71.6892 69.5584 68.5798 67.4526 64.8116C65.3733 61.083 63.9033 56.8801 63.0822 52.3214C62.2743 47.8022 61.877 43.2831 61.877 38.8957C61.877 34.5083 62.2875 29.9892 63.0822 25.47C63.89 20.9113 65.3601 16.7084 67.4526 12.9798C69.5584 9.22477 72.4721 6.10221 76.1142 3.71747C79.7827 1.31956 84.4976 0.107422 90.113 0.107422C95.7284 0.107422 100.457 1.31956 104.112 3.71747C107.754 6.10221 110.668 9.2116 112.773 12.9798C114.853 16.7084 116.323 20.9113 117.144 25.47C117.422 26.9983 117.078 28.553 116.19 29.8574L104.509 47.1171C103.993 47.8813 103.066 48.1843 102.205 47.8945C101.331 47.5914 100.774 46.7746 100.841 45.8391C101.013 43.0986 101.105 40.7666 101.105 38.8825C101.105 36.9984 101.026 34.6664 100.854 31.9786C100.682 29.3567 100.218 26.8007 99.4765 24.3764C98.748 22.0049 97.6091 19.9759 96.0993 18.3553C94.6424 16.7874 92.6823 16.0233 90.113 16.0233C87.5437 16.0233 85.5041 16.7874 84.087 18.3553C82.6037 19.989 81.4912 22.0181 80.7628 24.3896C80.0211 26.8139 79.5576 29.3699 79.3854 31.9918C79.2133 34.6532 79.1338 36.9853 79.1338 38.8957C79.1338 40.8061 79.2133 43.1382 79.3854 45.7996C79.5576 48.4215 80.0211 50.9775 80.7628 53.4018C81.4912 55.7733 82.6037 57.8024 84.087 59.4361C85.5041 61.004 87.4775 61.7681 90.113 61.7681C90.3381 61.7681 90.55 61.7681 90.7752 61.755C91.5169 61.7023 92.2188 62.0975 92.6029 62.7431C92.9869 63.4151 92.9605 64.2319 92.5234 64.8643L86.6696 73.5206C85.5174 75.2334 83.5837 76.1952 81.6104 76.1952ZM90.1263 1.68847C84.8154 1.68847 80.4052 2.80837 77.0015 5.03501C73.5713 7.27482 70.8299 10.1998 68.8565 13.7439C66.8567 17.3276 65.4528 21.3593 64.6714 25.7467C63.8768 30.1736 63.4795 34.6005 63.4795 38.8957C63.4795 43.1909 63.8768 47.6178 64.6582 52.0447C65.4396 56.4321 66.8434 60.477 68.8565 64.0475C70.8299 67.5785 73.5713 70.5166 77.0015 72.7564C77.8889 73.3361 78.8557 73.8499 79.8754 74.2716C81.862 75.1016 84.1532 74.4165 85.3584 72.651L91.2122 63.9948C91.3447 63.7971 91.252 63.5995 91.2122 63.5468C91.1725 63.4678 91.0931 63.336 90.8679 63.3492C90.6295 63.3624 90.3779 63.3755 90.1263 63.3755C87.0537 63.3755 84.6168 62.4137 82.9083 60.5165C81.2793 58.7115 80.0344 56.4716 79.2397 53.8761C78.4584 51.3332 77.9683 48.6586 77.7962 45.905C77.624 43.204 77.5313 40.8457 77.5313 38.8957C77.5313 36.9457 77.624 34.5874 77.7962 31.8864C77.9683 29.1459 78.4584 26.4582 79.2397 23.9153C80.0344 21.3329 81.2661 19.0931 82.9083 17.2881C84.63 15.3908 87.0537 14.429 90.1263 14.429C93.1988 14.429 95.5298 15.3908 97.2912 17.2881C98.96 19.0931 100.218 21.3329 101.013 23.9285C101.794 26.4713 102.284 29.1459 102.456 31.8996C102.629 34.6269 102.721 36.9853 102.721 38.9089C102.721 40.8325 102.629 43.1909 102.456 45.9182C102.43 46.2739 102.655 46.3793 102.734 46.4188C102.84 46.4584 103.052 46.4847 103.198 46.2607L114.879 29.001C115.528 28.0392 115.78 26.9061 115.581 25.7994C114.8 21.3856 113.383 17.354 111.383 13.7835C109.409 10.2525 106.668 7.31435 103.238 5.07453C99.834 2.86107 95.4238 1.72799 90.113 1.72799" fill="#C9E0F6"/>
<path d="M157.14 117.816H103.555V96.0771L153.67 20.1738H175.257C179.045 20.1738 182.104 23.2305 182.104 26.9855V96.0771H191.031C194.819 96.0771 197.891 99.1338 197.891 102.902V117.816H182.118V142.309H164.013C160.225 142.309 157.153 139.253 157.153 135.485V117.816H157.14ZM157.14 53.9818H156.795L129.566 96.0771H150.279C154.067 96.0771 157.14 93.0204 157.14 89.2523V53.9818Z" fill="#C9E0F6"/>
<path d="M100.124 59.3682H105.395V50.0137H108.11C109.713 50.0137 111.011 51.3049 111.011 52.8991V59.3682H120.414V61.3445C120.414 63.334 118.785 64.9545 116.785 64.9545H111.011V74.309H108.124C106.614 74.309 105.395 73.0969 105.395 71.5949V64.9545H95.9922V63.4789C95.9922 61.2127 97.8464 59.3682 100.124 59.3682Z" fill="#C9E0F6"/>
<path d="M319.481 38.1055L335.255 30.253C336.076 29.8445 336.076 28.6719 335.255 28.2635L319.481 20.411C318.845 20.0948 318.104 20.0948 317.481 20.411L301.708 28.2635C300.887 28.6719 300.887 29.8445 301.708 30.253L317.481 38.1055C318.117 38.4217 318.859 38.4217 319.481 38.1055Z" fill="#C9E0F6"/>
<path d="M205.891 81.2413C205.891 73.9949 206.553 66.643 207.89 59.1594C209.215 51.689 211.586 44.9037 215.002 38.8035C218.406 32.7033 223.068 27.7362 228.962 23.8758C234.855 20.0286 242.364 18.0918 251.503 18.0918C260.641 18.0918 268.15 20.0154 274.044 23.8758C279.937 27.7362 284.586 32.7033 288.003 38.8035C291.407 44.9037 293.777 51.689 295.115 59.1594C296.439 66.643 297.115 73.9949 297.115 81.2413C297.115 88.4878 296.453 95.8528 295.115 103.323C293.791 110.807 291.42 117.579 288.003 123.679C284.599 129.779 279.937 134.746 274.044 138.607C268.15 142.454 260.628 144.391 251.503 144.391C242.378 144.391 234.855 142.467 228.962 138.607C223.068 134.76 218.406 129.779 215.002 123.679C211.599 117.579 209.228 110.807 207.89 103.323C206.566 95.8528 205.891 88.4878 205.891 81.2413ZM231.902 81.2413C231.902 84.4693 232.047 88.3165 232.339 92.7961C232.63 97.2758 233.412 101.597 234.683 105.734C235.954 109.871 237.888 113.389 240.497 116.261C243.093 119.134 246.761 120.57 251.516 120.57C256.271 120.57 259.78 119.134 262.442 116.261C265.104 113.389 267.064 109.885 268.336 105.734C269.607 101.597 270.389 97.2758 270.68 92.7961C270.971 88.3165 271.117 84.4561 271.117 81.2413C271.117 78.0265 270.971 74.1662 270.68 69.6865C270.389 65.2069 269.607 60.8854 268.336 56.7483C267.064 52.6113 265.091 49.1066 262.442 46.2212C259.78 43.349 256.138 41.9129 251.516 41.9129C246.894 41.9129 243.106 43.349 240.497 46.2212C237.901 49.0934 235.954 52.5981 234.683 56.7483C233.412 60.8986 232.63 65.2069 232.339 69.6865C232.047 74.1662 231.902 78.0265 231.902 81.2413Z" fill="#C9E0F6"/>
</svg>
