<svg width="231" height="69" viewBox="0 0 231 69" fill="none" xmlns="http://www.w3.org/2000/svg">
<g clip-path="url(#clip0_410_22373)">
<mask id="mask0_410_22373" style="mask-type:luminance" maskUnits="userSpaceOnUse" x="1" y="0" width="229" height="69">
<path d="M229.912 0.292969H1.53296V68.8085H229.912V0.292969Z" fill="white"/>
</mask>
<g mask="url(#mask0_410_22373)">
<path d="M213.804 0.292969H15.7941H14.2411C13.1054 0.309482 11.9725 0.410248 10.8518 0.594437C9.73828 0.783026 8.66013 1.14037 7.65433 1.65415C6.64273 2.17132 5.71808 2.84325 4.91371 3.64572C4.10951 4.44854 3.43737 5.37352 2.92213 6.38635C2.40213 7.40635 2.04165 8.50005 1.85329 9.62936C1.66398 10.7479 1.56319 11.8796 1.55182 13.014C1.52441 13.5393 1.52441 14.0509 1.52441 14.5716V54.535C1.52441 55.0602 1.52441 55.5718 1.55182 56.0972C1.56358 57.2314 1.66437 58.3631 1.85329 59.4818C2.04003 60.595 2.39585 61.6733 2.90843 62.6791C3.94459 64.725 5.60092 66.3908 7.64062 67.4387C8.64677 67.9534 9.7247 68.3136 10.8381 68.5075C11.9589 68.6903 13.0917 68.7895 14.2274 68.8044H15.7804H215.623H217.18C218.312 68.7905 219.443 68.6912 220.56 68.5075C221.683 68.313 222.771 67.9527 223.79 67.4387C224.804 66.9269 225.729 66.2544 226.531 65.4471C227.337 64.6457 228.014 63.7205 228.531 62.7065C229.038 61.6995 229.391 60.6216 229.576 59.5092C229.766 58.3904 229.871 57.259 229.891 56.1246V54.5624V52.7353V16.4169V14.5898V13.0322C229.871 11.8977 229.766 10.7664 229.576 9.6475C229.39 8.53556 229.037 7.45791 228.531 6.45005C227.495 4.39835 225.842 2.72383 223.804 1.66304C222.785 1.15453 221.697 0.801936 220.573 0.61703C219.457 0.431833 218.326 0.331063 217.194 0.315562H215.637L213.804 0.292969Z" fill="#B6B6B6"/>
</g>
<mask id="mask1_410_22373" style="mask-type:luminance" maskUnits="userSpaceOnUse" x="1" y="0" width="229" height="69">
<path d="M229.912 0.292969H1.53296V68.8085H229.912V0.292969Z" fill="white"/>
</mask>
<g mask="url(#mask1_410_22373)">
<path d="M15.8115 67.3287H14.2813C13.2224 67.315 12.1659 67.2233 11.1205 67.0546C10.1473 66.8893 9.20393 66.5815 8.32042 66.1411C6.5654 65.2415 5.13582 63.8152 4.23227 62.0621C3.78764 61.1789 3.47963 60.2332 3.31872 59.2576C3.14407 58.2098 3.05091 57.1498 3.0401 56.0875C3.0401 55.7312 3.0127 54.5437 3.0127 54.5437V14.5717C3.0127 14.5717 3.0127 13.4024 3.0401 13.0598C3.048 11.9961 3.13964 10.9347 3.31416 9.88534C3.47298 8.90623 3.78108 7.95731 4.2277 7.07158C4.67168 6.20008 5.25314 5.40578 5.94966 4.71927C6.64539 4.02284 7.44515 3.4388 8.3203 2.98805C9.20174 2.54679 10.1438 2.23892 11.1157 2.07452C12.1639 1.90215 13.2236 1.809 14.2858 1.7959H217.177C218.229 1.80491 219.281 1.89654 220.319 2.06996C221.3 2.23099 222.253 2.53897 223.142 2.98351C224.901 3.89091 226.329 5.32931 227.225 7.09444C227.669 7.97336 227.977 8.91422 228.14 9.88525C228.315 10.9425 228.412 12.0111 228.431 13.0827V14.59V16.4172V52.6842V54.5111V56.087C228.416 57.1373 228.318 58.1848 228.143 59.2205C227.987 60.2031 227.679 61.1554 227.23 62.0434C226.322 63.7898 224.896 65.2117 223.147 66.1132C222.26 66.5582 221.309 66.8662 220.329 67.0267C219.283 67.1964 218.226 67.2881 217.167 67.3008H215.651H15.8085L15.8115 67.3287Z" fill="black"/>
</g>
<mask id="mask2_410_22373" style="mask-type:luminance" maskUnits="userSpaceOnUse" x="1" y="0" width="229" height="69">
<path d="M229.912 0.292969H1.53296V68.8085H229.912V0.292969Z" fill="white"/>
</mask>
<g mask="url(#mask2_410_22373)">
<path d="M86.3052 46.5466H78.2706L76.3201 51.9089H72.7893L80.6458 31.875H83.9801L92.0148 51.9089H88.3196L86.3052 46.5466ZM79.2937 43.806H85.2775L83.1352 38.0688C82.8428 37.2787 82.5505 36.4017 82.2672 35.4424C82.0069 36.292 81.7237 37.1553 81.4223 38.0414L79.2937 43.806Z" fill="white"/>
</g>
<mask id="mask3_410_22373" style="mask-type:luminance" maskUnits="userSpaceOnUse" x="1" y="0" width="229" height="69">
<path d="M229.912 0.292969H1.53296V68.8085H229.912V0.292969Z" fill="white"/>
</mask>
<g mask="url(#mask3_410_22373)">
<path d="M93.4358 40.6405C93.4358 39.535 93.3991 38.3169 93.3262 36.9862H96.5234C96.6437 37.6126 96.7261 38.2457 96.7701 38.8818C97.3297 38.2114 98.0275 37.67 98.816 37.2947C99.6044 36.9192 100.465 36.719 101.338 36.7077C102.362 36.6914 103.367 36.9809 104.225 37.5391C105.084 38.0973 105.756 38.8988 106.157 39.8411C106.719 41.1365 106.986 42.5408 106.938 43.952C106.973 45.4909 106.66 47.0176 106.024 48.4192C105.492 49.5824 104.624 50.5595 103.53 51.2237C102.406 51.8738 101.125 52.2038 99.8259 52.1785C98.804 52.1778 97.7894 52.0048 96.8249 51.6668V57.8469L93.4084 58.1393L93.4358 40.6405ZM102.416 48.2548C103.11 47.3413 103.462 45.971 103.462 44.1438C103.462 42.4782 103.173 41.26 102.594 40.4897C102.333 40.1316 101.988 39.8423 101.591 39.6467C101.193 39.4509 100.753 39.3546 100.31 39.3661C99.6719 39.3575 99.0423 39.5149 98.483 39.8227C97.8891 40.1593 97.3487 40.5827 96.8797 41.079V49.0723C97.2583 49.2508 97.657 49.3827 98.0674 49.4653C98.5087 49.5607 98.9588 49.6097 99.4104 49.6114C99.9837 49.6456 100.557 49.5401 101.08 49.3039C101.604 49.0675 102.062 48.7075 102.416 48.2548Z" fill="white"/>
</g>
<mask id="mask4_410_22373" style="mask-type:luminance" maskUnits="userSpaceOnUse" x="1" y="0" width="229" height="69">
<path d="M229.912 0.292969H1.53296V68.8085H229.912V0.292969Z" fill="white"/>
</mask>
<g mask="url(#mask4_410_22373)">
<path d="M109.016 40.6405C109.016 39.535 108.98 38.3169 108.907 36.9862H112.104C112.228 37.6121 112.312 38.2453 112.355 38.8818C113.686 37.4324 115.209 36.7077 116.923 36.7077C117.947 36.6914 118.952 36.9809 119.811 37.5391C120.669 38.0973 121.341 38.8988 121.742 39.8411C122.304 41.1365 122.571 42.5408 122.523 43.952C122.565 45.489 122.261 47.0158 121.632 48.4192C121.099 49.5831 120.229 50.5602 119.134 51.2237C118.009 51.8743 116.728 52.2045 115.429 52.1785C114.408 52.1778 113.393 52.0048 112.428 51.6668V57.8469L109.012 58.1393L109.016 40.6405ZM118.01 48.2548C118.704 47.3199 119.052 45.9496 119.052 44.1438C119.052 42.4782 118.764 41.26 118.188 40.4897C117.927 40.1316 117.583 39.8423 117.185 39.6467C116.787 39.4509 116.348 39.3546 115.905 39.3661C115.266 39.3584 114.637 39.5156 114.077 39.8227C113.483 40.1593 112.943 40.5827 112.474 41.079V49.0723C112.853 49.2494 113.252 49.3813 113.662 49.4653C114.103 49.5607 114.553 49.6097 115.005 49.6114C115.578 49.645 116.151 49.5391 116.674 49.3027C117.198 49.0665 117.656 48.707 118.01 48.2548Z" fill="white"/>
</g>
<mask id="mask5_410_22373" style="mask-type:luminance" maskUnits="userSpaceOnUse" x="1" y="0" width="229" height="69">
<path d="M229.912 0.292969H1.53296V68.8085H229.912V0.292969Z" fill="white"/>
</mask>
<g mask="url(#mask5_410_22373)">
<path d="M128.804 50.9619C127.344 50.1614 126.158 48.9408 125.401 47.4585C124.573 45.7835 124.165 43.932 124.213 42.0641C124.154 40.0655 124.627 38.0873 125.583 36.3316C126.447 34.808 127.745 33.5759 129.311 32.7916C130.956 31.9875 132.769 31.5823 134.6 31.6086C135.711 31.6037 136.818 31.7326 137.898 31.9923C138.908 32.2301 139.888 32.5793 140.821 33.0338L139.935 35.6601C138.319 34.8451 136.542 34.4018 134.733 34.363C133.455 34.3415 132.195 34.6567 131.078 35.2764C130.019 35.8847 129.167 36.7985 128.635 37.8984C128.022 39.2027 127.725 40.6328 127.767 42.0732C127.744 43.3709 127.97 44.661 128.434 45.8736C128.854 46.9467 129.594 47.865 130.553 48.5046C131.646 49.1882 132.919 49.5256 134.207 49.4729C134.875 49.4711 135.541 49.4146 136.199 49.3038C136.835 49.2026 137.461 49.0405 138.067 48.8197V44.7453H133.435V42.0915H141.388V50.5371C140.234 51.0748 139.026 51.4867 137.784 51.7659C136.552 52.0496 135.293 52.1936 134.029 52.1952C132.21 52.2388 130.411 51.8142 128.804 50.9619Z" fill="white"/>
</g>
<mask id="mask6_410_22373" style="mask-type:luminance" maskUnits="userSpaceOnUse" x="1" y="0" width="229" height="69">
<path d="M229.912 0.292969H1.53296V68.8085H229.912V0.292969Z" fill="white"/>
</mask>
<g mask="url(#mask6_410_22373)">
<path d="M153.524 51.9078C153.395 51.2555 153.315 50.5944 153.287 49.9301C152.716 50.594 152.019 51.1373 151.236 51.5287C150.352 51.9765 149.372 52.2023 148.381 52.1865C147.57 52.1968 146.767 52.0234 146.033 51.6795C145.334 51.3518 144.751 50.822 144.357 50.1584C143.92 49.4065 143.704 48.5471 143.731 47.6782C143.705 47.0191 143.834 46.363 144.105 45.762C144.377 45.1611 144.786 44.6316 145.298 44.2159C146.339 43.3511 148.076 42.9201 150.509 42.9232C151.416 42.9228 152.321 42.9869 153.218 43.115V42.8226C153.218 41.5071 152.938 40.5784 152.378 40.0365C151.708 39.4601 150.838 39.1697 149.957 39.228C149.167 39.2376 148.381 39.345 147.618 39.5476C146.862 39.73 146.125 39.9839 145.416 40.3059L144.877 37.821C145.652 37.4904 146.457 37.235 147.28 37.0583C148.316 36.8241 149.374 36.7076 150.436 36.7111C151.561 36.6804 152.681 36.881 153.725 37.3003C154.644 37.7064 155.392 38.4205 155.84 39.3193C156.401 40.5226 156.662 41.8436 156.603 43.1698V49.1079C156.603 49.7169 156.639 50.6517 156.712 51.9124L153.524 51.9078ZM151.478 49.1672C152.136 48.8613 152.728 48.4282 153.218 47.8928V45.1522C152.46 45.0626 151.698 45.0122 150.934 45.0014C149.524 45.0014 148.548 45.2299 148.006 45.6866C147.742 45.91 147.532 46.1905 147.392 46.5071C147.252 46.8236 147.185 47.1679 147.198 47.5137C147.173 47.8126 147.213 48.1132 147.315 48.3954C147.416 48.6776 147.577 48.9346 147.787 49.149C148.232 49.5245 148.804 49.7157 149.386 49.6834C150.113 49.6723 150.829 49.4959 151.478 49.1672Z" fill="white"/>
</g>
<mask id="mask7_410_22373" style="mask-type:luminance" maskUnits="userSpaceOnUse" x="1" y="0" width="229" height="69">
<path d="M229.912 0.292969H1.53296V68.8085H229.912V0.292969Z" fill="white"/>
</mask>
<g mask="url(#mask7_410_22373)">
<path d="M159.242 48.3277V30.6969L162.64 30.4229V47.7213C162.592 48.2014 162.706 48.684 162.964 49.0916C163.095 49.2319 163.256 49.3407 163.435 49.4095C163.614 49.4784 163.806 49.5056 163.997 49.489C164.307 49.4756 164.613 49.4234 164.91 49.3337L165.312 51.7821C164.93 51.9264 164.533 52.0304 164.129 52.0926C163.693 52.1681 163.252 52.2079 162.809 52.2113C160.431 52.1961 159.242 50.9008 159.242 48.3277Z" fill="white"/>
</g>
<mask id="mask8_410_22373" style="mask-type:luminance" maskUnits="userSpaceOnUse" x="1" y="0" width="229" height="69">
<path d="M229.912 0.292969H1.53296V68.8085H229.912V0.292969Z" fill="white"/>
</mask>
<g mask="url(#mask8_410_22373)">
<path d="M167.743 48.3277V30.6969L171.146 30.4229V47.7213C171.097 48.2014 171.211 48.684 171.47 49.0916C171.6 49.2319 171.761 49.3407 171.939 49.4095C172.119 49.4784 172.311 49.5056 172.503 49.489C172.811 49.4756 173.12 49.4234 173.416 49.3337L173.813 51.7821C173.433 51.9264 173.037 52.0306 172.635 52.0926C172.196 52.1685 171.754 52.2082 171.311 52.2113C168.935 52.1961 167.746 50.9008 167.743 48.3277Z" fill="white"/>
</g>
<mask id="mask9_410_22373" style="mask-type:luminance" maskUnits="userSpaceOnUse" x="1" y="0" width="229" height="69">
<path d="M229.912 0.292969H1.53296V68.8085H229.912V0.292969Z" fill="white"/>
</mask>
<g mask="url(#mask9_410_22373)">
<path d="M187.785 44.8825H178.023C178.179 48.0099 179.668 49.5736 182.491 49.5736C183.215 49.5698 183.938 49.484 184.642 49.3177C185.363 49.1502 186.067 48.921 186.749 48.6326L187.497 50.9713C185.738 51.8 183.813 52.2157 181.871 52.1863C180.478 52.2265 179.097 51.912 177.859 51.2728C176.787 50.6932 175.927 49.7879 175.403 48.6874C174.822 47.4125 174.541 46.0221 174.581 44.6222C174.541 43.1551 174.841 41.699 175.452 40.3651C175.973 39.2331 176.818 38.2799 177.878 37.6245C178.964 36.9844 180.207 36.6588 181.468 36.6834C182.718 36.6393 183.953 36.9858 184.998 37.6747C185.942 38.329 186.672 39.2454 187.1 40.3103C187.571 41.4703 187.804 42.7128 187.785 43.9644V44.8825ZM184.455 42.7128C184.462 41.7431 184.14 40.7997 183.542 40.0363C183.273 39.736 182.943 39.4984 182.573 39.3405C182.203 39.1827 181.802 39.1082 181.4 39.1226C180.995 39.1144 180.593 39.1913 180.219 39.3487C179.846 39.5061 179.51 39.7404 179.234 40.0363C178.59 40.7865 178.196 41.719 178.106 42.7037L184.455 42.7128Z" fill="white"/>
</g>
<mask id="mask10_410_22373" style="mask-type:luminance" maskUnits="userSpaceOnUse" x="1" y="0" width="229" height="69">
<path d="M229.912 0.292969H1.53296V68.8085H229.912V0.292969Z" fill="white"/>
</mask>
<g mask="url(#mask10_410_22373)">
<path d="M190.372 40.7356C190.372 39.9179 190.33 38.6665 190.259 36.99H193.455C193.51 37.4058 193.561 37.9035 193.616 38.4746C193.671 39.0455 193.698 39.5205 193.715 39.8814C194.059 39.2992 194.45 38.7463 194.885 38.228C195.262 37.785 195.718 37.4148 196.228 37.1362C196.764 36.8463 197.367 36.7001 197.977 36.7114C198.439 36.7001 198.902 36.7571 199.347 36.8804L198.919 39.8403C198.383 39.6855 197.821 39.6461 197.271 39.7248C196.72 39.8036 196.19 39.9987 195.721 40.2971C194.966 40.859 194.306 41.541 193.77 42.3159V51.9081H190.372V40.7356Z" fill="white"/>
</g>
<mask id="mask11_410_22373" style="mask-type:luminance" maskUnits="userSpaceOnUse" x="1" y="0" width="229" height="69">
<path d="M229.912 0.292969H1.53296V68.8085H229.912V0.292969Z" fill="white"/>
</mask>
<g mask="url(#mask11_410_22373)">
<path d="M201.248 58.0154C200.83 57.9479 200.421 57.8488 200.019 57.7184L200.64 55.2291C200.928 55.3065 201.219 55.3688 201.512 55.4163C201.841 55.4747 202.175 55.5054 202.509 55.5078C204.03 55.5078 205.164 54.5348 205.907 52.589L206.13 52.0362L200.627 36.9902H204.28L207.076 45.3993C207.434 46.481 207.723 47.5839 207.944 48.7018C208.204 47.6238 208.506 46.5459 208.857 45.4678L211.644 36.9902H215.083L209.602 52.1048C209.188 53.3223 208.626 54.4836 207.925 55.5626C207.393 56.3774 206.663 57.0463 205.806 57.5084C204.887 57.957 203.873 58.1764 202.852 58.1478C202.314 58.1499 201.778 58.1055 201.248 58.0154Z" fill="white"/>
</g>
<mask id="mask12_410_22373" style="mask-type:luminance" maskUnits="userSpaceOnUse" x="1" y="0" width="229" height="69">
<path d="M229.912 0.292969H1.53296V68.8085H229.912V0.292969Z" fill="white"/>
</mask>
<g mask="url(#mask12_410_22373)">
<path d="M72.7888 12.7988H78.8639L78.6949 14.2696H74.5611V17.1153H78.4573V18.4855H74.5611V21.6372H78.9141L78.7634 23.1309H72.7888V12.7988Z" fill="white"/>
</g>
<mask id="mask13_410_22373" style="mask-type:luminance" maskUnits="userSpaceOnUse" x="1" y="0" width="229" height="69">
<path d="M229.912 0.292969H1.53296V68.8085H229.912V0.292969Z" fill="white"/>
</mask>
<g mask="url(#mask13_410_22373)">
<path d="M83.0626 17.8599L79.8651 12.7988H81.8932L84.0673 16.517L86.3511 12.7988H88.3199L85.1225 17.796L88.5803 23.131H86.5248L84.0627 19.0658L81.5551 23.131H79.5864L83.0626 17.8599Z" fill="white"/>
</g>
<mask id="mask14_410_22373" style="mask-type:luminance" maskUnits="userSpaceOnUse" x="1" y="0" width="229" height="69">
<path d="M229.912 0.292969H1.53296V68.8085H229.912V0.292969Z" fill="white"/>
</mask>
<g mask="url(#mask14_410_22373)">
<path d="M89.8901 12.7988H92.6765C93.9827 12.7988 94.9846 13.0653 95.6819 13.5982C96.0288 13.8711 96.3047 14.2237 96.486 14.6262C96.6674 15.0286 96.7487 15.4688 96.7234 15.9094C96.7427 16.5388 96.5844 17.1609 96.2667 17.7045C95.9565 18.2157 95.5041 18.6252 94.9649 18.883C94.3657 19.1663 93.709 19.3069 93.0465 19.2941C92.5864 19.2876 92.1279 19.2403 91.6762 19.1526V23.131H89.8901V12.7988ZM94.3664 17.4122C94.5614 17.225 94.7133 16.9978 94.812 16.7463C94.9104 16.4947 94.9533 16.2248 94.9375 15.9551C94.9606 15.6966 94.9199 15.4363 94.8188 15.1974C94.7176 14.9584 94.5591 14.748 94.3574 14.5848C93.8433 14.2717 93.245 14.1249 92.6445 14.1645H91.6762V17.8186C92.0155 17.8798 92.3591 17.9149 92.7039 17.9236C93.3027 17.9687 93.8964 17.786 94.3664 17.4122Z" fill="white"/>
</g>
<mask id="mask15_410_22373" style="mask-type:luminance" maskUnits="userSpaceOnUse" x="1" y="0" width="229" height="69">
<path d="M229.912 0.292969H1.53296V68.8085H229.912V0.292969Z" fill="white"/>
</mask>
<g mask="url(#mask15_410_22373)">
<path d="M98.4873 12.7988H100.269V21.6055H104.544L104.393 23.131H98.4873V12.7988Z" fill="white"/>
</g>
<mask id="mask16_410_22373" style="mask-type:luminance" maskUnits="userSpaceOnUse" x="1" y="0" width="229" height="69">
<path d="M229.912 0.292969H1.53296V68.8085H229.912V0.292969Z" fill="white"/>
</mask>
<g mask="url(#mask16_410_22373)">
<path d="M107.257 22.6237C106.509 22.2025 105.904 21.566 105.522 20.7967C105.106 19.944 104.901 19.0044 104.923 18.0561C104.901 17.0652 105.121 16.0839 105.563 15.1966C105.968 14.3969 106.604 13.7379 107.39 13.3056C108.269 12.8451 109.253 12.6216 110.245 12.657C111.182 12.6318 112.11 12.8539 112.935 13.301C113.679 13.7237 114.279 14.3603 114.657 15.1281C115.064 15.9719 115.266 16.9001 115.246 17.8369C115.271 18.8388 115.05 19.8316 114.602 20.7283C114.193 21.5251 113.557 22.1832 112.775 22.6193C111.911 23.0787 110.944 23.3084 109.966 23.2861C109.02 23.3101 108.085 23.0814 107.257 22.6237ZM111.88 21.3585C112.383 21.0249 112.775 20.5473 113.004 19.9882C113.26 19.3481 113.386 18.6631 113.373 17.9739C113.385 17.2971 113.273 16.6238 113.045 15.9869C112.84 15.4352 112.474 14.9578 111.994 14.6166C111.438 14.2763 110.799 14.0962 110.146 14.0962C109.494 14.0962 108.855 14.2763 108.299 14.6166C107.794 14.967 107.4 15.4554 107.166 16.0235C106.906 16.6372 106.777 17.2983 106.787 17.9647C106.776 18.6514 106.897 19.3336 107.143 19.9746C107.362 20.5609 107.762 21.0623 108.285 21.4057C108.809 21.749 109.428 21.9165 110.053 21.8838C110.701 21.8999 111.339 21.7164 111.88 21.3585Z" fill="white"/>
</g>
<mask id="mask17_410_22373" style="mask-type:luminance" maskUnits="userSpaceOnUse" x="1" y="0" width="229" height="69">
<path d="M229.912 0.292969H1.53296V68.8085H229.912V0.292969Z" fill="white"/>
</mask>
<g mask="url(#mask17_410_22373)">
<path d="M117.233 12.7988H120.467C121.414 12.7317 122.357 12.9807 123.148 13.5068C123.452 13.745 123.693 14.0529 123.852 14.4044C124.011 14.7559 124.083 15.1405 124.062 15.5257C124.073 16.0266 123.959 16.5223 123.733 16.9691C123.535 17.3609 123.258 17.7075 122.92 17.9878C122.618 18.2317 122.278 18.4261 121.915 18.5633L125.112 23.1309H123.034L120.344 19.02H119.033V23.1309H117.233V12.7988ZM120.033 17.6864C120.43 17.6949 120.823 17.6088 121.18 17.4351C121.501 17.2808 121.772 17.0384 121.961 16.7362C122.149 16.4136 122.246 16.0455 122.239 15.672C122.258 15.4563 122.222 15.2395 122.136 15.041C122.05 14.8425 121.916 14.6685 121.746 14.5346C121.318 14.2665 120.816 14.1402 120.312 14.1737H119.019V17.7045L120.033 17.6864Z" fill="white"/>
</g>
<mask id="mask18_410_22373" style="mask-type:luminance" maskUnits="userSpaceOnUse" x="1" y="0" width="229" height="69">
<path d="M229.912 0.292969H1.53296V68.8085H229.912V0.292969Z" fill="white"/>
</mask>
<g mask="url(#mask18_410_22373)">
<path d="M126.505 12.7988H132.594L132.42 14.2696H128.309V17.1153H132.169V18.4855H128.273V21.6372H132.626L132.493 23.1309H126.505V12.7988Z" fill="white"/>
</g>
<mask id="mask19_410_22373" style="mask-type:luminance" maskUnits="userSpaceOnUse" x="1" y="0" width="229" height="69">
<path d="M229.912 0.292969H1.53296V68.8085H229.912V0.292969Z" fill="white"/>
</mask>
<g mask="url(#mask19_410_22373)">
<path d="M139.218 12.7988H140.999V23.131H139.218V12.7988Z" fill="white"/>
</g>
<mask id="mask20_410_22373" style="mask-type:luminance" maskUnits="userSpaceOnUse" x="1" y="0" width="229" height="69">
<path d="M229.912 0.292969H1.53296V68.8085H229.912V0.292969Z" fill="white"/>
</mask>
<g mask="url(#mask20_410_22373)">
<path d="M145.717 14.2889H142.519L142.675 12.7998H150.714L150.549 14.2889H147.503V23.1318H145.717V14.2889Z" fill="white"/>
</g>
<mask id="mask21_410_22373" style="mask-type:luminance" maskUnits="userSpaceOnUse" x="1" y="0" width="229" height="69">
<path d="M229.912 0.292969H1.53296V68.8085H229.912V0.292969Z" fill="white"/>
</mask>
<g mask="url(#mask21_410_22373)">
<path d="M158.457 22.6237C157.71 22.2021 157.107 21.5656 156.726 20.7967C156.307 19.9452 156.1 19.0048 156.123 18.0561C156.101 17.0651 156.321 16.0838 156.763 15.1966C157.169 14.3977 157.805 13.739 158.59 13.3055C159.462 12.8428 160.439 12.6131 161.426 12.6386C162.375 12.6131 163.313 12.8418 164.144 13.301C164.889 13.7224 165.489 14.3593 165.866 15.1281C166.275 15.9715 166.478 16.8996 166.46 17.8369C166.485 18.8392 166.262 19.8326 165.811 20.7282C165.404 21.5261 164.768 22.1843 163.984 22.6193C163.121 23.0798 162.153 23.3095 161.175 23.2861C160.226 23.3116 159.288 23.0829 158.457 22.6237ZM163.084 21.3585C163.585 21.0233 163.975 20.5461 164.203 19.9882C164.46 19.3481 164.585 18.6631 164.573 17.9738C164.585 17.297 164.473 16.6238 164.244 15.9869C164.041 15.4355 163.677 14.958 163.198 14.6166C162.642 14.2759 162.001 14.0955 161.348 14.0955C160.696 14.0955 160.056 14.2759 159.499 14.6166C158.994 14.9669 158.6 15.4554 158.366 16.0234C158.108 16.6378 157.979 17.2985 157.987 17.9646C157.976 18.6513 158.097 19.3336 158.343 19.9746C158.561 20.5379 158.941 21.0242 159.435 21.3723C159.975 21.7291 160.614 21.9081 161.262 21.8837C161.908 21.8971 162.544 21.7139 163.084 21.3585Z" fill="white"/>
</g>
<mask id="mask22_410_22373" style="mask-type:luminance" maskUnits="userSpaceOnUse" x="1" y="0" width="229" height="69">
<path d="M229.912 0.292969H1.53296V68.8085H229.912V0.292969Z" fill="white"/>
</mask>
<g mask="url(#mask22_410_22373)">
<path d="M168.437 12.7988H170.483L175.594 20.8061C175.548 20.0433 175.531 19.3445 175.531 18.7004V12.7988H177.184V23.131H175.202L170.012 14.9959C170.063 15.9095 170.09 16.7362 170.09 17.4534V23.131H168.437V12.7988Z" fill="white"/>
</g>
<mask id="mask23_410_22373" style="mask-type:luminance" maskUnits="userSpaceOnUse" x="1" y="0" width="229" height="69">
<path d="M229.912 0.292969H1.53296V68.8085H229.912V0.292969Z" fill="white"/>
</mask>
<g mask="url(#mask23_410_22373)">
<path fill-rule="evenodd" clip-rule="evenodd" d="M47.6675 12.8545H28.7075C19.7685 12.8545 16.498 16.1249 16.498 25.064V44.0376C16.498 52.9765 19.7685 56.2471 28.7075 56.2471H47.6675C56.6065 56.2471 59.8816 52.9765 59.8816 44.0376V25.064C59.8906 16.1251 56.6202 12.8545 47.6675 12.8545Z" fill="#C8102E"/>
</g>
<mask id="mask24_410_22373" style="mask-type:luminance" maskUnits="userSpaceOnUse" x="1" y="0" width="229" height="69">
<path d="M229.912 0.292969H1.53296V68.8085H229.912V0.292969Z" fill="white"/>
</mask>
<g mask="url(#mask24_410_22373)">
<path d="M25.0882 34.5508H26.2392V40.2285H25.0882V37.9217H22.4892V40.2285H21.3381V34.5508H22.4892V36.8346H25.0882V34.5508ZM31.5744 37.7984C31.5744 38.7119 31.1175 39.2145 30.2863 39.2145C29.455 39.2145 28.9891 38.7119 28.9891 37.7482V34.5508H27.838V37.7938C27.838 39.388 28.7241 40.3015 30.2679 40.3015C31.8119 40.3015 32.7254 39.388 32.7254 37.7436V34.5508H31.5744V37.7984ZM44.8754 38.4515L43.5874 34.5508H42.6418L41.363 38.4562L40.1068 34.5508H38.8827L40.8604 40.2285H41.8152L43.0987 36.5012L44.3868 40.2285H45.3506L47.3283 34.5508H46.1317L44.8754 38.4515ZM49.3884 37.7801H51.485V36.7524H49.3884V35.5922H52.4305V34.5508H48.2557V40.2148H52.5401V39.1915H49.3884V37.7801ZM53.9104 40.2148H55.0478V34.5508H53.9104V40.2148ZM35.0001 39.0408L34.484 40.2192H33.31L35.7903 34.5508H36.8043L39.2938 40.2192H38.1061L37.6174 39.0454L35.0001 39.0408ZM35.4296 38.0177H37.1606L36.2928 35.9896L35.4296 38.0177Z" fill="white"/>
</g>
<mask id="mask25_410_22373" style="mask-type:luminance" maskUnits="userSpaceOnUse" x="1" y="0" width="229" height="69">
<path d="M229.912 0.292969H1.53296V68.8085H229.912V0.292969Z" fill="white"/>
</mask>
<g mask="url(#mask25_410_22373)">
<path d="M38.1935 27.329C36.2785 27.3278 34.4424 26.5666 33.0884 25.2125C31.7343 23.8585 30.9731 22.0223 30.9719 20.1074H31.9904C31.9904 21.7525 32.644 23.3302 33.8073 24.4936C34.9705 25.6568 36.5482 26.3103 38.1935 26.3103C39.8385 26.3103 41.4163 25.6568 42.5795 24.4936C43.7429 23.3302 44.3963 21.7525 44.3963 20.1074H45.415C45.4138 22.0223 44.6526 23.8585 43.2986 25.2125C41.9445 26.5666 40.1083 27.3278 38.1935 27.329Z" fill="white"/>
</g>
</g>
<defs>
<clipPath id="clip0_410_22373">
<rect width="230" height="68.5106" fill="white" transform="translate(0.713379 0.292969)"/>
</clipPath>
</defs>
</svg>
