<svg width="38" height="26" viewBox="0 0 38 26" fill="none" xmlns="http://www.w3.org/2000/svg">
<path d="M24.13 25.9163C20.5411 25.9163 17.4903 24.6616 14.9775 22.1522C12.4647 19.6427 11.2083 16.5936 11.2083 13.0047C11.2083 9.41579 12.4631 6.36495 14.9725 3.85218C17.4819 1.3394 20.5311 0.0830078 24.12 0.0830078C27.7089 0.0830078 30.7597 1.33773 33.2725 3.84718C35.7853 6.35662 37.0417 9.40579 37.0417 12.9947C37.0417 16.5836 35.7869 19.6344 33.2775 22.1472C30.7681 24.66 27.7189 25.9163 24.13 25.9163ZM9.54167 25.5188C6.85778 24.6813 4.74236 23.098 3.19542 20.7688C1.64847 18.44 0.875 15.8502 0.875 12.9997C0.875 10.1491 1.64847 7.5594 3.19542 5.23051C4.74236 2.90134 6.85778 1.31801 9.54167 0.480507V3.41634C7.65278 4.2219 6.19444 5.49967 5.16667 7.24967C4.13889 8.99967 3.625 10.9163 3.625 12.9997C3.625 15.083 4.13889 16.9997 5.16667 18.7497C6.19444 20.4997 7.65278 21.7775 9.54167 22.583V25.5188ZM24.135 23.1663C26.9617 23.1663 29.3611 22.1769 31.3333 20.198C33.3056 18.2194 34.2917 15.8166 34.2917 12.9897C34.2917 10.163 33.3022 7.76356 31.3233 5.79134C29.3447 3.81912 26.9419 2.83301 24.115 2.83301C21.2883 2.83301 18.8889 3.82245 16.9167 5.80134C14.9444 7.77995 13.9583 10.1827 13.9583 13.0097C13.9583 15.8363 14.9478 18.2358 16.9267 20.208C18.9053 22.1802 21.3081 23.1663 24.135 23.1663Z" fill="#43B02A"/>
</svg>
