<svg width="62" height="62" viewBox="0 0 62 62" fill="none" xmlns="http://www.w3.org/2000/svg">
<path d="M16.3783 18.8906L26.575 2.23475C26.8606 1.74586 27.2464 1.38253 27.7325 1.14475C28.2181 0.906972 28.7139 0.788086 29.22 0.788086C29.7256 0.788086 30.23 0.903082 30.7333 1.13308C31.2367 1.36308 31.6567 1.73031 31.9933 2.23475L42.135 18.8906C42.4622 19.405 42.6239 19.9592 42.62 20.5531C42.6156 21.1475 42.4678 21.6731 42.1767 22.1298C41.9017 22.6159 41.532 23.002 41.0675 23.2881C40.6031 23.5748 40.0472 23.7181 39.4 23.7181H19.0708C18.4308 23.7181 17.8711 23.5698 17.3917 23.2731C16.9117 22.977 16.5528 22.5959 16.315 22.1298C16.0378 21.6864 15.8972 21.1698 15.8933 20.5798C15.8889 19.9892 16.0506 19.4261 16.3783 18.8906ZM47.9192 61.2131C44.1253 61.2131 40.9311 59.8834 38.3367 57.2239C35.7417 54.5639 34.4442 51.3139 34.4442 47.4739C34.4442 43.6806 35.7417 40.4867 38.3367 37.8923C40.9311 35.2973 44.1253 33.9998 47.9192 33.9998C51.7586 33.9998 55.0083 35.2973 57.6683 37.8923C60.3283 40.4867 61.6583 43.6945 61.6583 47.5156C61.6583 51.3367 60.3283 54.575 57.6683 57.2306C55.0083 59.8856 51.7586 61.2131 47.9192 61.2131ZM0.341675 55.9873V38.7264C0.341675 37.8959 0.649451 37.1689 1.26501 36.5456C1.88056 35.9223 2.63556 35.6106 3.53001 35.6106H20.7908C21.6492 35.6106 22.3831 35.925 22.9925 36.5539C23.6014 37.1828 23.9058 37.9125 23.9058 38.7431V56.0039C23.9058 56.8984 23.5983 57.6506 22.9833 58.2606C22.3683 58.87 21.6317 59.1748 20.7733 59.1748H3.51251C2.61806 59.1748 1.86612 58.867 1.25667 58.2514C0.646674 57.6364 0.341675 56.8817 0.341675 55.9873ZM47.9492 56.9481C50.5514 56.9481 52.7758 56.0456 54.6225 54.2406C56.4697 52.435 57.3933 50.2186 57.3933 47.5914C57.3933 44.9648 56.4689 42.7536 54.62 40.9581C52.7711 39.1625 50.5386 38.2648 47.9225 38.2648C45.3058 38.2648 43.1161 39.1617 41.3533 40.9556C39.5906 42.75 38.7092 44.9648 38.7092 47.5998C38.7092 50.2125 39.5931 52.4239 41.3608 54.2339C43.1281 56.0434 45.3242 56.9481 47.9492 56.9481ZM4.60667 54.9098H19.6408V39.8756H4.60667V54.9098ZM21.0167 19.4531H37.6067L29.235 6.16225L21.0167 19.4531Z" fill="#2D7864"/>
</svg>
