<svg width="70" height="52" viewBox="0 0 70 52" fill="none" xmlns="http://www.w3.org/2000/svg">
<path d="M0.335831 44.6659C0.335831 42.8353 0.771386 41.2895 1.6425 40.0284C2.51416 38.7678 3.75055 37.7634 5.35166 37.0151C8.56889 35.5378 11.6708 34.3712 14.6575 33.5151C17.6442 32.659 21.22 32.2309 25.385 32.2309C29.5433 32.2309 33.1033 32.659 36.065 33.5151C39.0272 34.3712 42.1322 35.5381 45.38 37.0159C46.9206 37.7526 48.1361 38.7526 49.0267 40.0159C49.9178 41.2792 50.3633 42.8278 50.3633 44.6617V47.0192C50.3633 48.1509 49.9517 49.1662 49.1283 50.0651C48.305 50.9634 47.2522 51.4126 45.97 51.4126H4.72833C3.46833 51.4126 2.42111 50.9953 1.58666 50.1609C0.752775 49.3265 0.335831 48.2792 0.335831 47.0192V44.6659ZM65.3183 51.4126H55.4208C55.7242 50.7698 55.9828 50.0842 56.1967 49.3559C56.41 48.627 56.5167 47.8481 56.5167 47.0192V45.1992C56.5167 43.0065 56.0853 40.7859 55.2225 38.5376C54.3592 36.2892 52.8889 34.4392 50.8117 32.9876C53.4117 33.3476 55.8689 33.8559 58.1833 34.5126C60.4983 35.1692 62.6067 35.9745 64.5083 36.9284C66.1094 37.7751 67.3783 38.8776 68.315 40.2359C69.2517 41.5937 69.72 43.0251 69.72 44.5301V47.0192C69.72 48.2792 69.2936 49.3265 68.4408 50.1609C67.5881 50.9953 66.5472 51.4126 65.3183 51.4126ZM25.3567 23.5192C22.1361 23.5192 19.4442 22.4376 17.2808 20.2742C15.1181 18.1115 14.0367 15.429 14.0367 12.2267C14.0367 9.02451 15.1181 6.33979 17.2808 4.17257C19.4442 2.00479 22.1269 0.920898 25.3292 0.920898C28.5314 0.920898 31.2161 2.00257 33.3833 4.1659C35.5511 6.32923 36.635 9.00673 36.635 12.1984C36.635 15.4195 35.5533 18.1115 33.39 20.2742C31.2267 22.4376 28.5489 23.5192 25.3567 23.5192ZM53.235 12.1984C53.235 15.4195 52.1536 18.1115 49.9908 20.2742C47.8281 22.4376 45.1458 23.5192 41.9442 23.5192C41.6125 23.5192 41.2167 23.489 40.7567 23.4284C40.2961 23.3678 39.9214 23.277 39.6325 23.1559C40.7814 21.6526 41.6364 19.979 42.1975 18.1351C42.7581 16.2912 43.0383 14.3223 43.0383 12.2284C43.0383 10.1351 42.7367 8.19784 42.1333 6.41673C41.53 4.63618 40.6964 2.91118 39.6325 1.24173C39.9708 1.1584 40.3547 1.08395 40.7842 1.0184C41.2136 0.953397 41.5975 0.920898 41.9358 0.920898C45.1419 0.920898 47.8267 2.00257 49.99 4.1659C52.1533 6.32923 53.235 9.00673 53.235 12.1984ZM4.60083 47.1476H46.0983V44.6751C46.0983 43.8217 45.9117 43.0892 45.5383 42.4776C45.1656 41.8659 44.4953 41.3178 43.5275 40.8334C40.6231 39.4045 37.7633 38.3245 34.9483 37.5934C32.1339 36.8617 28.9322 36.4959 25.3433 36.4959C21.7539 36.4959 18.5497 36.8617 15.7308 37.5934C12.9119 38.3245 10.0686 39.4045 7.20083 40.8334C6.23361 41.3178 5.55833 41.8659 5.175 42.4776C4.79222 43.0892 4.60083 43.8217 4.60083 44.6751V47.1476ZM25.3225 19.2542C27.2914 19.2542 28.9581 18.5762 30.3225 17.2201C31.6875 15.864 32.37 14.2015 32.37 12.2326C32.37 10.2642 31.6842 8.59784 30.3125 7.2334C28.9408 5.8684 27.2706 5.1859 25.3017 5.1859C23.3333 5.1859 21.6744 5.87173 20.325 7.2434C18.9761 8.61506 18.3017 10.2851 18.3017 12.2534C18.3017 14.2223 18.9797 15.8812 20.3358 17.2301C21.6919 18.5795 23.3542 19.2542 25.3225 19.2542Z" fill="#2D7864"/>
</svg>
