<svg width="34" height="33" viewBox="0 0 34 33" fill="none" xmlns="http://www.w3.org/2000/svg">
<path d="M17.2021 32.2273C15.2468 31.9934 13.3328 31.4766 11.46 30.6769C9.5872 29.8769 7.89275 28.7132 6.37664 27.1857C4.86053 25.6579 3.61525 23.7326 2.64081 21.4098C1.66664 19.087 1.1047 16.288 0.954975 13.0127L0.890808 11.4165L2.46456 11.4806C3.7915 11.5448 5.23914 11.789 6.80748 12.2132C8.37609 12.637 9.78637 13.2112 11.0383 13.9356C11.3183 11.6237 12.0016 9.22204 13.0883 6.73065C14.1747 4.23926 15.4786 2.11746 17 0.365234C18.5214 2.11746 19.8253 4.24996 20.9116 6.76273C21.9983 9.27551 22.6816 11.6879 22.9616 13.9998C24.1775 13.2562 25.5551 12.6665 27.0946 12.2306C28.634 11.7948 30.1068 11.5448 31.5129 11.4806L33.1508 11.4165L33.0866 13.0352C33.0011 16.0844 32.5251 18.7248 31.6587 20.9565C30.7923 23.1884 29.6439 25.0779 28.2133 26.6248C26.7828 28.1718 25.1219 29.3929 23.2308 30.2882C21.3397 31.1834 19.3301 31.8298 17.2021 32.2273ZM17.1408 29.4165C16.8353 24.6943 15.4464 21.1318 12.9741 18.729C10.5019 16.3262 7.41859 14.847 3.72414 14.2915C4.03553 19.1348 5.47206 22.7461 8.03373 25.1252C10.5954 27.5047 13.6311 28.9351 17.1408 29.4165ZM17 19.4711C17.4016 18.83 17.8958 18.1573 18.4825 17.4532C19.0689 16.7493 19.6719 16.1398 20.2916 15.6248C20.2511 13.9132 19.9461 12.1615 19.3766 10.3698C18.8072 8.57815 18.015 6.83093 17 5.12815C15.985 6.80315 15.1928 8.54343 14.6233 10.349C14.0539 12.1545 13.735 13.9132 13.6666 15.6248C14.295 16.1104 14.9034 16.7125 15.4921 17.4311C16.0807 18.15 16.5833 18.83 17 19.4711ZM19.8908 28.734C21.0575 28.3493 22.2253 27.8155 23.3941 27.1327C24.563 26.4502 25.6351 25.5373 26.6104 24.394C27.586 23.2509 28.4114 21.8605 29.0866 20.2227C29.7616 18.5847 30.1719 16.6076 30.3175 14.2915C27.6208 14.6804 25.2361 15.5869 23.1633 17.0111C21.0908 18.4352 19.5353 20.2423 18.4966 22.4323C18.83 23.3212 19.111 24.2812 19.3396 25.3123C19.5682 26.3434 19.7519 27.484 19.8908 28.734Z" fill="#43B02A"/>
</svg>
