<svg width="57" height="54" viewBox="0 0 57 54" fill="none" xmlns="http://www.w3.org/2000/svg">
<path d="M3.66677 43.6673V50.334V3.66732V43.6673ZM5.71843 53.6673C4.22677 53.6673 2.95621 53.1429 1.90677 52.094C0.85788 51.0445 0.333435 49.774 0.333435 48.2823V5.71898C0.333435 4.22732 0.85788 2.95676 1.90677 1.90732C2.95621 0.858429 4.22677 0.333984 5.71843 0.333984H48.2818C49.7734 0.333984 51.044 0.858429 52.0934 1.90732C53.1423 2.95676 53.6668 4.22732 53.6668 5.71898V15.5265H50.3334V5.71898C50.3334 5.12065 50.1412 4.62898 49.7568 4.24398C49.3718 3.85954 48.8801 3.66732 48.2818 3.66732H5.71843C5.1201 3.66732 4.62843 3.85954 4.24343 4.24398C3.85899 4.62898 3.66677 5.12065 3.66677 5.71898V48.2823C3.66677 48.8807 3.85899 49.3723 4.24343 49.7573C4.62843 50.1418 5.1201 50.334 5.71843 50.334H48.2818C48.8801 50.334 49.3718 50.1418 49.7568 49.7573C50.1412 49.3723 50.3334 48.8807 50.3334 48.2823V38.4748H53.6668V48.2823C53.6668 49.774 53.1423 51.0445 52.0934 52.094C51.044 53.1429 49.7734 53.6673 48.2818 53.6673H5.71843ZM32.3851 40.334C30.8934 40.334 29.6229 39.8095 28.5734 38.7607C27.5245 37.7112 27.0001 36.4407 27.0001 34.949V19.0523C27.0001 17.5607 27.5245 16.2901 28.5734 15.2407C29.6229 14.1918 30.8934 13.6673 32.3851 13.6673H51.6151C53.1068 13.6673 54.3773 14.1918 55.4268 15.2407C56.4757 16.2901 57.0001 17.5607 57.0001 19.0523V34.949C57.0001 36.4407 56.4757 37.7112 55.4268 38.7607C54.3773 39.8095 53.1068 40.334 51.6151 40.334H32.3851ZM51.6151 37.0007C52.2134 37.0007 52.7051 36.8084 53.0901 36.424C53.4745 36.039 53.6668 35.5473 53.6668 34.949V19.0523C53.6668 18.454 53.4745 17.9623 53.0901 17.5773C52.7051 17.1929 52.2134 17.0007 51.6151 17.0007H32.3851C31.7868 17.0007 31.2951 17.1929 30.9101 17.5773C30.5257 17.9623 30.3334 18.454 30.3334 19.0523V34.949C30.3334 35.5473 30.5257 36.039 30.9101 36.424C31.2951 36.8084 31.7868 37.0007 32.3851 37.0007H51.6151ZM40.3334 32.0007C41.7223 32.0007 42.9029 31.5145 43.8751 30.5423C44.8473 29.5701 45.3334 28.3895 45.3334 27.0007C45.3334 25.6118 44.8473 24.4312 43.8751 23.459C42.9029 22.4868 41.7223 22.0007 40.3334 22.0007C38.9445 22.0007 37.764 22.4868 36.7918 23.459C35.8195 24.4312 35.3334 25.6118 35.3334 27.0007C35.3334 28.3895 35.8195 29.5701 36.7918 30.5423C37.764 31.5145 38.9445 32.0007 40.3334 32.0007Z" fill="#2D7864"/>
</svg>
