<svg width="36" height="26" viewBox="0 0 36 26" fill="none" xmlns="http://www.w3.org/2000/svg">
<path d="M20.5712 13.4962C19.6229 13.4962 18.8253 13.1729 18.1783 12.5262C17.5317 11.8795 17.2083 11.082 17.2083 10.1337C17.2083 9.18536 17.5329 8.39759 18.1821 7.77036C18.8312 7.14314 19.6317 6.82953 20.5833 6.82953C21.5119 6.82953 22.2928 7.14606 22.9258 7.77912C23.5586 8.41189 23.875 9.19259 23.875 10.1212C23.875 11.0731 23.5614 11.8736 22.9342 12.5224C22.3072 13.1716 21.5196 13.4962 20.5712 13.4962ZM9.84625 20.0254C8.77236 20.0254 7.87458 19.6644 7.15291 18.9424C6.43125 18.2208 6.07041 17.3231 6.07041 16.2495V4.07661C6.07041 3.00273 6.43125 2.10495 7.15291 1.38328C7.87458 0.661616 8.77236 0.300781 9.84625 0.300781H31.3204C32.3943 0.300781 33.2921 0.661616 34.0137 1.38328C34.7354 2.10495 35.0962 3.00273 35.0962 4.07661V16.2495C35.0962 17.3231 34.7354 18.2208 34.0137 18.9424C33.2921 19.6644 32.3943 20.0254 31.3204 20.0254H9.84625ZM12.0129 17.2754H29.1537C29.1537 16.3906 29.4664 15.6373 30.0917 15.0154C30.7167 14.3937 31.4682 14.0829 32.3462 14.0829V6.24328C31.4615 6.24328 30.7083 5.93064 30.0867 5.30537C29.4647 4.68009 29.1537 3.92856 29.1537 3.05078H12.0129C12.0129 3.9355 11.7003 4.6887 11.075 5.31037C10.45 5.93231 9.69847 6.24328 8.82041 6.24328V14.0829C9.70514 14.0829 10.4583 14.3955 11.08 15.0208C11.7019 15.6458 12.0129 16.3973 12.0129 17.2754ZM29.9937 25.1087H4.67958C3.60569 25.1087 2.70791 24.7477 1.98625 24.0258C1.26458 23.3041 0.903748 22.4065 0.903748 21.3329V5.31995H3.65375V21.3329C3.65375 21.5893 3.76055 21.8243 3.97416 22.0379C4.18805 22.2518 4.42319 22.3587 4.67958 22.3587H29.9937V25.1087ZM9.84625 17.2754H8.82041V3.05078H9.84625C9.56847 3.05078 9.32805 3.15231 9.125 3.35536C8.92194 3.55842 8.82041 3.79884 8.82041 4.07661V16.2495C8.82041 16.5273 8.92194 16.7677 9.125 16.9708C9.32805 17.1738 9.56847 17.2754 9.84625 17.2754Z" fill="#43B02A"/>
</svg>
