<svg width="22" height="29" viewBox="0 0 22 29" fill="none" xmlns="http://www.w3.org/2000/svg">
<path d="M11 28.8753C8.08112 28.8753 5.59445 27.848 3.54001 25.7936C1.48557 23.7391 0.458344 21.2525 0.458344 18.3336C0.458344 16.1541 1.06571 14.1755 2.28043 12.3978C3.49515 10.62 5.13029 9.33359 7.18584 8.53859C5.60251 8.00442 4.41668 6.99804 3.62834 5.51943C2.83973 4.04081 2.45612 2.4372 2.47751 0.708592C2.64862 0.601647 2.76237 0.546092 2.81876 0.541925C2.87543 0.537758 2.86432 0.524981 2.78543 0.503592C2.76404 0.582481 2.73945 0.588314 2.71168 0.521092C2.6839 0.45387 2.72334 0.313314 2.83001 0.0994253C4.94112 0.0355364 6.80543 0.623175 8.42293 1.86234C10.0404 3.10179 10.9775 4.73859 11.2342 6.77276C11.6017 5.9822 12.0124 5.22095 12.4663 4.48901C12.9204 3.75706 13.467 3.07165 14.1058 2.43276C14.3728 2.16581 14.6735 2.01845 15.0079 1.99068C15.3424 1.9629 15.6571 2.06859 15.9521 2.30776C16.2746 2.57498 16.4428 2.91054 16.4567 3.31442C16.4706 3.71831 16.3301 4.06762 16.0354 4.36234C15.4735 4.92429 14.9947 5.52581 14.5992 6.16692C14.2039 6.80804 13.8493 7.49929 13.5354 8.24068C15.8965 8.75123 17.8211 9.95054 19.3092 11.8386C20.7975 13.7264 21.5417 15.8914 21.5417 18.3336C21.5417 21.2525 20.5145 23.7391 18.46 25.7936C16.4056 27.848 13.9189 28.8753 11 28.8753ZM11 26.1253C13.1667 26.1253 15.007 25.3683 16.5208 23.8544C18.0347 22.3405 18.7917 20.5003 18.7917 18.3336C18.7917 16.1669 18.0347 14.3266 16.5208 12.8128C15.007 11.2989 13.1667 10.5419 11 10.5419C8.83334 10.5419 6.99307 11.2989 5.47918 12.8128C3.96529 14.3266 3.20834 16.1669 3.20834 18.3336C3.20834 20.5003 3.96529 22.3405 5.47918 23.8544C6.99307 25.3683 8.83334 26.1253 11 26.1253Z" fill="#43B02A"/>
</svg>
