<svg width="64" height="63" viewBox="0 0 64 63" fill="none" xmlns="http://www.w3.org/2000/svg">
<path d="M26.6583 36.336L4.4875 45.2527C3.41306 45.6882 2.43361 45.5924 1.54917 44.9652C0.664726 44.3379 0.222504 43.4646 0.222504 42.3452V41.0377C0.222504 40.491 0.333059 39.9957 0.554171 39.5518C0.775837 39.1079 1.10556 38.7568 1.54334 38.4985L26.6583 20.8227V5.56433C26.6583 4.07821 27.1764 2.81654 28.2125 1.77932C29.2492 0.741545 30.5097 0.222656 31.9942 0.222656C33.4781 0.222656 34.7542 0.741545 35.8225 1.77932C36.8908 2.81654 37.425 4.07821 37.425 5.56433V20.8227L62.5275 38.4918C62.937 38.7546 63.2614 39.1074 63.5008 39.5502C63.7408 39.9929 63.8608 40.4871 63.8608 41.0327V42.3377C63.8608 43.456 63.4139 44.3304 62.52 44.961C61.6261 45.591 60.6514 45.6882 59.5958 45.2527L37.425 36.336L37.3417 50.6943L46.1983 56.9785C46.5378 57.1879 46.82 57.4754 47.045 57.841C47.27 58.2071 47.3825 58.6021 47.3825 59.026V60.391C47.3825 61.2693 47.0425 61.961 46.3625 62.466C45.6819 62.9704 44.9436 63.0871 44.1475 62.816L32 59.0985L19.8525 62.816C19.0564 63.0871 18.3344 62.9704 17.6867 62.466C17.0394 61.961 16.7158 61.2693 16.7158 60.391V59.0068C16.7158 58.6018 16.8119 58.2154 17.0042 57.8477C17.1964 57.4793 17.4622 57.1896 17.8017 56.9785L26.6583 50.6943V36.336Z" fill="#2D7864"/>
</svg>
