<svg width="64" height="50" viewBox="0 0 64 50" fill="none" xmlns="http://www.w3.org/2000/svg">
<path d="M9.98749 37.577L17.455 45.0453C17.9894 45.5792 18.2672 46.2222 18.2883 46.9745C18.31 47.7267 18.0322 48.3978 17.455 48.9878C16.8655 49.5772 16.2192 49.872 15.5158 49.872C14.813 49.872 14.1667 49.5772 13.5767 48.9878L2.05166 37.5453C1.64944 37.1436 1.34805 36.7217 1.14749 36.2795C0.94638 35.8367 0.845825 35.3525 0.845825 34.827C0.845825 34.3014 0.94638 33.8175 1.14749 33.3753C1.34805 32.9331 1.64944 32.5111 2.05166 32.1095L13.5125 20.7311C14.0597 20.1839 14.7061 19.9028 15.4517 19.8878C16.1978 19.8728 16.8655 20.1603 17.455 20.7503C18.0322 21.3403 18.3239 21.9833 18.33 22.6795C18.3367 23.3761 18.045 24.0195 17.455 24.6095L9.98749 32.077H30.7758C31.528 32.077 32.1744 32.3472 32.715 32.8878C33.2555 33.4283 33.5258 34.0747 33.5258 34.827C33.5258 35.5792 33.2555 36.2256 32.715 36.7661C32.1744 37.3067 31.528 37.577 30.7758 37.577H9.98749ZM54.0125 17.8595H33.2242C32.4719 17.8595 31.8256 17.5892 31.285 17.0486C30.7444 16.5081 30.4742 15.8617 30.4742 15.1095C30.4742 14.3572 30.7444 13.7108 31.285 13.1703C31.8256 12.6297 32.4719 12.3595 33.2242 12.3595H54.0125L46.545 4.89112C46.0105 4.35723 45.7328 3.71417 45.7117 2.96195C45.69 2.20973 45.9678 1.53862 46.545 0.948619C47.1344 0.359174 47.7808 0.0644531 48.4842 0.0644531C49.1869 0.0644531 49.8333 0.359174 50.4233 0.948619L61.9483 12.3911C62.3505 12.7928 62.6519 13.2147 62.8525 13.657C63.0536 14.0997 63.1542 14.5839 63.1542 15.1095C63.1542 15.635 63.0536 16.1189 62.8525 16.5611C62.6519 17.0033 62.3505 17.4253 61.9483 17.827L50.4875 29.2053C49.9403 29.7525 49.2939 30.0336 48.5483 30.0486C47.8022 30.0636 47.1344 29.7761 46.545 29.1861C45.9678 28.5967 45.6761 27.9536 45.67 27.257C45.6633 26.5603 45.955 25.917 46.545 25.327L54.0125 17.8595Z" fill="#399624"/>
</svg>
