<svg width="52" height="64" viewBox="0 0 52 64" fill="none" xmlns="http://www.w3.org/2000/svg">
<path d="M2.96583 63.7777C2.37749 63.7777 1.88416 63.5638 1.48583 63.136C1.08805 62.7088 0.88916 62.2024 0.88916 61.6168C0.88916 61.0313 1.09833 60.5388 1.51666 60.1393C1.93499 59.7404 2.44583 59.541 3.04916 59.541H49.0342C49.6225 59.541 50.1158 59.7427 50.5142 60.146C50.9119 60.5493 51.1108 61.0493 51.1108 61.646C51.1108 62.2427 50.9019 62.7471 50.4842 63.1593C50.0664 63.5715 49.5739 63.7777 49.0067 63.7777H2.96583ZM25.9175 47.836C25.5047 47.836 25.0608 47.7413 24.5858 47.5518C24.1114 47.3624 23.7444 47.0596 23.485 46.6435L8.45499 27.0793C7.5961 26.031 7.45694 24.9204 8.03749 23.7477C8.61861 22.5754 9.57971 21.9893 10.9208 21.9893H16.6583V3.35266C16.6583 2.49488 16.9658 1.75877 17.5808 1.14432C18.1958 0.529878 18.9503 0.222656 19.8442 0.222656H32.1217C32.9517 0.222656 33.6808 0.529878 34.3092 1.14432C34.9381 1.75877 35.2525 2.49488 35.2525 3.35266V21.9893H41.015C42.3094 21.9893 43.2567 22.5754 43.8567 23.7477C44.4567 24.9204 44.3456 26.031 43.5233 27.0793L28.3742 46.6435C28.0675 47.0596 27.6847 47.3624 27.2258 47.5518C26.7669 47.7413 26.3308 47.836 25.9175 47.836ZM25.9233 42.936L38.395 26.7227H30.9875V4.40432H20.9233V26.7227H13.5558L25.9233 42.936Z" fill="#2D7864"/>
</svg>
