<svg width="34" height="34" viewBox="0 0 34 34" fill="none" xmlns="http://www.w3.org/2000/svg">
<path d="M15.7242 28.6095H18.1925V26.5707C19.5555 26.3316 20.7574 25.8188 21.7979 25.0324C22.8387 24.246 23.3592 23.0142 23.3592 21.337C23.3592 20.1125 23.0183 19.0473 22.3367 18.1412C21.655 17.2353 20.2864 16.4213 18.2308 15.6991C16.4208 15.058 15.2258 14.5227 14.6458 14.0932C14.0658 13.6635 13.7758 13.0492 13.7758 12.2503C13.7758 11.4831 14.0728 10.8512 14.6667 10.3545C15.2605 9.85783 16.0661 9.60949 17.0833 9.60949C17.9572 9.60949 18.6554 9.82421 19.1779 10.2537C19.7004 10.6831 20.109 11.2098 20.4037 11.8337L22.6858 10.9299C22.3503 10.0174 21.784 9.22144 20.9871 8.54199C20.1901 7.86255 19.2864 7.49019 18.2758 7.42491V5.39116H15.8075V7.42991C14.3547 7.69908 13.2415 8.28935 12.4679 9.20074C11.6943 10.1121 11.3075 11.1287 11.3075 12.2503C11.3075 13.5323 11.698 14.575 12.4792 15.3787C13.2603 16.182 14.5172 16.8935 16.25 17.5132C18.0428 18.1735 19.2751 18.7542 19.9471 19.2553C20.619 19.7567 20.955 20.4495 20.955 21.3337C20.955 22.3923 20.5758 23.1527 19.8175 23.6149C19.0589 24.0769 18.1969 24.3078 17.2317 24.3078C16.288 24.3078 15.4361 24.0216 14.6758 23.4491C13.9155 22.8763 13.3462 22.0323 12.9679 20.917L10.6667 21.8016C11.0855 23.1094 11.7218 24.1446 12.5754 24.9074C13.429 25.6702 14.4786 26.1903 15.7242 26.4678V28.6095ZM17 33.3337C14.745 33.3337 12.624 32.9039 10.6371 32.0445C8.65013 31.1848 6.92138 30.0198 5.45082 28.5495C3.98055 27.0789 2.81555 25.3502 1.95582 23.3632C1.09638 21.3763 0.666656 19.2553 0.666656 17.0003C0.666656 14.7384 1.09721 12.6107 1.95832 10.6174C2.81943 8.62408 3.98666 6.88991 5.45999 5.41491C6.93332 3.93991 8.66207 2.77977 10.6462 1.93449C12.6304 1.08949 14.7483 0.666992 17 0.666992C19.2617 0.666992 21.389 1.08949 23.3821 1.93449C25.3751 2.77977 27.1094 3.94005 28.585 5.41533C30.0603 6.89088 31.2205 8.62546 32.0658 10.6191C32.9108 12.613 33.3333 14.7412 33.3333 17.0037C33.3333 19.2664 32.9108 21.3866 32.0658 23.3641C31.2205 25.3416 30.0604 27.067 28.5854 28.5403C27.1104 30.0137 25.3762 31.1809 23.3829 32.042C21.3896 32.9031 19.2619 33.3337 17 33.3337ZM17 30.5837C20.7919 30.5837 24.0039 29.2678 26.6358 26.6362C29.2675 24.0042 30.5833 20.7923 30.5833 17.0003C30.5833 13.2084 29.2675 9.99644 26.6358 7.36449C24.0039 4.73283 20.7919 3.41699 17 3.41699C13.208 3.41699 9.9961 4.73283 7.36416 7.36449C4.73249 9.99644 3.41666 13.2084 3.41666 17.0003C3.41666 20.7923 4.73249 24.0042 7.36416 26.6362C9.9961 29.2678 13.208 30.5837 17 30.5837Z" fill="#43B02A"/>
</svg>
