<svg width="60" height="48" viewBox="0 0 60 48" fill="none" xmlns="http://www.w3.org/2000/svg">
<path d="M60 6.05101V41.9477C60 43.4821 59.4861 44.7632 58.4583 45.791C57.4306 46.8188 56.1494 47.3327 54.615 47.3327H5.385C3.85056 47.3327 2.56944 46.8188 1.54167 45.791C0.513889 44.7632 0 43.4821 0 41.9477V6.05101C0 4.51657 0.513889 3.23546 1.54167 2.20768C2.56944 1.1799 3.85056 0.666016 5.385 0.666016H54.615C56.1494 0.666016 57.4306 1.1799 58.4583 2.20768C59.4861 3.23546 60 4.51657 60 6.05101ZM3.33333 13.3585H56.6667V6.05101C56.6667 5.53768 56.4531 5.0674 56.0258 4.64018C55.5986 4.21296 55.1283 3.99935 54.615 3.99935H5.385C4.87167 3.99935 4.40139 4.21296 3.97417 4.64018C3.54694 5.0674 3.33333 5.53768 3.33333 6.05101V13.3585ZM3.33333 21.3068V41.9477C3.33333 42.461 3.54694 42.9313 3.97417 43.3585C4.40139 43.7857 4.87167 43.9993 5.385 43.9993H54.615C55.1283 43.9993 55.5986 43.7857 56.0258 43.3585C56.4531 42.9313 56.6667 42.461 56.6667 41.9477V21.3068H3.33333Z" fill="#2D7864"/>
</svg>
