<svg width="52" height="64" viewBox="0 0 52 64" fill="none" xmlns="http://www.w3.org/2000/svg">
<path d="M7.20499 63.7777C5.4661 63.7777 3.9786 63.1599 2.74249 61.9243C1.50694 60.6882 0.88916 59.2007 0.88916 57.4618V20.2052C0.88916 18.4663 1.50694 16.9788 2.74249 15.7427C3.9786 14.5071 5.4661 13.8893 7.20499 13.8893H13.895V11.966C13.895 8.63266 15.068 5.8421 17.4142 3.59432C19.7603 1.34655 22.6208 0.222656 25.9958 0.222656C29.3708 0.222656 32.2419 1.34655 34.6092 3.59432C36.9764 5.8421 38.16 8.63266 38.16 11.966V13.8893H44.795C46.5339 13.8893 48.0214 14.5071 49.2575 15.7427C50.493 16.9788 51.1108 18.4663 51.1108 20.2052V57.4618C51.1108 59.2007 50.493 60.6882 49.2575 61.9243C48.0214 63.1599 46.5339 63.7777 44.795 63.7777H7.20499ZM7.20499 59.5127H44.795C45.3078 59.5127 45.7778 59.299 46.205 58.8718C46.6322 58.4446 46.8458 57.9746 46.8458 57.4618V20.2052C46.8458 19.6924 46.6322 19.2224 46.205 18.7952C45.7778 18.3679 45.3078 18.1543 44.795 18.1543H38.16V25.9935C38.16 26.599 37.9453 27.1104 37.5158 27.5277C37.0864 27.9454 36.5775 28.1543 35.9892 28.1543C35.4169 28.1543 34.925 27.9454 34.5133 27.5277C34.1011 27.1104 33.895 26.599 33.895 25.9935V18.1543H18.16V25.9935C18.16 26.599 17.9453 27.1104 17.5158 27.5277C17.0864 27.9454 16.5775 28.1543 15.9892 28.1543C15.4169 28.1543 14.925 27.9454 14.5133 27.5277C14.1011 27.1104 13.895 26.599 13.895 25.9935V18.1543H7.20499C6.69222 18.1543 6.22222 18.3679 5.79499 18.7952C5.36777 19.2224 5.15416 19.6924 5.15416 20.2052V57.4618C5.15416 57.9746 5.36777 58.4446 5.79499 58.8718C6.22222 59.299 6.69222 59.5127 7.20499 59.5127ZM18.16 13.8893H33.895V11.966C33.895 9.82655 33.1267 8.04516 31.59 6.62183C30.0528 5.19905 28.188 4.48766 25.9958 4.48766C23.8036 4.48766 21.9497 5.19905 20.4342 6.62183C18.918 8.04516 18.16 9.82655 18.16 11.966V13.8893Z" fill="#2D7864"/>
</svg>
