<svg width="68" height="49" viewBox="0 0 68 49" fill="none" xmlns="http://www.w3.org/2000/svg">
<path d="M38.59 26.6177C36.7045 26.6177 35.1186 25.9749 33.8325 24.6894C32.547 23.4033 31.9042 21.8174 31.9042 19.9319C31.9042 18.0458 32.5478 16.4663 33.835 15.1935C35.1222 13.9208 36.71 13.2844 38.5983 13.2844C40.4711 13.2844 42.0458 13.9227 43.3225 15.1994C44.5992 16.476 45.2375 18.0508 45.2375 19.9235C45.2375 21.8113 44.6011 23.3991 43.3283 24.6869C42.0556 25.9741 40.4761 26.6177 38.59 26.6177ZM16.3758 39.4102C14.6136 39.4102 13.1206 38.7983 11.8967 37.5744C10.6722 36.3499 10.06 34.8566 10.06 33.0944V6.86354C10.06 5.10132 10.6722 3.60798 11.8967 2.38354C13.1206 1.1591 14.6136 0.546875 16.3758 0.546875H60.8208C62.5825 0.546875 64.0756 1.1591 65.3 2.38354C66.5245 3.60798 67.1367 5.10132 67.1367 6.86354V33.0944C67.1367 34.8566 66.5245 36.3499 65.3 37.5744C64.0756 38.7983 62.5825 39.4102 60.8208 39.4102H16.3758ZM20.8892 35.1452H56.3075C56.3075 33.3535 56.957 31.8116 58.2558 30.5194C59.5547 29.2272 61.0933 28.581 62.8717 28.581V11.376C61.08 11.376 59.5381 10.7269 58.2458 9.42854C56.9536 8.12965 56.3075 6.59076 56.3075 4.81187H20.8892C20.8892 6.6041 20.2397 8.14632 18.9408 9.43854C17.642 10.7302 16.1033 11.376 14.325 11.376V28.581C16.1167 28.581 17.6586 29.2305 18.9508 30.5294C20.2431 31.8283 20.8892 33.3669 20.8892 35.1452ZM54.9383 48.496H7.17918C5.41751 48.496 3.92445 47.8838 2.70001 46.6594C1.47556 45.4349 0.863342 43.9416 0.863342 42.1794V12.6352C0.863342 12.068 1.07723 11.5752 1.50501 11.1569C1.93279 10.7391 2.43723 10.5302 3.01834 10.5302C3.60001 10.5302 4.09723 10.7391 4.51001 11.1569C4.92223 11.5752 5.12834 12.068 5.12834 12.6352V42.1794C5.12834 42.6927 5.34195 43.163 5.76918 43.5902C6.1964 44.0174 6.6664 44.231 7.17918 44.231H54.9383C55.5056 44.231 55.9981 44.4416 56.4158 44.8627C56.8336 45.2833 57.0425 45.7844 57.0425 46.366C57.0425 46.9477 56.8336 47.448 56.4158 47.8669C55.9981 48.2863 55.5056 48.496 54.9383 48.496ZM16.3758 35.1452H14.325V4.81187H16.3758C15.8203 4.81187 15.3395 5.01493 14.9333 5.42104C14.5278 5.82715 14.325 6.30799 14.325 6.86354V33.0944C14.325 33.6499 14.5278 34.1308 14.9333 34.5369C15.3395 34.9424 15.8203 35.1452 16.3758 35.1452Z" fill="#2D7864"/>
</svg>
